<?xml version="1.0" encoding="utf-8"?>
<!-- Generator: Adobe Illustrator 21.0.0, SVG Export Plug-In . SVG Version: 6.00 Build 0)  -->
<svg version="1.1" id="Layer_1" xmlns="http://www.w3.org/2000/svg" xmlns:xlink="http://www.w3.org/1999/xlink" x="0px" y="0px"
	 viewBox="0 0 1613.5 823.9" style="enable-background:new 0 0 1613.5 823.9;" xml:space="preserve">
<style type="text/css">
	.st0{fill:#F8F9FA;}
	.st1{fill:#9FAEC2;}
	.st2{fill:#D7E4F1;}
	.st3{fill:#DCDDF8;}
	.st4{fill:#DCDEF8;}
	.st5{fill:#DCDCF9;}
	.st6{fill:#DBDDF9;}
	.st7{fill:#DCDEF6;}
	.st8{fill:#B4BAF2;}
	.st9{fill:#B3B9F0;}
	.st10{fill:#B5BCEE;}
	.st11{fill:#B2B8EF;}
	.st12{fill:#B2B9EC;}
	.st13{fill:#AFB4EF;}
	.st14{fill:#B2B8F0;}
	.st15{fill:#B2B8F1;}
	.st16{fill:#B3B9EF;}
	.st17{fill:#BFC5F2;}
	.st18{fill:#BFC3F4;}
	.st19{fill:#B6B9F0;}
	.st20{fill:#AFB5F0;}
	.st21{fill:#AEB5EF;}
	.st22{fill:#AFB5EF;}
	.st23{fill:#B1B6F0;}
	.st24{fill:#B1B7F0;}
	.st25{fill:#BFC5F5;}
	.st26{fill:#BFC3F3;}
	.st27{fill:#BEC4F5;}
	.st28{fill:#ACB2EC;}
	.st29{fill:#AFB1F0;}
	.st30{fill:#B3BAEC;}
	.st31{fill:#B0B6F0;}
	.st32{fill:#C0C4F1;}
	.st33{fill:#AFB5F2;}
	.st34{fill:#B5B9F0;}
	.st35{fill:#AFB6F0;}
	.st36{fill:#C1C6F4;}
	.st37{fill:#AEB0EF;}
	.st38{fill:#ABB2EF;}
	.st39{fill:#AFB5EC;}
	.st40{fill:#AFB6F1;}
	.st41{fill:#C0C5F2;}
	.st42{fill:#BFC4F3;}
	.st43{fill:#BCC2F4;}
	.st44{fill:#B6B8F0;}
	.st45{fill:#B0B6F1;}
	.st46{fill:#BCC3F1;}
	.st47{fill:#B4B9F0;}
	.st48{fill:#B6BBF1;}
	.st49{fill:#B2B5EF;}
	.st50{fill:#B4B8F0;}
	.st51{fill:#BEC4F4;}
	.st52{fill:#B7C0EF;}
	.st53{fill:#B0B4EE;}
	.st54{fill:#BDC2F3;}
	.st55{fill:#BEC2F2;}
	.st56{fill:#BCC3F3;}
	.st57{fill:#C2C4F4;}
	.st58{fill:#BEC3F2;}
	.st59{fill:#BDC3F1;}
	.st60{fill:#AEB4F1;}
	.st61{fill:#AFB6F3;}
	.st62{fill:#AFB5F1;}
	.st63{fill:#B1B4EF;}
	.st64{fill:#BDC4F1;}
	.st65{fill:#AEB5F0;}
	.st66{fill:#BDC2F4;}
	.st67{fill:#C0C3F5;}
	.st68{fill:#BFC1F4;}
	.st69{fill:#BFC7F5;}
	.st70{fill:#BEC3F0;}
	.st71{fill:#B2B9ED;}
	.st72{fill:#B0B5F0;}
	.st73{fill:#C0C6F3;}
	.st74{fill:#BFC4F5;}
	.st75{fill:#BFC2F4;}
	.st76{fill:#B1B8F2;}
	.st77{fill:#ADB4EF;}
	.st78{fill:#BDC5F4;}
	.st79{fill:#BFC6F4;}
	.st80{fill:#AEB6F1;}
	.st81{fill:#AFB6EB;}
	.st82{fill:#BFC3F2;}
	.st83{fill:#BDC4F2;}
	.st84{fill:#AEB5F2;}
	.st85{fill:#C0C5F1;}
	.st86{fill:#C0C4F3;}
	.st87{fill:#AEB5ED;}
	.st88{fill:#BDC3F2;}
	.st89{fill:#BFC4F2;}
	.st90{fill:#B0B7F0;}
	.st91{fill:#C1C3F4;}
	.st92{fill:#BFC5F3;}
	.st93{fill:#AAB1EF;}
	.st94{fill:#B8BFF3;}
	.st95{fill:#ADB3F0;}
	.st96{fill:#B0B3F0;}
	.st97{fill:#ACB2EE;}
	.st98{fill:#AFB4EC;}
	.st99{fill:#AEB5F1;}
	.st100{fill:#ABB0EE;}
	.st101{fill:#ADB3ED;}
	.st102{fill:#ADB4F0;}
	.st103{fill:#B8BDF2;}
	.st104{fill:#AEB4EF;}
	.st105{fill:#B0B7F2;}
	.st106{fill:#BDC3F3;}
	.st107{fill:#BABEF2;}
	.st108{fill:#C1C6F2;}
	.st109{fill:#BCC1F4;}
	.st110{fill:#B9BDEF;}
	.st111{fill:#BBC2F3;}
	.st112{fill:#BAC0F3;}
	.st113{fill:#BBC2F2;}
	.st114{fill:#BFC2F0;}
	.st115{fill:#ACB2EF;}
	.st116{fill:#CACCF8;}
	.st117{fill:#F5F6FA;}
	.st118{opacity:0.58;enable-background:new    ;}
	.st119{fill:none;stroke:#DCDDF8;stroke-width:5;stroke-miterlimit:10;}
</style>
<path class="st0" d="M1612.5,827.9c-3.1-4.5-7.7-6.2-13.7-5.6c-3.1,0.2-6.3,0-9.3,0c-524.1,0-1048.2,0-1572.4-0.1
	c-5.8,0-12.1,1.3-17.4-2.3v-640h-1.2V-4h265.9v1.6c445.5,0,891.1,0,1336.7,0c4.4,0,8.9-1,12.9,1.3c0,274.3,0,548.6-0.1,823
	C1613.9,823.9,1615.7,826.4,1612.5,827.9z"/>
<path class="st1" d="M1.8-6.5c0.4-0.3-0.7-1.3,0.8-1.3c2.1,0.1,4.1,0,6.3,0c532.6,0,1065,0,1597.6,0.1c2.2,0,5.3-1.5,7.1,1.2
	c-3.2,1.3-6.6,0.6-10,0.6C1132.1-5.8,660.7-6,189.3-5.5C144.1-5.5,98.9-4.3,53.7-5C36.5-5.1,19-4.9,1.8-6.5z"/>
<path class="st2" d="M1.8-6.5c537.2,0,1074.5,0,1611.6,0c0,0.4,0,0.9,0,1.3c-479,0-957.9,0-1436.9,0c-2.1,2-5.1,2-7.9,2.1
	c-10.9,0.1-21.8,0.3-32.7-0.1c-17.7,0.4-35.4,0.4-53.1,0C71.5-2.6,60.2-3,48.7-3c-2.8,0-5.8-0.1-7.9-2.1c-13,0-26,0-38.9,0
	C1.8-5.5,1.8-6.1,1.8-6.5z"/>
<path class="st3" d="M476.1,593.9c0-4.8,0.1-9.5,0-14.4c-0.1-3.2,1.3-4.7,5.3-4.7c11.7,0.1,23.4,0.1,34.9,0c3.7,0,5.1,1.3,5,4.3
	c-0.1,10.2-0.1,20.5,0,30.7c0,3-1.3,4.4-5,4.3c-11.7-0.1-23.4-0.1-34.9,0c-4.1,0-5.5-1.4-5.4-4.7C476.2,604.3,476.1,599,476.1,593.9
	z"/>
<path class="st4" d="M1438.7,158.4c8.6,14.6,16.3,27.3,23.8,40.2c1.9,3.2,0.1,4.4-3.7,4.4c-13.5,0-27,0-40.5,0
	c-3.8,0-5.5-1.1-3.7-4.3C1422.4,185.8,1430.1,173,1438.7,158.4z"/>
<path class="st5" d="M399,186c-5.3-0.4-8.6-2.7-11.1-6.4c-5.2-7.9-9.4-7.9-15.6-0.3c-7.9,9.7-15.2,9.4-21.6-0.8
	c-1.7-2.6-3.2-5-7-5.7c-1.9-0.3-3.5-1.3-2.7-3.2c0.7-1.7,2.7-2,4.6-1.7c4.4,0.6,7.2,2.9,9.4,6.2c5.2,7.9,7.1,7.9,13,0.8
	c8-9.8,14-10,22.7-0.8c6.8,7.3,6.7,7.2,14.5,0.2c2.9-2.6,5.2-6.2,10.3-6.4c2.1-0.1,4.5,0,5.2,2c0.7,1.8-1.1,2.7-2.9,3.2
	c-4.5,1.3-7.1,4.2-9.3,7.5C406.4,183.5,403.3,185.6,399,186z"/>
<path class="st6" d="M662.4,766c-5.2-0.3-8.3-2.9-11-6.4c-6.1-8-9.2-7.9-15.6-0.2c-7.8,9.5-15.1,9.2-21.5-1
	c-1.5-2.5-3.7-4.1-6.5-5.3c-1.9-0.8-4.2-1.5-2.9-3.8c1.3-2.1,3.9-2.1,6.1-1.2c3.7,1.6,6.6,3.8,8.6,7.2c3.9,6.6,6,6.6,11,0.8
	c1.3-1.6,2.6-3.3,4.1-4.7c5.7-4.9,10.4-4.7,16.6-0.2c3.9,2.8,5.3,8.8,11,8.5c4.7-0.3,6-6,9.9-8.6c2.7-1.8,4.8-3.9,8.7-3.4
	c1.5,0.2,3.3,0.1,3.7,1.7c0.4,1.5-0.6,2.7-2.1,3.1c-6,1.5-9,5.5-11.7,9.8C669.1,764.9,665.9,765.8,662.4,766z"/>
<path class="st3" d="M86,543c0.1-9.9,7.8-17.7,19.3-19.1c2.4-0.3,5.9-1.3,6.7,1.5c0.8,2.9-2.5,3-5.1,3.6
	c-14,3.3-19.3,13.7-11.4,22.2c3.1,3.3,7.3,4.7,12.2,5.1c2.6,0.2,5,1,4.5,3.4c-0.5,2.4-3.3,1.9-5.2,1.7C95.7,560,85.2,556,86,543z"/>
<path class="st3" d="M874.1,129.3c0.1-9.9,7.8-17.7,19.3-19.1c2.4-0.3,5.9-1.3,6.7,1.5c0.8,2.9-2.5,3-5.1,3.6
	c-14,3.3-19.3,13.7-11.4,22.2c3.1,3.3,7.3,4.7,12.2,5.1c2.6,0.2,5,1,4.5,3.4c-0.5,2.4-3.3,1.9-5.2,1.7
	C883.8,146.2,873.3,142.2,874.1,129.3z"/>
<path class="st7" d="M1547.5,340.5c3.5,1,5.5,3.3,7.8,5.5c3.7,3.5,6.5,4.2,10.3-0.2c1.7-1.9,4.8-5.9,7.6-3.9c4.1,3-1.1,5.5-3.4,7.1
	c-5.1,3.4-3.8,6-0.1,9.5c1.5,1.5,5.4,3.8,2.5,6c-2.9,2.3-5.3-0.9-6.7-2.6c-4.8-5.9-8-2.3-11.9,0.9c-1.7,1.4-3.3,4.7-5.9,2.8
	c-2.7-1.9-0.2-4.6,2.1-6c7.6-4.4,6.1-8.4-0.5-12.4c-1.4-0.9-2.6-2.1-3.5-3.4C1544.3,342,1545.2,341,1547.5,340.5z"/>
<path class="st8" d="M1585.3,468.6c-0.3,2-1.5,3.1-3.8,3.2c-2.1,0.1-4-0.5-4-2.7c0-2.1,1.3-3.8,4-3.6
	C1583.7,465.5,1585,466.6,1585.3,468.6z"/>
<path class="st9" d="M1533.1,634.4c-0.7,1.7-1.9,3.3-3.9,3.2c-2.3-0.2-4.1-1.6-3.6-3.9c0.3-1.7,2-3.2,4.1-2.9
	C1531.6,631,1532.9,632.4,1533.1,634.4z"/>
<path class="st10" d="M1555.1,471.8c-2.2-0.2-3.9-1-3.7-3.1c0.2-1.7,1.2-3.3,3.6-3.3c2.6,0,3.8,1.6,3.9,3.6
	C1559.1,471.2,1557.1,471.7,1555.1,471.8z"/>
<path class="st11" d="M1581.2,661.4c-2.2-0.8-3.8-1.7-3.7-3.6c0.1-1.8,1.6-3.3,3.7-3.2c2.4,0.1,4,1.6,3.8,3.8
	C1584.7,660,1583,661,1581.2,661.4z"/>
<path class="st12" d="M1555.6,661.3c-2.4-0.4-4-1.5-4-3.3c-0.1-2.1,1.6-3.8,4-3.5c2,0.1,3.5,1.5,3.5,3.4
	C1559,659.8,1557.2,660.6,1555.6,661.3z"/>
<path class="st11" d="M1529.4,661.3c-2.1-0.2-3.6-1.4-3.9-3.2c-0.3-1.9,1.4-3.4,3.3-3.6c2.4-0.3,4.1,1.2,4.3,3.3
	C1533.1,659.7,1531.4,660.7,1529.4,661.3z"/>
<path class="st9" d="M1581.5,637.7c-2.2-0.1-3.7-1.4-4-3.1c-0.4-1.9,1.2-3.4,3.2-3.8c2.5-0.4,4.1,1.2,4.4,3.2
	C1585.2,636.1,1583.4,637,1581.5,637.7z"/>
<path class="st13" d="M1559.1,634.3c-0.5,1.8-1.6,3.2-3.7,3.3c-2.2,0.1-3.7-1.4-3.8-3.1c-0.2-2.1,1.5-3.8,3.9-3.6
	C1557.4,630.9,1558.7,632.3,1559.1,634.3z"/>
<path class="st14" d="M1529.3,607.1c2.1,0.4,3.6,1.5,3.7,3.3c0.2,2.5-2.1,3.3-4.3,3.3c-2.1,0-3.5-1.5-3.3-3.4
	C1525.7,608.5,1527.2,607.4,1529.3,607.1z"/>
<path class="st15" d="M1581.4,613.8c-2-0.5-4-1.1-3.9-3.2c0.1-1.9,1.6-3.3,3.7-3.3c2.1,0,3.7,1.4,3.7,3.3
	C1585,612.5,1583.6,613.7,1581.4,613.8z"/>
<path class="st16" d="M1528.7,678.1c2.3,0.4,4.3,1.1,4.4,3c0.1,2.1-1.5,3.6-3.9,3.6c-2,0-3.5-1.4-3.6-3.3
	C1525.4,679.5,1527.1,678.7,1528.7,678.1z"/>
<path class="st17" d="M225.6,732.8c0.1,2.6-1.4,3.9-3.7,3.9c-2.2,0-3.7-1.5-3.8-3.4c-0.2-2,1.3-3.3,3.7-3.3
	C224.3,729.9,225.3,731.4,225.6,732.8z"/>
<path class="st18" d="M170.9,779.2c-0.5,1.8-1.7,3.3-3.9,3.3s-3.8-1.3-3.5-3.4c0.1-1.9,1.4-3.3,3.8-3.3
	C169.5,775.8,170.8,777.1,170.9,779.2z"/>
<path class="st19" d="M1555.3,772.9c2.1,0.1,3.9,0.9,3.7,3c-0.2,1.8-1.7,3.1-3.8,3.3c-2.5,0.2-3.5-1.6-3.6-3.2
	C1551.2,773.9,1553.1,773.1,1555.3,772.9z"/>
<path class="st20" d="M1424.5,732.2c-2-0.5-3.4-1.6-3.1-3.6c0.4-2,2.1-2.8,4.3-2.6c2.2,0.1,2.8,1.5,2.6,3.1
	C1428,731,1426.8,732.2,1424.5,732.2z"/>
<path class="st21" d="M1402.4,728.6c-0.1,1.9-1,3.3-3.3,3.5c-2.3,0.1-3.6-1.2-3.6-3.1c0-2,1.5-3.1,3.7-3.1
	C1401.2,725.7,1402.3,726.7,1402.4,728.6z"/>
<path class="st22" d="M1372.5,732.2c-2.1-0.5-3.4-1.6-2.9-3.6c0.3-2,2.1-2.8,4.1-2.6c2.1,0.1,2.8,1.4,2.6,3.1
	C1376.1,731,1374.9,732.2,1372.5,732.2z"/>
<path class="st23" d="M1297.2,728.5c-0.1,1.9-1.1,3.4-3.3,3.5c-2.2,0.1-3.6-1.2-3.6-3.2c0-2,1.6-3,3.8-3.1
	C1296,725.8,1297.1,726.7,1297.2,728.5z"/>
<path class="st24" d="M1376.5,658.1c-0.3,1.9-1.2,3.4-3.7,3c-1.6-0.3-3.4-1.1-3.3-2.9c0.1-2,1.4-3.4,3.5-3.5
	C1375.2,654.5,1376.6,655.9,1376.5,658.1z"/>
<path class="st20" d="M1428.4,775.7c-0.1,2.1-1.2,3.5-3.4,3.5s-3.6-1.3-3.5-3.3c0.1-2,1.7-3,3.9-3
	C1427.4,773,1428.2,774.1,1428.4,775.7z"/>
<path class="st25" d="M114.9,756.5c-0.4,1.9-1.7,3.2-4,3c-2.4-0.2-3.8-1.5-3.3-3.5c0.5-2,2.2-2.8,4.5-2.7
	C114.3,753.5,114.9,754.8,114.9,756.5z"/>
<path class="st19" d="M1554.7,489.2c2.4,0.1,3.8,1.3,4.3,3.1c0.4,2.1-1.3,3-3.4,3.1c-2.1,0.1-3.9-0.5-4-2.7
	C1551.4,490.8,1553.2,489.9,1554.7,489.2z"/>
<path class="st26" d="M84,753.3c2.4,0.1,4,1.1,4.1,3.1c0,2-1.4,3.2-3.9,3.1c-2.4-0.1-3.5-1.5-3.5-3.5
	C80.7,754.2,81.9,753.3,84,753.3z"/>
<path class="st20" d="M1585.1,563.3c-0.3,2-1.7,2.9-3.8,2.9c-2.1,0-3.9-0.9-3.7-2.9c0.2-1.7,1.6-3.2,3.7-3.2
	C1583.4,560,1584.5,561.5,1585.1,563.3z"/>
<path class="st27" d="M60.3,756.3c-0.2,1.9-1.4,3.3-3.9,3.2c-2.4,0-3.8-1.3-3.5-3.3c0.2-2,2-2.9,4.4-2.9
	C59.5,753.4,60.3,754.6,60.3,756.3z"/>
<path class="st28" d="M1559.1,563.6c-0.5,2.1-2.3,2.7-4.4,2.6c-1.9-0.2-3.4-1.1-3.2-2.9c0.3-1.7,1.7-3.3,3.9-3.1
	C1557.5,560.3,1558.7,561.7,1559.1,563.6z"/>
<path class="st29" d="M1559.1,610.4c-0.7,2.5-2.3,3-4.5,2.8c-1.9-0.2-3.4-1.2-3.2-2.9c0.3-1.8,1.7-3.3,3.9-3.1
	C1557.7,607.3,1558.5,608.9,1559.1,610.4z"/>
<path class="st30" d="M1555.4,755.7c-2.1-0.2-3.6-1.5-3.8-3.2c-0.3-2.1,1.5-3,3.6-3c2.1,0,3.9,0.8,3.8,2.8
	C1559,754,1557.4,755.2,1555.4,755.7z"/>
<path class="st31" d="M1428.4,752.5c-0.3,1.9-1.4,3.3-3.7,3.1c-2.2-0.2-3.5-1.5-3.2-3.5c0.3-2,2-2.8,4.1-2.7
	C1427.7,749.5,1428.4,750.8,1428.4,752.5z"/>
<path class="st22" d="M1402.4,751.8c-0.1,2.4-1.1,3.8-3.3,3.9c-2.2,0.1-3.6-1.2-3.6-3.2c0-2,1.6-3,3.8-3.1
	C1401.3,749.4,1402.3,750.4,1402.4,751.8z"/>
<path class="st32" d="M225.6,779.1c-0.5,1.8-1.7,3.5-3.9,3.4c-2.2-0.1-3.5-1.8-3.5-3.8c0-1.7,1.4-2.9,3.4-2.9
	C224,775.7,225.3,777,225.6,779.1z"/>
<path class="st33" d="M1376.4,634.7c-0.3,1.8-1.7,2.9-4,2.6c-1.9-0.2-3.1-1.3-3.1-3.1c0-2.1,1.6-3.2,3.7-3.2
	C1375.3,631,1376.6,632.3,1376.4,634.7z"/>
<path class="st33" d="M1376.4,613.2c-0.3,1.8-1.7,2.9-4,2.6c-1.9-0.2-3.1-1.3-3.1-3.1c0-2.1,1.6-3.2,3.7-3.2
	C1375.3,609.6,1376.6,610.9,1376.4,613.2z"/>
<path class="st20" d="M1533.1,563.3c-0.7,2.4-2.3,3-4.3,2.8c-2.1-0.2-3.8-1.1-3.2-3.2c0.4-1.7,1.9-3.1,4-2.8
	C1531.7,560.4,1532.7,561.9,1533.1,563.3z"/>
<path class="st34" d="M1559.1,587.1c-0.5,2-2.1,2.8-4.1,2.6c-2.1-0.1-3.8-1.1-3.4-3.2c0.4-1.7,1.9-3.2,4-2.9
	C1557.5,583.9,1558.9,585.2,1559.1,587.1z"/>
<path class="st35" d="M1402.4,563.3c0,1.8-1,2.8-3.1,2.8c-2.2,0-3.7-1-3.8-3s1.3-3.3,3.5-3.3
	C1401.2,559.8,1402.3,561.3,1402.4,563.3z"/>
<path class="st36" d="M198.7,664.2c-0.2,1.9-1.7,3.3-3.9,3.5c-2.4,0.2-4-1.4-4.4-3.1c-0.4-1.8,1.4-2.7,3.4-2.9
	C196.1,661.5,198,662.1,198.7,664.2z"/>
<path class="st37" d="M1555.7,708.5c-2.5-0.2-3.9-1.5-4.1-3.3c-0.2-1.8,1.3-2.8,3.2-2.9c2.1-0.2,4,0.3,4.3,2.6
	C1559.2,706.9,1557.2,707.7,1555.7,708.5z"/>
<path class="st38" d="M1502.9,630.7c2.6,0.3,3.5,1.8,3.4,3.8c-0.1,1.6-0.9,3.1-2.9,3.1c-2.1-0.1-3.7-1.4-3.7-3.3
	C1499.4,632.2,1501.4,631.5,1502.9,630.7z"/>
<path class="st39" d="M1454.3,752.2c-0.1,2-1.2,3.4-3.4,3.4s-3.6-1.3-3.5-3.2c0.1-2,1.7-3,3.9-3
	C1453.3,749.4,1454.3,750.4,1454.3,752.2z"/>
<path class="st40" d="M1376.4,705.5c-0.2,1.7-1.3,3.1-3.6,3c-2.2-0.1-3.5-1.4-3.3-3.4s1.9-2.9,4-2.8
	C1375.7,702.4,1376.5,703.5,1376.4,705.5z"/>
<path class="st41" d="M88.2,664.8c-0.5,2-1.7,3.3-4.1,3.1c-2.4-0.2-3.4-1.7-3.4-3.6c0-1.9,1.4-2.7,3.5-2.6
	C86.6,661.8,87.9,662.9,88.2,664.8z"/>
<path class="st42" d="M29.4,661.7c2.4,0.1,4,1,4.1,3c0.1,2-1.4,3.3-3.8,3.2c-2.4-0.1-3.5-1.5-3.7-3.4
	C26.1,662.7,27.1,661.7,29.4,661.7z"/>
<path class="st41" d="M84.1,730c2.1,0.8,4.5,1.2,4,3.5c-0.4,1.8-1.7,3.3-4.2,3.1c-2-0.2-3.3-1.3-3.3-3.1
	C80.7,731.5,81.8,730.4,84.1,730z"/>
<path class="st20" d="M1428.4,539.8c-0.1,1.8-1.1,2.8-3.2,2.8c-2.2,0-3.7-1.1-3.8-3.1c0-1.9,1.4-3.3,3.6-3.2
	C1427.3,536.3,1428.2,537.8,1428.4,539.8z"/>
<path class="st43" d="M198.6,641.2c0,2.1-1.3,3.1-3.3,3.3c-2.2,0.2-4.4-0.2-4.7-2.4c-0.4-2,1.5-3.3,3.5-3.6
	C196.7,638.1,197.5,640.1,198.6,641.2z"/>
<path class="st35" d="M1373.4,684.9c-2-0.3-3.8-1-3.9-3c-0.1-1.9,1.2-3.3,3.2-3.5c2.1-0.2,3.6,0.9,3.7,2.9
	C1376.5,683.1,1375.7,684.4,1373.4,684.9z"/>
<path class="st44" d="M1555,512.8c2.2,0.1,3.6,1.4,3.9,3.1c0.4,2.1-1.3,3-3.5,3.1c-2.1,0.1-3.9-0.5-3.9-2.7
	C1551.6,514.5,1553.1,513.3,1555,512.8z"/>
<path class="st35" d="M1532.8,492.5c-0.5,2.1-2,3.1-4.3,2.8c-1.9-0.2-3.3-1.2-3.1-3c0.3-1.7,1.3-3.5,3.7-3.2
	C1531.3,489.4,1532.7,490.6,1532.8,492.5z"/>
<path class="st33" d="M1395.4,705.1c0.4-1.9,1.7-3,3.9-2.9c2.1,0,3.1,1.1,2.9,2.9c0,2-1.2,3.4-3.4,3.4
	C1396.7,708.6,1395.5,707.2,1395.4,705.1z"/>
<path class="st45" d="M1480.4,516c0,1.7-0.8,2.9-2.8,3c-2.2,0-3.8-0.8-4-2.8c-0.2-2,1.2-3.3,3.3-3.4
	C1478.9,512.5,1480,514,1480.4,516z"/>
<path class="st34" d="M1559.2,681.2c-0.5,2-1.7,3.4-3.8,3.5c-2.2,0.1-3.6-1.4-3.8-3.1c-0.3-2,1.5-2.9,3.6-3
	C1557.3,678.5,1558.6,679.5,1559.2,681.2z"/>
<path class="st46" d="M33.5,640.7c-0.1,2.5-1.4,3.5-3.8,3.8c-2,0.2-3.5-0.4-3.8-2.4s0.7-3.4,3.1-3.8
	C31.7,637.9,32.8,639.4,33.5,640.7z"/>
<path class="st47" d="M1555,536.3c2.2,0.2,3.6,1.4,3.9,3.1c0.3,2.1-1.4,3-3.5,3.1c-2.1,0.1-3.9-0.6-3.9-2.7
	C1551.4,538,1553.1,536.9,1555,536.3z"/>
<path class="st45" d="M1585,516.3c-0.4,2-2,2.8-4,2.7c-2.1-0.1-3.8-1-3.4-3.1c0.3-1.7,1.7-3.2,3.9-3
	C1583.5,513.1,1584.7,514.5,1585,516.3z"/>
<path class="st31" d="M1585.1,492.2c-0.2,2.4-1.6,3.2-3.8,3.2c-2.1,0-3.3-1.1-3.4-2.7c-0.2-2,1.4-3.2,3.4-3.5
	C1583.8,488.7,1584.3,490.8,1585.1,492.2z"/>
<path class="st48" d="M1559.1,728.1c-0.2,2.1-1.5,3.5-3.5,3.9c-2.2,0.3-3.6-1.2-4-2.9c-0.5-2.1,1.2-3,3.3-3.2
	C1556.9,725.5,1558.4,726.5,1559.1,728.1z"/>
<path class="st35" d="M1480.4,775.9c-0.2,1.9-1.2,3.4-3.5,3.4c-2.2,0-3.6-1.3-3.5-3.3c0.1-2,1.7-2.9,3.9-2.9
	C1479.4,773,1480.3,774.1,1480.4,775.9z"/>
<path class="st49" d="M1450.9,779.4c-2.2-0.2-3.6-1.3-3.5-3.3c0.1-2,1.7-3,3.9-3c2.1,0,3.1,1.1,3.1,2.8
	C1454.3,777.9,1453.1,779,1450.9,779.4z"/>
<path class="st50" d="M1349.2,681.7c-0.2,1.6-0.9,3.1-2.8,3.1c-2.4,0-4-1.5-3.9-3.8c0.1-1.5,1.5-2.9,3.4-2.8
	C1347.9,678.3,1349.3,679.4,1349.2,681.7z"/>
<path class="st50" d="M1349.2,660.2c-0.2,1.6-0.9,3.1-2.8,3.1c-2.4,0-4-1.5-3.9-3.8c0.1-1.5,1.5-2.9,3.4-2.8
	C1347.9,656.9,1349.3,658,1349.2,660.2z"/>
<path class="st51" d="M114.9,778.8c0,2.6-1.4,3.8-3.7,3.8c-1.9,0-3.4-1.3-3.4-2.9c0-2.1,1.7-3.6,4.2-3.6
	C114.2,776,114.7,777.8,114.9,778.8z"/>
<path class="st20" d="M1424.4,654.5c2.5,0.2,3.9,1.1,3.9,3.2c0,1.6-0.7,3.1-2.6,3.3c-2.2,0.3-3.7-1.2-4.1-2.8
	C1421.1,656.2,1423,655.4,1424.4,654.5z"/>
<path class="st52" d="M198.7,779.7c-0.8,2-2.6,2.6-4.8,2.3c-2.1-0.3-3.2-1.6-2.9-3.2c0.4-1.8,2-3.2,4.2-2.7
	C197.1,776.5,198.7,777.8,198.7,779.7z"/>
<path class="st35" d="M1428.4,586.4c0.1,1.8-0.4,3.1-2.5,3.3s-3.8-0.5-4.3-2.5c-0.5-2.1,1.3-3.1,3.2-3.5
	C1427,583.2,1427.9,584.7,1428.4,586.4z"/>
<path class="st20" d="M1477.6,684.9c-2.3-0.4-3.9-1.5-4.1-3.4c-0.1-1.9,1.4-3.3,3.5-3.3c1.7,0,3.2,1,3.3,2.8
	C1480.5,683.1,1479.5,684.2,1477.6,684.9z"/>
<path class="st53" d="M1454.3,681.4c-0.1,1.8-1,3.5-3.3,3.3c-1.9-0.2-3.6-1.5-3.5-3.4c0-1.6,1.3-2.9,3.2-3
	C1452.9,678.1,1454.2,679.2,1454.3,681.4z"/>
<path class="st22" d="M1428.4,681.4c-0.1,1.8-1,3.5-3.3,3.3c-1.9-0.2-3.6-1.5-3.5-3.4c0.1-1.6,1.3-2.9,3.2-3
	C1426.8,678.1,1428.2,679.2,1428.4,681.4z"/>
<path class="st54" d="M166.9,638.2c2.2,0.2,3.7,1.1,3.9,2.9c0.2,2.1-1.3,3.3-3.7,3.4c-2,0-3.4-1-3.7-2.8
	C163.3,639.5,165.1,638.7,166.9,638.2z"/>
<path class="st55" d="M144,641.9c-0.4,1.8-1.8,2.6-3.7,2.7c-2.5,0.2-4-1-4.1-2.9s1.5-3.2,3.9-3.2C142.3,638.7,143.5,640.2,144,641.9
	z"/>
<path class="st56" d="M88.2,641.5c-0.4,1.9-1.7,3.2-4.1,3c-2.1-0.1-3.3-1.4-3.3-3c0.1-2,1.5-3.2,4-3
	C86.9,638.5,87.9,639.7,88.2,641.5z"/>
<path class="st57" d="M225.6,664.2c0,2.5-1.3,3.8-3.8,3.8c-2,0-3.4-1.1-3.7-2.8c-0.2-1.7,0.8-3,2.9-3.3
	C223.6,661.4,224.9,662.7,225.6,664.2z"/>
<path class="st18" d="M170.8,664.5c0,2.1-1.3,3.3-3.8,3.4c-2,0-3.4-1.1-3.5-2.8c-0.2-2.1,1.3-3.3,3.7-3.3
	C169.3,661.7,170.5,662.8,170.8,664.5z"/>
<path class="st58" d="M143.8,664.7c-0.8,1.8-2,3.3-4.4,2.9c-2-0.3-3.8-1.6-3.5-3.6c0.2-1.7,2-2.4,3.9-2.4
	C142.4,661.6,143.2,663,143.8,664.7z"/>
<path class="st59" d="M56.7,638.2c2.5,0.3,3.5,1.6,3.5,3.6c0,1.9-1.4,2.8-3.5,2.7c-2-0.1-3.7-0.9-3.7-2.7
	C53.2,640.1,54.1,638.6,56.7,638.2z"/>
<path class="st31" d="M1585,587.2c-0.7,2.1-2.3,2.7-4.4,2.5c-2-0.2-3.1-1.6-2.8-3.1c0.2-1.8,1.7-3.3,3.8-3
	C1583.6,583.9,1584.9,585.2,1585,587.2z"/>
<path class="st35" d="M1532.8,587c-0.8,2.4-2.3,3.1-4.4,2.7c-1.9-0.3-3.2-1.3-2.7-3.1c0.4-1.7,1.9-3.3,4-3
	C1531.6,583.9,1533,585.1,1532.8,587z"/>
<path class="st60" d="M1480.4,634.3c-0.2,2.1-1.6,3.2-3.7,3c-1.7-0.2-3.1-1.4-3.1-3.1c0.1-1.9,1.6-3.3,3.6-3.4
	C1479.5,630.7,1480.3,632.3,1480.4,634.3z"/>
<path class="st31" d="M1424.9,630.7c2.3,0.2,3.3,1.4,3.4,3c0.2,2-0.9,3.4-3.1,3.6c-2.2,0.1-3.6-1.2-3.7-3.1
	C1421.6,632.1,1423.4,631.4,1424.9,630.7z"/>
<path class="st45" d="M1525.5,516.4c0.3-1.9,1.5-3.3,3.6-3.5c2.2-0.2,3.6,1.2,3.7,3.1c0.1,1.6-1,2.9-3.1,3
	C1527.7,519.1,1525.9,518.5,1525.5,516.4z"/>
<path class="st61" d="M1503.6,519c-2.2-0.1-4-0.6-4-2.8c0-1.7,1.1-3.4,3.3-3.5c2.2,0,3.3,1.4,3.4,3.3
	C1506.4,517.8,1505.4,518.8,1503.6,519z"/>
<path class="st61" d="M1504.1,495.4c-2.2-0.1-4-0.6-4-2.8c0-1.7,1.1-3.4,3.3-3.5c2.2,0,3.3,1.4,3.4,3.3
	C1506.9,494.3,1505.9,495.2,1504.1,495.4z"/>
<path class="st20" d="M1581.3,708.5c-2.1-0.3-3.6-1.4-3.6-3.3c0-1.6,1.1-2.8,3.2-2.9c2.1,0,4,0.5,4,2.7
	C1584.9,706.9,1583.4,707.9,1581.3,708.5z"/>
<path class="st62" d="M1477,613.8c-2-0.4-3.6-1.5-3.4-3.4c0.2-1.8,1.7-3.2,3.9-3.1c2,0,2.7,1.5,2.8,3.1
	C1480.6,612.6,1479.1,613.5,1477,613.8z"/>
<path class="st63" d="M1451,607.1c2.6,0.4,3.3,1.9,3.3,3.8c-0.1,1.8-1.4,2.8-3.2,2.8c-2.1,0-3.6-1.3-3.5-3.2
	C1447.7,608.5,1449.5,607.7,1451,607.1z"/>
<path class="st62" d="M1425.4,607.1c2.3,0.4,3.1,1.8,2.9,3.8c-0.1,1.8-1.4,2.8-3.2,2.8c-2.1,0-3.6-1.3-3.5-3.2
	C1421.7,608.6,1423.3,607.6,1425.4,607.1z"/>
<path class="st45" d="M1425.1,566.2c-2.1-0.2-3.7-1.2-3.6-3.1c0.1-2,2-3,3.8-3c2.3,0,3.1,1.6,3.1,3.5
	C1428.2,565.5,1426.9,566.2,1425.1,566.2z"/>
<path class="st51" d="M88.1,687.8c-0.6,1.9-2.2,2.8-4.6,2.6c-2.2-0.2-3.1-1.4-2.8-3.2c0.2-1.7,1.4-3,3.5-2.8
	C86.2,684.7,88.2,685.4,88.1,687.8z"/>
<path class="st31" d="M1581.4,536.2c2,0.5,3.6,1.7,3.6,3.5c0,2.1-2,2.8-4,2.7c-2.1,0-3.2-1.4-3.2-2.9
	C1577.8,537.6,1579.4,536.6,1581.4,536.2z"/>
<path class="st42" d="M167.4,690.4c-2.2-0.2-3.7-1.1-3.8-2.8c-0.2-2.1,1.3-3.4,3.7-3.4c2.4,0,3.8,1.3,3.7,3.3
	C170.7,689.3,169.2,690,167.4,690.4z"/>
<path class="st64" d="M225.6,687.3c-0.4,1.9-1.7,3.2-4.1,3.1c-2.1-0.1-3.3-1.3-3.3-3c0.1-2,1.5-3.2,4-3.1
	C224.3,684.4,225.3,685.5,225.6,687.3z"/>
<path class="st40" d="M1425.2,708.5c-1.9-0.5-3.8-1.1-3.7-3.2c0.1-2,1.6-2.9,3.8-3c2,0,3.1,0.9,3.1,2.7
	C1428.4,707,1427.4,708.1,1425.2,708.5z"/>
<path class="st65" d="M1532.8,705.1c-0.2,1.8-1.4,3.2-3.6,3.2c-2.1,0-3.5-1.5-3.7-3.3c-0.1-1.8,1.4-2.6,3.2-2.8
	C1531.1,702,1532.4,703.1,1532.8,705.1z"/>
<path class="st66" d="M85.3,713.7c-2.6,0.1-4-0.8-4.4-2.5c-0.5-2,0.8-3.4,3.2-3.6c2.5-0.2,3.9,1.1,4,3
	C88.2,712.5,86.7,713.3,85.3,713.7z"/>
<path class="st67" d="M114.9,709.9c-0.1,2.3-1.1,3.8-3.5,3.9c-2.2,0.1-3.2-1.4-3.5-2.9c-0.6-2.3,1.3-3.1,3.5-3.3
	C113.5,707.3,114.8,708.3,114.9,709.9z"/>
<path class="st68" d="M167.2,707.5c2,0.2,3.4,1.1,3.7,2.8c0.2,2.1-1.2,3.4-3.7,3.4c-2.4,0-3.9-1.3-3.7-3.4
	C163.8,708.6,165.2,707.7,167.2,707.5z"/>
<path class="st69" d="M194.5,713.6c-2.1-0.4-3.9-1.4-3.7-3.4c0.1-1.6,1.4-2.8,3.5-2.8c2.2,0,4.2,0.6,4.1,2.8
	C198.4,712.1,196.8,713.2,194.5,713.6z"/>
<path class="st70" d="M222.3,713.7c-2.1,0-3.5-0.8-4-2.5c-0.5-2,0.7-3.4,3.2-3.6c2.5-0.2,4,1.1,4,3.1
	C225.6,712.3,224.3,713.5,222.3,713.7z"/>
<path class="st71" d="M1349.2,729c-0.3,1.9-1.3,3.3-3.6,3.1c-2.2-0.1-3.2-1.8-3.2-3.6c0.1-2.1,2-2.7,4-2.6
	C1348.6,725.9,1349.2,727.2,1349.2,729z"/>
<path class="st13" d="M1450.7,732.2c-2.1-0.4-3.2-1.8-3.1-3.6c0.1-2,2-2.8,4-2.7c2.1,0.1,2.8,1.4,2.7,3
	C1454.2,730.8,1453,732,1450.7,732.2z"/>
<path class="st14" d="M1532.9,729.1c-0.7,1.7-1.9,3.2-4,2.9c-1.9-0.3-3.5-1.6-3.3-3.6c0.2-1.8,1.7-2.4,3.6-2.5
	C1531.6,725.7,1532.5,727.1,1532.9,729.1z"/>
<path class="st72" d="M1585.1,728.2c-0.5,2.1-1.7,3.5-3.7,3.8c-2.2,0.1-3.6-1.3-3.6-3.2c0-1.6,1.1-2.8,3.2-2.9
	C1583.1,725.7,1584.5,726.6,1585.1,728.2z"/>
<path class="st73" d="M30,736.8c-2.2-0.2-3.9-1.1-3.9-3.2c0-1.6,0.6-3.1,2.7-3.3c2.4-0.3,3.9,1.2,4.5,2.8
	C33.7,735.1,32,736.2,30,736.8z"/>
<path class="st53" d="M1346.5,755.7c-2.2-0.2-3.7-1.4-3.9-3.1c-0.3-2.1,1.4-3,3.5-3.1c2-0.1,3.2,0.9,3.5,2.6
	C1350,754,1348.3,755,1346.5,755.7z"/>
<path class="st20" d="M1373.1,755.8c-2.2-0.2-3.6-1.3-3.5-3.2c0-1.9,1.4-3.1,3.6-3c1.9,0.1,3.1,1.1,3.2,2.8
	C1376.5,754.4,1375.2,755.4,1373.1,755.8z"/>
<path class="st31" d="M1477,755.7c-1.7-0.6-3.7-1.2-3.6-3.3c0.1-2,1.7-2.9,3.9-2.9c2,0,3.1,1,3.1,2.8
	C1480.3,754.2,1479.3,755.4,1477,755.7z"/>
<path class="st20" d="M1532.8,752.3c-0.2,1.8-1.4,3.2-3.6,3.2c-2.1,0-3.5-1.5-3.7-3.3c-0.2-1.8,1.4-2.6,3.2-2.8
	C1531.1,749.2,1532.3,750.2,1532.8,752.3z"/>
<path class="st31" d="M1532.8,539.7c-0.5,2-1.9,3.1-4,2.9c-1.9-0.2-3.4-1.1-3.2-2.8c0.2-1.8,1.6-3.3,3.7-3.3
	C1531.4,536.3,1532.6,537.8,1532.8,539.7z"/>
<path class="st20" d="M1585.1,752.4c-0.9,1.7-2,3.3-4.1,3.1c-2-0.2-3.6-1.5-3.2-3.5c0.4-2,2-2.8,4.1-2.5
	C1583.9,749.8,1584.9,750.7,1585.1,752.4z"/>
<path class="st74" d="M33.6,756.5c-0.5,1.9-1.7,3.2-4.1,3c-2.1-0.2-3.3-1.4-3.3-3.1c0-1.7,1.2-2.9,3.3-3
	C32,753.3,33.3,754.6,33.6,756.5z"/>
<path class="st75" d="M167.3,759.6c-2.5-0.3-4-1.4-3.8-3.5c0.2-1.7,1.7-2.8,3.7-2.8c2.4,0.1,3.8,1.3,3.7,3.4
	C170.7,758.7,169.2,759.4,167.3,759.6z"/>
<path class="st58" d="M225.6,756.5c-0.4,1.9-1.7,3.2-4.1,3c-2.1-0.1-3.3-1.4-3.3-3c0-1.7,1.2-2.9,3.3-3.1
	C223.9,753.3,225.2,754.5,225.6,756.5z"/>
<path class="st76" d="M1503.4,779.2c-2.5,0.1-3.5-1.5-3.7-3.1c-0.3-2,1.4-3,3.5-3.1c1.9-0.1,3.2,0.8,3.2,2.6
	C1506.3,777.5,1505.4,778.8,1503.4,779.2z"/>
<path class="st35" d="M1532.8,776c-0.4,1.8-1.5,3.2-3.7,3.1c-2.1-0.1-3.5-1.5-3.6-3.4c-0.1-1.8,1.5-2.5,3.4-2.7
	C1531.3,772.8,1532.4,774,1532.8,776z"/>
<path class="st35" d="M1585.1,775.7c-0.7,1.8-1.7,3.4-3.9,3.4c-2.1,0-3.6-1.4-3.4-3.3c0.2-2,1.7-3,4-2.8
	C1583.7,773.1,1584.8,774.1,1585.1,775.7z"/>
<path class="st77" d="M1502.8,654.5c2.6,0.5,3.7,1.7,3.5,3.8c-0.2,1.6-1.2,3-3.2,2.9c-2-0.2-3.6-1.4-3.6-3.3
	C1499.5,655.8,1501.2,655,1502.8,654.5z"/>
<path class="st78" d="M33.4,779.6c-0.7,1.7-1.8,3.2-4.2,2.9c-1.9-0.2-3.2-1.3-3.1-3.1c0.1-1.9,0.9-3.5,3.5-3.3
	C31.6,776.3,33,777.7,33.4,779.6z"/>
<path class="st41" d="M56.7,782.7c-2.1-0.5-3.9-1.5-3.7-3.5c0.2-1.8,1.9-3.1,4.1-3.1c2.1,0,2.8,1.5,3.1,3.1
	C60.5,781.3,58.9,782.2,56.7,782.7z"/>
<path class="st20" d="M1480.4,657.8c-0.1,1.9-1.1,3.5-3.4,3.2c-2-0.2-3.6-1.6-3.4-3.5c0.1-1.6,1.4-2.9,3.3-2.9
	C1478.9,654.6,1480.4,655.7,1480.4,657.8z"/>
<path class="st21" d="M1585.1,681.3c-0.7,1.9-1.7,3.4-3.9,3.4c-2.1,0-3.6-1.3-3.4-3.3c0.2-2,1.7-3,3.9-2.8
	C1583.7,678.8,1584.8,679.8,1585.1,681.3z"/>
<path class="st79" d="M83.9,775.9c2.1,0.4,3.9,1.5,4,3.3c0.1,1.9-1.5,3.3-3.8,3.2c-2.2-0.1-3.7-1.4-3.4-3.4
	C80.8,777.4,81.6,776.3,83.9,775.9z"/>
<path class="st80" d="M1402.3,586.4c0.1,1.8-0.5,3-2.6,3.2c-2.1,0.2-3.7-0.5-4.1-2.6c-0.5-2.1,1.3-3.1,3.2-3.4
	C1401.1,583.2,1402,584.7,1402.3,586.4z"/>
<path class="st81" d="M1454.3,658.1c-0.1,1.6-0.9,3.1-2.8,3.1c-2.4-0.1-4.1-1.5-3.9-3.8c0.1-1.5,1.5-2.9,3.4-2.8
	C1453.1,654.7,1454.4,655.9,1454.3,658.1z"/>
<path class="st82" d="M140.2,707.5c2.2,0.1,3.4,1.4,3.4,2.9c0,1.9-1.7,3.2-4,3.1c-1.9-0.1-3.4-1.4-3.4-3
	C136.3,708.7,137.6,707.4,140.2,707.5z"/>
<path class="st83" d="M29.6,690.5c-2.1,0-3.4-0.8-3.5-2.6c0-1.9,0.8-3.5,3.4-3.4c2.1,0.1,3.8,1.5,3.8,3.4
	C33.3,689.6,31.5,690.3,29.6,690.5z"/>
<path class="st40" d="M1506.3,563.2c0,1.8-0.9,2.9-2.9,2.9c-2.2,0-4-0.9-3.8-2.9c0.2-1.7,1.6-3.2,3.9-3.1
	C1505.4,560.2,1506.1,561.5,1506.3,563.2z"/>
<path class="st84" d="M1399.1,613.3c-1.7-0.2-3.4-0.8-3.5-2.6c-0.1-2,1.5-3.3,3.5-3.4c2.3-0.2,3.2,1.5,3.2,3.4
	C1402.3,612.6,1401.1,613.2,1399.1,613.3z"/>
<path class="st60" d="M1480.4,704.4c0,2.1-0.7,3.6-2.5,3.9c-2.3,0.3-3.7-1.2-4-2.9c-0.5-2.1,1.3-3,3.4-3.2
	C1479.1,702.1,1480.3,703.1,1480.4,704.4z"/>
<path class="st85" d="M60.3,710.6c-0.2,1.4-0.8,2.9-3.1,2.9c-2.4,0-3.9-1.4-4.1-3.1c-0.2-2.1,1.8-2.9,4-2.9
	C59.5,707.5,60.3,708.7,60.3,710.6z"/>
<path class="st86" d="M33.3,710.1c-0.4,1.9-1.8,3.2-3.9,3.4c-2.1,0.2-3.2-1.2-3.3-2.8c-0.2-2,0.8-3.3,3.4-3.2
	C31.5,707.5,32.9,708.3,33.3,710.1z"/>
<path class="st87" d="M1454.3,563.2c0,1.8-0.9,2.9-2.9,2.9c-2.2,0-4-0.9-3.8-2.9c0.2-1.7,1.7-3.2,3.9-3.1
	C1453.5,560.2,1454.1,561.5,1454.3,563.2z"/>
<path class="st88" d="M114.9,642c-0.1,1.8-1.3,2.8-3.4,2.6c-2.2-0.1-4.2-1-3.7-3.1c0.5-1.7,2-3.1,4.4-2.8
	C114.2,638.9,114.9,640.3,114.9,642z"/>
<path class="st89" d="M112.2,667.8c-2.6-0.3-4.1-1.5-4.5-3.3c-0.2-1.7,1.4-2.6,3.3-2.8c2.5-0.2,3.9,0.8,3.8,2.9
	C114.8,666.3,113.7,667.3,112.2,667.8z"/>
<path class="st90" d="M1506.3,728.1c0,2-0.7,3.5-2.5,3.8c-2.3,0.3-3.7-1.2-4.1-2.9c-0.5-2.1,1.3-3,3.4-3.2
	C1505,725.7,1506.1,726.7,1506.3,728.1z"/>
<path class="st91" d="M60.3,664.2c0,1.6-0.6,3.1-2.6,3.4c-2.4,0.3-3.9-1.1-4.4-2.8c-0.6-2.3,1.3-3,3.5-3.2
	C58.9,661.5,60.2,662.4,60.3,664.2z"/>
<path class="st92" d="M56.9,690.5c-1.9-0.2-3.7-0.8-3.7-2.6c-0.1-1.9,1.7-3.3,3.7-3.4c2.5-0.2,3.4,1.5,3.4,3.3
	C60.3,689.6,59,690.5,56.9,690.5z"/>
<path class="st92" d="M114.9,687.5c0,1.7-0.8,2.9-3.1,2.9c-2.2,0-4.2-0.8-4.1-2.8c0.1-1.7,1.8-3.1,4-3.2
	C114,684.4,114.7,685.9,114.9,687.5z"/>
<path class="st26" d="M139.3,684.1c2.6,0.4,4.4,1.4,4.2,3.4c-0.1,1.6-1.3,2.8-3.5,2.8c-2.1,0.1-3.4-1-3.8-2.6
	C135.8,685.6,138,685.1,139.3,684.1z"/>
<path class="st93" d="M1402.4,634.3c0,1.8-1.2,2.9-3.1,3c-2.2,0.1-3.7-1.2-3.6-3.1c0.1-1.8,1.5-3.2,3.8-3
	C1401.3,631.4,1402.4,632.4,1402.4,634.3z"/>
<path class="st94" d="M198.3,687.4c-0.5,1.6-1.3,2.9-3.4,3c-2.5,0.1-4-1.2-4-3c-0.1-1.6,1.5-2.8,3.4-3
	C196.6,684.2,197.8,685.6,198.3,687.4z"/>
<path class="st95" d="M1477.1,725.8c2,0,3.2,0.8,3.3,2.7c0,1.9-0.9,3.6-3.2,3.4c-2-0.1-3.5-1.5-3.5-3.4
	C1473.6,726.6,1475.2,726.1,1477.1,725.8z"/>
<path class="st96" d="M1454.3,704.5c0,2-0.5,3.4-2.5,3.8c-2.3,0.3-3.7-1.1-4.1-2.8c-0.5-2.1,1.3-3,3.4-3.2
	C1453,702,1454.2,703,1454.3,704.5z"/>
<path class="st97" d="M1323.1,704.8c0,1.9-0.9,3.5-3.2,3.5c-1.7,0-3.2-1.3-3.5-2.8c-0.4-2.3,1.3-3.1,3.4-3.2
	C1321.8,702.1,1323,702.9,1323.1,704.8z"/>
<path class="st98" d="M1323.1,728.7c-0.2,1.6-0.9,3.1-2.8,3.2c-2.2,0.1-3.7-1.4-3.8-3.1c-0.2-2,1.5-3,3.7-2.9
	C1322.3,725.8,1323.1,726.9,1323.1,728.7z"/>
<path class="st99" d="M1506.3,681.2c0,1.6-0.5,3.1-2.5,3.4c-2.2,0.3-3.7-1.1-4.1-2.8c-0.5-2.1,1.3-3.1,3.4-3.2
	C1504.9,678.4,1506.2,679.4,1506.3,681.2z"/>
<path class="st100" d="M1450.9,631c1.9,0.3,3.2,1.1,3.4,2.9c0.2,2.1-1.2,3.3-3.4,3.4c-1.7,0-3.2-1.3-3.4-2.9
	C1447.4,632.4,1449.1,631.5,1450.9,631z"/>
<path class="st22" d="M1398.8,661c-1.9-0.6-3.6-1.6-3.2-3.8c0.3-1.5,1.6-2.8,3.6-2.7c2.3,0.2,3.4,1.5,3.1,3.6
	C1402.1,660.1,1400.7,660.7,1398.8,661z"/>
<path class="st95" d="M1480.3,587.1c-0.1,1.8-1.3,2.8-3.2,2.7c-2.1-0.1-3.9-1-3.4-3.2c0.4-1.7,1.9-3.2,4-2.9
	C1479.7,583.9,1480.4,585.4,1480.3,587.1z"/>
<path class="st95" d="M1480.4,563.6c-0.2,2.1-1.7,2.7-3.6,2.5c-2.1-0.3-3.7-1.2-2.9-3.4c0.5-1.4,1.7-2.8,3.6-2.6
	C1479.8,560.3,1480.4,561.9,1480.4,563.6z"/>
<path class="st13" d="M1454.3,539.6c0,1.7-0.9,2.9-2.9,2.9c-2.2,0-4-0.9-3.8-2.9c0.1-1.7,1.6-3.2,3.8-3.1
	C1453.4,536.5,1454.1,538,1454.3,539.6z"/>
<path class="st101" d="M1346.3,708.5c-2.1-0.3-3.6-1.5-3.8-3.3c-0.2-1.7,1.3-2.7,3.2-2.9c2.4-0.2,3.6,0.9,3.5,3
	C1349.1,707,1348.2,708.1,1346.3,708.5z"/>
<path class="st36" d="M194.8,759.5c-2.4-0.2-4-1.3-4-3.2c0-1.6,1.3-2.8,3.4-2.9c2.1-0.1,3.4,0.9,3.9,2.5
	C198.7,757.9,196.8,758.8,194.8,759.5z"/>
<path class="st51" d="M143.7,756.4c-0.8,1.8-2.1,3.3-4.5,2.9c-1.8-0.3-3.3-1.5-3.1-3.2c0.4-1.9,1.8-3,4.4-2.8
	C142.6,753.6,143.3,755,143.7,756.4z"/>
<path class="st102" d="M1402.4,681.6c-0.2,1.6-0.9,3.1-2.8,3.1c-2.2,0-3.7-1.3-3.8-3.1c-0.1-2.1,1.6-2.9,3.8-2.9
	C1401.5,678.7,1402.4,679.8,1402.4,681.6z"/>
<path class="st53" d="M1454.3,587.1c-0.1,1.8-1.3,2.8-3.2,2.7c-2.1-0.1-3.9-1-3.4-3.2c0.4-1.7,1.9-3.1,4-2.9
	C1453.8,584,1454.3,585.4,1454.3,587.1z"/>
<path class="st21" d="M1503.4,749.4c2.1,0.1,2.9,1.3,2.8,3c-0.1,1.9-1.1,3.5-3.6,3c-1.9-0.4-3.5-1.7-3.1-3.8
	C1500,750,1501.6,749.4,1503.4,749.4z"/>
<path class="st103" d="M194.4,736.3c-2.2-0.1-3.2-1.3-2.9-3.1c0.2-1.7,1.3-3.1,3.4-2.9c2.1,0.3,3.9,1.6,3.7,3.6
	C198.2,735.7,196.4,736.3,194.4,736.3z"/>
<path class="st104" d="M1480.4,539.2c0,2-0.8,3.2-2.8,3.3c-2.2,0-4-0.8-3.8-2.9c0.1-1.7,1.6-3.2,3.8-3.2
	C1479.5,536.5,1480,538,1480.4,539.2z"/>
<path class="st105" d="M1506.3,587.1c-0.1,1.8-1.3,2.8-3.3,2.7c-2.1-0.1-3.9-1.1-3.4-3.2c0.4-1.7,1.9-3.1,4.1-2.8
	C1505.7,584,1506.3,585.5,1506.3,587.1z"/>
<path class="st35" d="M1503.4,536.5c2,0.3,2.8,1.6,2.8,3.2c0,2.1-1.3,3.1-3.6,2.9c-1.9-0.2-3.4-1.2-3.1-2.9
	C1499.9,537.8,1501.3,536.7,1503.4,536.5z"/>
<path class="st60" d="M1506.3,705.1c-0.2,1.6-0.9,3.1-2.8,3.1c-2.2,0.1-3.7-1.4-3.9-3.1c-0.2-2,1.6-2.9,3.8-2.9
	C1505.4,702.2,1506.3,703.3,1506.3,705.1z"/>
<path class="st84" d="M1503.1,607.1c2,0.2,2.9,1.3,3.2,3c0.2,2.1-0.9,3.3-3.3,3.2c-1.7-0.1-3.4-0.9-3.4-2.7
	C1499.5,608.7,1501.2,607.7,1503.1,607.1z"/>
<path class="st106" d="M170.8,732.7c0,2-1.3,3.3-3.7,3.3c-2,0.1-3.4-1-3.7-2.7c-0.4-2.3,1.8-3,3.8-3.3
	C169.4,729.9,170.5,731.1,170.8,732.7z"/>
<path class="st107" d="M143.7,733.3c-0.5,1.6-1.4,2.9-3.5,2.9c-2.6,0.1-3.9-1.2-3.9-3.1c0-1.6,1.5-2.8,3.4-2.9
	C142,730.1,143.2,731.4,143.7,733.3z"/>
<path class="st89" d="M114.9,733c0,2-0.9,3.2-3.2,3.2c-2.2,0-4.2-0.8-4-2.9c0.2-1.7,1.9-3.1,4.1-3.1
	C114.1,730.3,114.6,731.9,114.9,733z"/>
<path class="st108" d="M60.3,733c0,2-0.9,3.2-3.2,3.2s-4.2-0.8-4-2.9c0.2-1.7,1.8-3.1,4.1-3.1C59.5,730.3,59.9,731.9,60.3,733z"/>
<path class="st109" d="M248.8,707.5c2.1,0,3.4,0.9,3.4,2.7c0,1.6-0.6,3.1-2.8,3.3c-2.4,0.2-4-1.2-4-3
	C245.4,708.9,246.7,707.6,248.8,707.5z"/>
<path class="st26" d="M252.2,664.5c-0.2,1.6-0.8,3.1-3.1,3.1c-2.2,0-3.9-1.3-3.8-3.2c0.1-1.6,1.4-2.8,3.5-2.8
	C251.3,661.7,252.2,662.7,252.2,664.5z"/>
<path class="st110" d="M143.7,779.1c-0.8,2.1-2,3.1-4.1,2.9c-2.7-0.3-3.2-1.9-2.6-3.8c0.5-1.5,1.8-2.7,3.9-2
	C142.6,776.8,143.7,778,143.7,779.1z"/>
<path class="st111" d="M248.8,690.4c-2.1-0.1-3.4-1.4-3.3-2.9c0.1-1.9,1.7-3.2,4-3c2.1,0.2,2.7,1.7,2.7,3.3
	C252.2,689.7,250.9,690.5,248.8,690.4z"/>
<path class="st112" d="M252.2,756.3c0,1.6-0.1,3.2-2.6,3.2c-2.2,0-4.1-1.2-4.1-3.1c0-1.6,1.8-2.7,3.7-2.9
	C251.5,753.2,252.2,754.6,252.2,756.3z"/>
<path class="st113" d="M248.8,736.3c-2.1-0.2-3.4-1.4-3.3-2.9c0.1-1.9,1.7-3.2,4-3c2.1,0.2,2.7,1.7,2.7,3.3
	C252.2,735.5,250.9,736.3,248.8,736.3z"/>
<path class="st114" d="M225.3,642c-0.4,1.8-1.8,2.6-3.8,2.5c-2-0.1-3.3-1.3-3.3-3c-0.1-1.6,0.9-3.1,3.1-2.9
	C223.3,638.9,224.9,640.1,225.3,642z"/>
<path class="st115" d="M1402.3,775.8c0,1.8-1.2,2.4-2.8,2.4c-1.7-0.1-3.6-0.4-3.7-2.4c-0.1-1.8,1.4-2.8,3.3-2.8
	C1400.9,773.1,1402,774.1,1402.3,775.8z"/>
<path class="st116" d="M251.3,778.2c-0.8,1.5-1.2,3.4-3.8,3.4c-1.8,0-2.8-1.3-2.5-2.6c0.6-1.7,2-3.1,4.2-3
	C250.6,776,251.5,776.8,251.3,778.2z"/>
<path class="st117" d="M516.7,594.5c0,15.7,0,15.7-18.6,15.7c-17.3,0-17.3,0-17.3-14.8c0-16.6,0-16.6,17.5-16.6
	C516.7,578.7,516.7,578.7,516.7,594.5z"/>
<path class="st117" d="M1438.7,167.8c5.9,9.9,10.7,18,15.6,26.1c1.8,2.9,0.6,4-2.9,4c-8.5-0.1-17.1,0-25.6,0c-3.2,0-4.2-1.1-2.7-3.6
	C1428,185.9,1432.9,177.6,1438.7,167.8z"/>
<g class="st118">
	<path class="st3" d="M36.8,303.4v-23.8h189.1v25.6H78.8l73.1,54.8v4.7L78.8,420h147.1v25.5H36.8v-24.1l77.6-59.2L36.8,303.4z"/>
	<path class="st3" d="M35.8,184.3v-17.9l190.1-79.9v26.1l-56,23.7v76l56,22.3v26.2L35.8,184.3z M145.8,146.8l-68.5,28.7l68.5,26.6
		V146.8z"/>
</g>
<ellipse class="st119" cx="724.4" cy="247.4" rx="21" ry="20"/>
</svg>
