<?xml version="1.0" encoding="utf-8"?>
<!-- Generator: Adobe Illustrator 21.0.0, SVG Export Plug-In . SVG Version: 6.00 Build 0)  -->
<svg version="1.1" id="Layer_1" xmlns="http://www.w3.org/2000/svg" xmlns:xlink="http://www.w3.org/1999/xlink" x="0px" y="0px"
	 viewBox="0 0 600 439" style="enable-background:new 0 0 600 439;" xml:space="preserve">
<style type="text/css">
	.st0{fill:#F4F4FE;}
	.st1{fill:#FEC63B;}
	.st2{fill:#DACCFC;}
	.st3{fill:#B7D0CD;}
	.st4{fill:#EEB126;}
	.st5{fill:#DACCFD;}
	.st6{fill:#3DC7E8;}
	.st7{fill:#FDC63C;}
	.st8{fill:#27A6D1;}
	.st9{fill:#FEFDF9;}
	.st10{fill:#27A7D1;}
	.st11{fill:#3AC1E5;}
	.st12{fill:#D9A224;}
	.st13{fill:#27A8D1;}
	.st14{fill:#FAFBFB;}
	.st15{fill:#FEC436;}
	.st16{fill:#3AC0E5;}
	.st17{fill:#F5FAF9;}
	.st18{fill:#0B2E4E;}
	.st19{fill:#FDFDFD;}
	.st20{fill:#9A86FE;}
	.st21{fill:#9986FC;}
	.st22{fill:#28ADD2;}
	.st23{fill:#8070F1;}
	.st24{fill:#EEEFF8;}
	.st25{fill:#EFF0F9;}
	.st26{fill:#E9EBF5;}
	.st27{fill:#FEFDFE;}
	.st28{fill:#E8EAF3;}
	.st29{fill:#29AED2;}
	.st30{fill:#ECEEFA;}
	.st31{fill:#F6F1FC;}
	.st32{fill:#F4EEFC;}
	.st33{fill:#F0EAFB;}
	.st34{fill:#E3E9F5;}
	.st35{fill:#F4F2FB;}
	.st36{fill:#415E78;}
	.st37{fill:#163453;}
	.st38{fill:#28ACD1;}
	.st39{fill:#647A91;}
	.st40{fill:#415A72;}
	.st41{fill:#1F3F60;}
	.st42{fill:#425B74;}
	.st43{fill:#4D647B;}
	.st44{fill:#546881;}
	.st45{fill:#54677E;}
	.st46{fill:#213C57;}
	.st47{fill:#526A87;}
	.st48{fill:#233D55;}
	.st49{fill:#CDD2DF;}
	.st50{fill:#395268;}
	.st51{fill:#C9CFDF;}
	.st52{fill:#44617D;}
	.st53{fill:#334E68;}
	.st54{fill:#435D77;}
	.st55{fill:#526A85;}
	.st56{fill:#7C7BCA;}
	.st57{fill:#4A6380;}
	.st58{fill:#193752;}
	.st59{fill:#495F7A;}
	.st60{fill:#5B7389;}
	.st61{fill:#576B81;}
	.st62{fill:#40546E;}
	.st63{fill:#1A3B5A;}
	.st64{fill:#F0F6FE;}
	.st65{fill:#223F58;}
	.st66{fill:#15384C;}
	.st67{fill:#3E5471;}
	.st68{fill:#586F88;}
	.st69{fill:#FDC94A;}
	.st70{fill:#2D4C65;}
	.st71{fill:#223E55;}
	.st72{fill:#1C3651;}
	.st73{fill:#1A324A;}
	.st74{fill:#FDFDFC;}
	.st75{fill:#FEFEFD;}
	.st76{fill:#FDFCF9;}
	.st77{fill:#FDC739;}
	.st78{fill:#FDC638;}
	.st79{fill:#F9C837;}
	.st80{fill:#FDC942;}
	.st81{fill:#FEC442;}
	.st82{fill:#FDC647;}
	.st83{fill:#F7CA3A;}
	.st84{fill:#FBCA33;}
	.st85{fill:#F8A07B;}
	.st86{fill:#DCCCFD;}
	.st87{fill:#D4CDF6;}
	.st88{fill:#F3F4FD;}
	.st89{fill:#F7F3FC;}
	.st90{fill:#F6F2FC;}
	.st91{fill:#F9F7FC;}
	.st92{fill:#21AAC7;}
	.st93{fill:#051E32;}
	.st94{fill:#061F33;}
	.st95{fill:#E3765C;}
	.st96{fill:#9986FB;}
	.st97{fill:#3D708A;}
	.st98{fill:#4F829F;}
	.st99{fill:#75A2C4;}
	.st100{fill:#6DB2CD;}
	.st101{fill:#67A6C2;}
	.st102{fill:#5F9DB8;}
	.st103{fill:#5E94B1;}
	.st104{fill:#71B7D1;}
	.st105{fill:#71ADC9;}
	.st106{fill:#5A90AD;}
	.st107{fill:#69A4C0;}
	.st108{fill:#75B4D0;}
	.st109{fill:#76AFCC;}
	.st110{fill:#6EA9C6;}
	.st111{fill:#629DB9;}
	.st112{fill:#538AA6;}
	.st113{fill:#477694;}
	.st114{fill:#72BBD4;}
	.st115{fill:#5E94AF;}
	.st116{fill:#5E99B5;}
	.st117{fill:#426B89;}
	.st118{fill:#73A5C4;}
	.st119{fill:#4B82A1;}
	.st120{fill:#6FB4CD;}
	.st121{fill:#72B2CA;}
	.st122{fill:#7DB2D1;}
	.st123{fill:#C9CDD7;}
	.st124{fill:#F0EAF8;}
	.st125{fill:#D4DCE8;}
	.st126{fill:#FDFBFC;}
	.st127{fill:#9B87FC;}
	.st128{fill:#AD9DFD;}
	.st129{fill:#29AED3;}
	.st130{fill:#F8A07A;}
	.st131{fill:#8071EF;}
	.st132{fill:#2BAFD5;}
	.st133{fill:#E3775B;}
</style>
<g>
	<path class="st0" d="M99.3,173.8c-1.2,7-4.1,13.7-3.9,21c0.1,4-3.7,3-5.7,4.3c0.3,0.4,0.6,0.7,1.1,0.9c0.4,0.2,0.9,0.3,1.4,0.3
		c6.6,0.9,11.8-1.2,16-6.7c2.4-3.2,5.6-6.1,10.4-4.8c0.4,0.2,0.9,0.3,1.3,0.4c3.2,1.2,4.5,3.6,4.8,6.9c0.5,5.7,2.3,10.4,8.2,13.1
		c3.8,1.7,4.6,5.7,3.5,9.8c-0.2,0.7-0.4,1.3-0.6,2c-1.3,3.3-3.5,6-5.2,9c-2.8,4.9-3.4,9.6,0.6,14.4c2.4,2.9,3.6,6.2,2.1,10.1
		c-1,2.3-2.3,4.5-4,6.4c-4.7,5.4-7.1,11.4-5.1,18.7c0.3,1.1,0.1,2.2,0.2,3.3c0,0.7,0,1.4-0.1,2.2c-0.4,3.2-2.4,5.4-4.7,7.3
		c-1.8,1.5-3.8,2.8-5.6,4.3c-2.8,2.5-4.5,5.6-3.2,9.2c1.6,4.3,1.1,8.3-0.1,12.4c5.1,11.4,11.8,21.8,18.7,32.1
		c0.6,0.9,1.4,1.7,2.5,2.1c1.5,0.6,3.2,0.5,4.8,0.6c6.8,0.2,13.6,0.2,20.4,0.1c3.7-0.1,5.1,1.3,5.1,5c0.1,9.2-0.5,18.4,0.3,27.5
		c4,6,10,9.8,15.7,14.2c-4.3,0.2-8.5,0-12.7,0c-2.7,0-2.8,0.5-2,3.1c6.3,1.1,12.6,0.7,18.9,0.2c4.8-2.7,4.9-2.9,2.5-9.1
		c-3.7-12.6,1.5-23.4,7-34c4.5-8.6,9.1-17,14-25.4c0.9-1.5,1.8-3,0.9-4.9c-1.2-1.4-2.9-1.3-4.4-1.9c-1.4-0.4-2.8-0.8-3.8-2
		c-3.7-3.2-8.1-5.7-10.8-9.9c-1.9-1.6-2.8-3.7-3.4-6c-0.6-2.3-1.3-4.5-1.4-6.9c-0.1-4.1,0-8.2,0-12.2c0-2.2,0.7-4.2,1.3-6.3
		c0.3-0.9,0.7-1.7,1.1-2.6c2.9-7.3,7.9-13.3,13.1-19c7.7-8.3,9.6-17.1,4.4-27.2c-0.9-1.8-1.6-3.8-2.2-5.7c-1-2.1-0.4-4.1,0.1-6.2
		c0.2-1.7,0.9-3,2.4-3.8c2.5-2.3,3-6.3,6.4-8c0.4-0.2,0.7-0.4,1.1-0.6c2-1.2,4-2.1,6.3-2.6c0.4-0.1,0.8-0.3,1.2-0.5
		c1.5-1.3,3.4-1.6,5.3-2c1.8-0.4,3.5-1,5.4-1c10.6-0.9,18.1-9.9,18.5-21.4c0.3-11,2.9-20.9,8.2-30.2c0.8-2.3,1.9-4.5,3-6.6
		c0.7-1.5,1.9-2.5,3.3-3.4c0.8-0.6,1.6-1.4,2.2-2.2c0.9-1.4,1.9-2.6,3.5-3.3c1.6-0.9,3.1-1.9,4.6-3c0.9-0.8,1.7-1.6,2.5-2.4
		c0.2-0.3,0.5-0.5,0.7-0.8c0.5-0.6,1.2-0.6,1.9-0.4c0.6,0.1,1.2,0,1.7-0.2c1.4-0.5,2.7-1.2,4.1-1.5c2.1-0.6,4.2-1.2,6.4-1.5
		c2-0.2,3.9-1.1,5.9-0.8c1.4,0.3,2.7,0.3,4-0.4c2.6-1.2,5.2-0.8,7.9-0.1c1.1,0.3,2.3,0.4,3.4,0.4c2.5-0.2,4.8,0.6,7.1,1.5
		c0.8,0.3,1.6,0.7,2.4,0.9c0.4,0.1,0.8,0.2,1.2,0.3c1.8,0.2,2.8,1.5,3.6,2.9c0.3,0.3,0.7,0.5,1.1,0.7c3.3,1,5.1,3.5,6.8,6.2
		c1,1.6,2.3,3,3.4,4.6c1.1,1.1,1.2,2.7,1.6,4c3.1,6.1,7.8,10,14.7,11.4c4.2,0.8,8.2,2.3,11.7,4.9c4.2,2.9,8.2,5.9,10.1,10.9
		c1.6,1.6,2.2,3.6,2,5.9c0,1.6,0,3.1-0.1,4.7c0,1.5-0.6,3-0.9,4.5c-0.4,2-1.2,3.7-2.8,5c-1.1,0.9-2.1,1.9-3,3c-0.6,1-1.3,2-2,2.9
		c-0.3,0.3-0.5,0.6-0.8,1c-0.4,0.5-0.9,1-1.3,1.5c-3.6,6.7-3.4,13.4,0.3,20c2,3.5,4.3,6.7,7,9.5c2.9,1.7,5,4.2,7,6.9
		c1.3,1.2,1.9,2.7,2.1,4.4c0.1,1.7,0.1,3.4,0,5.1c0,1.7-0.6,3.3-1.4,4.8c-0.5,0.9-0.9,1.8-1.2,2.8c-0.2,1.2-0.7,2.2-1.6,3
		c-0.8,0.9-1.6,1.8-1.8,3.1c-0.2,1.6-0.5,3.3-1.3,4.8c-0.5,1-0.8,2.1-0.7,3.2c0.3,1.4,0.3,2.8,0.4,4.1c0,1.8,0.4,3.4,1.2,5
		c2.7,5.7,4.2,11.5,2.6,17.8c0,4,2.5,7.1,4.3,10.3c6.6,11.7,12.6,23.7,19.1,35.4c1,1.8,1.4,4.9,4.9,3.9c2.7-3.4,2.9-7.7,3.6-11.7
		c2.1-11.1,4.4-22.1,6.6-33.1c1.4-7.2,2.1-7.8,9.4-7.8c36.1,0,72.3,0,108.4,0c2.6,0,5.5,0.7,7.7-1.6c-1.5-1.4-3.3-0.8-5-0.8
		c-10.5-0.1-20.9-0.2-31.4,0.1c-4.2,0.1-4.9-1.3-3.6-4.9c4-11,5.9-22.6,7.3-34.1c1.8-15,2-30.2,0.5-45.4
		c-1.1-11.5-2.7-22.8-5.8-33.9c-3.7-13.4-7.9-26.6-14.3-39c-3.1-6.1-6.6-12.1-9.8-18.2c-0.6-1.1-1.5-2-2.7-2.6
		c-4.1,4.5-8.8,8.6-8.1,15.3c-0.5,0.4-0.9,0.6-1.1,0.4c-6.7-6.8-15.3-5.6-23.6-5.5c-4.7,0.1-8.7-1.1-11.6-5.1
		c-3.2-4.3-3.9-9-1.7-13.8c2.2-4.9,6.1-7.6,11.5-7.9c5.5-0.3,11.1,0,16.6-0.1c2,0,4.2,0.4,5.8-1.3c-12-14.3-25.3-27.2-40.3-38.3
		c-12.2-9.1-25.1-17-39-22.9c-15-6.3-30.5-11.6-46.9-14c-8.3-1.2-16.4-2.8-24.8-2.7c-4.6,0-9-1.2-13.7-1c-24,0.9-47.5,4.5-70.3,12.8
		c-17.1,6.2-33.3,14.3-48.1,24.7c-12.2,8.6-23.7,18.1-33.9,29.1c1.9,1.9,4.5,1.3,6.8,1.3c20.1,0.1,40.2,0,60.3,0
		c16.1,0,19,2.9,19,19.1c0,18.5,0,37,0,55.5c0.1,1.4,0.1,2.7-0.6,4c-2.1,4.9-5.8,7.1-11.2,7.2c-6.4,0.1-7,0.9-7.1,7.2
		c-0.1,4.7,0.2,9.4-0.2,14.2c-2.3,0.1-3.4-1.4-4.8-2.4c-7.1-5.3-14.3-10.5-21.4-15.8c-2.8-2.1-5.8-2.7-9.3-2.7
		c-25.5,0.5-51.1,0.7-76.6-0.1C102,172.7,100.4,172.2,99.3,173.8z"/>
	<path class="st1" d="M236.2,162.1c0-21.5,0.2-43.1,0.1-64.6c0-7.4-5.5-12.3-13.4-12.3c-21.9-0.1-43.7,0-65.6,0
		c-2.8,0-5.7-0.1-8.5-0.2c-14.8,0.1-29.6,0.1-44.5,0.2c-8.2,0.1-12.9,3.9-13.6,11.2c0.7,0.8,0.5,1.8,0.5,2.7c0,20.1,0,40.2,0,60.3
		c0,0.9,0.2,1.9-0.6,2.7c0,6,3.3,9.6,8.6,11.6c27.5,0.9,55.1,0.5,82.6,0.2c2.4,0,4.2,0.7,6,2.1c8.3,6.1,16.6,12.2,24.9,18.2
		c1.2,0.9,2.3,2.1,4.4,2.3c0-5.9,0.3-11.7-0.1-17.5c-0.3-4.2,0.9-5.5,5.2-5.3c7.8,0.3,11.2-2.2,13.3-8.7
		C235.3,164,235.7,163.1,236.2,162.1z"/>
	<path class="st2" d="M184,401.9c-7,0-14,0-20.9,0c-0.4-0.4-0.8-0.8-1.3-1.1c-7.3-0.7-14.5-0.1-21.8-0.2c-2.7,0-5.4,0.2-8.1-0.3
		c-0.6-0.1-1.1-0.1-1.7,0c-10.4,0.1-20.8,1.1-31.2-0.6c-8.4,1.6-16.8,0.5-25.3,0.9c-2.3,0.1-4.7-0.4-6.7,1.3
		c-7.4,0-14.9,0.1-22.3,0.1c-7.1,0-11,2.9-11.1,8.2c-0.2,6.3,3,9.4,10.5,10c1.7,0.8,3.4,0.4,5.1,0.4c166.6,0,333.2,0,499.9,0
		c1.7,0,3.5,0.4,5.1-0.4c2.6,0.2,5.2-0.1,7.3-1.5c3.2-2,5.3-5.1,4.8-9.1c-0.6-4.6-4-6.6-8.1-7.5c-1.4-0.3-2.8-0.1-4.3-0.1
		c-47.7,0-95.4,0-143.1,0c-2,0-4.1,0.3-6-1c-4.5-1.1-9.1-0.5-13.6-0.5c-9.4-0.1-18.9-0.1-28.3,0c-1.9,0-3.8,0-5.6,0.8
		c-1.8,1.8-4,2.3-6.5,2.2c-6.5-0.1-13-0.1-19.5,0c-2,0-4.2-0.3-5.6,1.8c2.8,1.8,17,2.3,25.3,1c-8.2,1-16.4,0.5-24.5,0.4
		c-9.3-0.1-18.6,0.2-27.9,0.3c6.4-0.9,13,0.7,19.4-1.8c-7.2-2.8-14.7-1.3-22-1.8c-0.4,0-0.9,0.1-1.3,0.3c-0.4,0.2-0.8,0.4-1.1,0.7
		c0.2-0.2,0.6-0.4,0.8-0.6c0.5-0.6,0.4-1.2,0.1-1.8c-0.3-0.3-0.7-0.5-1.2-0.7c-0.7-0.1-1.3,0-2,0.3c-1.8,2.5-2.5-1.4-4-0.8
		c-10.6-0.7-21.2-0.2-31.8-0.3c-18.4-0.2-36.7,0.5-55.1-0.5c-3.2,0.9-6.5,0.7-9.8,0.6C188.4,400.5,186.1,400.6,184,401.9z"/>
	<path class="st3" d="M357.2,402c14.3,0,28.5,0,42.8-0.1c1.7,0,3.5,0.6,4.9-0.9c-1.9-6.3,0.9-12.1,2.1-18
		c4.7-25.3,10-50.4,14.9-75.6c0.9-4.5,2.9-6.4,7.6-6.4c38.2,0.1,76.4,0.1,114.5,0.1c1.6,0,3.1,0,5.2,0c-1.4-3.4-3.3-5.6-6.4-6.7
		c-39.2,0-78.5,0.1-117.7,0.1c-7,0-7.6,0.6-8.9,7.5c-2.8,14.5-5.7,29-8.6,43.5c-0.2,1.2-0.6,2.4-1.7,3.3
		c-2.6,10.3-4.3,20.7-6.4,31.1c-1.6,7.8-1.6,7.8-9.5,7.3c-0.6,0-1.3-0.1-1.9,0c-8.5,0.4-17,0-25.5,0.2c-0.6,0-1.1,0-1.7,0
		c-5.2,0.1-10.5-0.5-15.7,0.4c-3.4,1.8-0.4,3.1,0.6,4c3.7,3.2,7.5,6.1,10.1,10.3C356.3,402.3,356.8,402.3,357.2,402z"/>
	<path class="st4" d="M67,401.8c9.1,0,18.2,0,27.3,0c1.8,0,3.9,0.4,4.8-1.9c1.7-1.3,1.8-3.3,2.1-5.1c1.6-10,3.5-19.9,5.2-29.8
		c0.3-1.8,0.9-3.7-0.6-5.4c-1.4-0.9-3-1-4.6-1c-13-0.2-26,0.2-39-0.2c-1,0-1.9,0.2-2.7,0.7C62.1,373.4,64.5,387.6,67,401.8z"/>
	<path class="st5" d="M465.7,97.4c-7.1,0-14.3,0-21.4,0c-8.6,0.1-15.4,6.5-15.2,14.8c0.2,8.4,7.4,15.4,15.2,14.9
		c9.4-0.7,19.2-1.7,25.6,7c1.8-0.6,1.6-1.5,1.6-2.2c-0.5-4.3,0.2-8.1,3.9-10.9c1.7-1.3,1.9-3.6,2.8-5.4
		C478.1,105,474.7,100.1,465.7,97.4z"/>
	<path class="st6" d="M90.7,199.4c-0.3-0.1-0.7-0.2-1-0.3c-7.5,2.7-7,9.3-7.8,15.4c-1.3,5.4-3,10.6-7.7,14.3c-1.3,1-2,2.4-2.5,4
		l0,0.1c-1.5,0.9-2,2.2-1.3,3.9c8.3,7.2,14.9,15.8,20.3,25.4c0.8,1.4,1.5,3.1,3.4,2.8c1.6-0.3,1.9-2,2.2-3.4
		c1.6-6.8,3.4-13.5,4.7-20.3c1-4.9-0.5-10-1.5-15C97.6,217,95.2,207.9,90.7,199.4z"/>
	<path class="st7" d="M52.4,349.6c0,2.3,0.2,4.5,3.5,3.8c1.7-0.3,2.5,0.8,3.2,2.1c14.2-1.1,28.4-0.3,42.6-0.5c1.7,0,3.5,0,5.2-0.1
		c2.5,0,5.5,0.5,6.5-2.5c1.2-3.9,1.6-8.1-0.5-11.9c-0.9-1.7-3-1.6-4.7-1.7c-4.9-0.2-9.8,0-14.7-0.1c-1.2-0.2-2.3,0-3.5,0.1
		c-5.6,0.3-11.2,0.1-16.8,0.1c-2-0.1-3.9-0.4-5.9-0.3c-4.2,0.2-8.3,1.7-12.6,1.1c-1.7-0.2-2.6,0.6-2.5,2.4
		C52.3,344.5,51.9,347.1,52.4,349.6z"/>
	<path class="st8" d="M36.2,292.6c0.2,1.5,1.3,2.6,2.4,3.4c5.4,3.9,8.2,8.8,7.6,15.6c0.4,0.3,0.8,0.3,1.2,0c1.2-1,0.9-2.5,1-3.7
		c0.3,1.4-0.7,3.1,0.6,4.6c3,2,6.6,1.9,9.9,2.7c4.3,1,8.3,3.1,12.5,4.5c3.4,1.1,4.3,0.5,3.4-2.8c-1.6-5.6-3.5-11.1-5.9-16.5
		c-0.8-1.8-1.9-3.3-3.8-4c-7.6-2.7-15.4-4.5-23.5-5C39.7,291.2,37.7,290.9,36.2,292.6z"/>
	<path class="st9" d="M554.2,420.1c-112.6,0-225.3,0-337.9,0c-57.4,0-114.8,0-172.3,0c1.4,1.5,3.3,0.9,4.9,0.9
		c166.8,0,333.5,0,500.3,0C550.9,421,552.8,421.6,554.2,420.1z"/>
	<path class="st10" d="M30.6,269.8c1,1.3,1.9,2.8,3.2,4c3.6,3.4,4.8,7,1.9,11.6c-1.2,1.8-1.7,4.1-0.1,6.1c8.5,0.2,16.9,1.2,25.1,3.8
		c1.3,0.4,2.7,1.4,4,0.2c1.5-1.3,0.8-3,0.2-4.4c-1.7-3.9-3.4-7.8-5.2-11.7c-0.7-1.5-1.8-2.6-3.3-3.2c-7.1-3.2-14.2-6.1-21.8-7.7
		C33.2,268.2,31.2,267,30.6,269.8z"/>
	<path class="st10" d="M67.8,339.4c1.7,0.3,3.5,0.7,5.2,0c7.7,0.6,7.8,0.3,6.6-7.2c-1.2-7.8-5.2-12.7-12.9-15
		c-5.3-1.6-10.5-3.1-16-4.1c-1.4-0.2-2.8-0.9-4,0.5c0.7,3.7,3.8,4.8,6.7,6c4.2,1.8,6.9,4.3,5.5,9.5c-0.7,2.5,0.8,4.5,2.2,6.4
		C63.1,337.1,64.9,339.2,67.8,339.4z"/>
	<path class="st11" d="M46.8,313.5c9.2,0.6,17.8,3.3,26.1,7.4c2.8,1.4,3.2,4.1,4,6.6c0.5,1.6,1.2,3.3,1.5,5c1.3,6.5,1.2,6.5-5.3,6.9
		c5.9,0.6,11.8,0.7,17.7,0c0.3-0.4,0.4-0.8,0.1-1.3c-8.5-0.8-8.2-0.9-10.8-9.4c-2.6-8.4-0.7-15.6,3.9-22.5c1-1.5,1.8-3,2.5-4.6
		c0.5-1.1,1.5-2.5,0.1-3.4c-1.6-1-2.6,0.5-3.5,1.6c-1.5,1.8-2.6,4-3.6,6.1c-1.3,2.5-2.6,5-3.7,8.7c-0.9-3.5-1.4-6.4-2.9-8.7
		c-4.6-7.3-2.5-14.1,0.7-21.2c2-4.4,5.7-8,6.5-13.1c-0.1-0.5-0.4-0.9-0.7-1.2c-2.4-0.1-3.1,1.9-4.2,3.3c-3.5,4.9-5.8,10.4-8.2,16.5
		c-5.8-9.1-8.3-18.5-6.9-28.9c0.7-5,1.1-10,2.4-14.9c-1.6-1.9-2.7-0.6-3.8,0.5c-3.2,7.7-2.5,15.8-2.5,23.8c0,0.9-0.1,1.8-0.9,2.3
		c-5.1-0.6-9.4-3.6-14.4-4.6c-3.9-0.8-7.7-3-11.9-1.6c0.2,1.2,0.8,2.2,1.8,3c5.7-1,10.4,2.2,15.6,3.4c0.7,0.2,1.4,0.9,2.1,1
		c10,1.5,12.4,9.9,15.6,17.5c0.4,1,0.9,2.4,0.5,3.1c-0.9,1.3-2.3,0.1-3.4-0.3c-6.9-2.4-14.2-2.5-21.3-3.8c-1.4-0.3-2.8,0.1-4.1,0.8
		c0.2,0.4,0.4,0.7,0.6,1.1c9.8-0.6,19,2,28.2,4.7c3.2,0.9,3.6,3.9,4.5,6.2c2.1,5.1,3.6,10.3,5.7,16.4c-8.5-4.6-17.2-6.3-25.8-8.3
		c-0.6-0.6-1.3-0.5-1.9,0c-0.3,0-0.5,0-0.8,0C46,312.3,46.1,313,46.8,313.5z"/>
	<path class="st3" d="M491.5,347.5c-0.1-5.3-3.8-9.3-8.7-9.3c-6.7,0-13.7,6.7-13.9,13.2c-0.1,5,4.7,9.7,9.8,9.6
		C485.5,360.8,491.6,354.4,491.5,347.5z"/>
	<path class="st10" d="M28.9,266.8c8.8,1.7,17.3,4.3,25.5,8c0.8,0.4,1.5,0.4,2-0.4c-1.6-7.1-6.1-12.8-9.6-18.9
		c-1.8-3-3.7-5.9-5.8-8.7c-1.2-1.6-2.2-3.6-4.8-3.1c-2.9,1.3-2.5,3.8-2,6c0.7,3.5-0.2,6.1-3.1,8.3C28.1,260.4,26.8,263.2,28.9,266.8
		z"/>
	<path class="st12" d="M107,353.5c-14.4,0-28.8,0-43.3,0c-1.8,0-4-0.7-4.6,2c0.2,1.2,0.3,2.5,0.5,3.7c8.2,1.8,16.6,0.6,24.9,0.8
		c7.1,0.2,14.2,0.1,21.2,0.1C107.9,358.2,108.5,356,107,353.5z"/>
	<path class="st13" d="M57.4,272.5c-0.2-8.6-0.1-17.2,1.9-25.7c-0.9-0.8-1.9-0.7-2.9-0.1c-0.6,0.1-1.2,0.1-1.9,0.2
		c-3.5-1-5.9-4-9.5-4.9c-2.3-0.3-4.5-2-6.8-0.1c-0.5,1,0.1,1.8,0.7,2.5c5.9,7.8,10.8,16.1,15.2,24.7
		C54.8,270.6,54.9,272.8,57.4,272.5z"/>
	<path class="st14" d="M56.4,246.7c1,0,1.9,0.1,2.9,0.1c1-0.5,1.9-1.1,2.9-0.1c2.8,3.3,4.5,7.1,5.6,11.3c0.8,2.8,1.5,6,5.3,6.6
		c4.3-1.7,3.5-5.1,2.6-8.3c-1.8-5.9-3.9-11.6-3.8-17.8c-0.1-0.8-0.5-1.5-1-2.2c0.3-1.2,0.7-2.4,1-3.6c-1.4-0.9-3-1.8-2.7-3.8
		c-1.3,0.2-2.1,1.1-1.6,1.6c2.5,3,0,6,0.2,9c0.2,3.1-3.6,4.9-5.9,3c-1.7-1.4-3.3-1.6-5.5-1.3c0.8,1.3,2.9,0.4,3.3,2.4
		C57.1,243.2,55.2,243.5,56.4,246.7z"/>
	<path class="st14" d="M71.8,232.7c5.7-4.8,11-9.8,10.2-18.2c-1.3,0.7-0.9,4.1-4.2,2c-1.7-1.1-3.2,2.4-2.7,3.4
		c1.6,3.5-0.2,5.6-2.3,7.8C71.4,229.1,70.9,230.8,71.8,232.7z"/>
	<path class="st15" d="M90.6,162.2c1.4-1,1-2.6,1-3.9c0-19.3,0-38.6,0-57.8c0-1.4,0.4-2.9-1-3.9C90.2,118.3,90.3,140.2,90.6,162.2z"
		/>
	<path class="st16" d="M57.4,272.5c-4.2-4-5.5-9.7-8.5-14.5c-3.4-5.5-6.8-10.9-10.6-16.1c-1.2,0-1.9,0.7-2,1.9
		c1.9,1,3.1,2.6,4.3,4.3c6,8.4,10.8,17.4,15.9,26.3C56.7,273.8,57.1,273.1,57.4,272.5z"/>
	<path class="st17" d="M67.8,339.4c-2-1.6-4-3.3-6.6-4c0.9,2.5,0.2,3.7-2.7,3.8c-7.3,0.3-8.3,2.2-6.1,10.4c0.6-9.7,0.6-9.7,10.7-9.7
		C64.7,339.8,66.3,340.2,67.8,339.4z"/>
	<path class="st14" d="M45.1,242c3,1.9,4.9,6,9.5,4.9C52.7,242.7,50.1,240.1,45.1,242z"/>
	<path class="st6" d="M360.9,388.5c0.3,0,0.7,0.1,1,0.1c1.8-2,1.3-4.5,1.4-6.8c0.3-6,0.7-12,4-17.4c1.6-3.8,4.8-6.7,6.6-10.4
		c5.1-10.1,3.8-20.2,0.6-30.4c-5.4-17-11.7-33.7-19.3-49.9c-2-3.2-5.5-4.6-8.4-6.8c-3.4-1.9-7-3.4-10.3-5.5c-1.6-1-3.3-1.8-5.3-0.9
		c-1.7,1.4-0.4,2.9-0.2,4.4c1.8,12.3-5.5,21.1-18,21.5c-4,0.1-7.9,0.4-11.9-0.3c-11.9-2.3-19.4-11-20.1-23.2c-0.1-1,0-1.9-0.5-2.8
		c-2-1.7-3.9-0.5-5.7,0.2c-6.3,2.5-12.1,5.8-18.4,8.2c-14,4.6-22,15.9-30.2,27c-3.9,5.2-6.9,11-10.4,16.4c-2.4,4.7-4.6,9.4-7.4,13.8
		c-0.4,0.7-0.7,1.5-1.1,2.2c-0.3,0.5-0.5,1.1-0.5,1.7c-2.4,7.4-7.1,13.6-10.6,20.5c-4.1,7.8-8.6,15.4-11.4,23.9
		c-2.2,6.6-2.9,13.2-0.7,19.9c3.4,6.7,9.2,8,16,7.2c29.8,1.6,59.7,0.1,89.5,0.8c0.6,0.5,1.3,0.5,1.9,0c0.6-0.1,1.2-0.2,1.8-0.3
		c0.6-0.8,0.4-1.8,0.5-2.8c0.4-6.7,1.8-8.5,8.2-10.3c0.9-0.3,1.9-0.5,2.3-1.5c0-3.5-2.8-3.9-5.2-4.5c-7.5-1.8-15.3-2.7-22.9-4.1
		c-6.4-1.2-12.8-2.2-19.1-3.9c-8.4-1.2-16.7-3.4-25.6-4.5c7.3-8.6,12.5-18.3,19.3-26.7c1.9,1.3,2,3.6,2.7,5.4
		c4.1,11.2,12.1,18.2,23.2,22.2c13.9,4.9,28.3,6.7,42.9,7.1c7.6,0.2,15.1,0.9,22.7,1.4C349.7,380.3,355.2,384.7,360.9,388.5z"/>
	<path class="st18" d="M346.5,268c2.6,1.9,5.2,3.7,7.9,5.6c8.9,6.7,16.4,14.6,22.2,24.1c0.6,1,1.4,2.2,3,1.7c2-6,1.4-11.7-1.5-17.2
		c-1.1-2.1-1.7-4.4-1.9-6.7c-0.3-0.3-0.7-0.6-1-0.9c-3.4-5.5-2.9-11.2,0-16.7c4.3-8.2,4.5-16.2-0.1-24.3c-1.8-2.3-3.7-4.6-5.5-6.9
		c-5.6-7.2-6.5-14.7-1.7-22.7c0.3-0.2,0.6-0.5,0.8-0.8c0.1-0.3,0.1-0.6,0-0.9c0.5-1.6,1.3-3.1,2.3-4.5c5.3-11.9,4.1-23-4.6-32.9
		c-2.9-4.1-7.7-4.8-11.9-5.8c-6.8-1.5-11.7-5.1-15-11.1c-1.1-1.5-1.8-3.3-3.1-4.7c-5-4.3-11.1-6.2-17.4-6.6
		c-11.9-0.7-23.5,0.5-32.5,9.6c-1.1,1.1-2.3,2.2-2.7,3.8c0.1,2.8,1.8,1.3,3,1.1c1-0.9,2.6-0.7,3.1-1.1c-0.7,0.3-2.2,0.5-3.4,1.3
		c-1.2,0.9-2.9,0.4-4.1,1.3c-4.7,5.9-5.5,13-6.1,20.1c-0.5,5.7-0.1,11.4-0.1,17.1c0,3.2,1,5.5,4.3,6.5c4,1.1,6.2,4.7,9.4,7
		c6.9-3,13.8-6,20.8-8.6c7.5-2.8,14.9-6.2,21.7-10.6c4.8-3.1,9.3-6.5,12.9-11c0.9-1.6,2.2-2,4-1.5c4.9,1.3,9.1,6,9.6,11.2
		c0.6,6-0.2,11.7-3.8,16.7c0.1,3.3,2.2,6.2,2,9.7c-0.4,7.4-2.7,13.6-9.5,17.4c-1,0.5-2,1-1.9,2.4c2.5,6.7,5.1,13.3,5.6,20.5
		c0.3,4.9-0.4,9.5-3.1,13.6C347.1,264.5,346.3,266.1,346.5,268z"/>
	<path class="st18" d="M216.5,312.7c5.9-8.4,10.7-17.5,17.5-25.3c6.4-7.3,12.9-14.4,22.4-17.6c1.9-2.9,1.8-6.3,2.2-9.6
		c1-8.5,4.6-15.4,12.7-19.2c3.3-1.6,6.5-3.2,8.8-6.2c1.5-1.9,2.8-3.9,1.1-6.4c-4.8-2.2-10.2-3.1-13.3-8.4c-4.8-8.2-3.4-17.3,4.3-23
		c1.6-1.2,3-2.4,2.9-4.6c-0.9-11-0.2-21.8,1.9-32.6c0.1-0.3-0.1-0.6-0.1-0.9c-1.6-2.2-3.1-0.8-4.3,0.3c-2.2,1.8-4.2,3.8-6,6
		c-0.8,1.3-1.8,2.4-3,3.4c-0.6,0.7-1,1.4-1.3,2.3c-0.5,1.9-1,3.8-2,5.5c-0.5,1.1-1,2.1-1.3,3.3c-0.7,2.7-1.1,5.4-1.8,8.1
		c-0.8,9.1,0.3,18.3-0.2,27.4c0.3,3.9-1.3,7-3.8,9.8c-0.9,0.9-2.1,1.5-3.3,2c-1.5,0.7-3.1,0.8-4.6,1.2c-4.1,0.8-8.3,0-12.3,1.3
		c-2.1,0.3-4.1,1.1-6.1,1.8c-1.1,0.3-2.1,0.9-3.1,1.5c-2.4,1.5-4.4,3.4-6.5,5.2c-0.2,0.4-0.4,0.8-0.5,1.2c-0.9,2.8,0,5.7-0.9,8.4
		c-2.8,0.7-3.6,2.7-2.5,5c1.1,2.2,2.6,0.6,3.9-0.2c2.5-0.4,2,2,3,3.1c0.4,1,0.8,2,1,3c0.3,1,0.4,2.1,0.4,3.1c0,1.3,0,2.6,0,3.9
		c0,1.4,0.2,2.8-0.1,4.2c-0.3,1.3-0.3-0.6-0.7-0.2c-1.8,3.6-7.9,4.9-5.8,10.6c1.6,0.8,1.8-0.7,2.5-1.4c-0.1,1-0.8,1.9-0.9,3
		c0,1.7-0.2,3.3-1.2,4.8c-0.4,0.7-0.8,1.4-1,2.2c-0.1,0.4-0.1,0.9-0.3,1.3c-0.2,0.6-0.5,0.9-0.2,0.4s-0.8,0.1-0.2-0.2
		c0.1-2.3,1.6-4,2.3-6c0.1-0.4,0.2-0.9,0.2-1.3c-0.1-0.9-0.1-1.8-0.9-2.5c-3.5-2.7-7.1-0.6-10.4,0.2c-3.5,0.9-6.4,1.4-9.5-1.6
		c-2.9-2.8-6.8-1.2-8.1,2.7c-0.1,0.3,0.3,3.2-1.2,0.5c-0.3-0.5-1.1-0.6-1.7-0.1c-0.2,0.7-0.5,1.3-0.7,2c0.2,1.9-0.3,3.9,0.7,5.7
		c1.6,0.2,2.6,1,2.6,2.6c0.2,4.7,3.1,5.4,7,5.4c5.8,0,11.6-0.8,17.3,0.9c0.2,0.5,1.4-1.2,1.1,0.4c-0.2,1.2-0.3,2.3-0.1,3.5
		c0.6,1.8,0.6,3.7,0.7,5.5C213.8,309.9,214.3,311.9,216.5,312.7z"/>
	<path class="st10" d="M379.5,299.4c-4.6-4.7-7.3-10.9-12-15.6c-4-4-7.8-8.1-13.2-10.2c2.3,8.2,6.7,15.6,9.5,23.6
		c4.7,13.2,10.5,26,12.2,40.1c1,8.2-1.8,15.5-6.9,21.9c-1.2,1.5-2.7,2.7-2.4,4.9c-0.5,1.6,0.7,2.7,1.5,3.7
		c5.2,6.7,10.9,12.9,17.1,18.7c0.9,0.9,1.9,1.7,3.3,1.5c2.7,1.5,5.5,0.7,8.3,0.9c2,0.1,2.3-1.3,2.6-2.7c2.3-11.5,4.7-23.1,6.9-34.6
		c0.2-0.8-0.4-1.8-0.6-2.7c-8.4-15.4-16.8-30.8-25.2-46.2C380.2,301.5,379.9,300.4,379.5,299.4z"/>
	<path class="st18" d="M263.1,170.6c0.3-0.7,0.6-1.3,0.9-2c1.8-0.6,2.1-2.6,3.3-3.7c3.4-3.5,6.8-7,11.1-9.6c1.8-2.4,3.1-5.1,5-7.5
		c3.7-4.7,8.3-8.2,14.2-9.8c9.3-2.6,18.7-3.2,28.1-0.3c1.5,0.5,3,0.9,4.6,0.2c1.7-3.5-2.7-3.2-3.3-5.3c-0.3,0-0.7,0-1,0
		c-0.4-0.3-0.7-0.6-1.1-0.9c-1.7-0.9-3.5-1.3-5.3-2c-24.3-4.3-44.8,2.9-61.8,20.4c-0.8,0.8-1.4,1.7-2.3,2.4
		c-5.8,9-8.7,18.6-8.7,29.5c0,12.3-6.4,19.6-17.9,22.1c-0.3,0.2-0.5,0.6-0.5,0.9c-1.4,1.1-3.2,0.9-4.7,1.6c-1,0.3-2,0.7-3,1
		c-2.8,1.2-5.5,2.4-8.2,3.8c-0.9,0.4-1.7,1-2.4,1.6c0-0.1-0.6,0.8-0.1-0.1c0.1-0.3,0.4-0.5,0.5-0.8c0-0.7-0.1-1.2-0.9-1.3
		c-3.2,2-4.4,5.5-6.2,8.5c-1.1,1-1.7,2.3-2.2,3.7c-0.1,1.1,0.2,2.1,0.9,3c0.4,0.3,0.8,0.4,1.2,0.5c3.3-0.5,6.3-2,10.1,0
		c3.5,1.8,8.8-0.3,11.1,4.9c0.1,0.3,0.9,0.2,1.4,0.2c0.4,0,0.9-0.1,1.3-0.3c3.3-1.8,6.5-3.8,10.5-2.7c0.9,0.2,1.7,0.2,2.6-0.1
		c2.3-1.3,4.7-1.2,7.1-0.8c0.9,0.1,1.8,0,2.6-0.4c1.3-0.6,2.5-1.3,3.6-2.3c3.3-3.3,4.1-7.5,4.4-11.8c0-8.4,0-16.8,0-25.2
		c0.2-2.2,0.9-4.4,1.2-6.6c0.8-0.9-2.3-2.4,0.5-2.9c0.8-0.7,1.1-1.7,1.4-2.7C261.9,174.2,262.1,172.3,263.1,170.6z"/>
	<path class="st5" d="M419.4,180.2c-6.8,0-13.6,0.1-20.4,0c-3.5-0.1-4.8,1.2-4.8,4.7c0.2,8.7,0.1,17.4,0,26.1c0,3.2,1.1,4.8,4.4,4.5
		c0.6-0.1,1.3,0.1,1.9,0c7.1-1,13,0.5,16.3,7.7c1.4,3,3.6,3.8,5.2,0.1c3.1-7.2,8.6-8.5,15.7-8c7,0.5,7,0.1,7-7
		c0-7.8-0.1-15.5,0.1-23.3c0.1-3.8-1.3-5-5-4.9C433,180.3,426.2,180.2,419.4,180.2z"/>
	<path class="st19" d="M107,353.5c-0.4,2.2-0.9,4.4-1.3,6.6c-2.2,13.3-4.4,26.6-6.6,39.9c0.3,1.2,0.9,1.9,2.3,1.9
		c9.3,0,18.6,0,27.9-0.1c0.5,0,1-0.6,1.5-0.9c-0.1-2.8-0.8-5.3-3.1-7.1c-1.3-0.6-2.8-0.5-4.2-0.8c-6.2-1.1-10.9-6.2-11.5-12.2
		c-0.7-7.4,2.6-13,9.1-15.4c1.2-0.4,2.4-0.8,3.7-1c3.1-0.4,4.2-2.2,4.3-5.2c0.1-2.1-0.7-4.5,1.2-6.3c0.5-0.4,1.1-0.9,1.3-1.6
		c-6.7-11.2-13.4-22.4-20.1-33.5c-2.1,0-3.5,1.3-4.9,2.5c-5.3,4.6-9.6,10-13.4,15.8c-0.6,0.9-1.3,1.8-0.8,3.1
		c5.4,1.2,11,0.5,16.4,0.5c3.1,0,4.4,1,4,4.1c-0.1,1.2-0.2,2.5,0,3.8C113.7,352.4,111.7,354.3,107,353.5z"/>
	<path class="st20" d="M131.7,401c1.4,1.6,3.2,1,4.9,1c8.4,0.1,16.9,0,25.3,0c4.3-4.5,4.5-9.7,2.3-15.2c0-10.4-0.2-20.8-0.1-31.3
		c0-3.1-0.9-4.1-4-4c-7.9,0.2-15.8,0.2-23.7,0.2c-1.2,1.2-1.4,2.8-1.3,4.4c0.3,13.6-1,27.2,0.8,40.7
		C136.2,400.4,132.7,399.3,131.7,401z"/>
	<path class="st18" d="M217.2,251.6c-1.2-0.7-2.3,2.9-3.2,0.3c-0.5-1.4,0-3.4,2.5-3.3c1-3.1-0.4-6.5,0.9-9.6c0-0.3,0-0.5,0-0.8
		c2.3-1.5,4.1-3.5,5.9-5.5c0.1-0.5,0-0.9-0.2-1.3c-1.9-3-5-2.9-8-2.9c-4.5-0.1-9.1,0.5-13-2.6l0,0c-2.6,0.4-2.4,2.2-2,4
		c1,2.7,1.7,5.4,2.9,7.9c4.2,8.3,2.4,15.6-3.4,22.3c-4.1,4.8-8.4,9.5-11.7,14.9c-1.3,2.2-2.7,4.3-3.3,6.8c1,0.7,1.9,1.5,3,2.3
		c1.5-2,0.8-6.5,5.4-5.3c0.4,0.1,1.2-0.2,1.3,0c3.5,6.3,8.7,3.3,13.2,2c2.7-0.8,5.3,0.2,7.9-0.8l0,0c-0.1-2.6,0.5-4.7,3-6.2
		c1.4-0.8,0.9-3.3,2.6-4.3c1.2-0.9,1.5-2.2,1.5-3.7c0-0.9,0-1.8-0.1-2.7c-0.4-1.1-0.4-2.2-0.4-3.3c-0.2-1.6-0.7-3.1-1.4-4.5
		C219.7,254,219.4,251.9,217.2,251.6z"/>
	<path class="st6" d="M125.9,283c-2.5-9.8,0.4-17.9,7.3-25c0.8-0.8,0.9-2.3,1.4-3.5c-0.2-0.2-0.4-0.4-0.5-0.5
		c-1.7-0.9-3.4-0.2-5,0.2c-8.6,2.1-17,4.6-24.8,8.8c-7.4,3-12.1,7.7-12.4,16.4c-0.2,6.2-2,12.4-2.8,18.7c-0.1,1.3-0.1,2.6,1.2,3.3
		c2.2-0.1,3.8-1.5,5.4-2.8c7.8-6.2,16.9-9.9,26.1-13.4C123.2,284.6,124.8,284.2,125.9,283z"/>
	<path class="st6" d="M134.5,254.5c2.1-4,0.8-7.6-1.9-10.5c-4.2-4.6-3.7-9-0.7-13.8c1.8-2.9,4.1-5.7,5-9.1c-3.5-1.8-5.8,1.5-8.7,2.2
		c-8.1,4.2-16.2,8.5-23.7,13.8c-2.2,1.5-3.6,3.4-4.3,6c-1.8,6.9-3.2,13.8-4.9,20.7c-0.2,1-1,2.2,0.1,3.1c1.3,1,2.4,0,3.4-0.7
		c1.6-1.1,3.3-1.8,5-2.7c8.6-4.7,17.8-7.4,27.3-9.6c1.1-0.3,2.1-0.5,3.1,0.4L134.5,254.5z"/>
	<path class="st5" d="M152.5,232.9c0.8,6.6,5,11,9.6,15.2c0.5,0.4,1.1,0.6,1.6,1c8,5.9,8.1,6,15.5-0.1c3.7-3.1,7.6-6.3,9.6-11
		c2.1-4.9,1.4-10.4-1.7-13.1c-3.1-2.7-9-3-13.2,0.5c-2.7,2.3-4.5,1.5-6.4-0.3c-3.2-3-6.7-2.7-10.1-1.1
		C153.9,225.6,152.2,228.8,152.5,232.9z"/>
	<path class="st6" d="M92.4,339.3c5.3-8.1,11.4-15.5,19.1-21.4c2.2-3.2,3.2-6.6,1.4-10.2c-2.4-4.9-0.6-8.3,3.3-11.4
		c2.6-2,5.7-3.5,7.6-6.3c1-1.5,2.4-3,1.9-5.1c-1.7-1.6-3.4-0.2-4.9,0.3c-11,3.6-21,9.2-30.1,16.5c-4.1,5.3-4.6,13.4-0.7,18.3
		c3.1,3.9,2.5,7.8,1.4,12.1c-0.5,2-2.3,3.9-0.9,6.2c0,0.4,0,0.8,0,1.2C91.3,339.3,91.8,339.3,92.4,339.3z"/>
	<path class="st6" d="M137.4,219.2c1.5-5.4,0.7-9.2-3.9-11.2c-5.6-2.4-7.2-6.6-7.4-12c-0.1-4.1-2-6.9-5.9-8.2
		c-4,5.6-6.1,12.1-8.6,18.4c-3.4,8.7-6.3,17.5-8.8,26.5c-0.4,1.4-1.1,3,0.1,4c1.6,1.4,3.1-0.2,4.2-1c6.5-4.8,13.8-8.2,20.9-12.1
		C131.1,222.3,134.5,221.3,137.4,219.2z"/>
	<path class="st21" d="M330.5,137.3c-3.7-0.7-7.4-1.5-11.1-2.2c-8.5-1.4-16.8-0.3-24.8,2.5c-8.6,3-13.6,9.9-17.4,17.9
		c-0.7,0.8-0.9,1.7-0.9,2.8c-3.1,11.1-3.4,22.4-2.5,33.8c0.2,1.8-0.2,2.7-1.8,3.7c-7.2,4.5-9.8,11-7.8,19
		c2.1,8.4,7.8,13.2,16.8,13.9c1.1,0.3,2.2,0.1,3.3-0.3c1.1-0.4,2.3-0.7,3.3-1.3c6.9-6.1,8.2-13.3,4.1-23.1c-0.3-0.4-0.7-0.8-1.2-1
		c-3-3.9-6.1-7.8-11.4-8.5c-1.1-0.2-1.6-0.9-1.7-1.9c-0.6-12.8-1.3-25.6,4.4-37.7c0.3-0.7,0.9-1.3,1.3-2c0.5-0.6,0.4-1.4,0.8-2.1
		c8.2-13.9,33.9-16,45.7-10.2c2.2,1.1,4.7,1.7,6.6,3.5c0.5,0.4,0.9,0.3,1.2-0.2c-0.2-2.2-2.5-3-3-5
		C332.9,138.7,332.1,137.1,330.5,137.3z"/>
	<path class="st6" d="M119.2,187.8c-4.7-2.1-8.4,0.5-10.7,3.7c-4.3,6-9.7,8.6-16.9,7.9c-1,2.8,1.2,4.7,2,7
		c2.9,8.1,4.8,16.3,6.4,24.7c0.2,1.2,0,2.6,1.3,3.4c1.5-0.1,1.6-1.4,1.9-2.3c4.4-14.3,9.1-28.6,15.7-42.1
		C119.3,189.4,119.6,188.6,119.2,187.8z"/>
	<path class="st2" d="M360,73.6c0.5-1.7,0.7-2.9-1.9-2.9c-11.4,0.1-22.8,0-34.2,0.1c-0.7,0-1.8,0.1-2.1,0.6c-0.8,1,0.3,1.7,0.9,2.3
		c3.1,2.9,5.8,6.3,9.3,8.8c1.9,1.3,4,2.7,4.4,5.4c3.9,4.1,5.1,4.2,9.2,0.4c2.5-2.4,4.9-4.9,7.4-7.3C355.1,78.4,357.9,76.3,360,73.6z
		"/>
	<path class="st22" d="M119.2,187.8c-7.5,14.6-12.3,30.3-17.7,46.9c-2.3-12.8-4.8-24.4-9.9-35.3c-0.3-0.1-0.6-0.1-0.9,0
		c-0.2,4.1,2.1,7.5,3.4,11.2c3.1,9,4.9,18.2,6,27.6c0.5,4.2-1.8,7.9-2.6,11.9c-1,4.7-1.6,9.6-3.6,14.8c-4-7-7.8-13.4-12.8-19.1
		c-3.1-3.5-5.7-7.5-10.3-9.5c0,0.6,0,1.2-0.1,1.9c6,7.5,12.7,14.4,17.5,22.9c2.8,4.9,4.1,9.5,2.6,15.3c-1.6,6.4-3,12.9-3,19.6
		c0.3,1,0.8,1.8,1.7,2.3c1.2-6.3,3.3-12.6,3.4-18.9c0.1-8.6,4.8-12.7,11.8-15.4c0.2-0.9,0-1.3-1-1c-2.8,0.5-5.1,2.3-8.2,4.1
		c1.4-9.2,2.9-17.8,6.1-25.5c2-4.8,8.3-6.9,13-9.7c4.5-2.8,9.2-5.3,13.9-7.9c-0.1-0.6-0.6-0.7-1-1c-8.4,4-16.3,8.8-24.9,14.2
		c2.4-9.9,5.6-18.7,8.6-27.5c2.5-7.4,6.6-14.2,8.6-21.9C119.9,187.9,119.6,187.8,119.2,187.8z"/>
	<path class="st23" d="M131.7,401c0.8,0,1.6,0,2.4,0c3.1,0.1,6.9,0.6,3.1-4.3c-1.1-1.5-0.7-3.4-0.8-5.1c0-13.3,0-26.6,0-39.9
		c-1.6-0.1-3.2-0.2-4.7-0.3c-0.6,0.1-1.3,0.2-1.9,0.3c-1.5,0.6-1.3,1.9-1.4,3.2c-1.3,10.1-0.8,20.2-0.8,30.3c0,3.1-1.7,6.2,0.3,9.2
		c0.9,2.2,1.1,4.8,3,6.5C131.1,400.9,131.4,400.9,131.7,401z"/>
	<path class="st5" d="M335.3,87.9c-4.1,3.2-8.3,6.3-12.3,9.5c-0.6,0.5-1.3,1.1-1.4,1.7c-0.1,1,0.9,1.1,1.7,1.1
		c12.2,0,24.4-0.1,36.6-0.1c0.4,0,0.8-0.5,1.1-0.8c-3.1-5.1-8.4-7.7-12.9-11.2c-0.8-0.4-1.9-1-2.6-0.2
		C342,92.5,338.7,90.7,335.3,87.9z"/>
	<path class="st19" d="M142.6,283.8c-4.2,7.5-1.5,13.4,1.2,19.3c1.4,3.1,3.3,6.1,4.9,9.2c2.1,4.3,2.7,8.4,0.6,13.1
		c-3,6.8-6.4,13.8-3.7,21.7c1.3,0.2,1.4-0.7,1.3-1.4c-0.8-6.3,2.7-11.2,5.6-16.1c4.9-8,3.5-15.4-1-22.9c-2.8-4.8-6.9-9-7.8-14.9
		C143.2,289.4,143,287.1,142.6,283.8z"/>
	<path class="st24" d="M255.4,152.5c1.4,0.9,2-0.3,2.7-1.1c16.9-17.9,37.6-24.5,61.8-20.6c1.6-0.2,2.1-0.8,0.8-2
		c-0.4-0.3-0.8-0.7-1.2-1c-2.9,0.5-5.5-1.3-8.3-1.3c-1.5-0.1-3,0.1-4.4-0.4c-2.5-0.2-5-0.2-7.6-0.2c-0.9,1.5-1.9,0.2-2.9,0
		c-2.1,1-4.2,1.4-6.5,1.5c-2.1,0.8-4.3,1.1-6.4,1.8c-1.4,0.5-2.9,0.9-4.2,1.8c-1,0.3-2.1,0.5-3,0.9c-1.1,0.9-2.6,1.4-3.6,2.5
		c-2,0.1-3.2,1.7-4.8,2.7c-1.4,1.2-2.9,2.3-3.8,4c-1,0.4-1.7,1-2,2c-1.4,1-2.8,1.9-3.8,3.3C256.9,148.3,255.8,150.3,255.4,152.5z"/>
	<path class="st25" d="M374.9,233.5c-0.9,0.8-0.7,1.7-0.2,2.6c4.3,7.3,2.8,14.2-0.9,21.2c-3,5.6-3.8,11.4-0.3,17.1
		c0.3,0.5,0.6,1.6,1.7,1c0.3-1.3,0.9-2.7,0-4c0.3-0.8,0.7-1.6,1-2.4c0-1.8,0.7-3.5,0.9-5.3c0.6-0.7,1.3-1.3,1.9-2
		c-0.1-1.4,0.9-2.2,1.8-3.1c0.4-0.9,0.7-1.9,1.1-2.8c0.2-1.9,0.9-3.8,1.4-5.7c0-1.6,0-3.2,0-4.7c-0.6-1.7-0.9-3.6-2.3-5
		C379.8,237.3,378,234.9,374.9,233.5z"/>
	<path class="st2" d="M362,98.3c2-4.7,0.5-9.6,0.9-14.3c0.2-3,0-6,0.1-9c0-1.5-0.5-2-1.9-1.4c-3.4,1.7-5.4,4.9-8.3,7.2
		c-1.6,1.2-2.8,2.8-4.3,4.1c-1.1,1-2,2.1-0.4,3.4C352.8,91.5,356.7,95.8,362,98.3z"/>
	<path class="st2" d="M318.7,73.5c0,7.3,0,14.6,0,21.9c0,0.8-0.3,1.6,0.4,2.1c0.9,0.6,1.4-0.2,2-0.6c3.5-2.6,7.1-5.2,10.6-7.9
		c1.8-1.3,1.8-2.6,0.2-4.2c-3.9-3.9-7.6-8-11.3-12C319.9,73,319.3,73.3,318.7,73.5z"/>
	<path class="st26" d="M207.8,328.8c0.8-0.4,1-1.2,1.1-2c-0.6-1.9-2.3-2.5-3.9-3.2c-10.7-5.2-17.1-13.6-19.1-25.3
		c-0.3-1.5-0.6-3.1-1.6-4.4c-0.5-0.7-1.2-1-1.7,0.1c-0.1,3,0,6.1,0,9.1c0.8,2.3,0.7,4.8,1.9,7c0.7,2.2,1.6,4.3,3.3,6
		c1.2,3.5,3.8,5.6,6.8,7.6c1.4,0.9,3.2,1.5,3.9,3.3c1.6-0.1,2.8,0.9,4.3,1.2C204.4,328.7,206,329.7,207.8,328.8z"/>
	<path class="st27" d="M164.1,386.8c-0.3,5.1,0.4,10.4-2.3,15.2c0.4,0,0.8,0,1.2,0c0.6-1.2,1.4-1.2,2.7-1.1
		c5.1,0.2,10.3,0.1,15.7-0.4C174.9,396.7,170.4,390.6,164.1,386.8z"/>
	<path class="st28" d="M366.2,164.7c-0.5,0.1-2.4-0.9-1.1,0.5c9.2,10.1,9.3,21.1,4.4,33c-0.1,1.2,0.3,1.6,1.5,1.1c0.8-1,1.6-2,2.4-3
		c1.6-1.7,2.6-3.7,3.2-5.9c-0.1-1.5,1.1-2.6,1-4c0-1.7,0.1-3.4-0.1-5c-0.5-2.1-0.5-4.4-2.3-6C374.7,169.7,370.4,167.2,366.2,164.7z"
		/>
	<path class="st29" d="M91.6,302c10.4-7.8,21.2-14.5,34.2-17.1c0-0.6,0-1.3,0.1-1.9c-13.1,3.3-25,9.1-35.2,18.1
		C90.7,301.6,91.3,301.7,91.6,302z"/>
	<path class="st30" d="M200.1,401.2c-6.3-0.3-11.9-1.9-16-7.2c0.3,2.6,3.7,5.3-0.1,7.9C189.3,401.6,194.8,402.8,200.1,401.2z"/>
	<path class="st31" d="M348.6,87.9c-0.9-4,3.5-4.2,4.8-6.7c0.2-0.9,0-1.2-1-1c-1.9,1.8-4.1,3.4-5.8,5.4c-3,3.4-5.9,6-10.3,2.2
		c-0.3,0-0.7,0-1,0c4.2,5,4.5,5,9.8,1.1c1-0.7,1.7-0.5,2.6-0.2C348.7,89.2,348.9,88.7,348.6,87.9z"/>
	<path class="st32" d="M348.6,87.9c-0.3,0.3-0.6,0.6-0.9,0.9c4.4,3.5,8.9,7,13.3,10.5c0.3-0.3,0.7-0.7,1-1
		C357.5,94.9,353.1,91.4,348.6,87.9z"/>
	<path class="st33" d="M352.4,80.3c0.3,0.3,0.6,0.6,1,1c2.9-2.1,5.5-4.7,7.6-7.6c-0.3,0-0.7,0-1,0C356.5,74.7,354.6,77.7,352.4,80.3
		z"/>
	<path class="st34" d="M330.5,137.3c1.1,0.9,2.2,2,3.8,1.6c-1.7-3-3.7-5.8-7.5-6.4C326.3,135.5,330.1,135.1,330.5,137.3z"/>
	<path class="st35" d="M212.5,212.3c2.8-1.2,5.7-2.5,8.5-3.7c0.2-0.8-0.3-1.2-1-1.4c-0.7-0.1-1.3,0.1-1.8,0.6c-0.3,0-0.6,0-1,0
		c-2,1.1-4.4,1.4-6,3.3C211.3,211.9,211.8,212.2,212.5,212.3z"/>
	<path class="st36" d="M299.2,125.9c2.4,1.5,5.1,0.9,7.7,0.8c0.4-0.3,0.9-0.3,1-0.9C304.9,124.9,302,124.8,299.2,125.9z"/>
	<path class="st37" d="M183,303.9c0-3.5,0-6.9,0-10.4c0.8-0.8,1.4-1.6,1.3-2.8c-0.4-0.9-1-1.4-2-1c-0.5,4.7-0.7,9.4,0,14.1l0.4,0.3
		L183,303.9z"/>
	<path class="st38" d="M127.8,223c0.3,0.3,0.6,0.6,1,1c3-0.3,5.1-2.9,8.1-2.9c0.2-0.6,0.3-1.2,0.5-1.9
		C134.2,220.5,131,221.8,127.8,223z"/>
	<path class="st39" d="M182.3,289.8c0.6,0.4,1.1,0.8,1.7,1.2c0.8-0.1,1.3-0.4,1-1.3c0-2,0.3-4.1-1-5.8
		C182.6,285.6,182.5,287.7,182.3,289.8z"/>
	<path class="st40" d="M311.5,127c2.6,0.5,5,2.8,7.9,0.8c-2.6-0.8-5.1-2-7.9-1.7c-0.3,0.2-0.4,0.4-0.3,0.6
		C311.3,126.9,311.4,127,311.5,127z"/>
	<path class="st41" d="M200,229.9c0.3-1.5,0.7-3,2-4c-0.3-1-0.7-2-1-2.9c-0.3-0.3-0.6-0.3-0.8,0.1
		C199.6,225.3,198.5,227.6,200,229.9z"/>
	<path class="st42" d="M375.3,175.4c0.6,1.9,1.2,3.9,1.8,5.8c0.3,0.4,0.6,0.4,0.9,0C377.7,179,378.6,176.2,375.3,175.4z"/>
	<path class="st43" d="M283,129.9c2.3-0.3,4.6-0.8,6.6-1.9c0.3-0.2,0.4-0.5,0.3-0.7c-0.1-0.2-0.2-0.3-0.3-0.3
		c-2.4,0.1-4.6,0.8-6.7,1.8C282.7,129.2,282.7,129.6,283,129.9z"/>
	<path class="st44" d="M187.7,316.1c-0.8-2-1.1-4.2-3.1-5.5l-0.3-0.1C184.5,312.9,184.8,315.3,187.7,316.1z"/>
	<path class="st18" d="M211.3,211.5c1.5-2.1,4.4-1.7,6-3.7c-2.9-0.3-4.9,1.3-7,2.9C210.3,211.4,210.6,211.8,211.3,211.5z"/>
	<path class="st45" d="M376.2,190.6c-1.2,1.8-2.3,3.6-2.8,5.8c3.4,0.1,2.3-3.2,3.5-4.8C376.8,191.1,376.6,190.8,376.2,190.6z"/>
	<path class="st46" d="M184.3,310.5c0,0,0.3,0.1,0.3,0.1c0-2.3-0.5-4.6-1.5-6.6c-0.2,0-0.5,0-0.7,0
		C183,306.1,182.5,308.6,184.3,310.5z"/>
	<path class="st47" d="M324.8,132.6c0.3,0,0.7,0,1,0c-0.1-2.5-1.7-3.4-3.9-3.8C320.7,131.7,324,131.2,324.8,132.6z"/>
	<path class="st48" d="M289.7,127c0,0.3,0,0.7,0,1c2.3-0.4,4.9,0.2,6.6-2.1C294.1,126.3,291.9,126.7,289.7,127z"/>
	<path class="st49" d="M324.8,132.6c0-2-3.2-1.5-2.9-3.8c-0.5,0-0.9,0-1.4,0c0.3,0.9,0.1,1.6-0.8,2
		C321.4,131.9,323,132.5,324.8,132.6z"/>
	<path class="st50" d="M382.8,250.6c-0.8,1.6-1.8,3.2-0.8,5.1c1.4-1.4,1.6-3.2,1.7-5.1C383.4,250.2,383.1,250.2,382.8,250.6z"/>
	<path class="st51" d="M371,199.3c-0.5-0.4-1-0.7-1.5-1.1c-0.8,1.2-2.8,2.1-1,4C369.8,201.7,370.6,200.6,371,199.3z"/>
	<path class="st52" d="M218.3,207.8c0.6,0,1.2-0.1,1.7-0.1c0.9-0.4,2-0.1,2.9-0.5c0.3-0.2,0.6-0.6,0.6-1c0-0.4-0.2-0.8-0.5-1.1
		C221.4,205.9,218.8,205,218.3,207.8z"/>
	<path class="st53" d="M377.2,263.6c-0.8,1.7-2.7,3.2-0.9,5.3C376.9,267.2,378.7,265.7,377.2,263.6z"/>
	<path class="st54" d="M207.8,328.8c-1.9-0.4-3.8-0.9-5.7-1.3c-0.2,0.2-0.3,0.5-0.3,0.8c0.1,0.3,0.1,0.4,0.2,0.4
		c1.4,0.9,3,1.3,4.7,1.2C207.1,329.5,207.5,329.1,207.8,328.8z"/>
	<path class="st55" d="M381.1,240.3c0.6,1.6,1.1,3.2,1.7,4.8c0.6-0.1,0.7-0.6,0.9-1C383.2,242.5,383.5,240.5,381.1,240.3z"/>
	<path class="st56" d="M337.3,143.9c-0.4,0.1-0.8,0.1-1.2,0.2c1.2,1.1,1.1,3.2,3.1,3.8C339,146.4,339.9,144.3,337.3,143.9z"/>
	<path class="st57" d="M200.2,223.1c0.3-0.1,0.6-0.1,0.8-0.1c1.2-0.9,1.6-2.3,2-3.6C200.4,219.2,200.7,221.5,200.2,223.1z"/>
	<path class="st58" d="M223,205.2c0.1,0.3,0.1,0.6,0,0.8c2.2,1.2,3.9,0.1,5.7-1c0-0.3,0-0.6,0-0.9
		C226.8,204.5,224.9,204.8,223,205.2z"/>
	<path class="st59" d="M283,129.9c0-0.4,0-0.7-0.1-1.1c-1.4,0.3-2.8,0.6-3.9,1.6c-0.5,0.4-0.5,0.7,0,1.1
		C280.4,131,281.7,130.5,283,129.9z"/>
	<path class="st60" d="M202.1,328.7c0-0.4,0-0.8,0-1.2c-1.1-1.1-2.3-1.7-3.7-0.5C199.4,328,200.6,328.5,202.1,328.7z"/>
	<path class="st61" d="M272.5,134.5c1.4-0.3,2.8-0.7,3.8-1.8c-0.2-0.4-0.5-0.6-0.9-0.8C274.2,132.4,272.6,132.6,272.5,134.5z"/>
	<path class="st62" d="M264,141.1c1.5-1.1,3.2-1.9,3.8-4C265.9,137.9,263.7,138.3,264,141.1z"/>
	<path class="st63" d="M383.6,244.1c-0.3,0.3-0.6,0.7-0.9,1c0,1.8,0,3.7,0,5.5c0,0,0.4,0,0.4,0s0.4,0,0.4,0
		C384.1,248.4,384.1,246.3,383.6,244.1z"/>
	<path class="st64" d="M211.3,211.5c-0.3-0.3-0.7-0.5-1-0.8c-0.3,0-0.7,0.1-1,0.1c0.1,0.6,0.3,1.2,0.4,1.8c-0.4,0.5-0.4,0.9,0.1,1.3
		c0.9-0.5,1.8-1.1,2.7-1.6C212.1,212,211.7,211.8,211.3,211.5z"/>
	<path class="st65" d="M376.2,190.6c0.3,0.3,0.5,0.6,0.8,1c0.3-1.6,0.7-3.1,1-4.7c-0.3-0.4-0.5-0.4-0.8,0
		C376.9,188.1,376.5,189.3,376.2,190.6z"/>
	<path class="st66" d="M377.2,186.9l0.4,0l0.4,0c0-1.9,0-3.8,0-5.7c-0.3,0-0.6,0-0.9,0C377.1,183.1,377.2,185,377.2,186.9z"/>
	<path class="st67" d="M258.2,146.5c2-0.3,2.9-1.8,3.8-3.3C259.5,142.8,259,144.8,258.2,146.5z"/>
	<path class="st68" d="M380.9,258.5c-2.2,0.1-2.6,1.2-1.8,3.1C380.4,261,380.6,259.7,380.9,258.5z"/>
	<path class="st69" d="M236.2,162.1c-1,0.8-2.6,1.6-0.5,2.9C236.6,164.2,236.3,163.2,236.2,162.1z"/>
	<path class="st70" d="M375.2,271.3c-0.4,1.3-0.6,2.7,0,4c0.3,0,0.6,0.1,0.9,0C376.1,274,376.9,272.4,375.2,271.3z"/>
	<path class="st71" d="M275.5,131.9c0.3,0.3,0.6,0.5,0.9,0.8c0.9-0.4,1.8-0.7,2.8-1.1c0-0.4,0-0.7,0-1.1c-0.6,0.1-1.2,0.2-1.8,0.2
		c-0.8,0-1.4,0.3-1.9,0.9L275.5,131.9z"/>
	<path class="st24" d="M275.3,131.6c0.8,0,1.5-0.3,1.9-0.9c-0.5-0.8-1.2-1.2-1.9-0.7C274.6,130.4,275.2,131.1,275.3,131.6z"/>
	<path class="st72" d="M311.5,127c0-0.3,0-0.6,0-0.9c-1.2-0.1-2.4-0.1-3.6-0.2c-0.3,0.3-0.7,0.6-1,0.9
		C308.4,126.8,309.9,126.9,311.5,127z"/>
	<path class="st73" d="M368.5,203.1c-0.3,0.3-0.5,0.5-0.8,0.8C368.3,203.9,368.8,203.9,368.5,203.1z"/>
	<path class="st74" d="M184,108.7c-22.4-0.1-44.8-0.1-67.2-0.2c-2.4,0-4.3,0.4-4.3,3.6c0,3.2,1.6,4.2,4.4,4.1c1.1,0,2.2,0.1,3.3,0.2
		c0.9,0.8,2,0.9,3.1,0.9c19,0,38,0,57,0c2.5,0,4.4-0.9,5.2-3.3C186.3,112.1,186.3,110,184,108.7z"/>
	<path class="st19" d="M178.1,133.6c10.3,0,20.6,0,30.8,0c2.8,0,5.2-0.3,5.2-3.8c0.1-3.5-2.2-3.9-5.1-3.9c-20.7,0.1-41.4,0-62.2,0
		c-2.7,0-5,0-5.1,3.8c-0.1,3.8,2.1,4,4.9,3.9C157.3,133.6,167.7,133.6,178.1,133.6z"/>
	<path class="st75" d="M166,141.9c-2.8,0.8-3.1,3-2.7,5.3c0.5,2.7,2.8,2.6,4.9,2.6c13.6,0,27.2,0,40.9,0c2.1,0,4.4,0.1,5-2.5
		c0.6-2.3,0.2-4.5-2.5-5.4C196.3,141.5,181.1,141.5,166,141.9z"/>
	<path class="st74" d="M124.5,133.6c2.5,0,5.1-0.1,7.6,0c2.7,0.1,4.2-0.8,4.2-3.7c0-2.8-1.1-4.1-3.9-4c-5.4,0.1-10.8,0-16.1,0
		c-2.5,0-3.7,1.1-3.7,3.8c0,2.8,1.1,4.1,3.9,4C119.2,133.6,121.9,133.6,124.5,133.6z"/>
	<path class="st76" d="M212.4,108.4c-7.2,0.7-14.5-0.6-21.6,0.6l0,0c0,2.1,0,4.3,0,6.4l0,0c6.8,1.8,13.7,0.6,20.5,0.8
		c2,0,2.8-1.7,3.2-3.5C215.1,110.6,214.6,109.1,212.4,108.4z"/>
	<path class="st77" d="M184,108.7c1.9,6,0.9,7.5-5.2,7.5c-19.5,0.1-39.1,0.1-58.6,0.2c0.3,2.3,2.2,1.9,3.7,1.9
		c19.5,0,38.9-0.3,58.4,0.2c5,0.1,3.8-4.9,7-5.6c-0.4-1.2-2.4-0.7-2.4-2.3c0.5-1.6,2.3-2.8,1.9-4.8c-3.5,0.8-3.5,0.8-3.9-1.5
		C183.3,105.7,184.3,107.3,184,108.7z"/>
	<path class="st78" d="M106.2,86.8c37.2,0,74.5,0,111.7,0c0-0.2,0-0.3,0-0.5c-37.3,0-74.6,0-111.9,0
		C106.1,86.5,106.2,86.6,106.2,86.8z"/>
	<path class="st79" d="M94.8,97.7c0,20.8,0,41.6,0,62.4c0.2,0,0.3,0,0.5,0c0-20.9,0-41.7,0-62.6C95.1,97.6,94.9,97.7,94.8,97.7z"/>
	<path class="st80" d="M166,141.9c15.2,0,30.4,0,45.6,0c-0.9-0.9-2-0.7-3.1-0.7c-13.1,0-26.2,0-39.3,0
		C168,141.2,166.8,141,166,141.9z"/>
	<path class="st81" d="M210.5,138.5c-14.5,0-29,0-43.5,0c0,0.2,0,0.3,0,0.5c14.5,0,29,0,43.5,0C210.5,138.8,210.5,138.7,210.5,138.5
		z"/>
	<path class="st82" d="M188.7,106c-1.6,1.2-2.2,2.8-1.9,4.8c0.3-0.3,0.6-0.6,0.9-0.9c0.7-0.6,1.4-1.1,1.9-1.9c0.3-1,1.5-2,0.6-2.9
		C189.6,104.2,189.1,105.3,188.7,106z"/>
	<path class="st83" d="M212.4,108.4c1.4,1.1,1.6,2.7,2,4.3c2-2.8,0.5-4.4-2-5.5c0,0-0.3,0.2-0.2,0.3
		C212.2,107.8,212.3,108.1,212.4,108.4z"/>
	<path class="st77" d="M189.7,107.9c-1.2,0-1.9,0.7-1.9,1.9c1.4,1.1,2-0.5,3-0.8c0,0,0,0,0,0C190.4,108.6,190,108.3,189.7,107.9z"/>
	<path class="st84" d="M190.7,115.4c-0.8,0.6-1.3,1.3-0.6,2.3c0.1,0.2,0.6,0.3,0.8,0.2C191.9,117,190.7,116.2,190.7,115.4
		C190.7,115.4,190.7,115.4,190.7,115.4z"/>
	<path class="st85" d="M303.9,387.8c-8.8-0.3-12.8,4.9-10.6,14c0.4,0.1,0.7,0.2,1.1,0.2c1.6,1.4,3.5,1.4,5.4,1.4
		c17.1,0.1,34.1,0,51.2,0c1.9,0,3.8,0.1,5.3-1.5c-1.8-6.6-8.1-8.8-12.3-13c-2.8-4.7-7.3-6.3-12.3-6.2
		C322.1,382.7,312.9,384.9,303.9,387.8z"/>
	<path class="st86" d="M356.3,401.9c-20.6,0.1-41.2,0.1-61.9,0.2c0,0.6,0,1.2,0,1.8c4.9,1.9,10,0.6,15,0.9c2.6,0.2,5.2,0,7.8,1
		c-5.6,0-11.3,0-16.9,0c-1.7,0-3.5-0.6-4.9,0.9c1,0.7,2.1,0.5,3.2,0.5c18.2,0,36.3,0,54.5,0c1.1,0,2.2,0.2,3.2-0.5
		c-1.6-1.6-3.6-0.9-5.4-0.9c-8-0.1-16,0-24-1c8.4,0,16.9,0,25.3,0c2.2,0,4.7,0.5,5-2.8C356.9,402,356.6,401.9,356.3,401.9z"/>
	<path class="st87" d="M356.3,406.7c-20.3,0-40.6,0-60.9,0c1.1,1.3,2.6,0.9,4,0.9c17.7,0,35.3,0,53,0
		C353.7,407.7,355.2,408.1,356.3,406.7z"/>
	<path class="st86" d="M291.5,402.1c-0.6,0-1.3,0-1.9,0c0,0.7-1.7,1.1-0.7,1.6C290.1,404.3,291.4,403.8,291.5,402.1z"/>
	<path class="st86" d="M294.4,403.9c-1.1,0.1-2.1,0.4-3.4,1.6C292.9,405.9,293.8,405.1,294.4,403.9z"/>
	<path class="st10" d="M303.9,387.8c1.8,1.4,3.7,0.4,5.4-0.2c5.7-1.8,11.6-2.6,17.5-3.4c6.4-0.9,12.1,0.6,17.1,4.7
		c5.7-0.1,11.3-0.2,17-0.3c-4.9-7.1-12.4-9.6-20.4-10.3c-11.3-0.9-22.7-1.1-34-2.1c-11.2-0.9-22.2-3.1-32.6-7.4
		c-10.7-4.4-17-12.7-20.5-23.5c-0.4-1.4-0.6-2.9-1.5-3.9c-1.3-1.5-1.2,0.3-1.5,0.9c-0.5,1-0.9,2.1-0.7,3.2c1.9,9.2,3,18.6,5.2,27.7
		c0.2,0.8,0.6,1.4,1.2,2c2.4,2.9,6.1,2.3,9.2,2.9c11.2,2.2,22.6,3.9,33.8,6C301.1,384.5,303.8,384.6,303.9,387.8z"/>
	<path class="st88" d="M388.6,387.8c-8.1-7.2-15.2-15.3-21.9-23.9c-4.4,3.8-3.8,9.3-4.5,14.3c-0.5,3.4-0.2,6.9-0.3,10.4
		c7.5,0,15.1,0.1,22.6,0C385.9,388.7,387.4,389.1,388.6,387.8z"/>
	<path class="st89" d="M462.1,112.6c0.5,1.4,1.5,2.1,2.9,1.7c1.1-0.4,1.8-1.3,1.5-2.6c-0.4-1.5-1.4-2.1-2.9-1.7
		C462.5,110.4,461.9,111.3,462.1,112.6z"/>
	<path class="st90" d="M451.5,112.2c0.2,1.4,1,2.3,2.4,2.2c1.2-0.1,2.1-0.9,1.9-2.1c-0.2-1.1-0.7-2.5-2.4-2.3
		C452.2,110.1,451.7,111,451.5,112.2z"/>
	<path class="st91" d="M443,114.4c1.4-0.1,1.8-1,1.7-2.2c-0.1-1.1-0.6-2.2-1.9-2.1c-1.3,0.1-1.7,1.2-1.7,2.3
		C441,113.8,441.6,114.5,443,114.4z"/>
	<path class="st92" d="M46.9,311.5c0.6,0,1.3,0,1.9,0c-0.3-2,0.8-4.3-1.7-6.6C47.6,307.6,48.3,309.7,46.9,311.5z"/>
	<path class="st10" d="M91.6,302c-0.3-0.3-0.6-0.6-1-0.9c-1.1-0.7-0.9-1.8-0.9-2.8c0-0.8-0.2-1.5-0.9-1.9c-1.9-1.4-2.3-4.1-4.7-5
		c-4.1,0.1-2.3-2.8-2.4-4.7c-0.2-2.7,0.1-5.3,0.2-7.9c0-2.6,0.7-5.6-2.6-7.1c-3.6,7-8,13.5-10.2,21.2c-0.8,2.7-1,4.9,0.2,7.7
		c2.4,5.2,4.5,10.6,6.2,16.2c3-6.6,5.6-13,10-18.4c0.4,0.2,0.7,0.4,1.1,0.6c-2,3.3-4,6.5-5.9,9.9c-4.4,7.7-3.5,15.6-1,23.8
		c2.3,7.3,3.5,8.1,11,5.6c0.6-3.2,2.5-6,3-9.4c0.6-4,0.1-7.3-3-10.2C87.6,315.6,88.2,307.3,91.6,302z"/>
	<path class="st6" d="M79.3,271.6c1.2,2.7,2,5.3,1.2,8.4c-0.6,2.5-0.8,5.3,0.7,7.7c0.3,1.8,1.2,3,2.8,3.8c1.8,1.4,1.5,4.9,4.8,4.8
		c1.4-8.2,2.7-16.4,4.2-24.6c0.3-1.4,0.6-2.7-0.1-4.1c-4.9-10.8-11.9-20-20.1-28.5c-0.5-0.5-1.4-0.6-2.1-0.9c-0.7,6,1.2,11.5,3.2,17
		c1.1,3.1,2.8,6.6-1.3,9.1c1.2,3.2,4.7,4,6.6,6.3C79.3,270.9,79.3,271.3,79.3,271.6z"/>
	<path class="st10" d="M79.3,270.6c-0.6-3.8-4.5-4.2-6.6-6.3c-3.1-2.7-3.6-6.5-4.7-10.2c-1-3.1-1.6-6.6-5.7-7.4
		c-3,1.4-2.2,4.5-2.6,6.7c-2.6,13.9-1.5,27.3,7.3,39.5C70.4,285.2,73,276.8,79.3,270.6z"/>
	<path class="st93" d="M283.9,227.7c-1,0.3-1.9,0.6-2.9,1c0.4,5.2-3.3,7.9-7.1,9.5c-10.8,4.4-16.2,12.2-16.8,23.7
		c-0.1,2.6-1.1,5.2-0.8,7.9c6.1-2.7,12.3-5.4,18.5-8c1.7-0.7,3.5-1.2,5.3-1.8c2.6,0.4,5-0.3,7.3-1.6c1.3-1.2,1.6-2.8,1.7-4.5
		c-0.1-7.1,0.5-14.2-0.1-21.3C288.2,229.9,287,227.8,283.9,227.7z"/>
	<path class="st18" d="M184.9,289.7c-0.3,0.4-0.6,0.8-1,1.3c-0.3,0.9-0.6,1.7-0.9,2.6c0.8,0,1,0.6,1,1.2c1.3,16,10.2,26.2,24.8,32
		c3-4.4,5.7-9.1,7.6-14.1c-0.7-1.6-1.3-3.2-2-4.9c-0.7-2-0.7-4.2-1.5-6.2c-0.2-1.2,0.5-2.5-0.6-3.5c-1.6-1.4-3.4-2.1-5.6-1.9
		c-1.9,0.2-3.8,0-5.7,0c-3.6,0-7.6,0.8-10.8-0.4c-3.3-1.2-0.8-6.3-3.7-8.8C186.1,288,185.5,288.8,184.9,289.7z"/>
	<path class="st94" d="M346.5,268c7.9-9.8,7.3-20.6,3.1-31.5c-1.1-2.7,0-6.6-4-7.9c-0.4-0.2-0.8-0.3-1.3-0.2
		c-1.7,0.8-2.2,2.6-3.1,4.1c-3.6,6.2-8.1,11.7-14.2,15.7c-1.1,0.7-2.1,1.4-2.7,2.6c-0.4,2.7,0.6,5,1.5,7.5c0.3,0.6,0.8,1.1,1.4,1.5
		c1.3,1,3,0.8,4.5,1.2C337.3,261.8,341.2,266.4,346.5,268z"/>
	<path class="st10" d="M331.6,261c-1-1.4-2.5-1.8-4.1-1.8c-1.1,1.2-0.7,2.7-0.6,4.1c0.2,6.2-2.4,10.7-8.2,13.1
		c-7.6,3.2-15.4,3.2-23,0c-6-2.6-8.3-6.9-7.9-13.6c0.1-1.7,0.4-3.5-0.9-4.9c-2.3,0.6-4.8,0.8-6.8,2.2c-2.6,14.2,10,27.6,24.5,27.7
		c6.4,0.1,13,1,18.8-2.8c8.7-5.6,11.3-13.3,7.8-23.1C331.2,261.6,331.5,261.3,331.6,261z"/>
	<path class="st88" d="M256.2,375.1c-1.7-9.7-3.4-19.4-5.1-29.1c-0.2-1.2-0.4-2.5-0.7-3.7c-5.6,6.1-9,13.7-14.2,20.1
		c-2.2,2.7-4,5.6-6.3,8.7c8.4,1.6,16.2,3.1,24.1,4.6C254.9,375.9,255.5,375.7,256.2,375.1z"/>
	<path class="st95" d="M290.5,203c0.1,0.3,0.2,0.6,0.3,1c11-2.5,22.2-4.5,33-7.9c5.7-1.8,11.5-3.6,16.7-6.5c3.3-1.9,6.6-3.7,8.7-7.1
		c0.3-4-0.8-7.4-4.3-9.8c-0.5,0-1.2-0.2-1.4,0c-10.2,12.3-24.8,17.4-38.9,23.1C299.6,197.6,294.3,198.9,290.5,203z"/>
	<path class="st94" d="M344.8,172.5c1.1,3.3,3.5,6,3.7,9.6c-1,4.4,1.1,8.5,1.2,12.8c1.3,2.2,2.4,4.6,5.6,4.3
		c3.9-1.4,3.6-5.2,4.4-8.2c2.4-10-1.7-18.2-10.4-20.8C348,169.9,343.8,166.9,344.8,172.5z"/>
	<path class="st96" d="M355.3,199.2c-1.5-1.1-3-2.3-4.5-3.4c-1.7,0.9-1.7,2.6-1.6,4.1c0.3,8.3-1.7,16.2-4.3,23.9
		c-0.5,1.5-1.1,3-0.1,4.5c0.3,0,0.5,0.1,0.8,0.2C357.4,223.5,361.6,211,355.3,199.2z"/>
	<path class="st97" d="M297.8,148.2c4.6-0.2,8.1-0.4,11.6-0.5C305.8,147.2,302.3,146,297.8,148.2z"/>
	<path class="st98" d="M286.7,151.5c1.7-0.6,3.6-0.8,6.1-2.9c-2.9,0.6-4.6,0.8-6.1,2.1c-0.3,0.2-0.5,0.3-0.4,0.5
		C286.5,151.4,286.6,151.5,286.7,151.5z"/>
	<path class="st99" d="M286.7,151.5c0-0.3,0-0.5,0.1-0.8c-1-0.4-1.9,1.3-2.9,0.1c-0.8,0.5-0.8,1.3-0.8,2.1
		C284.3,152.4,285.5,152,286.7,151.5z"/>
	<path class="st100" d="M257.4,186.9c-1,9.1,0.1,18.3-0.3,27.4c-0.3,1-0.8,2,0.9,2c1.2-9.8-0.4-19.6,0.3-29.4
		C258.1,186.6,257.8,186.6,257.4,186.9z"/>
	<path class="st101" d="M240.1,227.7c-0.9,0.1-1.9,0.2-2.8,0.2c-1.9-0.1-3.8-0.4-5.2,1.3c-0.1,0.5,0,0.9,0.4,1.3
		c4.4-1.1,9.1-0.2,13.5-1.7c-0.5-1-1.5-1.2-2.4-1.5C242.4,227.1,241.3,227.1,240.1,227.7z"/>
	<path class="st102" d="M258.1,216.3c-0.3-0.7-0.6-1.3-0.9-2c-1.1,3.7-2,7.6-4.6,10.7c0.2,0.4,0.5,0.7,0.9,0.9
		C256.7,223.5,257.8,220.1,258.1,216.3z"/>
	<path class="st103" d="M276.3,158.3c1.1-0.7,0.8-1.8,0.9-2.8c-4.1,2.5-7.8,5.5-10.4,9.6c-0.3,0.3-0.4,0.5-0.2,0.7
		c0.1,0.2,0.2,0.3,0.4,0.3C270.3,163.8,272.1,159.6,276.3,158.3z"/>
	<path class="st18" d="M215.4,280.1c0,1,0.1,2,0.1,3.1c1.1,0.3,2.1,0.5,1.8-1.2c0.8-1.9,2.4-3.6,1.6-6
		C216.7,276.6,217,279.2,215.4,280.1L215.4,280.1z"/>
	<path class="st104" d="M217.3,239c-2.4,3-1,6.4-0.9,9.6c0.6,0,1.7,0,1.5-0.6C216.7,245,218,242,217.3,239z"/>
	<path class="st18" d="M215.5,283.7c-1.1,2.5-4,4.5-2,7.8c1.6-0.4,1.1-2.1,1.9-3c0.3-0.6,0.6-1.1,0.9-1.7
		C216.2,285.8,217.9,284.2,215.5,283.7z"/>
	<path class="st105" d="M257.4,186.9c0.3,0,0.6,0,1,0c0.5-2.6,1.1-5.1,1.6-7.7c-0.2-0.3-0.5-0.4-0.9-0.3c-0.5,0.3-0.8,0.7-0.9,1.3
		C258,182.4,257.7,184.7,257.4,186.9z"/>
	<path class="st106" d="M217.2,251.6c1,1.3,2.1,2.5,3.1,3.8c0.2,0.3,0.5,0.4,0.7,0.1c0.1-1.9-0.9-3.4-1.9-4.7
		C217.8,248.8,217.6,250.8,217.2,251.6z"/>
	<path class="st107" d="M223.1,232.7c-2.6,1.1-4.4,3-5.8,5.4c3.2-0.2,4.2-3.4,6.7-4.7C223.8,233.1,223.5,232.9,223.1,232.7z"/>
	<path class="st108" d="M244,227.9c0.7,0.3,1.4,0.6,2,0.9c1.7,0.1,3.2-0.1,4.6-1.3c0-0.5-0.2-0.8-0.8-0.7c-1,0.1-1.9,0.1-2.9,0.2
		C245.8,226.9,244.7,226.9,244,227.9z"/>
	<path class="st109" d="M232.5,230.6c0-0.4,0-0.8,0-1.1c-2.2-1-3.9,0.2-5.6,1.2c-0.2,0.2-0.4,0.3-0.7,0.2c-0.5,0.1-0.7,0.4-0.6,0.9
		c0.3,0.3,0.7,0.5,1.2,0.7C228.7,231.7,230.6,231.1,232.5,230.6z"/>
	<path class="st110" d="M222.1,265.9c-0.4,1.3-0.7,2.5-1.1,3.8c0.1,0.7,0.2,1.5,0.4,3.5c1.1-3.1,1.9-5,1.5-7.3
		C222.6,265.4,222.3,265.4,222.1,265.9z"/>
	<path class="st111" d="M263.1,170.6c-1.6,1.3-2,3.1-2.7,4.9c0.1,0.4,0.4,0.7,0.8,0.9C262.5,174.8,263.4,172.9,263.1,170.6z"/>
	<path class="st112" d="M215.5,283.7c1.6,0.7-0.6,2.4,0.9,3.2c0.7-1.6,2.7-2.8,0.9-4.9c-0.2,1-1,1-1.8,1.2
		C215.5,283.4,215.5,283.6,215.5,283.7z"/>
	<path class="st113" d="M212.4,298.2c0.1,1.3,0.2,2.5,0.2,3.8c0.2,0.5,0.5,0.5,0.8,0c0.2-2,0.4-3.9,0.6-6
		C212.5,296,212.8,297.4,212.4,298.2z"/>
	<path class="st114" d="M249.8,226.9c0.3,0.2,0.5,0.4,0.8,0.7c1.3-0.1,2.1-0.8,2.9-1.7c-0.3-0.3-0.6-0.6-0.9-0.9
		C251.6,225.6,250.7,226.3,249.8,226.9z"/>
	<path class="st115" d="M215.4,288.6c-0.6,1-1.3,2-1.9,3c0.3,0.4-0.1,2,1.1,0.9C215.7,291.5,215.5,290,215.4,288.6z"/>
	<path class="st116" d="M221,255.4c-0.2,0-0.5,0-0.7-0.1c0.3,1.6,0.7,3.1,1,4.7c1.8,0,1.1-1.1,0.9-2C222.1,257,222.1,256,221,255.4z
		"/>
	<path class="st117" d="M213.4,302c-0.3,0-0.5,0-0.8,0c0.6,2,0.4,4.1,1.8,5.9C214.5,305.9,214.6,303.8,213.4,302z"/>
	<path class="st118" d="M266.9,166.2c0-0.3-0.1-0.7-0.1-1c-0.9,1.2-1.9,2.4-2.8,3.6C266,169.1,266.4,167.5,266.9,166.2z"/>
	<path class="st119" d="M222.2,258.1c-0.3,0.7-0.6,1.3-0.9,2c-0.2,1.1-0.2,2.2,0.7,3.1c0.8-0.4,0.4-1.4,0.9-1.9
		C223.1,260.1,223,259,222.2,258.1z"/>
	<path class="st120" d="M222.9,261.2c-0.3,0.6-0.6,1.3-0.9,1.9c0,0.9,0.1,1.8,0.1,2.7c0.3,0,0.5,0,0.8,0
		C222.9,264.3,222.9,262.8,222.9,261.2z"/>
	<path class="st121" d="M261.1,176.5c-0.3-0.3-0.5-0.6-0.8-0.9c-0.5,0.9-0.9,1.8-1.4,2.7c-0.2,0.4-0.1,0.7,0.3,1c0.2,0,0.5,0,0.7,0
		C260.4,178.3,260.7,177.4,261.1,176.5z"/>
	<path class="st122" d="M226.8,232.3c-0.3-0.2-0.7-0.5-1-0.7c-1.3-0.9-2.1,0-2.8,0.9c0,0,0.2,0.3,0.2,0.3c0.3,0.3,0.6,0.5,0.9,0.8
		C224.9,233.1,225.8,232.7,226.8,232.3z"/>
	<path class="st18" d="M222.9,232.4c0.9-0.3,1.9-0.6,2.8-0.9c0.1-0.3,0.3-0.5,0.4-0.8c-0.8-0.1-2.2-0.3-2.2-0.4
		c0.3-5.5-4.1-3.8-6.8-4.4c-2.7-0.6-5.9,0.9-7.7-2.6c-0.6-1.1-1.1,0.4-1.7,0.6c-1.9,0.6-3.8,1.3-5.7,2c1.5,3,3.9,3.8,7.2,3.9
		C213.9,230,219.2,227.7,222.9,232.4z"/>
	<path class="st18" d="M226.8,230.6c1.9-0.4,3.8-0.8,5.6-1.2c1.6-0.5,3.3-1,4.9-1.4C233,225.5,230,228.2,226.8,230.6z"/>
	<path class="st18" d="M244,227.9c1-0.3,2-0.6,2.9-0.8c-2.4-1.2-4.7-1.2-6.7,0.7C241.4,227.8,242.7,227.9,244,227.9z"/>
	<path class="st123" d="M228.7,205c-1.9,0.3-3.8,0.7-5.7,1c0.1,0.3,0,0.5-0.2,0.8c0.1,0.6,0.7,0.6,1.1,0.8
		C225.6,206.9,227.7,206.9,228.7,205z"/>
	<path class="st124" d="M209.8,213.9c0-0.4-0.1-0.9-0.1-1.3c-1.4,0.7-2.8,1.4-3.1,3.6C208.2,215.9,208.9,214.7,209.8,213.9z"/>
	<path class="st125" d="M223.9,207.6c-0.4-0.3-0.7-0.5-1.1-0.8c-1,0.1-2.1,0.1-2.9,0.9c0.3,0.3,0.7,0.6,1,0.9
		C222,208.2,223,207.9,223.9,207.6z"/>
	<path class="st18" d="M259.3,179.3c-0.1-0.3-0.2-0.7-0.3-1c-0.5-0.1-1.2-0.8-1.6,0.1c-0.4,0.8,0,1.5,0.8,1.9
		C258.6,179.9,258.9,179.6,259.3,179.3z"/>
	<path class="st19" d="M432.4,205.1c4.5-12.4,3.7-13.6-8.7-13.5c-3.2,0-6.1,0.1-6.6,4.3c-0.6,4.6,2.1,6.3,5.9,7
		C426.2,203.5,429.8,202,432.4,205.1z"/>
	<path class="st126" d="M405.8,197.1c0,0.9,0,1.9,0,2.8c0,1,0.3,2,1.5,1.8c1-0.1,1-1,1.2-1.7c0.5-1.8-1-3.8,1.3-5.5
		c1.1-0.8-0.8-2.1-1.8-2.6c-1.2-0.6-2.2-0.1-2.3,1.3C405.8,194.6,405.8,195.9,405.8,197.1C405.8,197.1,405.8,197.1,405.8,197.1z"/>
	<path class="st127" d="M127.8,394.3c1.2-9.1,0.9-18.1,0.6-27.3c-0.2-5-0.6-10.4,1.3-15.4c-3.6,1.7-1.4,4.9-1.6,7.4
		c-0.3,2.5-0.5,3.7-3.5,4.2c-9.8,1.4-14.8,8.3-14,18C111.1,387.4,117.9,395.8,127.8,394.3z"/>
	<path class="st128" d="M160.2,368.7c0-3.8,0-7.6,0-11.3c0-1.1-0.2-2.4-1.7-2.3c-1.2,0.1-2,0.9-2,2.2c0,7.7,0,15.4,0,23.1
		c0,1.2,0.7,2.2,2,2.3c1.9,0.1,1.7-1.5,1.7-2.7C160.2,376.2,160.2,372.4,160.2,368.7C160.2,368.7,160.2,368.7,160.2,368.7z"/>
	<path class="st129" d="M104,263c0.3,0.3,0.7,0.6,1,1c9.2-4.8,19.1-7.8,29.3-9.7c0-1.2-0.6-1.8-1.7-1.5
		C122.7,255.2,112.7,257.4,104,263z"/>
	<path class="st130" d="M344.8,228.4c4.1-10.5,6.4-21.3,6.1-32.6c-0.3-4.6-0.6-9.3-2.3-13.7c-10.7,9.9-24.5,12.5-37.9,16.2
		c-6.6,1.8-13.8,1.8-19.9,5.7c1.2,3.8,2,7.6,1.9,11.6c-0.1,4.7-2.9,7.9-5.6,11.1c0,2,1.4,3.1,2.8,4.2c5.4,4.1,11.4,6.7,18.2,7.5
		c3.4,0.4,6.6,0.2,9.4-2.2c2.5-2.2,5.6-2,8.6-1.2c1.4,0.4,2.7,1.1,2.9,2.8c0.2,1.6-0.6,2.8-1.9,3.6c-3,1.8-6.1,2-8.9-0.1
		c-2.6-1.9-5.4-2.5-8.5-2.4c-5.4,0.1-10.1-2.2-14.9-4.2c-1.7-0.7-3.2-2.2-5.3-1c-0.3,0.6-0.3,1.2-0.2,1.8c2.6,9.6,21.5,23.1,36,15.3
		C334.4,245.7,340.1,237.5,344.8,228.4z"/>
	<path class="st23" d="M285.8,213.6c0.3-2.5-0.4-5.2-1.6-7.9c-2.5-5.8-6.6-8.4-11.3-7.3c-3.7,0.9-7.6,7.1-7.1,11.8
		c0.3,3.1,1,6.1,2.9,8.9c3.6,5.1,6.8,6.9,10.9,5.5C283.8,223.2,285.8,219.8,285.8,213.6z"/>
	<path class="st131" d="M289.6,233.3c7,4.2,14.4,7.3,22.8,7.1c2,0,3.2,0.9,4.5,2.1c3.4,2.8,9.8,2.2,12.4-1.2c1.8-2.3,2-4.6-0.6-6.6
		c-3.4-2.5-10-2.3-12.7,0.9c-1.7,1.9-3.3,2.1-5.4,1.9c-9.2-0.7-17.2-4-23.6-10.7c-1.1,0.2-2.3-0.1-3.1,1c1.3,1.4,2.6,2.7,3.9,4.1
		C288.3,232.4,288.6,233.2,289.6,233.3z"/>
	<path class="st132" d="M84,291.6c-0.8-1.4-1.1-3.1-2.8-3.8c-3.3,1.7-0.2,3.2,0.4,4.4C82.6,294,83.2,291.7,84,291.6z"/>
	<path class="st130" d="M286.9,257.8c-0.1,1.4-0.2,2.8-0.3,4.3c-1,7.5,2,13.1,9,15.8c7.7,3,15.5,3,23.2,0c7.7-3,10.1-8.3,8.7-18.6
		c-0.3-0.3-0.6-0.7-0.8-1c-1.6-1.2-3.3-0.6-5-0.4c-11.6,1.3-21.1-2.7-28.8-11.3c-0.6-0.7-1.2-1.5-2-2c-1.6-1-2.6-0.8-2.7,1.4
		c-0.1,2.8,0.3,5.7-0.3,8.5C287.6,255.5,287.9,256.9,286.9,257.8z"/>
	<path class="st133" d="M287.9,254.4c1.8-3,0-6.4,1.4-10.1c9.7,12.5,22,17.6,37.4,13.9c-0.5-2.5-1-4.9-1.5-7.4
		c-9.4,1.8-18.2,1.3-26.1-4.9c-4.3-3.4-8.1-7-9.5-12.6c-0.6-0.5-1.2-1-1.8-1.5C287.9,239.3,287.9,246.8,287.9,254.4z"/>
	<path class="st19" d="M115.9,377.5c0.2,4.9,1.6,7.9,4.8,9.9c1.9,1.2,4.2,2,6.3,0.9c1.8-0.9,0.8-3.2,0.9-4.8
		c0.1-3.9-0.1-7.9,0.1-11.8c0.1-2.7-1.3-3.2-3.5-2.9C119.7,369.5,115.9,373.8,115.9,377.5z"/>
</g>
</svg>
