<?xml version="1.0" encoding="utf-8"?>
<!-- Generator: Adobe Illustrator 21.0.0, SVG Export Plug-In . SVG Version: 6.00 Build 0)  -->
<svg version="1.1" id="Layer_1" xmlns="http://www.w3.org/2000/svg" xmlns:xlink="http://www.w3.org/1999/xlink" x="0px" y="0px"
	 viewBox="0 0 257 178" style="enable-background:new 0 0 257 178;" xml:space="preserve">
<style type="text/css">
	.st0{fill:#3B3B3B;}
	.st1{fill:#3C3C3C;}
	.st2{fill:#3D3D3D;}
	.st3{fill:#474747;}
	.st4{fill:#464646;}
	.st5{fill:#404040;}
	.st6{fill:#3F3F3F;}
	.st7{fill:#494949;}
	.st8{fill:#424242;}
	.st9{fill:#4A4A4A;}
	.st10{fill:#FDFDFD;}
	.st11{fill:#5C5CFF;}
	.st12{fill:#FBFBFB;}
	.st13{fill:#FAFAFA;}
	.st14{fill:#FCFCFC;}
	.st15{fill:#F1F1F1;}
	.st16{fill:#F8F8F8;}
	.st17{fill:#F4F4F4;}
	.st18{fill:#5048F7;}
	.st19{fill:#F1F6F7;}
	.st20{fill:#DFDFDF;}
	.st21{fill:#B7B7B7;}
	.st22{fill:#A4A4A4;}
	.st23{fill:#CACACA;}
	.st24{fill:#F2F2F2;}
	.st25{fill:#F3FAFB;}
	.st26{fill:#F7FBFC;}
	.st27{fill:#414141;}
	.st28{fill:#444444;}
</style>
<g>
	<path class="st0" d="M129.4,127.8c-20.3,0-40.6,0-60.9,0c-3.4,0-3.6-0.2-3.6-3.5c0-21.8,0-43.6,0-65.4c0-2.7,0.3-3,3-3
		c2.5,0,4.9,0,7.4,0.1c1.3,0,1.9-0.5,1.8-1.8c-0.1-1.3-0.2-2.6,0-3.9c0.1-1.2-0.5-1.7-1.7-1.7c-4.3,0-8.5,0-12.8,0
		c-1.5,0-2.3,0.6-2.1,2.2c0.1,0.5,0,1.1-0.2,1.6c-0.2,0.6-0.6,0.8-1.3,0.8c-0.5-0.1-0.8-0.3-1-0.8C57,49,58.8,46,62.3,45.9
		c4.2-0.1,8.4,0,12.6,0.1c1.5,0,2.3-0.2,2.2-2c-0.1-3.5,1.3-4.8,4.9-4.9c4.8-0.1,9.6,0,14.4,0c1.4,0,2.4-0.4,3.4-1.3
		c2.6-2.4,5.1-4.9,7.8-7.3c0.9-0.8,0.9-1.4,0.3-2.5c-1.8-3.2-1-6,2.1-8c1.2-0.7,1.9-3.6,1.2-4.7c-0.4-0.7-1.2-0.5-1.8-0.5
		c-3.4-0.1-3.4-0.1-3.4-3.5c0-1,0-2,0-3.1c-0.1-1.7,0.8-2.4,2.4-2.3c0.4,0,0.7,0,1.1,0c19.5,0,38.9,0,58.4,0c1.5,0,2.9-0.1,3.9-1.4
		c0.3-0.3,0.7-0.5,1.1-0.6c3.9-0.7,7.8-1.2,11.6,0.3c1.9,0.7,2.9,2.3,3,4.4c0.1,1.3,0.1,2.6,0.1,4c0,1.3,0,2.6,1.1,3.6
		c0.6,0.5,0.3,1.2,0.2,1.9c-0.1,2,0.2,2.2,2.3,2.2c12.2,0,24.5,0,36.7,0c4.2,0,4.2,0,4.2,4.1c0,1.4,0,2.9,0,4.3c0,1-0.1,1.9-1.3,1.9
		c-1.3,0-1.3-1.1-1.3-2c-0.1-1.3-0.1-2.6,0-4c0.1-1.5-0.6-1.8-1.9-1.8c-3.9,0.1-7.8,0-11.7,0c-8.3,0-16.6,0-24.9,0
		c-1.7,0-2.4,0.5-2.1,2.1c0.2,1.1,0,2.1-0.8,2.8c-0.5,0.5-0.5,1-0.5,1.6c0,4.9,0,9.7,0,14.6c0,1.6,0.7,2,2.1,1.9
		c2.6-0.2,5.2-0.3,7.7,0.1c2.3,0.3,3.4,1.5,3.5,3.8c0,0.4,0,0.8,0,1.3c0,31.4,0,62.8,0,94.2c0,4-1.1,5.2-5.1,5.2
		c-16.7,0-33.5,0-50.2,0c-3.2,0-3.3,0.2-3.1,3.4c0.1,1.9,0,3.8-0.1,5.8c-0.1,1.6,0.4,2.3,2.1,2.2c2.8-0.1,5.5,0,8.3,0
		c2.9,0,4.2,1.1,4.2,3.9c0,1.7,0.6,2.2,2.3,2.2c3.5-0.1,7,0,10.4,0c1,0,2.1-0.1,2.1,1.3c0,1.2-1,1.2-2,1.2c-27,0-54,0-81.1,0
		c-1,0-1.9-0.1-2-1.3c-0.1-1.3,1-1.3,1.9-1.3c3.8,0,7.6-0.1,11.3,0c1.5,0,2-0.5,2.1-2c0.1-3.2,1.2-4.1,4.4-4.1c2.8,0,5.5-0.1,8.3,0
		c1.5,0,2.1-0.4,2-1.9c-0.1-2.5-0.1-4.9,0-7.4c0-1.5-0.5-2.1-2-2.1c-5.7,0-11.4,0-17.1,0c-0.6,0-1.2-0.1-1.8-0.1
		c-0.6-0.1-0.9-0.5-0.9-1.1c0-0.7,0.3-1.2,1-1.3c0.6-0.1,1.3-0.1,2-0.1c32.5,0,65,0,97.5,0c2.9,0,3-0.1,3-3c0-31,0-62.1,0-93.1
		c0-3-0.1-3.2-3.1-3.2c-14.6,0-29.2,0-43.8,0c-2.6,0-2.7,0.1-2.6,2.8c0,0.1,0,0.2,0,0.4c0.1,4.3,0.1,4.3,4.3,4.3
		c12.6,0,25.2,0,37.8-0.1c2.6,0,2.9,0.3,2.9,2.9c0,22,0,44,0,65.9c0,2.7-0.3,3.1-3.1,3.1C170.2,127.8,149.8,127.8,129.4,127.8z"/>
	<path class="st0" d="M47,135.6c0,10-0.1,20,0.1,30.1c0,2.9-1.4,4.9-4.8,4.8c-3.5-0.1-7.1-0.1-10.6,0c-2,0-3.3-0.8-4-2.7
		c-7-17.6-14.9-34.9-22.3-52.4c-0.2-0.6-0.4-1.1-0.6-1.7c-0.7-2.3-0.1-3.9,2.1-4.8c6.4-2.6,12.8-5.3,19.8-6c0.4,0,1-0.1,1.2-0.4
		c1.5-2,3.7-1.7,5.8-1.7c2.9,0,5.9,0,8.8,0c3.6,0,4.6,1,4.6,4.6C47,115.6,47,125.6,47,135.6z"/>
	<path class="st0" d="M230.5,96.1c-5.5,0-11,0-16.6,0c-2.8,0-3.4-0.7-3.4-3.4c0-6.5,0-13,0-19.5c0-2.5,0.7-3.3,3.2-3.3
		c2.1,0,4.2-0.2,6.3,0c3,0.3,4.5-2,6.2-3.7c0.6-0.5,0.1-1.3-0.2-2c-1.9-3.7-1.3-5.9,2.3-8.1c0.8-0.5,1.2-1.1,1.2-2
		c0-1.4,0-2.8,0-4.1c0-0.9,0-2,1.3-2c1.2,0,1.3,1,1.3,1.9c0,1.9-0.1,3.7,0,5.6c0.1,1.6-0.4,2.4-2,2.8c-2,0.5-2.8,2.1-2.2,3.8
		c0.3,1,0.8,1.9,2,0.9c0.5-0.4,1-0.4,1.5,0c1.3,1.1,1.8,0.2,2.2-0.8c0.2-0.4,0.2-0.8,0.3-1.2c0.2-0.8,0.7-1.1,1.5-1
		c0.8,0.1,1.1,0.7,1.1,1.4c-0.1,1.2-0.3,2.3-1.2,3.1c-1,1-0.7,1.6,0.1,2.6c1.7,2.1,3.8,3,6.5,2.8c2.2-0.1,4.4-0.1,6.7,0
		c1.7,0,2.5,1,2.5,2.6c0,6.9,0,13.8,0,20.7c0,2-0.9,2.8-3.2,2.8C242.1,96.1,236.3,96.1,230.5,96.1z"/>
	<path class="st1" d="M60.6,106.2c0,13,0,26.1,0,39.1c0,2.5,0.1,2.6,2.5,2.6c3.4,0,6.8,0,10.3,0c1,0,1.9,0.1,1.9,1.3
		c0,1.2-0.9,1.4-1.7,1.4c-4,0-7.9,0.1-11.9-0.1c-2.5-0.1-3.5-1.4-3.6-4.1c-0.1-5.2,0-10.4,0-15.7c0-21.1,0-42.3,0-63.4
		c0-0.3,0-0.6,0-0.9c0.1-0.9-0.3-2.3,1.3-2.2c1.5,0.1,1.2,1.4,1.2,2.4C60.6,79.8,60.6,93,60.6,106.2z"/>
	<path class="st0" d="M215.2,143c0-8.3,6.8-15,15.2-15c8.1,0,14.9,6.8,14.9,15.1c0,8.2-6.7,15-14.9,15.1
		C222,158.3,215.2,151.4,215.2,143z"/>
	<path class="st2" d="M129.3,142.8c-2.8,0-5-2.4-4.9-5.1c0.1-2.8,2.4-4.9,5.2-4.8c2.7,0.1,4.9,2.4,4.8,5
		C134.4,140.6,132,142.9,129.3,142.8z"/>
	<path class="st3" d="M232.1,39.5c0,1.2,0,2.4,0,3.6c0,0.8-0.4,1.4-1.3,1.4c-0.9,0-1.3-0.6-1.3-1.4c0-2.5,0-5,0-7.5
		c0-0.8,0.4-1.4,1.3-1.3c1,0,1.2,0.7,1.3,1.5C232.1,36.9,232.1,38.2,232.1,39.5z"/>
	<path class="st4" d="M81.4,147.9c1,0,1.9,0,2.9,0c0.8,0.1,1.6,0.3,1.6,1.3c0,0.9-0.6,1.3-1.4,1.3c-2.2,0-4.3,0-6.5-0.1
		c-0.7,0-1.1-0.5-1.1-1.2c0-0.8,0.4-1.3,1.1-1.4C79.2,147.9,80.3,147.9,81.4,147.9C81.4,147.9,81.4,147.9,81.4,147.9z"/>
	<path class="st2" d="M79.7,170.5c-1.1,0-2.2-0.1-3.2,0c-1.1,0.1-1.3-0.6-1.5-1.4c-0.2-1.1,0.7-1.1,1.4-1.2c2.2,0,4.4,0,6.6,0
		c1,0,1.6,0.5,1.5,1.3c0,0.8-0.7,1.3-1.7,1.2C81.9,170.5,80.8,170.5,79.7,170.5z"/>
	<path class="st5" d="M60.6,58.7c0,0.9,0,1.8,0,2.7c0,0.8-0.4,1.4-1.3,1.4c-0.8,0-1.2-0.6-1.2-1.3c0-1.9,0-3.8,0-5.7
		c0-0.7,0.4-1.1,1.1-1.2c0.8-0.1,1.3,0.4,1.4,1.1C60.6,56.7,60.5,57.7,60.6,58.7C60.6,58.7,60.6,58.7,60.6,58.7z"/>
	<path class="st6" d="M176.8,170.5c-0.7,0-1.4,0.1-2.1,0c-0.7-0.1-1.2-0.5-1.2-1.3c0-0.8,0.5-1.2,1.2-1.2c1.5,0,3,0,4.5,0
		c0.7,0,1.2,0.4,1.1,1.1c-0.1,0.6-0.2,1.4-1.1,1.4C178.3,170.5,177.6,170.5,176.8,170.5C176.8,170.5,176.8,170.5,176.8,170.5z"/>
	<path class="st7" d="M90.8,147.9c0.1,0,0.6,0,1,0.1c0.6,0.1,1.1,0.5,1.2,1.2c0.1,0.8-0.4,1.2-1.1,1.4c-0.8,0.2-1.7,0.2-2.5,0.1
		c-0.9-0.1-1.7-0.4-1.6-1.5c0.1-1,0.8-1.2,1.7-1.2C89.8,147.9,90.1,147.9,90.8,147.9z"/>
	<path class="st5" d="M70.2,170.5c-0.5,0-1,0.1-1.4,0c-0.9-0.1-1.1-0.9-1.2-1.5c-0.1-0.8,0.6-0.9,1.2-1c0.9,0,1.8,0,2.7,0
		c0.7,0,1.6,0.1,1.5,1.1c-0.1,0.9-0.4,1.6-1.6,1.5C71,170.5,70.6,170.5,70.2,170.5C70.2,170.5,70.2,170.5,70.2,170.5z"/>
	<path class="st8" d="M184,170.5c-1.1,0.2-2-0.1-1.9-1.4c0.1-1.3,1.2-1.2,2.2-1.2c1,0,2.1,0,2,1.3
		C186.3,170.6,185.1,170.6,184,170.5z"/>
	<path class="st9" d="M191.3,169.3c-0.2,0.8-0.7,1.2-1.6,1.3c-1,0.1-1.4-0.6-1.5-1.4c0-1,0.8-1.2,1.6-1.2
		C190.7,167.9,191.2,168.4,191.3,169.3z"/>
	<path class="st10" d="M76.9,125c-2.6,0-5.3,0.1-7.9,0.2c-1.2,0-1.5-0.5-1.5-1.6c0-21,0-41.9,0-62.9c0-1.5,0.6-2.1,2-2
		c1.9,0.1,3.7,0.2,5.6,0c1.5-0.2,2.1,0.4,2.1,2c-0.1,9.5,0,19.1,0,28.6c0,0.9,0,1.8,0.3,2.7c0.4,1.2,1.3,1.9,2.5,2.1
		c0.9,0.2,1.8,0.2,2.7,0.2c20.2,0,40.5,0,60.7,0c0.8,0,1.7,0,2.5-0.2c1.6-0.2,2.6-1.2,2.8-2.8c0.1-0.9,0.2-1.8,0.2-2.7
		c0-9.1,0-18.3,0-27.4c0-2.5,0.1-2.6,2.5-2.6c5.3,0,10.6,0.1,15.8,0c1.8,0,2.2,0.6,2.2,2.3c-0.1,6.7,0,13.5,0,20.2
		c0,1.6,0.3,3.2,0.9,4.7c2.3,5.1,4,10.5,6.6,15.5c1.2,2.3,0.3,3.6-2.2,3.6c-2.8,0-5.5,0-8.3,0c-0.9,0-1.9,0.1-1.9,1.4
		c0,1.1,0.9,1.3,1.8,1.3c5.7,0,11.4,0,17.1,0c0.9,0,1.8-0.3,1.8-1.3c0-1.1-0.9-1.3-1.8-1.3c-0.5,0-1,0-1.4,0
		c-2.1,0.1-2.4-0.3-2.2-2.3c0.1-0.5,0.2-1,0.4-1.4c2.1-3.8,3.3-8.1,5.2-12c1.9-3.9,2.4-8,2.2-12.3c-0.3-5.5,0-11-0.1-16.6
		c0-1.4,0.7-1.7,1.9-1.7c1.3,0,1.8,0.6,1.8,1.8c0,8.1,0,16.2,0,24.3c0,6.2-0.1,12.5-0.1,18.7c0,6.5,0,13,0.1,19.4
		c0,1.8-0.6,2.2-2.3,2.2c-19.6-0.1-39.3-0.1-58.9-0.1c-4.9,0-9.7,0.3-14.6,0c-0.5-0.3-0.5-0.8-0.6-1.3c-0.2-1.2-0.9-1.9-2-2.3
		c-2.3-0.9-2.8-2.1-1.8-4.3c0.7-1.4,0.4-2.5-0.6-3.6c-0.6-0.6-1.3-1.3-1.9-1.9c-1.1-1.1-2.3-1.4-3.8-0.7c-2.3,1.1-3.5,0.5-4.3-1.9
		c-0.4-1.2-1.1-1.8-2.4-1.8c-1.3,0-2.6,0-4,0c-1.3,0-2,0.6-2.3,1.8c-0.8,2.6-2.1,3.1-4.4,1.9c-1.2-0.6-2.2-0.5-3.1,0.4
		c-0.6,0.6-1.3,1.1-1.9,1.7c-1.3,1.4-2.1,2.8-0.8,4.7c0.9,1.3,0.3,3.1-1.1,3.5C78.4,121.8,77.5,123.1,76.9,125z"/>
	<path class="st10" d="M113.1,52.6c10.3,0,20.5,0,30.8,0c2.3,0,2.4,0.1,2.4,2.4c0,11.4,0,22.8-0.1,34.2c0,2.3-0.2,2.5-2.4,2.5
		c-20.4,0-40.8,0-61.2,0c-2.5,0-2.8-0.3-2.8-2.8c0-11.4,0-22.8,0-34.2c0-1.7,0.6-2.1,2.2-2.1C92.3,52.7,102.7,52.6,113.1,52.6z"/>
	<path class="st10" d="M169.5,14.9c-1.3,1-1.4,2-1.4,3c0,2.6-0.1,5.3-0.1,7.9c0,0.4,0,1,0.2,1.2c1.4,1.3,0.9,3,0.9,4.5
		c0.1,4.1,0.1,8.2,0.2,12.2c0,1.6-0.6,2.3-2.2,2.2c-5.5-0.2-10.9-0.2-16.4,0c-1.5,0.1-2.1-0.5-2.1-2.1c-0.2-4-1.2-4.9-5.2-4.9
		c-5.3,0-10.6,0-15.8,0c-1.4,0-2.4-0.4-3.3-1.4c-2.2-2.3-4.4-4.6-6.6-6.9c-0.9-0.9-1.2-1.7-0.3-2.7c0.7-0.8,0.9-1.8,0.9-2.9
		c0-0.8-0.3-1.3-1.1-1.4c-0.8-0.1-1.2,0.3-1.4,1.1c-0.1,0.5-0.2,1.1-0.4,1.6c-0.3,0.7-0.8,1-1.4,0.4c-0.8-0.9-1.6-0.9-2.4,0
		c-0.8,0.7-1.2,0.3-1.6-0.5c-0.8-1.9,0.1-3.7,2.1-4.1c1.6-0.3,2.1-1.1,2-2.6c-0.1-0.9-0.1-1.8-0.1-2.7c-0.1-1.6,0.7-2.4,2.2-2.3
		c17.3,0.6,34.6,0.1,51.8,0.3C168.3,14.8,168.7,14.8,169.5,14.9z"/>
	<path class="st11" d="M113.1,41.8c10.1,0,20.2,0,30.2,0c2.6,0,2.6,0,2.8,2.6c0.1,1.2,0.2,2.4,0.2,3.6c0,1.5-0.8,2.2-2.3,2.2
		c-20.8-0.5-41.5-0.2-62.3-0.2c-1.5,0-2.2-0.5-2.1-2.1c0.1-1.2,0-2.4,0-3.6c0-2.1,0.2-2.4,2.4-2.4C92.4,41.8,102.8,41.8,113.1,41.8z
		"/>
	<path class="st10" d="M89.8,125c-3.4,0-6.9,0-10.3,0c-0.8-1,0-1.5,0.8-1.7c2.2-0.4,2.9-2.1,3.6-3.9c0.3-0.8,0.2-1.5-0.2-2.2
		c-1-1.6-0.8-2.2,0.6-3.6c1-1,2-1.5,3.3-0.4c0.7,0.6,1.4,0.6,2.2,0.2c1.7-0.8,3.6-1.1,4-3.6c0.3-1.6,2-1.1,3.2-1.1
		c1,0,1.6,0.4,1.9,1.5c0.5,2.4,4.2,4,6.2,2.7c1.2-0.8,2.1-0.5,3,0.5c0.9,1,2.3,1.9,0.9,3.5c-0.7,0.8-0.7,1.6-0.2,2.5
		c0.3,0.5,0.5,1.1,0.6,1.7c0.3,1.2,1,1.9,2.4,2.1c0.9,0.1,1.9,0.4,1.1,1.7c-3.4,0-6.8,0-10.1,0c-0.6-0.4-0.7-1.1-1-1.7
		c-1.1-2.2-2.9-3.5-5.5-3.5c-2.4,0.1-4.2,1.2-5.3,3.5C90.6,123.9,90.4,124.6,89.8,125z"/>
	<path class="st10" d="M129.3,161.9c-2.8,0-5.5,0-8.3,0c-1.3,0-1.9-0.4-1.8-1.8c0.1-2.6,0.1-5.3,0-7.9c0-1.4,0.6-1.7,1.8-1.7
		c3.2,0.1,6.3,0.1,9.5,0.1c2.3,0,4.6,0,6.8-0.1c1.6-0.1,2.4,0.4,2.3,2.2c-0.2,2.4-0.1,4.8,0,7.2c0.1,1.6-0.6,2.1-2.1,2
		C134.8,161.8,132,161.9,129.3,161.9z"/>
	<path class="st12" d="M139,12.2c-9.2,0-18.4,0-27.6,0c-1.2,0-2.7,0.3-2.7-1.7c0-1.2,0.4-2,1.7-1.9c0.3,0,0.6,0,0.9,0
		c18.4,0.2,36.9,0.2,55.3,0c0.9,0,1.9-0.3,2.5,0.6c0.9,1.3,0,2.9-1.5,3c-1.4,0.1-2.8,0-4.1,0C155.3,12.2,147.2,12.2,139,12.2z"/>
	<path class="st11" d="M112.7,125c0.2-1.1-0.3-1.4-1.3-1.3c-1.4,0.2-2.1-0.6-2.5-1.8c-0.2-0.7-0.5-1.5-0.8-2.2
		c-0.6-1.2-0.6-2.2,0.5-3c0.8-0.7,0.7-1.3-0.1-1.9c-0.4-0.3-0.7-0.7-1-1c-0.8-1-1.6-1.1-2.4-0.1c-0.7,0.9-1.6,0.9-2.5,0.4
		c-0.7-0.4-1.5-0.7-2.3-0.9c-1.3-0.4-2.1-1.2-2-2.6c0.1-1.1-0.4-1.2-1.3-1.2c-2.6-0.1-2.6-0.1-3.2,2.3c0,0.1,0,0.1,0,0.2
		c-0.5,1.5-5.6,3-6.7,1.8c-1.6-1.7-2.1,0.2-2.9,0.8c-0.9,0.6-1.3,1.5-0.3,2.4c0.9,0.7,1,1.6,0.6,2.6c-0.8,2-1.4,4.2-4.1,4.4
		c-0.8,0.1-0.9,0.7-0.8,1.3c-0.9,0-1.7,0-2.6,0c-0.1-2.2,0.6-3.7,3-4.1c1.6-0.3,2.1-1.9,1.2-3.2c-1.3-1.8-1-3.2,0.6-4.5
		c0.7-0.6,1.3-1.4,2-2c1.7-1.5,2.3-1.6,4.2-0.4c1.4,0.9,3.1,0.2,3.3-1.5c0.3-1.9,1.3-2.7,3.2-2.7c1,0,1.9,0,2.9,0
		c2.7,0,3,0.3,3.7,2.8c0.4,1.5,2.1,2.2,3.4,1.3c1.6-1.2,3-0.9,4.3,0.4c0.7,0.7,1.5,1.4,2.2,2.2c1.2,1.3,1.6,2.5,0.6,4.2
		c-1,1.6-0.6,2.8,1.1,3.4c2.7,1,2.8,1,2.9,4.2C114.6,125,113.6,125,112.7,125z"/>
	<path class="st13" d="M129.5,164.5c7.5,0,15,0,22.5,0c1.1,0,2.2,0,2.3,1.5c0.1,1.2-0.4,1.9-1.6,1.9c-0.4,0-0.7,0-1.1,0
		c-14.9,0-29.9,0-44.8,0c-1.1,0-2.2,0.1-2.3-1.5c-0.1-1.5,0.7-2,2.1-2c4.3,0,8.5,0,12.8,0C122.7,164.5,126.1,164.5,129.5,164.5z"/>
	<path class="st10" d="M178.4,25.3c-2,0-3.9,0-5.9,0c-1.4,0-2-0.5-1.8-1.9c0.1-0.9,0.1-1.9,0-2.9c0-2.5,0-2.5,2.4-2.5
		c3.7,0,7.3,0.1,11,0c1.6,0,2.4,0.4,2.1,2.1c-0.2,1-0.1,2,0,3c0.2,1.5-0.3,2.2-2,2.1C182.3,25.2,180.3,25.3,178.4,25.3
		C178.4,25.3,178.4,25.3,178.4,25.3z"/>
	<path class="st10" d="M121.5,38.9c-6.3,0-12.5,0-19.1,0c2.9-2.8,5.5-5.5,8.6-7.9c1.3-1,2.6-0.6,3.7,0.5c2.4,2.2,4.9,4.4,7.3,6.7
		C121.9,38.5,121.7,38.7,121.5,38.9z"/>
	<path class="st14" d="M176.6,70.3c0-3.3,0.1-6.6,0-9.9c0-1.5,0.6-1.8,1.9-1.8c1.4,0,1.9,0.4,1.9,1.9c-0.1,6.6-0.1,13.2,0,19.8
		c0,1.5-0.6,1.8-1.9,1.8c-1.4,0-1.9-0.4-1.9-1.8C176.6,76.9,176.6,73.6,176.6,70.3z"/>
	<path class="st14" d="M180.3,36.9c0,2.5,0,5,0,7.6c0,1.2-0.4,1.6-1.6,1.5c-1-0.1-2.2,0.4-2.2-1.4c0.1-5,0.1-10.1,0-15.1
		c0-1.6,0.8-1.5,1.9-1.6c1.2,0,1.9,0.2,1.9,1.7C180.3,32,180.3,34.5,180.3,36.9C180.3,36.9,180.3,36.9,180.3,36.9z"/>
	<path class="st15" d="M172,70.4c0-3.4,0-6.8,0-10.2c0-0.6-0.1-1.4,0.8-1.5c0.9,0,1.2,0.6,1.2,1.4c0,6.9,0,13.8,0,20.7
		c0,0.8-0.3,1.3-1.1,1.3c-1,0-0.9-0.8-0.9-1.4C172,77.2,172,73.8,172,70.4C172,70.4,172,70.4,172,70.4z"/>
	<path class="st16" d="M185,70.5c0,3.4,0,6.7,0,10.1c0,0.7,0.1,1.6-0.9,1.6c-1,0-1-0.8-1-1.5c0-6.8,0-13.6,0-20.5
		c0-0.8,0.1-1.5,1.1-1.4c1,0,0.9,0.8,0.9,1.4C185,63.6,185,67,185,70.5C185,70.5,185,70.5,185,70.5z"/>
	<path class="st17" d="M172,37c0-2.5,0-5,0-7.5c0-0.7-0.1-1.5,1-1.6c1,0,1.1,0.8,1.1,1.5c0,5,0,10.1,0,15.1c0,0.8-0.2,1.5-1.2,1.5
		c-1.1,0-0.9-0.9-0.9-1.6C172,41.9,172,39.5,172,37z"/>
	<path class="st15" d="M185,37.1c0,2.5,0,4.9,0,7.4c0,0.7,0.1,1.5-1,1.5c-1.1,0-1-0.8-1-1.5c0-5,0-10.1,0-15.1c0-0.7,0-1.4,0.9-1.4
		c1,0,1.1,0.7,1.1,1.4C185,31.9,185,34.5,185,37.1z"/>
	<path class="st18" d="M89.8,125c0.9-3.6,3-5.6,6.2-5.6c3.3-0.1,5.5,1.8,6.6,5.6c-0.9,0-1.8,0-2.7,0c-0.4-0.3-0.7-0.7-1-1
		c-1.8-2.1-4-2-5.7,0.2c-0.2,0.3-0.4,0.7-0.9,0.9C91.5,125,90.7,125,89.8,125z"/>
	<path class="st19" d="M92.4,125c0.5-1.9,1.9-3,3.8-3c2-0.1,3.1,1.2,3.7,3C97.4,125,94.9,125,92.4,125z"/>
	<path class="st10" d="M30.2,157.6c0-2.7,0-5.4,0-8.1c0-1.2,0.4-1.7,1.7-1.7c3.7,0.1,7.3,0.1,11,0c1.1,0,1.6,0.4,1.6,1.6
		c0,5.5,0,11,0,16.6c0,1.3-0.5,1.9-1.8,1.9c-3.6,0-7.2,0-10.8,0c-1.2,0-1.7-0.6-1.7-1.8C30.2,163.2,30.2,160.4,30.2,157.6z"/>
	<path class="st12" d="M27.2,145.4c-0.7-2.1-0.8-4.2-1.1-6.2c-1.5-10-2.9-19.9-4.3-29.9c-0.4-2.8-0.2-3.1,2.6-3.3
		c3.1-0.2,3.1-0.2,3.1,3c0,11.6,0,23.2,0,34.7C27.5,144.2,27.7,144.8,27.2,145.4z"/>
	<path class="st10" d="M20.7,144.2c-4.1-9.4-8.2-18.9-12.3-28.3c-0.1-0.3-0.2-0.7-0.4-1c-1.5-3.1-1.6-2.9,1.8-4.1
		c1.6-0.6,2.1-0.1,2.5,1.4c2.4,8.7,4.8,17.4,7.2,26.1c0.5,1.8,1,3.7,1.5,5.5C21.2,144.2,21,144.2,20.7,144.2z"/>
	<path class="st14" d="M23.2,141c-2.6-9-5.1-18-7.7-27c-0.3-1.2-0.7-2.4-1-3.6c-0.5-1.7,0.3-2.3,1.8-2.5c1.4-0.3,2.6-0.4,2.9,1.6
		c0.8,5.7,1.7,11.4,2.5,17.1c0.6,4.6,1.5,9.1,1.8,13.7C23.7,140.6,23.9,140.9,23.2,141z"/>
	<path class="st20" d="M23.2,141c0.1-0.2,0.2-0.5,0.3-0.7c0.5,0.7,0.3,1.4,0.3,2.2c-0.1,0.2-0.2,0.2-0.3,0
		C23.5,141.9,23.3,141.4,23.2,141z"/>
	<path class="st21" d="M23.6,142.4c0.1,0,0.2,0,0.3,0c0.3,0.5,0.6,1,0.3,1.7C23.7,143.6,23.5,143,23.6,142.4z"/>
	<path class="st22" d="M21.4,144.9c0.4,0.5,0.5,1,0.2,1.6c-0.4-0.3-0.5-0.8-0.6-1.2C21.2,145.1,21.2,144.9,21.4,144.9z"/>
	<path class="st23" d="M21.4,144.9c-0.1,0.1-0.3,0.3-0.4,0.4c-0.1-0.4-0.2-0.7-0.4-1.1c0.1-0.1,0.2-0.3,0.3-0.4
		C21.4,144.1,21.4,144.5,21.4,144.9z"/>
	<path class="st10" d="M230.8,78.6c5.2,0,10.4,0,15.7,0c1.5,0,2,0.5,1.9,2c-0.1,3.7-0.1,7.4,0,11.2c0,1.4-0.5,1.9-1.9,1.9
		c-10.5,0-21,0-31.5,0c-1.4,0-2.1-0.3-2-1.9c0.1-3.8,0.1-7.6,0-11.3c0-1.3,0.4-1.8,1.8-1.8C220.1,78.6,225.5,78.6,230.8,78.6z"/>
	<path class="st24" d="M233.9,69.9c-2.4,0-4.6,0-6.9,0c0.8-1.5,1.6-2.8,3.3-2.9C232.1,66.9,232.9,68.3,233.9,69.9z"/>
	<path class="st10" d="M230.1,155.4c-6.7,0-12.3-5.6-12.3-12.2c0-6.9,5.6-12.6,12.4-12.6c6.8,0,12.4,5.6,12.4,12.3
		C242.6,150.1,237.2,155.5,230.1,155.4z"/>
	<path class="st16" d="M131.8,137.8c0,1.3-1.1,2.4-2.4,2.4c-1.3,0-2.5-1.1-2.5-2.4c0-1.2,1.2-2.4,2.4-2.5
		C130.6,135.4,131.8,136.5,131.8,137.8z"/>
	<path class="st5" d="M156.8,107.5c-1.4,0-2.9,0-4.3,0c-0.9,0-1.7-0.2-1.7-1.3c0-1,0.7-1.3,1.6-1.3c2.9,0,5.8,0,8.8,0
		c0.9,0,1.5,0.3,1.5,1.3c0,1.1-0.7,1.3-1.6,1.3C159.7,107.5,158.3,107.5,156.8,107.5z"/>
	<path class="st8" d="M145.3,107.5c-0.8,0-1.6,0-2.3,0c-0.8,0-1.3-0.4-1.3-1.2c0-0.8,0.4-1.3,1.2-1.3c1.7-0.1,3.4,0,5,0
		c0.8,0,1.2,0.6,1.2,1.3c0,0.8-0.5,1.2-1.2,1.2C147,107.5,146.1,107.5,145.3,107.5z"/>
	<path class="st3" d="M137.4,107.5c-0.6-0.1-1.3,0.1-1.9-0.4c-0.6-0.6-0.7-1.2,0-1.8c0.6-0.6,3.3-0.6,3.9,0c0.6,0.6,0.5,1.3-0.1,1.8
		C138.7,107.7,138,107.5,137.4,107.5z"/>
	<path class="st1" d="M133.7,68.7c-3.6-1.5-6.8-2.8-10-4.1c-0.5-0.2-1-0.4-1.5-0.7c-0.6-0.3-0.8-0.8-0.6-1.5
		c0.2-0.6,0.7-1.1,1.4-0.8c5.1,1.8,10.2,3.9,15.1,6.1c1.1,0.5,0.7,1.8-0.6,2.3c-1.7,0.7-3.4,1.3-5,1.9c-2.9,1.1-5.8,2.1-8.8,3.2
		c-0.9,0.3-1.6,0.5-2.1-0.6c-0.5-1.2,0.3-1.6,1.2-2C126.3,71.4,129.8,70.1,133.7,68.7z"/>
	<path class="st1" d="M92.2,68.3c3.8,1.5,7.3,2.9,10.7,4.3c0.9,0.4,1.9,0.8,1.3,2.1c-0.5,1.2-1.5,0.7-2.3,0.4
		c-4.4-1.8-8.8-3.6-13.1-5.3c-0.7-0.3-1.5-0.5-1.5-1.5c0-1,0.8-1.2,1.6-1.5c4.4-1.6,8.8-3.2,13.2-4.8c0.8-0.3,1.8-0.8,2.3,0.4
		c0.5,1.3-0.5,1.6-1.4,2C99.4,65.6,96,66.8,92.2,68.3z"/>
	<path class="st1" d="M119.1,58.1c0.8,0.2,1.6,0.6,1.2,1.7c-0.2,0.6-0.6,1-0.9,1.5c-3.7,5.3-7.4,10.6-11.1,15.9
		c-0.3,0.4-0.6,0.9-1,1.2c-0.4,0.4-1,0.5-1.5,0.2c-0.6-0.4-0.7-0.9-0.5-1.6c0.1-0.2,0.2-0.4,0.3-0.6c4.1-5.8,8.2-11.7,12.3-17.5
		C118.1,58.5,118.5,58.2,119.1,58.1z"/>
	<path class="st25" d="M91.9,47.8c-1.3-0.1-2-0.7-2-2c0-1.2,0.6-1.9,1.9-1.9c1.3,0,1.9,0.8,1.9,1.9C93.7,47.1,92.9,47.8,91.9,47.8z"
		/>
	<path class="st26" d="M85.1,47.7c-1.2-0.1-1.8-0.7-1.8-1.9c0-1.2,0.8-1.8,2-1.8c1.2,0,1.9,0.8,1.8,1.9C87,47.1,86.4,47.8,85.1,47.7
		z"/>
	<path class="st26" d="M100,45.9c0,1.2-0.7,1.9-1.9,1.8c-1.3,0-1.8-0.8-1.8-2c0-1.1,0.7-1.8,1.8-1.8C99.3,44,100,44.6,100,45.9z"/>
	<path class="st2" d="M34.3,163.2c0-1.9,1.4-3.4,3.2-3.4c1.9,0,3.4,1.5,3.4,3.4c0,2-1.4,3.4-3.3,3.4
		C35.6,166.6,34.2,165.2,34.3,163.2z"/>
	<path class="st6" d="M235.4,87.1c0.8-1.6,1.4-2.9,2-4.1c0.2-0.5,0.5-1,1.2-0.8c0.6,0.1,0.7,0.5,0.8,1.1c0.2,1.8,0.4,3.7,0.7,5.5
		c0.1,0.6,0.1,1.2-0.6,1.3c-0.8,0.2-1-0.5-1.1-1.1c-0.2-0.8,0-1.7-0.5-2.5c-0.8,0.4-0.9,1.2-1.3,1.8c-0.8,1.3-1.4,1.3-2.2,0
		c-0.3-0.5-0.6-1-1-1.5c-0.1-0.1-0.2-0.1-0.5-0.3c-0.1,0.8-0.3,1.6-0.4,2.4c-0.1,0.7-0.3,1.2-1.1,1.1c-0.7-0.1-0.7-0.7-0.7-1.2
		c0.2-1.8,0.5-3.7,0.7-5.5c0.1-0.5,0.2-1,0.7-1.1c0.6-0.2,1,0.3,1.2,0.8C234.1,84.2,234.7,85.5,235.4,87.1z"/>
	<path class="st27" d="M222.8,86.1c0,1,0,1.9,0,2.9c0,0.6-0.1,1.1-0.9,1.1c-0.7,0-0.9-0.6-0.8-1.1c0-0.6,0.2-1.2-0.3-1.7
		c-0.5-0.5-1.1-0.4-1.7-0.3c-0.8,0.2-0.7,0.8-0.7,1.4c0,0.7,0.1,1.7-0.9,1.7c-1,0-0.8-1-0.8-1.7c0-1.6,0-3.2,0-4.9
		c0-0.6-0.1-1.3,0.8-1.3c0.8,0,0.8,0.7,0.9,1.3c0,0.7-0.2,1.7,1,1.8c1.1,0.1,1.9-0.1,1.8-1.5c0-0.7-0.2-1.6,0.9-1.6
		c1,0.1,0.7,0.9,0.7,1.5C222.9,84.5,222.8,85.3,222.8,86.1z"/>
	<path class="st4" d="M226.1,86.8c0-0.5,0-1,0-1.4c0.1-0.9,0-1.7-1.2-1.7c-0.6,0-0.9-0.3-0.9-0.9c0-0.5,0.5-0.7,0.9-0.7
		c1.4,0,2.7,0,4.1,0c0.4,0,0.9,0.1,0.9,0.7c0.1,0.6-0.3,0.9-0.9,0.9c-1.1,0-1.2,0.7-1.2,1.6c0,1.2,0,2.4,0,3.6
		c0,0.6-0.1,1.3-0.9,1.3c-0.8,0-0.9-0.7-0.9-1.3C226.1,88.1,226.2,87.4,226.1,86.8C226.2,86.8,226.1,86.8,226.1,86.8z"/>
	<path class="st28" d="M241.6,85.9c0-1,0-1.9,0-2.9c0-0.5,0.3-0.9,0.9-0.9c0.6,0,0.8,0.4,0.8,1c0,1.2,0.1,2.4,0,3.6
		c0,1.3,0.2,2.2,1.8,1.9c0.5-0.1,1.2-0.1,1.1,0.7c0,0.8-0.6,0.7-1.2,0.7C241.2,90,241.6,90.8,241.6,85.9z"/>
	<path class="st27" d="M230.6,138.8c0,0,0.5,0.2,0.9,0.4c0.6,0.3,1.3,0.7,0.9,1.5c-0.4,1-1,0.3-1.6,0c-0.5-0.3-1.1-0.7-1.5,0.1
		c-0.4,0.9,0.3,1,0.9,1.2c0.2,0.1,0.5,0.1,0.7,0.2c1.2,0.4,2.2,1,2.1,2.5c-0.1,1.2-0.8,1.8-1.8,2.1c-1.4,0.4-2.5,0.1-3.4-0.9
		c-0.4-0.4-0.6-1-0.1-1.4c0.5-0.4,0.9-0.1,1.2,0.2c0.3,0.3,0.6,0.6,1.1,0.6c0.5,0,1,0.1,1.2-0.6c0.1-0.5-0.2-0.8-0.7-0.9
		c-0.5-0.2-0.9-0.3-1.3-0.5c-1.1-0.5-2-1.1-1.7-2.6C227.7,139.3,228.8,138.9,230.6,138.8z"/>
	<path class="st27" d="M236.6,138.8c0.6,0,1.1,0.1,1.5,0.3c0.5,0.4,1.3,0.7,0.9,1.5c-0.4,0.9-1.1,0.3-1.6,0
		c-0.6-0.4-1.2-0.5-1.5,0.2c-0.4,0.8,0.4,1,0.9,1.2c0.2,0.1,0.4,0.1,0.5,0.1c1.2,0.4,2.3,1,2.3,2.4c0,1-0.4,1.8-1.5,2.2
		c-1.4,0.5-2.6,0.3-3.7-0.7c-0.4-0.4-0.7-0.9-0.3-1.4c0.4-0.6,0.9-0.3,1.4,0.1c0.3,0.2,0.6,0.5,0.9,0.6c0.5,0.1,1.2,0.1,1.4-0.5
		c0.2-0.5-0.3-0.9-0.8-1c-0.4-0.1-0.8-0.2-1.2-0.4c-1.2-0.5-2.1-1.3-1.8-2.7C234.3,139.3,235.4,138.8,236.6,138.8z"/>
	<path class="st27" d="M219.5,143c0-3.2,3.1-5.1,5.9-3.7c0.6,0.3,1.3,0.6,0.9,1.5c-0.4,0.8-1.1,0.4-1.5,0.1c-2-1.2-3.7,0.7-3.6,2.2
		c0.1,1.7,1.6,2.6,3.4,1.9c0.6-0.2,1.4-0.9,1.8,0.2c0.3,1-0.6,1.2-1.2,1.5C222.4,147.8,219.5,146,219.5,143z"/>
</g>
</svg>
