<?xml version="1.0" encoding="utf-8"?>
<!-- Generator: Adobe Illustrator 21.0.0, SVG Export Plug-In . SVG Version: 6.00 Build 0)  -->
<svg version="1.1" id="Layer_1" xmlns="http://www.w3.org/2000/svg" xmlns:xlink="http://www.w3.org/1999/xlink" x="0px" y="0px"
	 viewBox="0 0 267 192" style="enable-background:new 0 0 267 192;" xml:space="preserve">
<style type="text/css">
	.st0{fill:#3B3B3B;}
	.st1{fill:#3C3C3C;}
	.st2{fill:#3D3D3D;}
	.st3{fill:#474747;}
	.st4{fill:#464646;}
	.st5{fill:#404040;}
	.st6{fill:#3F3F3F;}
	.st7{fill:#494949;}
	.st8{fill:#424242;}
	.st9{fill:#4A4A4A;}
	.st10{fill:#FDFDFD;}
	.st11{fill:#5C5CFF;}
	.st12{fill:#FBFBFB;}
	.st13{fill:#FAFAFA;}
	.st14{fill:#FCFCFC;}
	.st15{fill:#F1F1F1;}
	.st16{fill:#F8F8F8;}
	.st17{fill:#F4F4F4;}
	.st18{fill:#5048F7;}
	.st19{fill:#F1F6F7;}
	.st20{fill:#DFDFDF;}
	.st21{fill:#B7B7B7;}
	.st22{fill:#A4A4A4;}
	.st23{fill:#CACACA;}
	.st24{fill:#F2F2F2;}
	.st25{fill:#F3FAFB;}
	.st26{fill:#F7FBFC;}
	.st27{fill:#414141;}
	.st28{fill:#444444;}
</style>
<g>
	<path class="st0" d="M133.4,130.8c-20.3,0-40.6,0-60.9,0c-3.4,0-3.6-0.2-3.6-3.5c0-21.8,0-43.6,0-65.4c0-2.7,0.3-3,3-3
		c2.5,0,4.9,0,7.4,0.1c1.3,0,1.9-0.5,1.8-1.8c-0.1-1.3-0.2-2.6,0-3.9c0.1-1.2-0.5-1.7-1.7-1.7c-4.3,0-8.5,0-12.8,0
		c-1.5,0-2.3,0.6-2.1,2.2c0.1,0.5,0,1.1-0.2,1.6c-0.2,0.6-0.6,0.8-1.3,0.8c-0.5-0.1-0.8-0.3-1-0.8C61,52,62.8,49,66.3,48.9
		c4.2-0.1,8.4,0,12.6,0.1c1.5,0,2.3-0.2,2.2-2c-0.1-3.5,1.3-4.8,4.9-4.9c4.8-0.1,9.6,0,14.4,0c1.4,0,2.4-0.4,3.4-1.3
		c2.6-2.4,5.1-4.9,7.8-7.3c0.9-0.8,0.9-1.4,0.3-2.5c-1.8-3.2-1-6,2.1-8c1.2-0.7,1.9-3.6,1.2-4.7c-0.4-0.7-1.2-0.5-1.8-0.5
		c-3.4-0.1-3.4-0.1-3.4-3.5c0-1,0-2,0-3.1c-0.1-1.7,0.8-2.4,2.4-2.3c0.4,0,0.7,0,1.1,0c19.5,0,38.9,0,58.4,0c1.5,0,2.9-0.1,3.9-1.4
		c0.3-0.3,0.7-0.5,1.1-0.6c3.9-0.7,7.8-1.2,11.6,0.3c1.9,0.7,2.9,2.3,3,4.4c0.1,1.3,0.1,2.6,0.1,4c0,1.3,0,2.6,1.1,3.6
		c0.6,0.5,0.3,1.2,0.2,1.9c-0.1,2,0.2,2.2,2.3,2.2c12.2,0,24.5,0,36.7,0c4.2,0,4.2,0,4.2,4.1c0,1.4,0,2.9,0,4.3c0,1-0.1,1.9-1.3,1.9
		c-1.3,0-1.3-1.1-1.3-2c-0.1-1.3-0.1-2.6,0-4c0.1-1.5-0.6-1.8-1.9-1.8c-3.9,0.1-7.8,0-11.7,0c-8.3,0-16.6,0-24.9,0
		c-1.7,0-2.4,0.5-2.1,2.1c0.2,1.1,0,2.1-0.8,2.8c-0.5,0.5-0.5,1-0.5,1.6c0,4.9,0,9.7,0,14.6c0,1.6,0.7,2,2.1,1.9
		c2.6-0.2,5.2-0.3,7.7,0.1c2.3,0.3,3.4,1.5,3.5,3.8c0,0.4,0,0.8,0,1.3c0,31.4,0,62.8,0,94.2c0,4-1.1,5.2-5.1,5.2
		c-16.7,0-33.5,0-50.2,0c-3.2,0-3.3,0.2-3.1,3.4c0.1,1.9,0,3.8-0.1,5.8c-0.1,1.6,0.4,2.3,2.1,2.2c2.8-0.1,5.5,0,8.3,0
		c2.9,0,4.2,1.1,4.2,3.9c0,1.7,0.6,2.2,2.3,2.2c3.5-0.1,7,0,10.4,0c1,0,2.1-0.1,2.1,1.3c0,1.2-1,1.2-2,1.2c-27,0-54,0-81.1,0
		c-1,0-1.9-0.1-2-1.3c-0.1-1.3,1-1.3,1.9-1.3c3.8,0,7.6-0.1,11.3,0c1.5,0,2-0.5,2.1-2c0.1-3.2,1.2-4.1,4.4-4.1c2.8,0,5.5-0.1,8.3,0
		c1.5,0,2.1-0.4,2-1.9c-0.1-2.5-0.1-4.9,0-7.4c0-1.5-0.5-2.1-2-2.1c-5.7,0-11.4,0-17.1,0c-0.6,0-1.2-0.1-1.8-0.1
		c-0.6-0.1-0.9-0.5-0.9-1.1c0-0.7,0.3-1.2,1-1.3c0.6-0.1,1.3-0.1,2-0.1c32.5,0,65,0,97.5,0c2.9,0,3-0.1,3-3c0-31,0-62.1,0-93.1
		c0-3-0.1-3.2-3.1-3.2c-14.6,0-29.2,0-43.8,0c-2.6,0-2.7,0.1-2.6,2.8c0,0.1,0,0.2,0,0.4c0.1,4.3,0.1,4.3,4.3,4.3
		c12.6,0,25.2,0,37.8-0.1c2.6,0,2.9,0.3,2.9,2.9c0,22,0,44,0,65.9c0,2.7-0.3,3.1-3.1,3.1C174.2,130.8,153.8,130.8,133.4,130.8z"/>
	<path class="st0" d="M51,138.6c0,10-0.1,20,0.1,30.1c0,2.9-1.4,4.9-4.8,4.8c-3.5-0.1-7.1-0.1-10.6,0c-2,0-3.3-0.8-4-2.7
		c-7-17.6-14.9-34.9-22.3-52.4c-0.2-0.6-0.4-1.1-0.6-1.7c-0.7-2.3-0.1-3.9,2.1-4.8c6.4-2.6,12.8-5.3,19.8-6c0.4,0,1-0.1,1.2-0.4
		c1.5-2,3.7-1.7,5.8-1.7c2.9,0,5.9,0,8.8,0c3.6,0,4.6,1,4.6,4.6C51,118.6,51,128.6,51,138.6z"/>
	<path class="st0" d="M234.5,99.1c-5.5,0-11,0-16.6,0c-2.8,0-3.4-0.7-3.4-3.4c0-6.5,0-13,0-19.5c0-2.5,0.7-3.3,3.2-3.3
		c2.1,0,4.2-0.2,6.3,0c3,0.3,4.5-2,6.2-3.7c0.6-0.5,0.1-1.3-0.2-2c-1.9-3.7-1.3-5.9,2.3-8.1c0.8-0.5,1.2-1.1,1.2-2
		c0-1.4,0-2.8,0-4.1c0-0.9,0-2,1.3-2c1.2,0,1.3,1,1.3,1.9c0,1.9-0.1,3.7,0,5.6c0.1,1.6-0.4,2.4-2,2.8c-2,0.5-2.8,2.1-2.2,3.8
		c0.3,1,0.8,1.9,2,0.9c0.5-0.4,1-0.4,1.5,0c1.3,1.1,1.8,0.2,2.2-0.8c0.2-0.4,0.2-0.8,0.3-1.2c0.2-0.8,0.7-1.1,1.5-1
		c0.8,0.1,1.1,0.7,1.1,1.4c-0.1,1.2-0.3,2.3-1.2,3.1c-1,1-0.7,1.6,0.1,2.6c1.7,2.1,3.8,3,6.5,2.8c2.2-0.1,4.4-0.1,6.7,0
		c1.7,0,2.5,1,2.5,2.6c0,6.9,0,13.8,0,20.7c0,2-0.9,2.8-3.2,2.8C246.1,99.1,240.3,99.1,234.5,99.1z"/>
	<path class="st1" d="M64.6,109.2c0,13,0,26.1,0,39.1c0,2.5,0.1,2.6,2.5,2.6c3.4,0,6.8,0,10.3,0c1,0,1.9,0.1,1.9,1.3
		c0,1.2-0.9,1.4-1.7,1.4c-4,0-7.9,0.1-11.9-0.1c-2.5-0.1-3.5-1.4-3.6-4.1c-0.1-5.2,0-10.4,0-15.7c0-21.1,0-42.3,0-63.4
		c0-0.3,0-0.6,0-0.9c0.1-0.9-0.3-2.3,1.3-2.2c1.5,0.1,1.2,1.4,1.2,2.4C64.6,82.8,64.6,96,64.6,109.2z"/>
	<path class="st0" d="M219.2,146c0-8.3,6.8-15,15.2-15c8.1,0,14.9,6.8,14.9,15.1c0,8.2-6.7,15-14.9,15.1
		C226,161.3,219.2,154.4,219.2,146z"/>
	<path class="st2" d="M133.3,145.8c-2.8,0-5-2.4-4.9-5.1c0.1-2.8,2.4-4.9,5.2-4.8c2.7,0.1,4.9,2.4,4.8,5
		C138.4,143.6,136,145.9,133.3,145.8z"/>
	<path class="st3" d="M236.1,42.5c0,1.2,0,2.4,0,3.6c0,0.8-0.4,1.4-1.3,1.4c-0.9,0-1.3-0.6-1.3-1.4c0-2.5,0-5,0-7.5
		c0-0.8,0.4-1.4,1.3-1.3c1,0,1.2,0.7,1.3,1.5C236.1,39.9,236.1,41.2,236.1,42.5z"/>
	<path class="st4" d="M85.4,150.9c1,0,1.9,0,2.9,0c0.8,0.1,1.6,0.3,1.6,1.3c0,0.9-0.6,1.3-1.4,1.3c-2.2,0-4.3,0-6.5-0.1
		c-0.7,0-1.1-0.5-1.1-1.2c0-0.8,0.4-1.3,1.1-1.4C83.2,150.9,84.3,150.9,85.4,150.9C85.4,150.9,85.4,150.9,85.4,150.9z"/>
	<path class="st2" d="M83.7,173.5c-1.1,0-2.2-0.1-3.2,0c-1.1,0.1-1.3-0.6-1.5-1.4c-0.2-1.1,0.7-1.1,1.4-1.2c2.2,0,4.4,0,6.6,0
		c1,0,1.6,0.5,1.5,1.3c0,0.8-0.7,1.3-1.7,1.2C85.9,173.5,84.8,173.5,83.7,173.5z"/>
	<path class="st5" d="M64.6,61.7c0,0.9,0,1.8,0,2.7c0,0.8-0.4,1.4-1.3,1.4c-0.8,0-1.2-0.6-1.2-1.3c0-1.9,0-3.8,0-5.7
		c0-0.7,0.4-1.1,1.1-1.2c0.8-0.1,1.3,0.4,1.4,1.1C64.6,59.7,64.5,60.7,64.6,61.7C64.6,61.7,64.6,61.7,64.6,61.7z"/>
	<path class="st6" d="M180.8,173.5c-0.7,0-1.4,0.1-2.1,0c-0.7-0.1-1.2-0.5-1.2-1.3c0-0.8,0.5-1.2,1.2-1.2c1.5,0,3,0,4.5,0
		c0.7,0,1.2,0.4,1.1,1.1c-0.1,0.6-0.2,1.4-1.1,1.4C182.3,173.5,181.6,173.5,180.8,173.5C180.8,173.5,180.8,173.5,180.8,173.5z"/>
	<path class="st7" d="M94.8,150.9c0.1,0,0.6,0,1,0.1c0.6,0.1,1.1,0.5,1.2,1.2c0.1,0.8-0.4,1.2-1.1,1.4c-0.8,0.2-1.7,0.2-2.5,0.1
		c-0.9-0.1-1.7-0.4-1.6-1.5c0.1-1,0.8-1.2,1.7-1.2C93.8,150.9,94.1,150.9,94.8,150.9z"/>
	<path class="st5" d="M74.2,173.5c-0.5,0-1,0.1-1.4,0c-0.9-0.1-1.1-0.9-1.2-1.5c-0.1-0.8,0.6-0.9,1.2-1c0.9,0,1.8,0,2.7,0
		c0.7,0,1.6,0.1,1.5,1.1c-0.1,0.9-0.4,1.6-1.6,1.5C75,173.5,74.6,173.5,74.2,173.5C74.2,173.5,74.2,173.5,74.2,173.5z"/>
	<path class="st8" d="M188,173.5c-1.1,0.2-2-0.1-1.9-1.4c0.1-1.3,1.2-1.2,2.2-1.2c1,0,2.1,0,2,1.3
		C190.3,173.6,189.1,173.6,188,173.5z"/>
	<path class="st9" d="M195.3,172.3c-0.2,0.8-0.7,1.2-1.6,1.3c-1,0.1-1.4-0.6-1.5-1.4c0-1,0.8-1.2,1.6-1.2
		C194.7,170.9,195.2,171.4,195.3,172.3z"/>
	<path class="st10" d="M80.9,128c-2.6,0-5.3,0.1-7.9,0.2c-1.2,0-1.5-0.5-1.5-1.6c0-21,0-41.9,0-62.9c0-1.5,0.6-2.1,2-2
		c1.9,0.1,3.7,0.2,5.6,0c1.5-0.2,2.1,0.4,2.1,2c-0.1,9.5,0,19.1,0,28.6c0,0.9,0,1.8,0.3,2.7c0.4,1.2,1.3,1.9,2.5,2.1
		c0.9,0.2,1.8,0.2,2.7,0.2c20.2,0,40.5,0,60.7,0c0.8,0,1.7,0,2.5-0.2c1.6-0.2,2.6-1.2,2.8-2.8c0.1-0.9,0.2-1.8,0.2-2.7
		c0-9.1,0-18.3,0-27.4c0-2.5,0.1-2.6,2.5-2.6c5.3,0,10.6,0.1,15.8,0c1.8,0,2.2,0.6,2.2,2.3c-0.1,6.7,0,13.5,0,20.2
		c0,1.6,0.3,3.2,0.9,4.7c2.3,5.1,4,10.5,6.6,15.5c1.2,2.3,0.3,3.6-2.2,3.6c-2.8,0-5.5,0-8.3,0c-0.9,0-1.9,0.1-1.9,1.4
		c0,1.1,0.9,1.3,1.8,1.3c5.7,0,11.4,0,17.1,0c0.9,0,1.8-0.3,1.8-1.3c0-1.1-0.9-1.3-1.8-1.3c-0.5,0-1,0-1.4,0
		c-2.1,0.1-2.4-0.3-2.2-2.3c0.1-0.5,0.2-1,0.4-1.4c2.1-3.8,3.3-8.1,5.2-12c1.9-3.9,2.4-8,2.2-12.3c-0.3-5.5,0-11-0.1-16.6
		c0-1.4,0.7-1.7,1.9-1.7c1.3,0,1.8,0.6,1.8,1.8c0,8.1,0,16.2,0,24.3c0,6.2-0.1,12.5-0.1,18.7c0,6.5,0,13,0.1,19.4
		c0,1.8-0.6,2.2-2.3,2.2c-19.6-0.1-39.3-0.1-58.9-0.1c-4.9,0-9.7,0.3-14.6,0c-0.5-0.3-0.5-0.8-0.6-1.3c-0.2-1.2-0.9-1.9-2-2.3
		c-2.3-0.9-2.8-2.1-1.8-4.3c0.7-1.4,0.4-2.5-0.6-3.6c-0.6-0.6-1.3-1.3-1.9-1.9c-1.1-1.1-2.3-1.4-3.8-0.7c-2.3,1.1-3.5,0.5-4.3-1.9
		c-0.4-1.2-1.1-1.8-2.4-1.8c-1.3,0-2.6,0-4,0c-1.3,0-2,0.6-2.3,1.8c-0.8,2.6-2.1,3.1-4.4,1.9c-1.2-0.6-2.2-0.5-3.1,0.4
		c-0.6,0.6-1.3,1.1-1.9,1.7c-1.3,1.4-2.1,2.8-0.8,4.7c0.9,1.3,0.3,3.1-1.1,3.5C82.4,124.8,81.5,126.1,80.9,128z"/>
	<path class="st10" d="M117.1,55.6c10.3,0,20.5,0,30.8,0c2.3,0,2.4,0.1,2.4,2.4c0,11.4,0,22.8-0.1,34.2c0,2.3-0.2,2.5-2.4,2.5
		c-20.4,0-40.8,0-61.2,0c-2.5,0-2.8-0.3-2.8-2.8c0-11.4,0-22.8,0-34.2c0-1.7,0.6-2.1,2.2-2.1C96.3,55.7,106.7,55.6,117.1,55.6z"/>
	<path class="st10" d="M173.5,17.9c-1.3,1-1.4,2-1.4,3c0,2.6-0.1,5.3-0.1,7.9c0,0.4,0,1,0.2,1.2c1.4,1.3,0.9,3,0.9,4.5
		c0.1,4.1,0.1,8.2,0.2,12.2c0,1.6-0.6,2.3-2.2,2.2c-5.5-0.2-10.9-0.2-16.4,0c-1.5,0.1-2.1-0.5-2.1-2.1c-0.2-4-1.2-4.9-5.2-4.9
		c-5.3,0-10.6,0-15.8,0c-1.4,0-2.4-0.4-3.3-1.4c-2.2-2.3-4.4-4.6-6.6-6.9c-0.9-0.9-1.2-1.7-0.3-2.7c0.7-0.8,0.9-1.8,0.9-2.9
		c0-0.8-0.3-1.3-1.1-1.4c-0.8-0.1-1.2,0.3-1.4,1.1c-0.1,0.5-0.2,1.1-0.4,1.6c-0.3,0.7-0.8,1-1.4,0.4c-0.8-0.9-1.6-0.9-2.4,0
		c-0.8,0.7-1.2,0.3-1.6-0.5c-0.8-1.9,0.1-3.7,2.1-4.1c1.6-0.3,2.1-1.1,2-2.6c-0.1-0.9-0.1-1.8-0.1-2.7c-0.1-1.6,0.7-2.4,2.2-2.3
		c17.3,0.6,34.6,0.1,51.8,0.3C172.3,17.8,172.7,17.8,173.5,17.9z"/>
	<path class="st11" d="M117.1,44.8c10.1,0,20.2,0,30.2,0c2.6,0,2.6,0,2.8,2.6c0.1,1.2,0.2,2.4,0.2,3.6c0,1.5-0.8,2.2-2.3,2.2
		c-20.8-0.5-41.5-0.2-62.3-0.2c-1.5,0-2.2-0.5-2.1-2.1c0.1-1.2,0-2.4,0-3.6c0-2.1,0.2-2.4,2.4-2.4C96.4,44.8,106.8,44.8,117.1,44.8z
		"/>
	<path class="st10" d="M93.8,128c-3.4,0-6.9,0-10.3,0c-0.8-1,0-1.5,0.8-1.7c2.2-0.4,2.9-2.1,3.6-3.9c0.3-0.8,0.2-1.5-0.2-2.2
		c-1-1.6-0.8-2.2,0.6-3.6c1-1,2-1.5,3.3-0.4c0.7,0.6,1.4,0.6,2.2,0.2c1.7-0.8,3.6-1.1,4-3.6c0.3-1.6,2-1.1,3.2-1.1
		c1,0,1.6,0.4,1.9,1.5c0.5,2.4,4.2,4,6.2,2.7c1.2-0.8,2.1-0.5,3,0.5c0.9,1,2.3,1.9,0.9,3.5c-0.7,0.8-0.7,1.6-0.2,2.5
		c0.3,0.5,0.5,1.1,0.6,1.7c0.3,1.2,1,1.9,2.4,2.1c0.9,0.1,1.9,0.4,1.1,1.7c-3.4,0-6.8,0-10.1,0c-0.6-0.4-0.7-1.1-1-1.7
		c-1.1-2.2-2.9-3.5-5.5-3.5c-2.4,0.1-4.2,1.2-5.3,3.5C94.6,126.9,94.4,127.6,93.8,128z"/>
	<path class="st10" d="M133.3,164.9c-2.8,0-5.5,0-8.3,0c-1.3,0-1.9-0.4-1.8-1.8c0.1-2.6,0.1-5.3,0-7.9c0-1.4,0.6-1.7,1.8-1.7
		c3.2,0.1,6.3,0.1,9.5,0.1c2.3,0,4.6,0,6.8-0.1c1.6-0.1,2.4,0.4,2.3,2.2c-0.2,2.4-0.1,4.8,0,7.2c0.1,1.6-0.6,2.1-2.1,2
		C138.8,164.8,136,164.9,133.3,164.9z"/>
	<path class="st12" d="M143,15.2c-9.2,0-18.4,0-27.6,0c-1.2,0-2.7,0.3-2.7-1.7c0-1.2,0.4-2,1.7-1.9c0.3,0,0.6,0,0.9,0
		c18.4,0.2,36.9,0.2,55.3,0c0.9,0,1.9-0.3,2.5,0.6c0.9,1.3,0,2.9-1.5,3c-1.4,0.1-2.8,0-4.1,0C159.3,15.2,151.2,15.2,143,15.2z"/>
	<path class="st11" d="M116.7,128c0.2-1.1-0.3-1.4-1.3-1.3c-1.4,0.2-2.1-0.6-2.5-1.8c-0.2-0.7-0.5-1.5-0.8-2.2
		c-0.6-1.2-0.6-2.2,0.5-3c0.8-0.7,0.7-1.3-0.1-1.9c-0.4-0.3-0.7-0.7-1-1c-0.8-1-1.6-1.1-2.4-0.1c-0.7,0.9-1.6,0.9-2.5,0.4
		c-0.7-0.4-1.5-0.7-2.3-0.9c-1.3-0.4-2.1-1.2-2-2.6c0.1-1.1-0.4-1.2-1.3-1.2c-2.6-0.1-2.6-0.1-3.2,2.3c0,0.1,0,0.1,0,0.2
		c-0.5,1.5-5.6,3-6.7,1.8c-1.6-1.7-2.1,0.2-2.9,0.8c-0.9,0.6-1.3,1.5-0.3,2.4c0.9,0.7,1,1.6,0.6,2.6c-0.8,2-1.4,4.2-4.1,4.4
		c-0.8,0.1-0.9,0.7-0.8,1.3c-0.9,0-1.7,0-2.6,0c-0.1-2.2,0.6-3.7,3-4.1c1.6-0.3,2.1-1.9,1.2-3.2c-1.3-1.8-1-3.2,0.6-4.5
		c0.7-0.6,1.3-1.4,2-2c1.7-1.5,2.3-1.6,4.2-0.4c1.4,0.9,3.1,0.2,3.3-1.5c0.3-1.9,1.3-2.7,3.2-2.7c1,0,1.9,0,2.9,0
		c2.7,0,3,0.3,3.7,2.8c0.4,1.5,2.1,2.2,3.4,1.3c1.6-1.2,3-0.9,4.3,0.4c0.7,0.7,1.5,1.4,2.2,2.2c1.2,1.3,1.6,2.5,0.6,4.2
		c-1,1.6-0.6,2.8,1.1,3.4c2.7,1,2.8,1,2.9,4.2C118.6,128,117.6,128,116.7,128z"/>
	<path class="st13" d="M133.5,167.5c7.5,0,15,0,22.5,0c1.1,0,2.2,0,2.3,1.5c0.1,1.2-0.4,1.9-1.6,1.9c-0.4,0-0.7,0-1.1,0
		c-14.9,0-29.9,0-44.8,0c-1.1,0-2.2,0.1-2.3-1.5c-0.1-1.5,0.7-2,2.1-2c4.3,0,8.5,0,12.8,0C126.7,167.5,130.1,167.5,133.5,167.5z"/>
	<path class="st10" d="M182.4,28.3c-2,0-3.9,0-5.9,0c-1.4,0-2-0.5-1.8-1.9c0.1-0.9,0.1-1.9,0-2.9c0-2.5,0-2.5,2.4-2.5
		c3.7,0,7.3,0.1,11,0c1.6,0,2.4,0.4,2.1,2.1c-0.2,1-0.1,2,0,3c0.2,1.5-0.3,2.2-2,2.1C186.3,28.2,184.3,28.3,182.4,28.3
		C182.4,28.3,182.4,28.3,182.4,28.3z"/>
	<path class="st10" d="M125.5,41.9c-6.3,0-12.5,0-19.1,0c2.9-2.8,5.5-5.5,8.6-7.9c1.3-1,2.6-0.6,3.7,0.5c2.4,2.2,4.9,4.4,7.3,6.7
		C125.9,41.5,125.7,41.7,125.5,41.9z"/>
	<path class="st14" d="M180.6,73.3c0-3.3,0.1-6.6,0-9.9c0-1.5,0.6-1.8,1.9-1.8c1.4,0,1.9,0.4,1.9,1.9c-0.1,6.6-0.1,13.2,0,19.8
		c0,1.5-0.6,1.8-1.9,1.8c-1.4,0-1.9-0.4-1.9-1.8C180.6,79.9,180.6,76.6,180.6,73.3z"/>
	<path class="st14" d="M184.3,39.9c0,2.5,0,5,0,7.6c0,1.2-0.4,1.6-1.6,1.5c-1-0.1-2.2,0.4-2.2-1.4c0.1-5,0.1-10.1,0-15.1
		c0-1.6,0.8-1.5,1.9-1.6c1.2,0,1.9,0.2,1.9,1.7C184.3,35,184.3,37.5,184.3,39.9C184.3,39.9,184.3,39.9,184.3,39.9z"/>
	<path class="st15" d="M176,73.4c0-3.4,0-6.8,0-10.2c0-0.6-0.1-1.4,0.8-1.5c0.9,0,1.2,0.6,1.2,1.4c0,6.9,0,13.8,0,20.7
		c0,0.8-0.3,1.3-1.1,1.3c-1,0-0.9-0.8-0.9-1.4C176,80.2,176,76.8,176,73.4C176,73.4,176,73.4,176,73.4z"/>
	<path class="st16" d="M189,73.5c0,3.4,0,6.7,0,10.1c0,0.7,0.1,1.6-0.9,1.6c-1,0-1-0.8-1-1.5c0-6.8,0-13.6,0-20.5
		c0-0.8,0.1-1.5,1.1-1.4c1,0,0.9,0.8,0.9,1.4C189,66.6,189,70,189,73.5C189,73.5,189,73.5,189,73.5z"/>
	<path class="st17" d="M176,40c0-2.5,0-5,0-7.5c0-0.7-0.1-1.5,1-1.6c1,0,1.1,0.8,1.1,1.5c0,5,0,10.1,0,15.1c0,0.8-0.2,1.5-1.2,1.5
		c-1.1,0-0.9-0.9-0.9-1.6C176,44.9,176,42.5,176,40z"/>
	<path class="st15" d="M189,40.1c0,2.5,0,4.9,0,7.4c0,0.7,0.1,1.5-1,1.5c-1.1,0-1-0.8-1-1.5c0-5,0-10.1,0-15.1c0-0.7,0-1.4,0.9-1.4
		c1,0,1.1,0.7,1.1,1.4C189,34.9,189,37.5,189,40.1z"/>
	<path class="st18" d="M93.8,128c0.9-3.6,3-5.6,6.2-5.6c3.3-0.1,5.5,1.8,6.6,5.6c-0.9,0-1.8,0-2.7,0c-0.4-0.3-0.7-0.7-1-1
		c-1.8-2.1-4-2-5.7,0.2c-0.2,0.3-0.4,0.7-0.9,0.9C95.5,128,94.7,128,93.8,128z"/>
	<path class="st19" d="M96.4,128c0.5-1.9,1.9-3,3.8-3c2-0.1,3.1,1.2,3.7,3C101.4,128,98.9,128,96.4,128z"/>
	<path class="st10" d="M34.2,160.6c0-2.7,0-5.4,0-8.1c0-1.2,0.4-1.7,1.7-1.7c3.7,0.1,7.3,0.1,11,0c1.1,0,1.6,0.4,1.6,1.6
		c0,5.5,0,11,0,16.6c0,1.3-0.5,1.9-1.8,1.9c-3.6,0-7.2,0-10.8,0c-1.2,0-1.7-0.6-1.7-1.8C34.2,166.2,34.2,163.4,34.2,160.6z"/>
	<path class="st12" d="M31.2,148.4c-0.7-2.1-0.8-4.2-1.1-6.2c-1.5-10-2.9-19.9-4.3-29.9c-0.4-2.8-0.2-3.1,2.6-3.3
		c3.1-0.2,3.1-0.2,3.1,3c0,11.6,0,23.2,0,34.7C31.5,147.2,31.7,147.8,31.2,148.4z"/>
	<path class="st10" d="M24.7,147.2c-4.1-9.4-8.2-18.9-12.3-28.3c-0.1-0.3-0.2-0.7-0.4-1c-1.5-3.1-1.6-2.9,1.8-4.1
		c1.6-0.6,2.1-0.1,2.5,1.4c2.4,8.7,4.8,17.4,7.2,26.1c0.5,1.8,1,3.7,1.5,5.5C25.2,147.2,25,147.2,24.7,147.2z"/>
	<path class="st14" d="M27.2,144c-2.6-9-5.1-18-7.7-27c-0.3-1.2-0.7-2.4-1-3.6c-0.5-1.7,0.3-2.3,1.8-2.5c1.4-0.3,2.6-0.4,2.9,1.6
		c0.8,5.7,1.7,11.4,2.5,17.1c0.6,4.6,1.5,9.1,1.8,13.7C27.7,143.6,27.9,143.9,27.2,144z"/>
	<path class="st20" d="M27.2,144c0.1-0.2,0.2-0.5,0.3-0.7c0.5,0.7,0.3,1.4,0.3,2.2c-0.1,0.2-0.2,0.2-0.3,0
		C27.5,144.9,27.3,144.4,27.2,144z"/>
	<path class="st21" d="M27.6,145.4c0.1,0,0.2,0,0.3,0c0.3,0.5,0.6,1,0.3,1.7C27.7,146.6,27.5,146,27.6,145.4z"/>
	<path class="st22" d="M25.4,147.9c0.4,0.5,0.5,1,0.2,1.6c-0.4-0.3-0.5-0.8-0.6-1.2C25.2,148.1,25.2,147.9,25.4,147.9z"/>
	<path class="st23" d="M25.4,147.9c-0.1,0.1-0.3,0.3-0.4,0.4c-0.1-0.4-0.2-0.7-0.4-1.1c0.1-0.1,0.2-0.3,0.3-0.4
		C25.4,147.1,25.4,147.5,25.4,147.9z"/>
	<path class="st10" d="M234.8,81.6c5.2,0,10.4,0,15.7,0c1.5,0,2,0.5,1.9,2c-0.1,3.7-0.1,7.4,0,11.2c0,1.4-0.5,1.9-1.9,1.9
		c-10.5,0-21,0-31.5,0c-1.4,0-2.1-0.3-2-1.9c0.1-3.8,0.1-7.6,0-11.3c0-1.3,0.4-1.8,1.8-1.8C224.1,81.6,229.5,81.6,234.8,81.6z"/>
	<path class="st24" d="M237.9,72.9c-2.4,0-4.6,0-6.9,0c0.8-1.5,1.6-2.8,3.3-2.9C236.1,69.9,236.9,71.3,237.9,72.9z"/>
	<path class="st10" d="M234.1,158.4c-6.7,0-12.3-5.6-12.3-12.2c0-6.9,5.6-12.6,12.4-12.6c6.8,0,12.4,5.6,12.4,12.3
		C246.6,153.1,241.2,158.5,234.1,158.4z"/>
	<path class="st16" d="M135.8,140.8c0,1.3-1.1,2.4-2.4,2.4c-1.3,0-2.5-1.1-2.5-2.4c0-1.2,1.2-2.4,2.4-2.5
		C134.6,138.4,135.8,139.5,135.8,140.8z"/>
	<path class="st5" d="M160.8,110.5c-1.4,0-2.9,0-4.3,0c-0.9,0-1.7-0.2-1.7-1.3c0-1,0.7-1.3,1.6-1.3c2.9,0,5.8,0,8.8,0
		c0.9,0,1.5,0.3,1.5,1.3c0,1.1-0.7,1.3-1.6,1.3C163.7,110.5,162.3,110.5,160.8,110.5z"/>
	<path class="st8" d="M149.3,110.5c-0.8,0-1.6,0-2.3,0c-0.8,0-1.3-0.4-1.3-1.2c0-0.8,0.4-1.3,1.2-1.3c1.7-0.1,3.4,0,5,0
		c0.8,0,1.2,0.6,1.2,1.3c0,0.8-0.5,1.2-1.2,1.2C151,110.5,150.1,110.5,149.3,110.5z"/>
	<path class="st3" d="M141.4,110.5c-0.6-0.1-1.3,0.1-1.9-0.4c-0.6-0.6-0.7-1.2,0-1.8c0.6-0.6,3.3-0.6,3.9,0c0.6,0.6,0.5,1.3-0.1,1.8
		C142.7,110.7,142,110.5,141.4,110.5z"/>
	<path class="st1" d="M137.7,71.7c-3.6-1.5-6.8-2.8-10-4.1c-0.5-0.2-1-0.4-1.5-0.7c-0.6-0.3-0.8-0.8-0.6-1.5
		c0.2-0.6,0.7-1.1,1.4-0.8c5.1,1.8,10.2,3.9,15.1,6.1c1.1,0.5,0.7,1.8-0.6,2.3c-1.7,0.7-3.4,1.3-5,1.9c-2.9,1.1-5.8,2.1-8.8,3.2
		c-0.9,0.3-1.6,0.5-2.1-0.6c-0.5-1.2,0.3-1.6,1.2-2C130.3,74.4,133.8,73.1,137.7,71.7z"/>
	<path class="st1" d="M96.2,71.3c3.8,1.5,7.3,2.9,10.7,4.3c0.9,0.4,1.9,0.8,1.3,2.1c-0.5,1.2-1.5,0.7-2.3,0.4
		c-4.4-1.8-8.8-3.6-13.1-5.3c-0.7-0.3-1.5-0.5-1.5-1.5c0-1,0.8-1.2,1.6-1.5c4.4-1.6,8.8-3.2,13.2-4.8c0.8-0.3,1.8-0.8,2.3,0.4
		c0.5,1.3-0.5,1.6-1.4,2C103.4,68.6,100,69.8,96.2,71.3z"/>
	<path class="st1" d="M123.1,61.1c0.8,0.2,1.6,0.6,1.2,1.7c-0.2,0.6-0.6,1-0.9,1.5c-3.7,5.3-7.4,10.6-11.1,15.9
		c-0.3,0.4-0.6,0.9-1,1.2c-0.4,0.4-1,0.5-1.5,0.2c-0.6-0.4-0.7-0.9-0.5-1.6c0.1-0.2,0.2-0.4,0.3-0.6c4.1-5.8,8.2-11.7,12.3-17.5
		C122.1,61.5,122.5,61.2,123.1,61.1z"/>
	<path class="st25" d="M95.9,50.8c-1.3-0.1-2-0.7-2-2c0-1.2,0.6-1.9,1.9-1.9c1.3,0,1.9,0.8,1.9,1.9C97.7,50.1,96.9,50.8,95.9,50.8z"
		/>
	<path class="st26" d="M89.1,50.7c-1.2-0.1-1.8-0.7-1.8-1.9c0-1.2,0.8-1.8,2-1.8c1.2,0,1.9,0.8,1.8,1.9C91,50.1,90.4,50.8,89.1,50.7
		z"/>
	<path class="st26" d="M104,48.9c0,1.2-0.7,1.9-1.9,1.8c-1.3,0-1.8-0.8-1.8-2c0-1.1,0.7-1.8,1.8-1.8C103.3,47,104,47.6,104,48.9z"/>
	<path class="st2" d="M38.3,166.2c0-1.9,1.4-3.4,3.2-3.4c1.9,0,3.4,1.5,3.4,3.4c0,2-1.4,3.4-3.3,3.4
		C39.6,169.6,38.2,168.2,38.3,166.2z"/>
	<path class="st6" d="M239.4,90.1c0.8-1.6,1.4-2.9,2-4.1c0.2-0.5,0.5-1,1.2-0.8c0.6,0.1,0.7,0.5,0.8,1.1c0.2,1.8,0.4,3.7,0.7,5.5
		c0.1,0.6,0.1,1.2-0.6,1.3c-0.8,0.2-1-0.5-1.1-1.1c-0.2-0.8,0-1.7-0.5-2.5c-0.8,0.4-0.9,1.2-1.3,1.8c-0.8,1.3-1.4,1.3-2.2,0
		c-0.3-0.5-0.6-1-1-1.5c-0.1-0.1-0.2-0.1-0.5-0.3c-0.1,0.8-0.3,1.6-0.4,2.4c-0.1,0.7-0.3,1.2-1.1,1.1c-0.7-0.1-0.7-0.7-0.7-1.2
		c0.2-1.8,0.5-3.7,0.7-5.5c0.1-0.5,0.2-1,0.7-1.1c0.6-0.2,1,0.3,1.2,0.8C238.1,87.2,238.7,88.5,239.4,90.1z"/>
	<path class="st27" d="M226.8,89.1c0,1,0,1.9,0,2.9c0,0.6-0.1,1.1-0.9,1.1c-0.7,0-0.9-0.6-0.8-1.1c0-0.6,0.2-1.2-0.3-1.7
		c-0.5-0.5-1.1-0.4-1.7-0.3c-0.8,0.2-0.7,0.8-0.7,1.4c0,0.7,0.1,1.7-0.9,1.7c-1,0-0.8-1-0.8-1.7c0-1.6,0-3.2,0-4.9
		c0-0.6-0.1-1.3,0.8-1.3c0.8,0,0.8,0.7,0.9,1.3c0,0.7-0.2,1.7,1,1.8c1.1,0.1,1.9-0.1,1.8-1.5c0-0.7-0.2-1.6,0.9-1.6
		c1,0.1,0.7,0.9,0.7,1.5C226.9,87.5,226.8,88.3,226.8,89.1z"/>
	<path class="st4" d="M230.1,89.8c0-0.5,0-1,0-1.4c0.1-0.9,0-1.7-1.2-1.7c-0.6,0-0.9-0.3-0.9-0.9c0-0.5,0.5-0.7,0.9-0.7
		c1.4,0,2.7,0,4.1,0c0.4,0,0.9,0.1,0.9,0.7c0.1,0.6-0.3,0.9-0.9,0.9c-1.1,0-1.2,0.7-1.2,1.6c0,1.2,0,2.4,0,3.6
		c0,0.6-0.1,1.3-0.9,1.3c-0.8,0-0.9-0.7-0.9-1.3C230.1,91.1,230.2,90.4,230.1,89.8C230.2,89.8,230.1,89.8,230.1,89.8z"/>
	<path class="st28" d="M245.6,88.9c0-1,0-1.9,0-2.9c0-0.5,0.3-0.9,0.9-0.9c0.6,0,0.8,0.4,0.8,1c0,1.2,0.1,2.4,0,3.6
		c0,1.3,0.2,2.2,1.8,1.9c0.5-0.1,1.2-0.1,1.1,0.7c0,0.8-0.6,0.7-1.2,0.7C245.2,93,245.6,93.8,245.6,88.9z"/>
	<path class="st27" d="M234.6,141.8c0,0,0.5,0.2,0.9,0.4c0.6,0.3,1.3,0.7,0.9,1.5c-0.4,1-1,0.3-1.6,0c-0.5-0.3-1.1-0.7-1.5,0.1
		c-0.4,0.9,0.3,1,0.9,1.2c0.2,0.1,0.5,0.1,0.7,0.2c1.2,0.4,2.2,1,2.1,2.5c-0.1,1.2-0.8,1.8-1.8,2.1c-1.4,0.4-2.5,0.1-3.4-0.9
		c-0.4-0.4-0.6-1-0.1-1.4c0.5-0.4,0.9-0.1,1.2,0.2c0.3,0.3,0.6,0.6,1.1,0.6c0.5,0,1,0.1,1.2-0.6c0.1-0.5-0.2-0.8-0.7-0.9
		c-0.5-0.2-0.9-0.3-1.3-0.5c-1.1-0.5-2-1.1-1.7-2.6C231.7,142.3,232.8,141.9,234.6,141.8z"/>
	<path class="st27" d="M240.6,141.8c0.6,0,1.1,0.1,1.5,0.3c0.5,0.4,1.3,0.7,0.9,1.5c-0.4,0.9-1.1,0.3-1.6,0
		c-0.6-0.4-1.2-0.5-1.5,0.2c-0.4,0.8,0.4,1,0.9,1.2c0.2,0.1,0.4,0.1,0.5,0.1c1.2,0.4,2.3,1,2.3,2.4c0,1-0.4,1.8-1.5,2.2
		c-1.4,0.5-2.6,0.3-3.7-0.7c-0.4-0.4-0.7-0.9-0.3-1.4c0.4-0.6,0.9-0.3,1.4,0.1c0.3,0.2,0.6,0.5,0.9,0.6c0.5,0.1,1.2,0.1,1.4-0.5
		c0.2-0.5-0.3-0.9-0.8-1c-0.4-0.1-0.8-0.2-1.2-0.4c-1.2-0.5-2.1-1.3-1.8-2.7C238.3,142.3,239.4,141.8,240.6,141.8z"/>
	<path class="st27" d="M223.5,146c0-3.2,3.1-5.1,5.9-3.7c0.6,0.3,1.3,0.6,0.9,1.5c-0.4,0.8-1.1,0.4-1.5,0.1c-2-1.2-3.7,0.7-3.6,2.2
		c0.1,1.7,1.6,2.6,3.4,1.9c0.6-0.2,1.4-0.9,1.8,0.2c0.3,1-0.6,1.2-1.2,1.5C226.4,150.8,223.5,149,223.5,146z"/>
</g>
</svg>
