<?xml version="1.0" encoding="utf-8"?>
<!-- Generator: Adobe Illustrator 21.0.0, SVG Export Plug-In . SVG Version: 6.00 Build 0)  -->
<svg version="1.1" id="Layer_1" xmlns="http://www.w3.org/2000/svg" xmlns:xlink="http://www.w3.org/1999/xlink" x="0px" y="0px"
	 viewBox="0 0 267 192" style="enable-background:new 0 0 267 192;" xml:space="preserve">
<style type="text/css">
	.st0{fill:#3B3B3B;}
	.st1{fill:#3C3C3C;}
	.st2{fill:#3D3D3D;}
	.st3{fill:#474747;}
	.st4{fill:#464646;}
	.st5{fill:#404040;}
	.st6{fill:#3F3F3F;}
	.st7{fill:#494949;}
	.st8{fill:#424242;}
	.st9{fill:#4A4A4A;}
	.st10{fill:#FDFDFD;}
	.st11{fill:#5C5CFF;}
	.st12{fill:#FBFBFB;}
	.st13{fill:#FAFAFA;}
	.st14{fill:#FCFCFC;}
	.st15{fill:#F1F1F1;}
	.st16{fill:#F8F8F8;}
	.st17{fill:#F4F4F4;}
	.st18{fill:#5048F7;}
	.st19{fill:#F1F6F7;}
	.st20{fill:#DFDFDF;}
	.st21{fill:#B7B7B7;}
	.st22{fill:#A4A4A4;}
	.st23{fill:#CACACA;}
	.st24{fill:#F2F2F2;}
	.st25{fill:#F3FAFB;}
	.st26{fill:#F7FBFC;}
	.st27{fill:#414141;}
	.st28{fill:#444444;}
</style>
<g>
	<path class="st0" d="M132.4,140.8c-20.3,0-40.6,0-60.9,0c-3.4,0-3.6-0.2-3.6-3.5c0-21.8,0-43.6,0-65.4c0-2.7,0.3-3,3-3
		c2.5,0,4.9,0,7.4,0.1c1.3,0,1.9-0.5,1.8-1.8c-0.1-1.3-0.2-2.6,0-3.9c0.1-1.2-0.5-1.7-1.7-1.7c-4.3,0-8.5,0-12.8,0
		c-1.5,0-2.3,0.6-2.1,2.2c0.1,0.5,0,1.1-0.2,1.6c-0.2,0.6-0.6,0.8-1.3,0.8c-0.5-0.1-0.8-0.3-1-0.8C60,62,61.8,59,65.3,58.9
		c4.2-0.1,8.4,0,12.6,0.1c1.5,0,2.3-0.2,2.2-2c-0.1-3.5,1.3-4.8,4.9-4.9c4.8-0.1,9.6,0,14.4,0c1.4,0,2.4-0.4,3.4-1.3
		c2.6-2.4,5.1-4.9,7.8-7.3c0.9-0.8,0.9-1.4,0.3-2.5c-1.8-3.2-1-6,2.1-8c1.2-0.7,1.9-3.6,1.2-4.7c-0.4-0.7-1.2-0.5-1.8-0.5
		c-3.4-0.1-3.4-0.1-3.4-3.5c0-1,0-2,0-3.1c-0.1-1.7,0.8-2.4,2.4-2.3c0.4,0,0.7,0,1.1,0c19.5,0,38.9,0,58.4,0c1.5,0,2.9-0.1,3.9-1.4
		c0.3-0.3,0.7-0.5,1.1-0.6c3.9-0.7,7.8-1.2,11.6,0.3c1.9,0.7,2.9,2.3,3,4.4c0.1,1.3,0.1,2.6,0.1,4c0,1.3,0,2.6,1.1,3.6
		c0.6,0.5,0.3,1.2,0.2,1.9c-0.1,2,0.2,2.2,2.3,2.2c12.2,0,24.5,0,36.7,0c4.2,0,4.2,0,4.2,4.1c0,1.4,0,2.9,0,4.3c0,1-0.1,1.9-1.3,1.9
		c-1.3,0-1.3-1.1-1.3-2c-0.1-1.3-0.1-2.6,0-4c0.1-1.5-0.6-1.8-1.9-1.8c-3.9,0.1-7.8,0-11.7,0c-8.3,0-16.6,0-24.9,0
		c-1.7,0-2.4,0.5-2.1,2.1c0.2,1.1,0,2.1-0.8,2.8c-0.5,0.5-0.5,1-0.5,1.6c0,4.9,0,9.7,0,14.6c0,1.6,0.7,2,2.1,1.9
		c2.6-0.2,5.2-0.3,7.7,0.1c2.3,0.3,3.4,1.5,3.5,3.8c0,0.4,0,0.8,0,1.3c0,31.4,0,62.8,0,94.2c0,4-1.1,5.2-5.1,5.2
		c-16.7,0-33.5,0-50.2,0c-3.2,0-3.3,0.2-3.1,3.4c0.1,1.9,0,3.8-0.1,5.8c-0.1,1.6,0.4,2.3,2.1,2.2c2.8-0.1,5.5,0,8.3,0
		c2.9,0,4.2,1.1,4.2,3.9c0,1.7,0.6,2.2,2.3,2.2c3.5-0.1,7,0,10.4,0c1,0,2.1-0.1,2.1,1.3c0,1.2-1,1.2-2,1.2c-27,0-54,0-81.1,0
		c-1,0-1.9-0.1-2-1.3c-0.1-1.3,1-1.3,1.9-1.3c3.8,0,7.6-0.1,11.3,0c1.5,0,2-0.5,2.1-2c0.1-3.2,1.2-4.1,4.4-4.1c2.8,0,5.5-0.1,8.3,0
		c1.5,0,2.1-0.4,2-1.9c-0.1-2.5-0.1-4.9,0-7.4c0-1.5-0.5-2.1-2-2.1c-5.7,0-11.4,0-17.1,0c-0.6,0-1.2-0.1-1.8-0.1
		c-0.6-0.1-0.9-0.5-0.9-1.1c0-0.7,0.3-1.2,1-1.3c0.6-0.1,1.3-0.1,2-0.1c32.5,0,65,0,97.5,0c2.9,0,3-0.1,3-3c0-31,0-62.1,0-93.1
		c0-3-0.1-3.2-3.1-3.2c-14.6,0-29.2,0-43.8,0c-2.6,0-2.7,0.1-2.6,2.8c0,0.1,0,0.2,0,0.4c0.1,4.3,0.1,4.3,4.3,4.3
		c12.6,0,25.2,0,37.8-0.1c2.6,0,2.9,0.3,2.9,2.9c0,22,0,44,0,65.9c0,2.7-0.3,3.1-3.1,3.1C173.2,140.8,152.8,140.8,132.4,140.8z"/>
	<path class="st0" d="M50,148.6c0,10-0.1,20,0.1,30.1c0,2.9-1.4,4.9-4.8,4.8c-3.5-0.1-7.1-0.1-10.6,0c-2,0-3.3-0.8-4-2.7
		c-7-17.6-14.9-34.9-22.3-52.4c-0.2-0.6-0.4-1.1-0.6-1.7c-0.7-2.3-0.1-3.9,2.1-4.8c6.4-2.6,12.8-5.3,19.8-6c0.4,0,1-0.1,1.2-0.4
		c1.5-2,3.7-1.7,5.8-1.7c2.9,0,5.9,0,8.8,0c3.6,0,4.6,1,4.6,4.6C50,128.6,50,138.6,50,148.6z"/>
	<path class="st0" d="M233.5,109.1c-5.5,0-11,0-16.6,0c-2.8,0-3.4-0.7-3.4-3.4c0-6.5,0-13,0-19.5c0-2.5,0.7-3.3,3.2-3.3
		c2.1,0,4.2-0.2,6.3,0c3,0.3,4.5-2,6.2-3.7c0.6-0.5,0.1-1.3-0.2-2c-1.9-3.7-1.3-5.9,2.3-8.1c0.8-0.5,1.2-1.1,1.2-2
		c0-1.4,0-2.8,0-4.1c0-0.9,0-2,1.3-2c1.2,0,1.3,1,1.3,1.9c0,1.9-0.1,3.7,0,5.6c0.1,1.6-0.4,2.4-2,2.8c-2,0.5-2.8,2.1-2.2,3.8
		c0.3,1,0.8,1.9,2,0.9c0.5-0.4,1-0.4,1.5,0c1.3,1.1,1.8,0.2,2.2-0.8c0.2-0.4,0.2-0.8,0.3-1.2c0.2-0.8,0.7-1.1,1.5-1
		c0.8,0.1,1.1,0.7,1.1,1.4c-0.1,1.2-0.3,2.3-1.2,3.1c-1,1-0.7,1.6,0.1,2.6c1.7,2.1,3.8,3,6.5,2.8c2.2-0.1,4.4-0.1,6.7,0
		c1.7,0,2.5,1,2.5,2.6c0,6.9,0,13.8,0,20.7c0,2-0.9,2.8-3.2,2.8C245.1,109.1,239.3,109.1,233.5,109.1z"/>
	<path class="st1" d="M63.6,119.2c0,13,0,26.1,0,39.1c0,2.5,0.1,2.6,2.5,2.6c3.4,0,6.8,0,10.3,0c1,0,1.9,0.1,1.9,1.3
		c0,1.2-0.9,1.4-1.7,1.4c-4,0-7.9,0.1-11.9-0.1c-2.5-0.1-3.5-1.4-3.6-4.1c-0.1-5.2,0-10.4,0-15.7c0-21.1,0-42.3,0-63.4
		c0-0.3,0-0.6,0-0.9c0.1-0.9-0.3-2.3,1.3-2.2c1.5,0.1,1.2,1.4,1.2,2.4C63.6,92.8,63.6,106,63.6,119.2z"/>
	<path class="st0" d="M218.2,156c0-8.3,6.8-15,15.2-15c8.1,0,14.9,6.8,14.9,15.1c0,8.2-6.7,15-14.9,15.1
		C225,171.3,218.2,164.4,218.2,156z"/>
	<path class="st2" d="M132.3,155.8c-2.8,0-5-2.4-4.9-5.1c0.1-2.8,2.4-4.9,5.2-4.8c2.7,0.1,4.9,2.4,4.8,5
		C137.4,153.6,135,155.9,132.3,155.8z"/>
	<path class="st3" d="M235.1,52.5c0,1.2,0,2.4,0,3.6c0,0.8-0.4,1.4-1.3,1.4c-0.9,0-1.3-0.6-1.3-1.4c0-2.5,0-5,0-7.5
		c0-0.8,0.4-1.4,1.3-1.3c1,0,1.2,0.7,1.3,1.5C235.1,49.9,235.1,51.2,235.1,52.5z"/>
	<path class="st4" d="M84.4,160.9c1,0,1.9,0,2.9,0c0.8,0.1,1.6,0.3,1.6,1.3c0,0.9-0.6,1.3-1.4,1.3c-2.2,0-4.3,0-6.5-0.1
		c-0.7,0-1.1-0.5-1.1-1.2c0-0.8,0.4-1.3,1.1-1.4C82.2,160.9,83.3,160.9,84.4,160.9C84.4,160.9,84.4,160.9,84.4,160.9z"/>
	<path class="st2" d="M82.7,183.5c-1.1,0-2.2-0.1-3.2,0c-1.1,0.1-1.3-0.6-1.5-1.4c-0.2-1.1,0.7-1.1,1.4-1.2c2.2,0,4.4,0,6.6,0
		c1,0,1.6,0.5,1.5,1.3c0,0.8-0.7,1.3-1.7,1.2C84.9,183.5,83.8,183.5,82.7,183.5z"/>
	<path class="st5" d="M63.6,71.7c0,0.9,0,1.8,0,2.7c0,0.8-0.4,1.4-1.3,1.4c-0.8,0-1.2-0.6-1.2-1.3c0-1.9,0-3.8,0-5.7
		c0-0.7,0.4-1.1,1.1-1.2c0.8-0.1,1.3,0.4,1.4,1.1C63.6,69.7,63.5,70.7,63.6,71.7C63.6,71.7,63.6,71.7,63.6,71.7z"/>
	<path class="st6" d="M179.8,183.5c-0.7,0-1.4,0.1-2.1,0c-0.7-0.1-1.2-0.5-1.2-1.3c0-0.8,0.5-1.2,1.2-1.2c1.5,0,3,0,4.5,0
		c0.7,0,1.2,0.4,1.1,1.1c-0.1,0.6-0.2,1.4-1.1,1.4C181.3,183.5,180.6,183.5,179.8,183.5C179.8,183.5,179.8,183.5,179.8,183.5z"/>
	<path class="st7" d="M93.8,160.9c0.1,0,0.6,0,1,0.1c0.6,0.1,1.1,0.5,1.2,1.2c0.1,0.8-0.4,1.2-1.1,1.4c-0.8,0.2-1.7,0.2-2.5,0.1
		c-0.9-0.1-1.7-0.4-1.6-1.5c0.1-1,0.8-1.2,1.7-1.2C92.8,160.9,93.1,160.9,93.8,160.9z"/>
	<path class="st5" d="M73.2,183.5c-0.5,0-1,0.1-1.4,0c-0.9-0.1-1.1-0.9-1.2-1.5c-0.1-0.8,0.6-0.9,1.2-1c0.9,0,1.8,0,2.7,0
		c0.7,0,1.6,0.1,1.5,1.1c-0.1,0.9-0.4,1.6-1.6,1.5C74,183.5,73.6,183.5,73.2,183.5C73.2,183.5,73.2,183.5,73.2,183.5z"/>
	<path class="st8" d="M187,183.5c-1.1,0.2-2-0.1-1.9-1.4c0.1-1.3,1.2-1.2,2.2-1.2c1,0,2.1,0,2,1.3
		C189.3,183.6,188.1,183.6,187,183.5z"/>
	<path class="st9" d="M194.3,182.3c-0.2,0.8-0.7,1.2-1.6,1.3c-1,0.1-1.4-0.6-1.5-1.4c0-1,0.8-1.2,1.6-1.2
		C193.7,180.9,194.2,181.4,194.3,182.3z"/>
	<path class="st10" d="M79.9,138c-2.6,0-5.3,0.1-7.9,0.2c-1.2,0-1.5-0.5-1.5-1.6c0-21,0-41.9,0-62.9c0-1.5,0.6-2.1,2-2
		c1.9,0.1,3.7,0.2,5.6,0c1.5-0.2,2.1,0.4,2.1,2c-0.1,9.5,0,19.1,0,28.6c0,0.9,0,1.8,0.3,2.7c0.4,1.2,1.3,1.9,2.5,2.1
		c0.9,0.2,1.8,0.2,2.7,0.2c20.2,0,40.5,0,60.7,0c0.8,0,1.7,0,2.5-0.2c1.6-0.2,2.6-1.2,2.8-2.8c0.1-0.9,0.2-1.8,0.2-2.7
		c0-9.1,0-18.3,0-27.4c0-2.5,0.1-2.6,2.5-2.6c5.3,0,10.6,0.1,15.8,0c1.8,0,2.2,0.6,2.2,2.3c-0.1,6.7,0,13.5,0,20.2
		c0,1.6,0.3,3.2,0.9,4.7c2.3,5.1,4,10.5,6.6,15.5c1.2,2.3,0.3,3.6-2.2,3.6c-2.8,0-5.5,0-8.3,0c-0.9,0-1.9,0.1-1.9,1.4
		c0,1.1,0.9,1.3,1.8,1.3c5.7,0,11.4,0,17.1,0c0.9,0,1.8-0.3,1.8-1.3c0-1.1-0.9-1.3-1.8-1.3c-0.5,0-1,0-1.4,0
		c-2.1,0.1-2.4-0.3-2.2-2.3c0.1-0.5,0.2-1,0.4-1.4c2.1-3.8,3.3-8.1,5.2-12c1.9-3.9,2.4-8,2.2-12.3c-0.3-5.5,0-11-0.1-16.6
		c0-1.4,0.7-1.7,1.9-1.7c1.3,0,1.8,0.6,1.8,1.8c0,8.1,0,16.2,0,24.3c0,6.2-0.1,12.5-0.1,18.7c0,6.5,0,13,0.1,19.4
		c0,1.8-0.6,2.2-2.3,2.2c-19.6-0.1-39.3-0.1-58.9-0.1c-4.9,0-9.7,0.3-14.6,0c-0.5-0.3-0.5-0.8-0.6-1.3c-0.2-1.2-0.9-1.9-2-2.3
		c-2.3-0.9-2.8-2.1-1.8-4.3c0.7-1.4,0.4-2.5-0.6-3.6c-0.6-0.6-1.3-1.3-1.9-1.9c-1.1-1.1-2.3-1.4-3.8-0.7c-2.3,1.1-3.5,0.5-4.3-1.9
		c-0.4-1.2-1.1-1.8-2.4-1.8c-1.3,0-2.6,0-4,0c-1.3,0-2,0.6-2.3,1.8c-0.8,2.6-2.1,3.1-4.4,1.9c-1.2-0.6-2.2-0.5-3.1,0.4
		c-0.6,0.6-1.3,1.1-1.9,1.7c-1.3,1.4-2.1,2.8-0.8,4.7c0.9,1.3,0.3,3.1-1.1,3.5C81.4,134.8,80.5,136.1,79.9,138z"/>
	<path class="st10" d="M116.1,65.6c10.3,0,20.5,0,30.8,0c2.3,0,2.4,0.1,2.4,2.4c0,11.4,0,22.8-0.1,34.2c0,2.3-0.2,2.5-2.4,2.5
		c-20.4,0-40.8,0-61.2,0c-2.5,0-2.8-0.3-2.8-2.8c0-11.4,0-22.8,0-34.2c0-1.7,0.6-2.1,2.2-2.1C95.3,65.7,105.7,65.6,116.1,65.6z"/>
	<path class="st10" d="M172.5,27.9c-1.3,1-1.4,2-1.4,3c0,2.6-0.1,5.3-0.1,7.9c0,0.4,0,1,0.2,1.2c1.4,1.3,0.9,3,0.9,4.5
		c0.1,4.1,0.1,8.2,0.2,12.2c0,1.6-0.6,2.3-2.2,2.2c-5.5-0.2-10.9-0.2-16.4,0c-1.5,0.1-2.1-0.5-2.1-2.1c-0.2-4-1.2-4.9-5.2-4.9
		c-5.3,0-10.6,0-15.8,0c-1.4,0-2.4-0.4-3.3-1.4c-2.2-2.3-4.4-4.6-6.6-6.9c-0.9-0.9-1.2-1.7-0.3-2.7c0.7-0.8,0.9-1.8,0.9-2.9
		c0-0.8-0.3-1.3-1.1-1.4c-0.8-0.1-1.2,0.3-1.4,1.1c-0.1,0.5-0.2,1.1-0.4,1.6c-0.3,0.7-0.8,1-1.4,0.4c-0.8-0.9-1.6-0.9-2.4,0
		c-0.8,0.7-1.2,0.3-1.6-0.5c-0.8-1.9,0.1-3.7,2.1-4.1c1.6-0.3,2.1-1.1,2-2.6c-0.1-0.9-0.1-1.8-0.1-2.7c-0.1-1.6,0.7-2.4,2.2-2.3
		c17.3,0.6,34.6,0.1,51.8,0.3C171.3,27.8,171.7,27.8,172.5,27.9z"/>
	<path class="st11" d="M116.1,54.8c10.1,0,20.2,0,30.2,0c2.6,0,2.6,0,2.8,2.6c0.1,1.2,0.2,2.4,0.2,3.6c0,1.5-0.8,2.2-2.3,2.2
		c-20.8-0.5-41.5-0.2-62.3-0.2c-1.5,0-2.2-0.5-2.1-2.1c0.1-1.2,0-2.4,0-3.6c0-2.1,0.2-2.4,2.4-2.4C95.4,54.8,105.8,54.8,116.1,54.8z
		"/>
	<path class="st10" d="M92.8,138c-3.4,0-6.9,0-10.3,0c-0.8-1,0-1.5,0.8-1.7c2.2-0.4,2.9-2.1,3.6-3.9c0.3-0.8,0.2-1.5-0.2-2.2
		c-1-1.6-0.8-2.2,0.6-3.6c1-1,2-1.5,3.3-0.4c0.7,0.6,1.4,0.6,2.2,0.2c1.7-0.8,3.6-1.1,4-3.6c0.3-1.6,2-1.1,3.2-1.1
		c1,0,1.6,0.4,1.9,1.5c0.5,2.4,4.2,4,6.2,2.7c1.2-0.8,2.1-0.5,3,0.5c0.9,1,2.3,1.9,0.9,3.5c-0.7,0.8-0.7,1.6-0.2,2.5
		c0.3,0.5,0.5,1.1,0.6,1.7c0.3,1.2,1,1.9,2.4,2.1c0.9,0.1,1.9,0.4,1.1,1.7c-3.4,0-6.8,0-10.1,0c-0.6-0.4-0.7-1.1-1-1.7
		c-1.1-2.2-2.9-3.5-5.5-3.5c-2.4,0.1-4.2,1.2-5.3,3.5C93.6,136.9,93.4,137.6,92.8,138z"/>
	<path class="st10" d="M132.3,174.9c-2.8,0-5.5,0-8.3,0c-1.3,0-1.9-0.4-1.8-1.8c0.1-2.6,0.1-5.3,0-7.9c0-1.4,0.6-1.7,1.8-1.7
		c3.2,0.1,6.3,0.1,9.5,0.1c2.3,0,4.6,0,6.8-0.1c1.6-0.1,2.4,0.4,2.3,2.2c-0.2,2.4-0.1,4.8,0,7.2c0.1,1.6-0.6,2.1-2.1,2
		C137.8,174.8,135,174.9,132.3,174.9z"/>
	<path class="st12" d="M142,25.2c-9.2,0-18.4,0-27.6,0c-1.2,0-2.7,0.3-2.7-1.7c0-1.2,0.4-2,1.7-1.9c0.3,0,0.6,0,0.9,0
		c18.4,0.2,36.9,0.2,55.3,0c0.9,0,1.9-0.3,2.5,0.6c0.9,1.3,0,2.9-1.5,3c-1.4,0.1-2.8,0-4.1,0C158.3,25.2,150.2,25.2,142,25.2z"/>
	<path class="st11" d="M115.7,138c0.2-1.1-0.3-1.4-1.3-1.3c-1.4,0.2-2.1-0.6-2.5-1.8c-0.2-0.7-0.5-1.5-0.8-2.2
		c-0.6-1.2-0.6-2.2,0.5-3c0.8-0.7,0.7-1.3-0.1-1.9c-0.4-0.3-0.7-0.7-1-1c-0.8-1-1.6-1.1-2.4-0.1c-0.7,0.9-1.6,0.9-2.5,0.4
		c-0.7-0.4-1.5-0.7-2.3-0.9c-1.3-0.4-2.1-1.2-2-2.6c0.1-1.1-0.4-1.2-1.3-1.2c-2.6-0.1-2.6-0.1-3.2,2.3c0,0.1,0,0.1,0,0.2
		c-0.5,1.5-5.6,3-6.7,1.8c-1.6-1.7-2.1,0.2-2.9,0.8c-0.9,0.6-1.3,1.5-0.3,2.4c0.9,0.7,1,1.6,0.6,2.6c-0.8,2-1.4,4.2-4.1,4.4
		c-0.8,0.1-0.9,0.7-0.8,1.3c-0.9,0-1.7,0-2.6,0c-0.1-2.2,0.6-3.7,3-4.1c1.6-0.3,2.1-1.9,1.2-3.2c-1.3-1.8-1-3.2,0.6-4.5
		c0.7-0.6,1.3-1.4,2-2c1.7-1.5,2.3-1.6,4.2-0.4c1.4,0.9,3.1,0.2,3.3-1.5c0.3-1.9,1.3-2.7,3.2-2.7c1,0,1.9,0,2.9,0
		c2.7,0,3,0.3,3.7,2.8c0.4,1.5,2.1,2.2,3.4,1.3c1.6-1.2,3-0.9,4.3,0.4c0.7,0.7,1.5,1.4,2.2,2.2c1.2,1.3,1.6,2.5,0.6,4.2
		c-1,1.6-0.6,2.8,1.1,3.4c2.7,1,2.8,1,2.9,4.2C117.6,138,116.6,138,115.7,138z"/>
	<path class="st13" d="M132.5,177.5c7.5,0,15,0,22.5,0c1.1,0,2.2,0,2.3,1.5c0.1,1.2-0.4,1.9-1.6,1.9c-0.4,0-0.7,0-1.1,0
		c-14.9,0-29.9,0-44.8,0c-1.1,0-2.2,0.1-2.3-1.5c-0.1-1.5,0.7-2,2.1-2c4.3,0,8.5,0,12.8,0C125.7,177.5,129.1,177.5,132.5,177.5z"/>
	<path class="st10" d="M181.4,38.3c-2,0-3.9,0-5.9,0c-1.4,0-2-0.5-1.8-1.9c0.1-0.9,0.1-1.9,0-2.9c0-2.5,0-2.5,2.4-2.5
		c3.7,0,7.3,0.1,11,0c1.6,0,2.4,0.4,2.1,2.1c-0.2,1-0.1,2,0,3c0.2,1.5-0.3,2.2-2,2.1C185.3,38.2,183.3,38.3,181.4,38.3
		C181.4,38.3,181.4,38.3,181.4,38.3z"/>
	<path class="st10" d="M124.5,51.9c-6.3,0-12.5,0-19.1,0c2.9-2.8,5.5-5.5,8.6-7.9c1.3-1,2.6-0.6,3.7,0.5c2.4,2.2,4.9,4.4,7.3,6.7
		C124.9,51.5,124.7,51.7,124.5,51.9z"/>
	<path class="st14" d="M179.6,83.3c0-3.3,0.1-6.6,0-9.9c0-1.5,0.6-1.8,1.9-1.8c1.4,0,1.9,0.4,1.9,1.9c-0.1,6.6-0.1,13.2,0,19.8
		c0,1.5-0.6,1.8-1.9,1.8c-1.4,0-1.9-0.4-1.9-1.8C179.6,89.9,179.6,86.6,179.6,83.3z"/>
	<path class="st14" d="M183.3,49.9c0,2.5,0,5,0,7.6c0,1.2-0.4,1.6-1.6,1.5c-1-0.1-2.2,0.4-2.2-1.4c0.1-5,0.1-10.1,0-15.1
		c0-1.6,0.8-1.5,1.9-1.6c1.2,0,1.9,0.2,1.9,1.7C183.3,45,183.3,47.5,183.3,49.9C183.3,49.9,183.3,49.9,183.3,49.9z"/>
	<path class="st15" d="M175,83.4c0-3.4,0-6.8,0-10.2c0-0.6-0.1-1.4,0.8-1.5c0.9,0,1.2,0.6,1.2,1.4c0,6.9,0,13.8,0,20.7
		c0,0.8-0.3,1.3-1.1,1.3c-1,0-0.9-0.8-0.9-1.4C175,90.2,175,86.8,175,83.4C175,83.4,175,83.4,175,83.4z"/>
	<path class="st16" d="M188,83.5c0,3.4,0,6.7,0,10.1c0,0.7,0.1,1.6-0.9,1.6c-1,0-1-0.8-1-1.5c0-6.8,0-13.6,0-20.5
		c0-0.8,0.1-1.5,1.1-1.4c1,0,0.9,0.8,0.9,1.4C188,76.6,188,80,188,83.5C188,83.5,188,83.5,188,83.5z"/>
	<path class="st17" d="M175,50c0-2.5,0-5,0-7.5c0-0.7-0.1-1.5,1-1.6c1,0,1.1,0.8,1.1,1.5c0,5,0,10.1,0,15.1c0,0.8-0.2,1.5-1.2,1.5
		c-1.1,0-0.9-0.9-0.9-1.6C175,54.9,175,52.5,175,50z"/>
	<path class="st15" d="M188,50.1c0,2.5,0,4.9,0,7.4c0,0.7,0.1,1.5-1,1.5c-1.1,0-1-0.8-1-1.5c0-5,0-10.1,0-15.1c0-0.7,0-1.4,0.9-1.4
		c1,0,1.1,0.7,1.1,1.4C188,44.9,188,47.5,188,50.1z"/>
	<path class="st18" d="M92.8,138c0.9-3.6,3-5.6,6.2-5.6c3.3-0.1,5.5,1.8,6.6,5.6c-0.9,0-1.8,0-2.7,0c-0.4-0.3-0.7-0.7-1-1
		c-1.8-2.1-4-2-5.7,0.2c-0.2,0.3-0.4,0.7-0.9,0.9C94.5,138,93.7,138,92.8,138z"/>
	<path class="st19" d="M95.4,138c0.5-1.9,1.9-3,3.8-3c2-0.1,3.1,1.2,3.7,3C100.4,138,97.9,138,95.4,138z"/>
	<path class="st10" d="M33.2,170.6c0-2.7,0-5.4,0-8.1c0-1.2,0.4-1.7,1.7-1.7c3.7,0.1,7.3,0.1,11,0c1.1,0,1.6,0.4,1.6,1.6
		c0,5.5,0,11,0,16.6c0,1.3-0.5,1.9-1.8,1.9c-3.6,0-7.2,0-10.8,0c-1.2,0-1.7-0.6-1.7-1.8C33.2,176.2,33.2,173.4,33.2,170.6z"/>
	<path class="st12" d="M30.2,158.4c-0.7-2.1-0.8-4.2-1.1-6.2c-1.5-10-2.9-19.9-4.3-29.9c-0.4-2.8-0.2-3.1,2.6-3.3
		c3.1-0.2,3.1-0.2,3.1,3c0,11.6,0,23.2,0,34.7C30.5,157.2,30.7,157.8,30.2,158.4z"/>
	<path class="st10" d="M23.7,157.2c-4.1-9.4-8.2-18.9-12.3-28.3c-0.1-0.3-0.2-0.7-0.4-1c-1.5-3.1-1.6-2.9,1.8-4.1
		c1.6-0.6,2.1-0.1,2.5,1.4c2.4,8.7,4.8,17.4,7.2,26.1c0.5,1.8,1,3.7,1.5,5.5C24.2,157.2,24,157.2,23.7,157.2z"/>
	<path class="st14" d="M26.2,154c-2.6-9-5.1-18-7.7-27c-0.3-1.2-0.7-2.4-1-3.6c-0.5-1.7,0.3-2.3,1.8-2.5c1.4-0.3,2.6-0.4,2.9,1.6
		c0.8,5.7,1.7,11.4,2.5,17.1c0.6,4.6,1.5,9.1,1.8,13.7C26.7,153.6,26.9,153.9,26.2,154z"/>
	<path class="st20" d="M26.2,154c0.1-0.2,0.2-0.5,0.3-0.7c0.5,0.7,0.3,1.4,0.3,2.2c-0.1,0.2-0.2,0.2-0.3,0
		C26.5,154.9,26.3,154.4,26.2,154z"/>
	<path class="st21" d="M26.6,155.4c0.1,0,0.2,0,0.3,0c0.3,0.5,0.6,1,0.3,1.7C26.7,156.6,26.5,156,26.6,155.4z"/>
	<path class="st22" d="M24.4,157.9c0.4,0.5,0.5,1,0.2,1.6c-0.4-0.3-0.5-0.8-0.6-1.2C24.2,158.1,24.2,157.9,24.4,157.9z"/>
	<path class="st23" d="M24.4,157.9c-0.1,0.1-0.3,0.3-0.4,0.4c-0.1-0.4-0.2-0.7-0.4-1.1c0.1-0.1,0.2-0.3,0.3-0.4
		C24.4,157.1,24.4,157.5,24.4,157.9z"/>
	<path class="st10" d="M233.8,91.6c5.2,0,10.4,0,15.7,0c1.5,0,2,0.5,1.9,2c-0.1,3.7-0.1,7.4,0,11.2c0,1.4-0.5,1.9-1.9,1.9
		c-10.5,0-21,0-31.5,0c-1.4,0-2.1-0.3-2-1.9c0.1-3.8,0.1-7.6,0-11.3c0-1.3,0.4-1.8,1.8-1.8C223.1,91.6,228.5,91.6,233.8,91.6z"/>
	<path class="st24" d="M236.9,82.9c-2.4,0-4.6,0-6.9,0c0.8-1.5,1.6-2.8,3.3-2.9C235.1,79.9,235.9,81.3,236.9,82.9z"/>
	<path class="st10" d="M233.1,168.4c-6.7,0-12.3-5.6-12.3-12.2c0-6.9,5.6-12.6,12.4-12.6c6.8,0,12.4,5.6,12.4,12.3
		C245.6,163.1,240.2,168.5,233.1,168.4z"/>
	<path class="st16" d="M134.8,150.8c0,1.3-1.1,2.4-2.4,2.4c-1.3,0-2.5-1.1-2.5-2.4c0-1.2,1.2-2.4,2.4-2.5
		C133.6,148.4,134.8,149.5,134.8,150.8z"/>
	<path class="st5" d="M159.8,120.5c-1.4,0-2.9,0-4.3,0c-0.9,0-1.7-0.2-1.7-1.3c0-1,0.7-1.3,1.6-1.3c2.9,0,5.8,0,8.8,0
		c0.9,0,1.5,0.3,1.5,1.3c0,1.1-0.7,1.3-1.6,1.3C162.7,120.5,161.3,120.5,159.8,120.5z"/>
	<path class="st8" d="M148.3,120.5c-0.8,0-1.6,0-2.3,0c-0.8,0-1.3-0.4-1.3-1.2c0-0.8,0.4-1.3,1.2-1.3c1.7-0.1,3.4,0,5,0
		c0.8,0,1.2,0.6,1.2,1.3c0,0.8-0.5,1.2-1.2,1.2C150,120.5,149.1,120.5,148.3,120.5z"/>
	<path class="st3" d="M140.4,120.5c-0.6-0.1-1.3,0.1-1.9-0.4c-0.6-0.6-0.7-1.2,0-1.8c0.6-0.6,3.3-0.6,3.9,0c0.6,0.6,0.5,1.3-0.1,1.8
		C141.7,120.7,141,120.5,140.4,120.5z"/>
	<path class="st1" d="M136.7,81.7c-3.6-1.5-6.8-2.8-10-4.1c-0.5-0.2-1-0.4-1.5-0.7c-0.6-0.3-0.8-0.8-0.6-1.5
		c0.2-0.6,0.7-1.1,1.4-0.8c5.1,1.8,10.2,3.9,15.1,6.1c1.1,0.5,0.7,1.8-0.6,2.3c-1.7,0.7-3.4,1.3-5,1.9c-2.9,1.1-5.8,2.1-8.8,3.2
		c-0.9,0.3-1.6,0.5-2.1-0.6c-0.5-1.2,0.3-1.6,1.2-2C129.3,84.4,132.8,83.1,136.7,81.7z"/>
	<path class="st1" d="M95.2,81.3c3.8,1.5,7.3,2.9,10.7,4.3c0.9,0.4,1.9,0.8,1.3,2.1c-0.5,1.2-1.5,0.7-2.3,0.4
		c-4.4-1.8-8.8-3.6-13.1-5.3c-0.7-0.3-1.5-0.5-1.5-1.5c0-1,0.8-1.2,1.6-1.5c4.4-1.6,8.8-3.2,13.2-4.8c0.8-0.3,1.8-0.8,2.3,0.4
		c0.5,1.3-0.5,1.6-1.4,2C102.4,78.6,99,79.8,95.2,81.3z"/>
	<path class="st1" d="M122.1,71.1c0.8,0.2,1.6,0.6,1.2,1.7c-0.2,0.6-0.6,1-0.9,1.5c-3.7,5.3-7.4,10.6-11.1,15.9
		c-0.3,0.4-0.6,0.9-1,1.2c-0.4,0.4-1,0.5-1.5,0.2c-0.6-0.4-0.7-0.9-0.5-1.6c0.1-0.2,0.2-0.4,0.3-0.6c4.1-5.8,8.2-11.7,12.3-17.5
		C121.1,71.5,121.5,71.2,122.1,71.1z"/>
	<path class="st25" d="M94.9,60.8c-1.3-0.1-2-0.7-2-2c0-1.2,0.6-1.9,1.9-1.9c1.3,0,1.9,0.8,1.9,1.9C96.7,60.1,95.9,60.8,94.9,60.8z"
		/>
	<path class="st26" d="M88.1,60.7c-1.2-0.1-1.8-0.7-1.8-1.9c0-1.2,0.8-1.8,2-1.8c1.2,0,1.9,0.8,1.8,1.9C90,60.1,89.4,60.8,88.1,60.7
		z"/>
	<path class="st26" d="M103,58.9c0,1.2-0.7,1.9-1.9,1.8c-1.3,0-1.8-0.8-1.8-2c0-1.1,0.7-1.8,1.8-1.8C102.3,57,103,57.6,103,58.9z"/>
	<path class="st2" d="M37.3,176.2c0-1.9,1.4-3.4,3.2-3.4c1.9,0,3.4,1.5,3.4,3.4c0,2-1.4,3.4-3.3,3.4
		C38.6,179.6,37.2,178.2,37.3,176.2z"/>
	<path class="st6" d="M238.4,100.1c0.8-1.6,1.4-2.9,2-4.1c0.2-0.5,0.5-1,1.2-0.8c0.6,0.1,0.7,0.5,0.8,1.1c0.2,1.8,0.4,3.7,0.7,5.5
		c0.1,0.6,0.1,1.2-0.6,1.3c-0.8,0.2-1-0.5-1.1-1.1c-0.2-0.8,0-1.7-0.5-2.5c-0.8,0.4-0.9,1.2-1.3,1.8c-0.8,1.3-1.4,1.3-2.2,0
		c-0.3-0.5-0.6-1-1-1.5c-0.1-0.1-0.2-0.1-0.5-0.3c-0.1,0.8-0.3,1.6-0.4,2.4c-0.1,0.7-0.3,1.2-1.1,1.1c-0.7-0.1-0.7-0.7-0.7-1.2
		c0.2-1.8,0.5-3.7,0.7-5.5c0.1-0.5,0.2-1,0.7-1.1c0.6-0.2,1,0.3,1.2,0.8C237.1,97.2,237.7,98.5,238.4,100.1z"/>
	<path class="st27" d="M225.8,99.1c0,1,0,1.9,0,2.9c0,0.6-0.1,1.1-0.9,1.1c-0.7,0-0.9-0.6-0.8-1.1c0-0.6,0.2-1.2-0.3-1.7
		c-0.5-0.5-1.1-0.4-1.7-0.3c-0.8,0.2-0.7,0.8-0.7,1.4c0,0.7,0.1,1.7-0.9,1.7c-1,0-0.8-1-0.8-1.7c0-1.6,0-3.2,0-4.9
		c0-0.6-0.1-1.3,0.8-1.3c0.8,0,0.8,0.7,0.9,1.3c0,0.7-0.2,1.7,1,1.8c1.1,0.1,1.9-0.1,1.8-1.5c0-0.7-0.2-1.6,0.9-1.6
		c1,0.1,0.7,0.9,0.7,1.5C225.9,97.5,225.8,98.3,225.8,99.1z"/>
	<path class="st4" d="M229.1,99.8c0-0.5,0-1,0-1.4c0.1-0.9,0-1.7-1.2-1.7c-0.6,0-0.9-0.3-0.9-0.9c0-0.5,0.5-0.7,0.9-0.7
		c1.4,0,2.7,0,4.1,0c0.4,0,0.9,0.1,0.9,0.7c0.1,0.6-0.3,0.9-0.9,0.9c-1.1,0-1.2,0.7-1.2,1.6c0,1.2,0,2.4,0,3.6
		c0,0.6-0.1,1.3-0.9,1.3c-0.8,0-0.9-0.7-0.9-1.3C229.1,101.1,229.2,100.4,229.1,99.8C229.2,99.8,229.1,99.8,229.1,99.8z"/>
	<path class="st28" d="M244.6,98.9c0-1,0-1.9,0-2.9c0-0.5,0.3-0.9,0.9-0.9c0.6,0,0.8,0.4,0.8,1c0,1.2,0.1,2.4,0,3.6
		c0,1.3,0.2,2.2,1.8,1.9c0.5-0.1,1.2-0.1,1.1,0.7c0,0.8-0.6,0.7-1.2,0.7C244.2,103,244.6,103.8,244.6,98.9z"/>
	<path class="st27" d="M233.6,151.8c0,0,0.5,0.2,0.9,0.4c0.6,0.3,1.3,0.7,0.9,1.5c-0.4,1-1,0.3-1.6,0c-0.5-0.3-1.1-0.7-1.5,0.1
		c-0.4,0.9,0.3,1,0.9,1.2c0.2,0.1,0.5,0.1,0.7,0.2c1.2,0.4,2.2,1,2.1,2.5c-0.1,1.2-0.8,1.8-1.8,2.1c-1.4,0.4-2.5,0.1-3.4-0.9
		c-0.4-0.4-0.6-1-0.1-1.4c0.5-0.4,0.9-0.1,1.2,0.2c0.3,0.3,0.6,0.6,1.1,0.6c0.5,0,1,0.1,1.2-0.6c0.1-0.5-0.2-0.8-0.7-0.9
		c-0.5-0.2-0.9-0.3-1.3-0.5c-1.1-0.5-2-1.1-1.7-2.6C230.7,152.3,231.8,151.9,233.6,151.8z"/>
	<path class="st27" d="M239.6,151.8c0.6,0,1.1,0.1,1.5,0.3c0.5,0.4,1.3,0.7,0.9,1.5c-0.4,0.9-1.1,0.3-1.6,0
		c-0.6-0.4-1.2-0.5-1.5,0.2c-0.4,0.8,0.4,1,0.9,1.2c0.2,0.1,0.4,0.1,0.5,0.1c1.2,0.4,2.3,1,2.3,2.4c0,1-0.4,1.8-1.5,2.2
		c-1.4,0.5-2.6,0.3-3.7-0.7c-0.4-0.4-0.7-0.9-0.3-1.4c0.4-0.6,0.9-0.3,1.4,0.1c0.3,0.2,0.6,0.5,0.9,0.6c0.5,0.1,1.2,0.1,1.4-0.5
		c0.2-0.5-0.3-0.9-0.8-1c-0.4-0.1-0.8-0.2-1.2-0.4c-1.2-0.5-2.1-1.3-1.8-2.7C237.3,152.3,238.4,151.8,239.6,151.8z"/>
	<path class="st27" d="M222.5,156c0-3.2,3.1-5.1,5.9-3.7c0.6,0.3,1.3,0.6,0.9,1.5c-0.4,0.8-1.1,0.4-1.5,0.1c-2-1.2-3.7,0.7-3.6,2.2
		c0.1,1.7,1.6,2.6,3.4,1.9c0.6-0.2,1.4-0.9,1.8,0.2c0.3,1-0.6,1.2-1.2,1.5C225.4,160.8,222.5,159,222.5,156z"/>
</g>
</svg>
