<svg xmlns="http://www.w3.org/2000/svg" xmlns:xlink="http://www.w3.org/1999/xlink" x="0" y="0" version="1.1" viewBox="0 0 500 500" xml:space="preserve" style="enable-background:new 0 0 500 500"><style type="text/css">.st0{fill:#fff}.st1{fill:#e1e1e1}.st2{fill:#5e5e5e}.st3{fill:#d0d7e9}.st4{fill:#1a2b36}.st5{fill:#b5cad9}.st6{fill:#4d6f80}.st7{fill:#64a1a3}.st8{fill:#7ac7c7}.st9{fill:#e6b48f}.st10{fill:#dfe3eb}.st11{fill:#394a5c}.st12{fill:#496076}.st13{fill:#f0f5ff}.st14{fill:#de9e85}.st15{fill:#713e3d}.st16{clip-path:url(#SVGID_2_)}.st17{fill:#745345}.st18{fill:#390a0a}.st19{clip-path:url(#SVGID_4_)}.st20{fill:#c78e78}.st21{fill:#558570}.st22{fill:#76b375}.st23{fill:#98733f}.st24{fill:#cc9252}.st25{fill:#b4f7e0}.st26{fill:#444}.st27{fill:#c4a577}.st28{fill:#e4c188}.st29{fill:#a0d9d5}.st30{fill:#e6effd}.st31{fill:#c4d5dc}.st32{fill:#deebf0}.st33{fill:#b6d1dc}.st34{fill:#cfe7f0}.st35{fill:#b7d1e6}.st36{fill:#6daecd}.st37{fill:#f1cc4e}.st38{fill:#cdcc4a}.st39{fill:#aaf5da}.st40{fill:#d1d4fc}</style><switch><g><g id="BACKGROUND"><rect width="500" height="500" class="st0"/></g><g id="OBJECTS"><g><g><ellipse cx="221.3" cy="453.4" class="st1" rx="157.4" ry="6.6"/><g><g><g><g><path d="M195.9,433.1c-1.1-0.2-30.3-20.3-23.5-19.6c0.7,0.1,1.6,0.2,2.4,0.3c6.9,1,16.5,3.4,16.5,3.4l6-4.3 l5.5-3.9l0.9-0.7l6.3,6.3c0,0-2.5,3.5-5.3,7.4c-1,1.4-2.2,3-3.2,4.4c-1.1,1.5-2.2,2.9-3.1,4 C197.2,432.1,196.2,433.2,195.9,433.1z" class="st2"/></g><path d="M201.6,426.5c-4.5-2.5-10.2-9.2-10.2-9.2l6-4.3l5.4-3.8c3,2.3,6.5,5.1,7.2,5.7c0,0-2.4,3.4-5.2,7.3 C203.7,423.6,202.6,425.1,201.6,426.5z" class="st3"/></g><path d="M200.2,414.8c0.9-1.3-0.5-1.8-1.6-1.7c-0.9,0.1-1.8,0.4-2.7,0.8c-1.2,0.5-2.1,1.6-3.1,2.4 c1.2-1.6,2.4-3.4,3-5.1c0.5-1.4,0.2-2.7-1.5-2.2c-2.8,0.8-5.2,5.6-3.6,8.3c-0.9-0.7-1.6-1.5-2.6-1.9 c-0.3-0.1-0.5,0.2-0.5,0.4c0,0.8,0.1,1.5,0.2,2.3c-1.3-1.2-2-2.8-4.2-2.3c-0.1,0-0.2,0.1-0.3,0.2c-0.6-0.2-1.2-0.6-1.8-0.8 c-0.3-0.1-0.4,0.3-0.3,0.5c0.8,0.8,1.8,1.3,2.9,1.4c0.3,0,0.4-0.3,0.4-0.5c1.6,0.1,2.3,2,3.5,2.8c0.3,0.2,0.6-0.1,0.7-0.4 c0-0.8-0.2-1.7-0.3-2.5c0.9,0.7,2,2.2,3.1,1.6c0.1,0,0.1-0.1,0.1-0.2c0.4,0.5,1.6,0.6,2.2,0.6 C196.3,418.3,198.7,417,200.2,414.8z M193.4,410.3c0.6-0.6,2.3-1.4,2,0.1c-0.1,0.6-0.5,1.3-0.8,1.8c-1,1.7-2.1,3.5-3.3,5 C189.9,415,191.7,411.9,193.4,410.3z M196.5,417.1c-0.3,0.2-3.8,1.4-4.4,0.5c1.1-0.6,1.9-1.4,2.9-2.3c1.1-1,2.6-1.5,4.1-1.5 c1.3,0,0.1,1.2-0.3,1.6C198.2,416.1,197.4,416.6,196.5,417.1z" class="st4"/></g><g><g><rect width="7" height="14" x="303" y="382.1" class="st5"/></g><path d="M268,373c0,4.5,4.7,12,9.6,12h56.2c4.9,0,6.2-7.6,6.2-12v-0.3c0-4.5-1.3-7.7-6.2-7.7h-56.2 c-4.9,0-9.6,3.2-9.6,7.7V373z" class="st6"/><g><g><path d="M307.1,419.8c-1.8-1.1-4.2-0.7-6.2-0.5c-2.5,0.2-5.1,0.4-7.6,0.3c-4.7-0.1-9.6,0.1-14,2.1 c-3.6,1.6-8.4,4.9-9.7,8.8c-1,3-1,7.8,1.4,10.3c0.4,0.4,1,0,0.9-0.5c-0.2-1.2,0.4-2.8,0.5-4.1c0.2-2.2-0.3-3.9,1.2-5.7 c2.6-3.3,6.5-5.6,10.5-6.6c3.8-0.9,7.7-0.7,11.5-0.9c1.9-0.1,3.8-0.5,5.7-0.8c1.9-0.4,4.1-0.4,5.8-1.5 C307.4,420.3,307.4,419.9,307.1,419.8z" class="st5"/><path d="M310.4,419.8c1.8-1.1,4.2-0.7,6.2-0.5c2.5,0.2,5.1,0.4,7.6,0.3c4.7-0.1,9.6,0.1,14,2.1 c3.6,1.6,8.4,4.9,9.7,8.8c1,3,1,7.8-1.4,10.3c-0.4,0.4-1,0-0.9-0.5c0.2-1.2-0.4-2.8-0.5-4.1c-0.2-2.2,0.3-3.9-1.2-5.7 c-2.6-3.3-6.5-5.6-10.5-6.6c-3.8-0.9-7.7-0.7-11.5-0.9c-1.9-0.1-3.8-0.5-5.7-0.8c-1.9-0.4-4.1-0.4-5.8-1.5 C310.1,420.3,310.1,419.9,310.4,419.8z" class="st5"/><path d="M328.6,432.5c-0.3-2.6-1.8-5.2-3.9-6.7c-2.3-1.7-4.9-2.4-7.7-2.8c-1.4-0.2-2.7-0.4-4.1-0.7 c-1.4-0.4-2.6-1-4-1.2c-0.7-0.1-1.4,0.6-1,1.3c2.3,4.1,8.6,3.3,12.5,4.6c2.8,0.9,4.8,3.2,5.5,6c0.3,1.4,0.1,3,0,4.4 c0,1.2-0.3,2.3,0.2,3.3c0.2,0.4,0.7,0.3,0.9,0C328.6,438.4,328.8,435,328.6,432.5z" class="st5"/><path d="M291,432.5c0.3-2.6,1.8-5.2,3.9-6.7c2.3-1.7,4.9-2.4,7.7-2.8c1.4-0.2,2.7-0.4,4.1-0.7 c1.4-0.4,2.6-1,4-1.2c0.7-0.1,1.4,0.6,1,1.3c-2.3,4.1-8.6,3.3-12.5,4.6c-2.8,0.9-4.8,3.2-5.5,6c-0.3,1.4-0.1,3,0,4.4 c0,1.2,0.3,2.3-0.2,3.3c-0.2,0.4-0.6,0.3-0.9,0C291,438.4,290.8,435,291,432.5z" class="st5"/></g><g><g><g><g><path d="M319.2,444c0,0.3,0,0.6,0.1,0.8c0.4,3.3,3.5,5.9,7.3,5.9c3.7,0,6.8-2.6,7.3-5.9 c0-0.3,0.1-0.6,0.1-0.8c0-3.7-3.3-6.7-7.3-6.7C322.4,437.3,319.2,440.3,319.2,444z" class="st2"/></g></g><g><g><path d="M339.8,444c0,0.3,0,0.6,0.1,0.8c0.5,3.3,3.5,5.9,7.3,5.9c3.7,0,6.8-2.6,7.3-5.9 c0-0.3,0.1-0.6,0.1-0.8c0-3.7-3.3-6.7-7.3-6.7C343,437.3,339.8,440.3,339.8,444z" class="st2"/></g></g></g><g><g><g><path d="M283.8,444c0,0.3,0,0.6,0.1,0.8c0.4,3.3,3.5,5.9,7.3,5.9c3.7,0,6.8-2.6,7.3-5.9 c0-0.3,0.1-0.6,0.1-0.8c0-3.7-3.3-6.7-7.3-6.7C287,437.3,283.8,440.3,283.8,444z" class="st2"/></g></g><g><g><path d="M279.4,444c0,0.3,0,0.6-0.1,0.8c-0.5,3.3-3.5,5.9-7.3,5.9c-3.7,0-6.8-2.6-7.3-5.9 c0-0.3-0.1-0.6-0.1-0.8c0-3.7,3.3-6.7,7.3-6.7C276.2,437.3,279.4,440.3,279.4,444z" class="st2"/></g></g></g><g><rect width="14" height="32" x="300" y="396.1" class="st6"/></g></g></g><g><path d="M244.2,364c0.3,4.7,4.9,8.3,10.2,8c1.5-0.1,59.4,1.1,61.8,0.9c10.4-0.9-4.9-5.1,0-10.6 c8.2,0,9.9-0.1,11.7-0.8c2.8-1.1,27-6.7,28.8-13c1.8-6.4,8.8-86.5,8.8-86.5c-2.9-4.9-33.8-1.8-48.3,0 c-7.7,0.9-12.1,7.9-12.1,13.2c0,1.8-0.2,3.7-0.3,5.6c-0.6,9.4-1.1,18.8-1.7,28.1c-0.3,5.1-0.6,10.2-0.8,15.4 c-0.1,2.8-0.3,5.6-0.5,8.4c-0.2,3.1,0.1,6.7-0.7,9.7c-2.4,8.9-20.1,9.8-27.6,9.9c-12.1,0.1-9.4,0.6-15.2,1.3 c-5.2,0.6-8.9,1.5-11.5,4C245,359.2,244.1,361.6,244.2,364z" class="st7"/><g><path d="M336.7,372.4c-14.2,1.5-23.2,0.5-24.4,0.5c-4,0.2-6.6-2.2-7-7c-0.2-2.4,0.5-4.8,1.8-6.6 c1.9-2.5,4.7-3.3,8.6-3.8c4.4-0.6,11.3-0.8,20.4-0.7c3,0,6-0.2,8.9-0.8c3.4-0.6,6.1-2.1,8.9-4.3c3.4-2.7,3-8.5,2.9-13 c0-2.8,0-5.5,0.1-8.3c0.3-13,0.3-26,0.5-39.1c0.1-7.3,0.2-14.5,0.3-21.8c0.1-4.8,3.4-8.5,7.4-8.2c4,0.3,7.2,4.5,7.2,9.4 l-1,79c0,0.3,0,0.6,0,0.9c-0.1,1.2-1,7.5-6.1,13.5c-5.2,6-12.8,9.4-22.7,10.2C340.5,372.4,338.6,372.2,336.7,372.4z" class="st8"/></g></g><g><g><g><path d="M320.8,397.3c0.3,0,0.5-0.1,0.7-0.2c0.5-0.4,0.5-1,0.1-1.5l-11.1-11.9c-0.4-0.4-1.1-0.5-1.6-0.1 c-0.5,0.4-0.5,1-0.1,1.4l11.1,11.9C320.2,397.2,320.5,397.3,320.8,397.3z" class="st6"/></g></g><circle cx="322.7" cy="397.7" r="5.1" class="st6"/></g></g><g><path d="M221,307.5c3.8-10.1,19.7-9.6,25.5-2.3l7.2,4.8c-5.4,4.4-18,2-24.8,3C224.3,313.7,218.1,315.2,221,307.5 z" class="st9"/><path d="M303.4,260.4c0,0,3.4,60.1-62.4,50.5l-2.7-12.4c0,0,30-8.2,35.6-17.9c0,0,4.4-16.2,9.3-26.7 C290.1,239.5,298.5,232.4,303.4,260.4z" class="st10"/></g><path d="M337.2,327.1c0,0,5.2,28.2-11.5,29.5c-16.6,1.3-60.5,9.8-64.4,15.3c-3.8,5.6-55.2,54.4-55.2,54.4 l-12.7-14c0,0,42.1-54,58-65.6c21.7-15.8,54.3-21.6,54.3-21.6L337.2,327.1z" class="st11"/><g><g><g><g><path d="M222.2,446.2c-1.1,0-32.8-15.9-26-16.2c0.7,0,1.6,0,2.4,0c7,0,16.9,1.1,16.9,1.1l5.4-5.1l4.9-4.6 l0.8-0.8l7.1,5.4c0,0-2,3.8-4.2,8.1c-0.8,1.6-1.7,3.2-2.6,4.8c-0.9,1.6-1.8,3.2-2.5,4.4 C223.3,445,222.5,446.2,222.2,446.2z" class="st2"/></g><path d="M226.9,438.8c-4.8-1.9-11.4-7.7-11.4-7.7l5.4-5.1l4.8-4.6c3.3,1.9,7.1,4.2,7.9,4.7c0,0-1.9,3.7-4.2,8 C228.7,435.6,227.8,437.3,226.9,438.8z" class="st3"/></g><path d="M224,427.5c0.7-1.4-0.8-1.7-1.8-1.4c-0.9,0.2-1.8,0.6-2.5,1.1c-1.1,0.7-1.8,1.8-2.7,2.8 c1-1.7,1.9-3.7,2.2-5.5c0.3-1.5-0.2-2.7-1.8-1.9c-2.6,1.2-4.3,6.3-2.4,8.7c-0.9-0.6-1.8-1.3-2.9-1.6 c-0.3-0.1-0.5,0.2-0.5,0.5c0.1,0.8,0.4,1.5,0.6,2.2c-1.4-1.1-2.3-2.5-4.5-1.7c-0.1,0-0.2,0.1-0.2,0.3 c-0.6-0.1-1.2-0.4-1.9-0.6c-0.3-0.1-0.4,0.3-0.2,0.5c0.9,0.6,1.9,1,3,1c0.3,0,0.4-0.3,0.3-0.6c1.6-0.1,2.5,1.6,3.9,2.3 c0.3,0.2,0.6-0.2,0.6-0.5c-0.1-0.8-0.4-1.6-0.6-2.4c1,0.6,2.3,1.9,3.3,1.2c0.1-0.1,0.1-0.2,0.1-0.3c0.5,0.4,1.7,0.4,2.2,0.3 C220.6,431.4,222.8,429.8,224,427.5z M216.6,423.9c0.5-0.7,2.1-1.7,2-0.2c0,0.7-0.3,1.3-0.5,1.9c-0.7,1.8-1.6,3.7-2.6,5.4 C213.8,429.1,215.1,425.7,216.6,423.9z M220.7,430.2c-0.3,0.2-3.5,1.9-4.2,1.1c1-0.7,1.7-1.7,2.5-2.6c1-1.1,2.4-1.8,3.8-2.1 c1.3-0.2,0.2,1.2-0.1,1.6C222.1,429,221.4,429.6,220.7,430.2z" class="st4"/></g><path d="M347.4,321.5c0,0,9.1,27.2-7.2,30.8c-16.3,3.6-58.6,18.1-61.6,24.2c-3,6-47.1,61.6-47.1,61.6L216.9,426 c0,0,34.1-59.4,48.3-73.1c19.3-18.7,50.7-29,50.7-29L347.4,321.5z" class="st12"/></g><path d="M345.6,315.5c0,0-32.6,4.8-41.7,3l0.6,6.6c0,0,31.4,4.2,42.9-3.6L345.6,315.5z" class="st2"/><path d="M345.6,315.5c2.4-0.6,14.7-71.8,7.9-77.9c-10.3-9.1-62.2-9.7-65.2,12.1c-3,21.5,15.7,68.8,15.7,68.8 S320.2,321.5,345.6,315.5z" class="st13"/><g><path d="M239.1,311.1c3.8-10.1,19.7-9.6,25.5-2.3l7.2,4.8c-5.4,4.4-18,2-24.8,3 C242.4,317.4,236.2,318.8,239.1,311.1z" class="st9"/><path d="M345.1,236.5c-13.3,0.4-14,17.9-23.7,30.6c-18.1,23.7-29.9,29.6-38.7,32c-10.9,3-22.3,4.2-22.3,4.2 l1.8,16.3c0,0,42.9,1.2,63.4-16.3c9.5-8.1,17-18.9,22.7-29.9c4.5-8.8,9.6-21.1,6.4-31.2c-0.8-2.4-2.1-4.2-4.5-5 C348.4,236.7,346.7,236.5,345.1,236.5z" class="st13"/></g><path d="M328.6,214.6c0.5,1.8,3.7,20.5,3.7,20.5s-17.5,13.9-22.5,9.7c0,0-1.4-7.2-0.9-13.3 c0.5-6,0.9-13.9,0.9-13.9L328.6,214.6z" class="st14"/><g><polygon points="315.4 318.6 313.6 328.2 305.5 327.5 305.3 318" class="st0"/><polygon points="312.5 320.5 312.3 326.3 307.3 325.7 307.1 320.3" class="st2"/></g><path d="M296.2,163.1c3.1-2.1-0.2-7.3,2.4-11.4c6.6-10.6,16.8,4.3,23.9,1.4c5-2.1,6-4.8,12.1-3 c4.7,1.4,8.9,5.3,9.6,10.3c0.6,3.9-2.8,7.9-2.3,11.3c0.6,3.9,5.5,3.9,7.2,7.7c3.9,8.6-3.6,24.9-13.9,24.5l-20.4-16.8 c-8-4.6-14.2-2.5-22.2-4.5c-5.2-1.3-7-6.4-6.8-11.4C286.1,162.3,291.3,166.5,296.2,163.1z" class="st15"/><path d="M300.7,171.6c1,0,2,0.1,3.3,0.4c5.7,1.4,11.3,3.3,17,4.8c3.3,0.9,11,2.7,11.4,7.2c0.3,2.9,0,5.8,0.2,8.7 c0.4,5.5,2.4,10.2,5.1,14.7c-0.9,2-1.9,4-3,5.9c-1.2,2.1-2.4,4.1-3.9,5.9c-3,3.4-6.8,6.2-11,7.9c-5,2.1-11.3,2.5-15.7-1 c-4.1-3.1-6.2-9.6-7.6-14.5c-1.4-4.7-0.3-10.3,0.1-15.2C297.3,188.8,295.9,178.4,300.7,171.6z" class="st9"/><g><ellipse cx="322.4" cy="194.8" class="st0" rx="4.3" ry="6.8"/><g><defs><ellipse id="SVGID_1_" cx="322.4" cy="194.8" rx="4.3" ry="6.8"/></defs><clipPath id="SVGID_2_"><use xlink:href="#SVGID_1_" style="overflow:visible"/></clipPath><g class="st16"><ellipse cx="320.8" cy="196.3" class="st17" rx="3.3" ry="5" transform="matrix(0.9872 -0.1594 0.1594 0.9872 -27.1954 53.6463)"/><ellipse cx="320.8" cy="196.4" class="st18" rx="2.5" ry="3.9" transform="matrix(0.9872 -0.1593 0.1593 0.9872 -27.1882 53.6264)"/><ellipse cx="321.8" cy="192.5" class="st0" rx="1.7" ry=".8" transform="matrix(0.9872 -0.1593 0.1593 0.9872 -26.5598 53.718)"/></g></g></g><g><ellipse cx="304.2" cy="194.8" class="st0" rx="4.3" ry="6.8"/><g><defs><ellipse id="SVGID_3_" cx="304.2" cy="194.8" rx="4.3" ry="6.8"/></defs><clipPath id="SVGID_4_"><use xlink:href="#SVGID_3_" style="overflow:visible"/></clipPath><g class="st19"><ellipse cx="302.6" cy="196.3" class="st17" rx="3.3" ry="5" transform="matrix(0.9872 -0.1594 0.1594 0.9872 -27.431 50.7606)"/><ellipse cx="302.7" cy="196.4" class="st18" rx="2.5" ry="3.9" transform="matrix(0.9872 -0.1593 0.1593 0.9872 -27.4219 50.7386)"/><ellipse cx="303.6" cy="192.5" class="st0" rx="1.7" ry=".8" transform="matrix(0.9872 -0.1593 0.1593 0.9872 -26.7955 50.8355)"/></g></g></g><g><path d="M336.1,197.1c0,0,9.8-9.3,9.8,1.1c0,10.4-7.9,13-12,10.9C329.8,206.9,336.1,197.1,336.1,197.1z" class="st9"/><path d="M336.4,199.1c0,0,6.6-5.8,7.3-2.5c0.8,3.3-0.7,6.8-0.7,6.8s0.2-4.2-3.4-2.8c0,0,1,7.2-4.3,3.7 C335.3,204.4,333.5,201.8,336.4,199.1z" class="st14"/></g><path d="M309.1,201.1c0.6-2.9,1.6-7.4,3.3-6.7c1.9,0.7,0.8,7.9,0.5,9.3c-0.4,1.7-3.1,7.6-5.7,6.4 C304.9,209,307.6,203.9,309.1,201.1z" class="st20"/><path d="M327.1,183.6c1.9,2.9,1,5.5,1,5.5c-1.9-4.7-7.9-2.7-11.4-4.1C315.7,178,325.2,180.7,327.1,183.6z" class="st15"/><path d="M300.6,180.9c-2.1,2.4-2.1,5.1-2.1,5.1c2.6-4.2,6.3-1.1,9.2-1.8C310.2,177.6,302.7,178.5,300.6,180.9z" class="st15"/><path d="M293.5,293.3c4-2.6,7.9-5.2,11.6-8.3c3.7-3.1,7.1-6.5,10.3-10c2.9-3.2,5.4-6.9,7.7-10.5 c0.5-1.6,0.8-3.2,1-4.8c0.1-1.1,0.1-2.3-0.1-3.4c-0.1-0.9-0.6-1.7-0.7-2.6c0-0.2,0.3-0.4,0.5-0.3c1.8,1.2,1.6,4.4,1.4,6.3 c-0.1,0.5-0.1,1.1-0.3,1.6c1.9-3.5,3.2-7.4,5.1-10.9c0.1-0.2,0.4-0.1,0.4,0.2c-1.7,9.3-7.4,18-13.4,25.1 c-6.2,7.3-14.4,14.5-23.2,18.4C293.4,294.2,293,293.6,293.5,293.3z" class="st10"/><path d="M315.9,309.7c6.8-4.8,13.3-9.6,18.7-16c2.6-3.1,5.1-6.3,7.3-9.6c2.2-3.4,3.7-7.3,5.9-10.7 c0.1-0.2,0.5-0.2,0.5,0.1c-0.3,3.4-2.2,6.8-4,9.8c1.3-0.8,2.7-1.4,4-2.1c0.4-0.2,1,0.2,0.7,0.7c-1.5,2.3-4.8,2.2-6.4,4.3 c-0.1,0.1-0.1,0.1-0.2,0.2c-1.9,2.8-4,5.5-6.2,8.1c-2.8,3.3-5.7,6.2-9.1,8.8c-3.5,2.7-7.3,4.9-10.9,7.3 C315.9,310.8,315.5,310,315.9,309.7z" class="st10"/><path d="M294.1,218.7c0.3,3.3,0.5,5.6,1.9,8.6c4.5,9.7,16.6,6.4,24,3.6c4.9-1.8,9.5-5.3,11.8-10.2 c1.8-4,2.5-8.2,2.6-12.6c0.1-3.4-0.4-7.2,0-10.6c1.5-2.7,2.4-5.7,2.5-8.8c0-0.6-1-0.8-1.1-0.1c-0.8,4.2-2.2,8.2-4.9,11.5 c-2.7,3.2-5.8,4.8-9.3,6.8c-2,1.2-4.1,2.5-6.4,3.2c-1.4,0.4-2.8,0.3-4.2,0.3c-1.4,0-3,0-4,1c-0.9-1.2-2.2-1.3-4-1.4 c-1.4-0.1-3.2-0.2-4.2-1.4c-0.9-1.1-2.9-5.6-2.9-5.6c-0.9,2.5-1.5,5.1-1.8,7.7C293.8,213.3,293.8,216,294.1,218.7z" class="st15"/><path d="M317.3,212.1c0,0-10.5,3.8-16.7,0.5C300.5,212.5,306.8,233.6,317.3,212.1z" class="st0"/></g><g><g><g><path d="M87,272c3.5-2.4,7.6-10.8,1.1-12.6c-2.6-0.7-5,0-7.4,0.8c-0.8,0.3-1.6,0.5-2.4,0.6 c-2.7,0.5-1.4-3.4-1.2-4c0.5-1.9,1.1-3.6,1.2-5.6c0.4-4.9-2.8-9.3-9.8-8.5c-3.3,0.4-6,2.2-7.7,4.3c-0.9,1.2-1.2,2.6-1.3,3.9 c-0.1,2.1,2.3,5.8-1.2,6.9c-5.9,1.9-6,6.2-1,9.1c2.1,1.2,4.4,2.2,5.9,3.9c2,2.2-1.2,4.8-2.3,6.7c-1.2,2.1-0.9,4.1,0.7,6 c2.6,2.9,8,3.7,12.2,3.1c0.2,0,0.4-0.1,0.5-0.3c3.8,2.4,10.4,0,10.9-4c0.2-2.2-0.5-3.7-3.3-4.6 C77.4,276.3,85.4,273.1,87,272z" class="st21"/><path d="M80.1,280.5c-0.8,0.9-3,0.7-4.1,1.4c-0.1,0.1-0.2,0.2-0.3,0.2c0-1.2-0.1-2.4-0.4-3.6 c0-0.1,0-0.1,0-0.2c-0.7-2.2-1-4.3,0.2-6.4c0.8-1.4,3-2.3,4.5-3.3c2.1-1.5,2.9-3.2,2.2-5.3c-0.2-0.7-1.7-0.4-1.4,0.3 c1.2,3.8-4.4,5.1-6.6,7.8c-0.7,0.9-1,2-1.1,3.1c-2.1-2.7-4.8-4.7-5.3-8.3c-0.5-3.9,0-7.9,1.1-11.7c0.7-2.4,1.6-4.8-0.2-7 c-0.5-0.6-1.8,0-1.3,0.6c2.3,2.7-0.3,6.6-0.8,9.5c-0.5,2.8-0.6,5.6-0.4,8.4c-0.3-0.3-0.7-0.7-1.2-0.9 c-2.2-1.4-4.7-2-5.8-4.2c-0.3-0.7-1.8-0.4-1.4,0.3c0.8,1.5,2,2.6,3.8,3.5c1.1,0.6,2.3,1.1,3.3,1.8c1,0.8,1.5,1.9,1.9,3 c0,0.1,0.1,0.2,0.3,0.3c0.9,1.9,2.7,3.5,4.2,5.1c2.2,2.3,2.8,4.8,2.8,7.3c-0.6-0.8-1.4-1.5-2.3-2c-1.9-1-5.1-0.8-5.2-3 c0-0.7-1.5-0.7-1.5,0c0.1,1.5,0.9,2.4,2.8,2.9c1.3,0.4,2.4,0.5,3.5,1.2c1.4,0.9,2.2,2.2,2.5,3.6c0,0.1,0.1,0.1,0.1,0.2 c0,0.3-0.1,0.5-0.1,0.8c-0.1,0.7,1.4,0.7,1.5,0c0-0.1,0-0.3,0.1-0.4c0.2,0,0.4-0.2,0.4-0.4c0.2-1.2,0.6-2.1,2.3-2.5 c1.4-0.4,2.5-0.3,3.4-1.3C81.9,280.5,80.7,279.9,80.1,280.5z" class="st22"/></g><g><polygon points="61.9 312.4 58.9 284.6 88.8 284.6 87.5 312.4" class="st23"/><polygon points="96.5 290.7 93.5 281.6 55.2 280.3 51.6 291.2" class="st24"/></g></g><g><g><g><polygon points="198 236.8 219 303.6 120.1 303.6 99.1 236.8" class="st2"/><ellipse cx="152.5" cy="268.4" class="st25" rx="5.8" ry="8.4" transform="matrix(0.9577 -0.2879 0.2879 0.9577 -70.8019 55.2551)"/></g><g><path d="M119.4,303.9c0,4.8,3.4,8.1,7.7,8.1h107.8c4.2,0,7.7-3.4,7.7-8.1c0-0.1,0,0.1,0,0.1H119.4 C119.4,304.1,119.4,303.8,119.4,303.9z" class="st2"/><rect width="68" height="4" x="135" y="304.1" class="st26"/></g></g><g><polygon points="287.1 454 262.2 319.8 281.7 319.8 294.4 454" class="st27"/><polygon points="101 454 125.8 319.8 106.4 319.8 93.7 454" class="st27"/></g><rect width="301" height="10" x="34" y="312.1" class="st28"/></g></g></g><g><g><path d="M85,209.8c0,2.9,2.4,5.3,5.3,5.3h140.2c2.9,0,5.5-2.4,5.5-5.3v-27.7c0-2.9-2.6-5-5.5-5H90.3 c-2.9,0-5.3,2.1-5.3,5V209.8z" class="st29"/><path d="M85,182.4v27.9c0,2.9,2.6,4.8,5.6,4.8H195v-38H90.5C87.6,177.1,85,179.4,85,182.4z" class="st30"/><g><path d="M93,183.6c0,0.8,0.7,1.5,1.5,1.5h90c0.8,0,1.5-0.7,1.5-1.5l0,0c0-0.8-0.7-1.5-1.5-1.5h-90 C93.6,182.1,93,182.7,93,183.6L93,183.6z" class="st0"/><path d="M93,191.6c0,0.8,0.7,1.5,1.5,1.5h90c0.8,0,1.5-0.7,1.5-1.5l0,0c0-0.8-0.7-1.5-1.5-1.5h-90 C93.6,190.1,93,190.7,93,191.6L93,191.6z" class="st0"/><path d="M93,207.6c0,0.8,0.7,1.5,1.5,1.5h89.9c0.9,0,1.5-0.7,1.5-1.5l0,0c0-0.8-0.7-1.5-1.5-1.5H94.5 C93.6,206.1,93,206.7,93,207.6L93,207.6z" class="st0"/><g><path d="M127,198.6c0,0.9,1.4,2.5,2.2,2.5h55.7c0.9,0,1.1-1.6,1.1-2.5v-0.2c0-0.9-0.2-2.4-1.1-2.4h-55.7 c-0.9,0-2.2,1.5-2.2,2.4V198.6z" class="st0"/><path d="M94,197.6c0,0.8,0.7,1.5,1.5,1.5h26c0.8,0,1.5-0.7,1.5-1.5l0,0c0-0.8-0.7-1.5-1.5-1.5h-26 C94.6,196.1,94,196.7,94,197.6L94,197.6z" class="st0"/></g></g></g><g><g><path d="M134,113.2v27.5c0,0.5-0.1,1.1,0.2,1.5c0.3,0.4,0.5,0.9,1.1,0.9h36.6c0.2,0,0.3,0,0.5,0l0.4-0.3 c0.8-0.4,1.3-1.2,1.3-2.1v-27.5c0-1-1.1-1.1-2.1-1.1h-36.6C134.2,112.1,134,112.2,134,113.2z" class="st31"/><path d="M134,113.2v2.8l19.9,12.7l20.1-12.8v-2.7c0-1-1.1-1.1-2.1-1.1h-36.6C134.2,112.1,134,112.2,134,113.2z" class="st32"/></g><g><path d="M107,131.3v27.5c0,0.5,0.2,1.1,0.5,1.4c0.3,0.4,0.8,0.8,1.4,0.8h36.6c0.2,0,0.3,0,0.5,0l0-0.2 c0.8-0.4,1-1.2,1-2v-27.5c0-1-0.5-2.3-1.5-2.3h-36.6C107.8,129.1,107,130.4,107,131.3z" class="st33"/><path d="M107,131.3v2.8l19.9,12.7l20.1-12.8v-2.7c0-1-0.5-2.3-1.5-2.3h-36.6C107.8,129.1,107,130.4,107,131.3z" class="st34"/></g><g><path d="M184.8,68.9c0,0.3-0.1,0.6-0.2,0.7c-0.1,0.2-0.3,0.3-0.6,0.3c-0.2,0.1-0.5,0.1-0.7,0.1 c-0.3,0-0.5,0-0.8,0.1l-0.7,0.1c0.2,1.4,0.3,2.9,0.4,4.3c0,1.4,0.1,2.9,0.1,4.3c0,0.5,0,0.9,0,1.4c0,0.5-0.1,1-0.2,1.5 c-0.1,0.5-0.2,1-0.4,1.4c-0.2,0.5-0.4,0.9-0.7,1.2c-0.3,0.3-0.7,0.6-1.1,0.8c-0.4,0.2-1,0.3-1.6,0.3c-0.7,0-1.3-0.1-1.9-0.4 c-0.6-0.3-1-0.7-1.4-1.2c-0.4-0.5-0.7-1-0.9-1.6c-0.2-0.6-0.3-1.2-0.3-1.9c0-0.1,0-0.3,0-0.6c0-0.3,0-0.6,0.1-0.9 c0.1-0.3,0.1-0.6,0.3-0.8c0.1-0.2,0.3-0.3,0.5-0.3c0.1,0,0.2,0,0.4,0.1c0.2,0.1,0.3,0.1,0.5,0.2c0.1,0.1,0.3,0.2,0.4,0.3 c0.1,0.1,0.2,0.2,0.2,0.4c0,0.3,0,0.6-0.1,0.9c-0.1,0.3-0.1,0.6-0.1,0.9c0,0.3,0,0.7,0.2,1.1c0.1,0.4,0.3,0.8,0.5,1.1 c0.2,0.4,0.5,0.7,0.8,0.9c0.3,0.2,0.7,0.4,1.1,0.4c0.3,0,0.6-0.1,0.8-0.2c0.2-0.1,0.4-0.3,0.5-0.4c0.1-0.2,0.3-0.4,0.4-0.6 c0.1-0.2,0.2-0.5,0.2-0.7c0.2-0.8,0.3-1.6,0.3-2.5c0-0.8,0-1.7,0-2.5c0-1.1,0-2.2-0.1-3.3c-0.1-1.1-0.2-2.2-0.3-3.3 c-0.6,0.1-1.1,0.1-1.7,0.2c-0.6,0.1-1.1,0.1-1.7,0.1c-0.1,0-0.3,0-0.3-0.1c-0.1-0.1-0.1-0.2-0.1-0.3c0-0.3,0.1-0.5,0.3-0.7 c0.2-0.1,0.4-0.3,0.7-0.3c0.4-0.1,0.9-0.2,1.4-0.3c0.5-0.1,0.9-0.1,1.4-0.2v-0.2c0-0.1,0.1-0.2,0.2-0.3 c0.1,0,0.2-0.1,0.3-0.1c0.2,0,0.3,0,0.5,0.1c0.2,0,0.3,0.1,0.5,0.2c0.5-0.1,0.9-0.2,1.4-0.3c0.5-0.1,0.9-0.2,1.4-0.2 c0.2,0,0.3,0.1,0.4,0.2C184.8,68.6,184.8,68.7,184.8,68.9z" class="st35"/><path d="M194.7,78.8c0,0.2-0.1,0.3-0.2,0.5c-0.1,0.2-0.3,0.3-0.4,0.4c0,0-0.1,0-0.2,0.1c-0.1,0-0.2,0-0.3,0.1 c-0.1,0-0.2,0-0.3,0.1c-0.1,0-0.2,0-0.2,0l0.3,1.8c0.1,0.6,0.2,1.1,0.2,1.7c0,0.6,0.2,1.1,0.3,1.7c0,0,0,0.1,0,0.1 c0,0,0,0.1,0,0.2c0,0.1,0,0.2-0.1,0.2c-0.1,0.1-0.1,0.1-0.2,0.1c-0.1,0-0.2,0-0.3,0.1c-0.1,0-0.2,0-0.3,0h-0.2 c-0.3,0-0.5,0-0.6-0.1c-0.1,0-0.2-0.1-0.3-0.2c-0.1-0.1-0.1-0.2-0.2-0.4c0-0.2-0.1-0.3-0.1-0.6c-0.2-1.5-0.4-3-0.7-4.4 c-0.5,0.1-1,0.1-1.6,0.2c-0.5,0.1-1.1,0.1-1.6,0.2l-0.4,2.4c0,0.1,0,0.3-0.1,0.6c0,0.3-0.1,0.5-0.1,0.8 c0,0.3-0.1,0.5-0.1,0.7c0,0.2-0.1,0.4-0.2,0.5c0,0.1-0.1,0.2-0.1,0.2c0,0-0.1,0.1-0.2,0.1c-0.2,0-0.3,0-0.4-0.1 c-0.1-0.1-0.3-0.1-0.4-0.2c-0.1-0.1-0.2-0.2-0.3-0.3c-0.1-0.1-0.1-0.3-0.1-0.4c0-0.2,0-0.3,0.1-0.5c0-0.2,0.1-0.3,0.1-0.5 c0.1-0.5,0.2-1.1,0.3-1.6c0.1-0.5,0.2-1.1,0.3-1.6c-0.1,0-0.1,0-0.2,0c-0.1,0-0.1,0-0.2-0.1c-0.1,0-0.1-0.1-0.2-0.1 c-0.1,0-0.1-0.1-0.1-0.2c0-0.1,0-0.2,0.1-0.2c0.1-0.1,0.1-0.1,0.2-0.2c0.1-0.1,0.2-0.1,0.3-0.2c0.1,0,0.2-0.1,0.2-0.1 c0.2-1.1,0.3-2.3,0.5-3.4c0.2-1.1,0.3-2.3,0.4-3.4c0-0.3,0.1-0.6,0.1-0.9c0-0.3,0.1-0.6,0.1-0.9c0-0.3,0.1-0.6,0.1-0.9 c0-0.3,0.1-0.6,0.2-0.9c0.1-0.3,0.2-0.5,0.4-0.7c0.2-0.2,0.4-0.3,0.8-0.3c0.1,0,0.2,0,0.3,0c0.1,0,0.2,0,0.3,0.1 c0.2,0.1,0.4,0.4,0.7,0.9c0.2,0.5,0.5,1,0.7,1.7c0.2,0.7,0.5,1.4,0.7,2.2c0.2,0.8,0.4,1.5,0.6,2.3c0.2,0.7,0.3,1.4,0.5,2 c0.1,0.6,0.2,1,0.3,1.3c0.2,0,0.4,0,0.5-0.1c0.2,0,0.4,0,0.5,0c0.1,0,0.2,0,0.3,0c0.1,0,0.2,0,0.3,0.1c0.1,0,0.2,0.1,0.2,0.2 C194.7,78.6,194.7,78.6,194.7,78.8z M190.8,78.7c-0.2-1.2-0.5-2.3-0.7-3.4c-0.3-1.1-0.6-2.3-0.9-3.4 c-0.2,1.2-0.3,2.4-0.5,3.6c-0.2,1.2-0.4,2.4-0.6,3.6c0.5-0.1,0.9-0.1,1.3-0.2C189.9,78.8,190.3,78.8,190.8,78.7z" class="st35"/><path d="M202.8,73.3c0,1.9-0.2,3.8-0.5,5.7c-0.3,1.9-0.9,3.7-1.7,5.5c0,0.1,0.1,0.1,0.1,0.2 c0.1,0.1,0.1,0.2,0.2,0.3c0.1,0.1,0.1,0.2,0.1,0.3c0,0.1,0.1,0.2,0.1,0.2c0,0.1,0,0.2-0.1,0.3c-0.1,0.1-0.2,0.1-0.3,0.1 c-0.1,0-0.2,0-0.3,0c-0.1,0-0.2,0-0.3,0c-0.2,0-0.4,0-0.6,0c-0.2,0-0.3-0.1-0.5-0.3c-0.1-0.1-0.3-0.3-0.4-0.7 c-0.2-0.4-0.3-0.9-0.5-1.5c-0.2-0.6-0.4-1.3-0.6-2c-0.2-0.7-0.4-1.5-0.6-2.3c-0.2-0.8-0.4-1.6-0.6-2.3 c-0.2-0.8-0.4-1.5-0.5-2.2c-0.2-0.7-0.3-1.3-0.4-1.8c-0.1-0.5-0.2-0.9-0.3-1.1c-0.1-0.4-0.2-0.8-0.3-1.2 c-0.1-0.4-0.2-0.8-0.2-1.3c0-0.1,0.1-0.2,0.2-0.3c0.1,0,0.2-0.1,0.3-0.1c0.2,0,0.5,0,0.7,0.1c0.2,0.1,0.4,0.2,0.5,0.4 c0.1,0.1,0.1,0.3,0.2,0.5c0,0.2,0.1,0.3,0.1,0.5c0.3,1.2,0.5,2.4,0.8,3.5c0.3,1.2,0.6,2.3,0.9,3.5c0.2,0.7,0.4,1.5,0.6,2.2 c0.2,0.7,0.4,1.4,0.7,2.2c0.4-1.3,0.7-2.6,0.9-3.9c0.2-1.3,0.3-2.7,0.3-4c0-0.2,0-0.5,0-0.8c0-0.3,0-0.7,0-1 c0-0.4,0-0.7,0-1.1c0-0.4,0-0.7-0.1-1.1c0-0.3-0.1-0.7-0.1-1c-0.1-0.3-0.1-0.5-0.2-0.7c0-0.1-0.1-0.1-0.1-0.2 c0-0.1,0-0.1,0-0.2c0-0.1,0-0.2,0.1-0.2c0.1-0.1,0.2-0.1,0.3-0.1c0.1,0,0.2-0.1,0.3-0.1c0.1,0,0.2,0,0.3,0 c0.2,0,0.4,0,0.6,0.1c0.2,0,0.3,0.2,0.5,0.3c0.1,0.1,0.1,0.2,0.2,0.5c0.1,0.3,0.1,0.6,0.1,0.9c0,0.4,0.1,0.7,0.1,1.1 c0,0.4,0,0.8,0,1.2c0,0.4,0,0.7,0,1C202.8,72.9,202.8,73.2,202.8,73.3z" class="st35"/><path d="M214.1,78.8c0,0.2-0.1,0.3-0.2,0.5c-0.1,0.2-0.3,0.3-0.4,0.4c0,0-0.1,0-0.2,0.1c-0.1,0-0.2,0-0.3,0.1 c-0.1,0-0.2,0-0.3,0.1c-0.1,0-0.2,0-0.2,0l0.3,1.8c0.1,0.6,0.2,1.1,0.2,1.7c0,0.6,0.2,1.1,0.3,1.7c0,0,0,0.1,0.1,0.1 c0,0,0,0.1,0,0.2c0,0.1,0,0.2-0.1,0.2c-0.1,0.1-0.1,0.1-0.2,0.1c-0.1,0-0.2,0-0.3,0.1c-0.1,0-0.2,0-0.3,0h-0.2 c-0.3,0-0.5,0-0.6-0.1c-0.1,0-0.2-0.1-0.3-0.2c-0.1-0.1-0.1-0.2-0.2-0.4c0-0.2-0.1-0.3-0.1-0.6c-0.2-1.5-0.4-3-0.7-4.4 c-0.5,0.1-1,0.1-1.6,0.2c-0.5,0.1-1.1,0.1-1.6,0.2l-0.4,2.4c0,0.1,0,0.3-0.1,0.6c0,0.3-0.1,0.5-0.1,0.8 c0,0.3-0.1,0.5-0.1,0.7c0,0.2-0.1,0.4-0.2,0.5c0,0.1-0.1,0.2-0.1,0.2c0,0-0.1,0.1-0.2,0.1c-0.2,0-0.3,0-0.4-0.1 c-0.1-0.1-0.3-0.1-0.4-0.2c-0.1-0.1-0.2-0.2-0.3-0.3c-0.1-0.1-0.1-0.3-0.1-0.4c0-0.2,0-0.3,0.1-0.5c0-0.2,0.1-0.3,0.1-0.5 c0.1-0.5,0.2-1.1,0.3-1.6c0.1-0.5,0.2-1.1,0.3-1.6c-0.1,0-0.1,0-0.2,0c-0.1,0-0.1,0-0.2-0.1c-0.1,0-0.1-0.1-0.2-0.1 c-0.1,0-0.1-0.1-0.1-0.2c0-0.1,0-0.2,0.1-0.2c0.1-0.1,0.1-0.1,0.2-0.2c0.1-0.1,0.2-0.1,0.3-0.2c0.1,0,0.2-0.1,0.2-0.1 c0.2-1.1,0.3-2.3,0.5-3.4c0.2-1.1,0.3-2.3,0.4-3.4c0-0.3,0.1-0.6,0.1-0.9c0-0.3,0.1-0.6,0.1-0.9c0-0.3,0.1-0.6,0.1-0.9 c0-0.3,0.1-0.6,0.2-0.9c0.1-0.3,0.2-0.5,0.4-0.7c0.2-0.2,0.4-0.3,0.8-0.3c0.1,0,0.2,0,0.3,0c0.1,0,0.2,0,0.3,0.1 c0.2,0.1,0.4,0.4,0.7,0.9c0.2,0.5,0.5,1,0.7,1.7c0.2,0.7,0.5,1.4,0.7,2.2c0.2,0.8,0.4,1.5,0.6,2.3c0.2,0.7,0.3,1.4,0.5,2 c0.1,0.6,0.2,1,0.3,1.3c0.2,0,0.4,0,0.5-0.1c0.2,0,0.4,0,0.5,0c0.1,0,0.2,0,0.3,0c0.1,0,0.2,0,0.3,0.1c0.1,0,0.2,0.1,0.2,0.2 C214.1,78.6,214.1,78.6,214.1,78.8z M210.1,78.7c-0.2-1.2-0.5-2.3-0.7-3.4c-0.3-1.1-0.6-2.3-0.9-3.4 c-0.2,1.2-0.3,2.4-0.5,3.6c-0.2,1.2-0.4,2.4-0.6,3.6c0.5-0.1,0.9-0.1,1.3-0.2C209.3,78.8,209.7,78.8,210.1,78.7z" class="st35"/></g><g><path d="M364,161.2c0-0.2,0.1-0.3,0.2-0.5c0.1-0.1,0.2-0.3,0.3-0.4c0.1-0.1,0.3-0.2,0.4-0.2 c0.1,0,0.3,0,0.4,0.1c0.1,0.1,0.3,0.1,0.4,0.2c0.1,0.1,0.3,0.1,0.5,0.2c0.2,0.1,0.4,0.1,0.6,0.1c0.3,0,0.6-0.1,0.8-0.2 c0.2-0.1,0.4-0.3,0.6-0.5c0.2-0.3,0.4-0.7,0.4-1.2c0.1-0.5,0.1-1.1,0.1-1.8c0-0.7,0-1.3,0-2.1c0-0.7,0-1.4,0.1-2.1 c0.1-0.7,0.2-1.3,0.3-1.9c0.2-0.6,0.4-1.1,0.7-1.5c-0.4-0.4-0.7-0.8-0.9-1.3c-0.2-0.5-0.3-1-0.3-1.6c0-0.6,0.1-1.2,0.3-1.8 c0.2-0.6,0.4-1.2,0.6-1.7c0.2-0.6,0.4-1.2,0.6-1.7c0.2-0.6,0.3-1.2,0.3-1.8c0-0.5-0.1-0.9-0.4-1.3c-0.2-0.3-0.6-0.5-1.2-0.5 c-0.1,0-0.2,0-0.3,0c-0.1,0-0.2,0-0.3,0c-0.1,0-0.3,0-0.5,0c-0.2,0-0.4-0.1-0.6-0.2c-0.2-0.1-0.4-0.2-0.5-0.3 c-0.1-0.1-0.2-0.2-0.2-0.4c0-0.2,0.1-0.3,0.3-0.5c0.2-0.1,0.5-0.2,0.8-0.3c0.3-0.1,0.6-0.2,0.9-0.2c0.3,0,0.5-0.1,0.6-0.1 c0.6,0,1.1,0.1,1.6,0.3c0.5,0.2,0.9,0.5,1.2,0.8c0.3,0.3,0.6,0.7,0.8,1.2c0.2,0.5,0.3,1,0.3,1.6c0,0.6-0.1,1.2-0.2,1.8 c-0.2,0.6-0.3,1.1-0.5,1.6c-0.2,0.5-0.4,1.1-0.5,1.6c-0.2,0.5-0.2,1.1-0.2,1.6c0,0.4,0,0.8,0.1,1c0.1,0.3,0.2,0.4,0.4,0.6 c0.1,0.1,0.3,0.3,0.5,0.3c0.2,0.1,0.3,0.2,0.5,0.3c0.1,0.1,0.3,0.3,0.4,0.4c0.1,0.2,0.1,0.4,0.1,0.8c0,0.3,0,0.5-0.1,0.6 c-0.1,0.1-0.3,0.2-0.6,0.2c-0.1,0-0.2,0-0.4,0c-0.1,0-0.2-0.1-0.4-0.1c-0.1,0.2-0.2,0.3-0.3,0.5c-0.1,0.2-0.1,0.4-0.1,0.5 c0,0.2-0.1,0.4-0.1,0.6c0,0.2,0,0.4,0,0.5c-0.1,0.8-0.1,1.6-0.1,2.5c0,0.8,0,1.6,0,2.5c0,0.4,0,0.8,0,1.2 c0,0.4-0.1,0.8-0.2,1.1c-0.1,0.4-0.2,0.7-0.4,1c-0.2,0.3-0.5,0.6-0.8,0.9c-0.4,0.4-0.9,0.6-1.4,0.8c-0.5,0.2-1.1,0.3-1.6,0.3 c-0.2,0-0.4,0-0.7-0.1c-0.3,0-0.6-0.1-0.9-0.2c-0.3-0.1-0.6-0.2-0.8-0.4c-0.2-0.2-0.3-0.4-0.3-0.6 C364,161.5,364,161.3,364,161.2z" class="st35"/><path d="M355.7,148.4c0.1-0.2,0.3-0.2,0.6-0.2c0.1,0,0.3,0,0.4,0c0.1,0,0.3,0.1,0.4,0.1 c0.1-0.1,0.2-0.3,0.2-0.5c0.1-0.2,0.1-0.4,0.1-0.6c0-0.2,0.1-0.4,0.1-0.6c0-0.2,0-0.4,0-0.5c0.1-0.8,0.1-1.6,0.1-2.5 c0-0.8,0-1.6,0-2.5c0-0.4,0-0.8,0.1-1.2c0-0.4,0.1-0.7,0.2-1.1c0.1-0.4,0.2-0.7,0.4-1c0.2-0.3,0.5-0.6,0.8-0.9 c0.4-0.4,0.9-0.6,1.4-0.8c0.5-0.2,1.1-0.3,1.6-0.3c0.2,0,0.4,0,0.7,0.1c0.3,0,0.6,0.1,0.9,0.2c0.3,0.1,0.6,0.2,0.8,0.4 c0.2,0.2,0.3,0.4,0.3,0.6c0,0.1,0,0.3-0.1,0.4c-0.1,0.2-0.1,0.3-0.2,0.5c-0.1,0.1-0.2,0.3-0.3,0.4c-0.1,0.1-0.3,0.1-0.4,0.1 c-0.1,0-0.3,0-0.4-0.1c-0.1-0.1-0.3-0.1-0.4-0.2c-0.1-0.1-0.3-0.1-0.5-0.2c-0.2-0.1-0.4-0.1-0.6-0.1c-0.3,0-0.5,0.1-0.8,0.2 c-0.2,0.1-0.4,0.3-0.6,0.5c-0.2,0.3-0.4,0.7-0.4,1.2c-0.1,0.5-0.1,1.1-0.1,1.8c0,0.7,0,1.3,0,2.1c0,0.7,0,1.4-0.1,2.1 c-0.1,0.7-0.2,1.3-0.3,1.9c-0.2,0.6-0.4,1.1-0.7,1.5c0.4,0.4,0.7,0.8,0.9,1.3c0.2,0.5,0.3,1,0.3,1.6c0,0.6-0.1,1.2-0.3,1.8 c-0.2,0.6-0.4,1.2-0.6,1.7c-0.2,0.6-0.4,1.2-0.6,1.7c-0.2,0.6-0.3,1.2-0.3,1.8c0,0.5,0.1,0.9,0.4,1.3 c0.2,0.3,0.6,0.5,1.2,0.5h0.6c0.1,0,0.3,0,0.5,0.1s0.4,0.1,0.6,0.1c0.2,0.1,0.4,0.2,0.5,0.3c0.1,0.1,0.2,0.2,0.2,0.4 c0,0.2-0.1,0.3-0.3,0.4c-0.2,0.1-0.5,0.2-0.7,0.3c-0.3,0.1-0.6,0.2-0.8,0.2c-0.3,0-0.5,0.1-0.6,0.1c-0.6,0-1.1-0.1-1.6-0.3 c-0.5-0.2-0.9-0.5-1.2-0.8c-0.3-0.3-0.6-0.7-0.8-1.2c-0.2-0.5-0.3-1-0.3-1.6c0-0.6,0.1-1.2,0.2-1.8c0.2-0.6,0.3-1.1,0.5-1.6 c0.2-0.5,0.4-1.1,0.5-1.6c0.2-0.5,0.2-1.1,0.2-1.6c0-0.4,0-0.8-0.1-1c-0.1-0.2-0.2-0.4-0.4-0.6c-0.1-0.1-0.3-0.3-0.5-0.3 c-0.2-0.1-0.3-0.2-0.5-0.3c-0.1-0.1-0.3-0.3-0.4-0.4c-0.1-0.2-0.1-0.4-0.1-0.8C355.5,148.7,355.6,148.5,355.7,148.4z" class="st35"/></g><g><path d="M271.4,195.4c0,0.2,0,0.3-0.1,0.4c-0.1,0.2-0.1,0.4-0.2,0.5c-0.1,0.1-0.1,0.2-0.2,0.3 c-0.1,0.1-0.2,0.1-0.3,0.1c-0.1,0-0.3,0-0.5,0h-4.7c-0.1,0-0.2,0-0.3,0c-0.1,0-0.2,0-0.4-0.1c-0.1,0-0.2-0.1-0.3-0.1 c-0.1-0.1-0.1-0.2-0.1-0.3c0-0.3,0.1-0.5,0.3-0.7c0.2-0.2,0.4-0.3,0.7-0.4c0.2,0,0.5-0.1,0.7-0.1c0.2,0,0.5,0,0.7,0 c0.7,0,1.3-0.1,2-0.1c0.7,0,1.3-0.1,2-0.1c0.1,0,0.2,0,0.3,0c0.1,0,0.2,0,0.3,0.1c0.1,0,0.2,0.1,0.2,0.1 C271.4,195.2,271.4,195.3,271.4,195.4z" class="st35"/><path d="M283.2,194.1c0,0.1,0,0.2-0.1,0.3c-0.1,0.1-0.2,0.1-0.3,0.2c-0.1,0-0.2,0.1-0.3,0.1c-0.1,0-0.2,0-0.3,0 c-0.3,0-0.5,0-0.7,0c-0.2,0-0.4,0-0.5-0.1c-0.1-0.1-0.3-0.2-0.4-0.3c-0.1-0.1-0.2-0.4-0.3-0.6c-0.5-1-0.9-2.1-1.2-3.1 c-0.3-1.1-0.7-2.1-1.1-3.2c-0.3,0.8-0.6,1.5-0.9,2.3c-0.3,0.8-0.7,1.5-1,2.3c-0.2,0.3-0.3,0.7-0.4,1c-0.1,0.3-0.3,0.7-0.5,1 c-0.1,0.2-0.2,0.3-0.3,0.4c-0.1,0.1-0.2,0.1-0.5,0.1c-0.1,0-0.3,0-0.5-0.1c-0.2-0.1-0.4-0.2-0.6-0.3 c-0.2-0.1-0.3-0.3-0.5-0.4c-0.1-0.2-0.2-0.3-0.2-0.5c0-0.1,0.1-0.2,0.2-0.5c0.1-0.3,0.3-0.6,0.4-1c0.2-0.4,0.4-0.8,0.6-1.3 c0.2-0.5,0.4-0.9,0.6-1.3c0.2-0.4,0.4-0.8,0.5-1.1c0.2-0.3,0.3-0.6,0.3-0.7c0.3-0.6,0.5-1.3,0.7-1.9c0.2-0.6,0.4-1.3,0.6-1.9 c-0.1-0.2-0.2-0.5-0.3-1c-0.1-0.5-0.3-1-0.5-1.6c-0.2-0.6-0.4-1.2-0.7-1.9c-0.2-0.7-0.5-1.4-0.7-2.1 c-0.2-0.7-0.5-1.4-0.7-2.1c-0.2-0.7-0.4-1.3-0.6-1.8c-0.2-0.5-0.3-1-0.4-1.3c-0.1-0.4-0.2-0.6-0.2-0.7c0-0.1,0-0.2,0.1-0.2 c0.1-0.1,0.1-0.1,0.2-0.1c0.1,0,0.2-0.1,0.3-0.1c0.1,0,0.2,0,0.2,0c0.5,0,0.9,0.1,1.1,0.3c0.3,0.2,0.5,0.5,0.7,0.9 c0.5,1.1,1,2.3,1.4,3.5c0.4,1.2,0.8,2.4,1.2,3.6c0.2-1,0.4-2,0.6-3c0.2-1,0.4-2,0.6-3c0-0.2,0.1-0.5,0.1-0.8 c0-0.3,0.1-0.7,0.1-1c0.1-0.4,0.1-0.7,0.2-1c0.1-0.3,0.1-0.6,0.2-0.7c0.1-0.1,0.1-0.2,0.2-0.3c0.1-0.1,0.2-0.1,0.3-0.1 c0.2,0,0.4,0,0.6,0.1c0.2,0.1,0.4,0.2,0.5,0.3c0.2,0.1,0.3,0.3,0.4,0.4c0.1,0.2,0.1,0.4,0.1,0.6c0,0.8-0.1,1.6-0.3,2.4 c-0.2,0.8-0.3,1.6-0.5,2.4c-0.3,1.4-0.5,2.9-0.8,4.3c-0.2,1.4-0.5,2.8-0.9,4.2c0.5,1.7,1.1,3.3,1.7,4.9 c0.6,1.6,1.2,3.2,1.9,4.8c0.1,0.2,0.2,0.4,0.3,0.6C283.1,193.7,283.2,193.9,283.2,194.1z" class="st35"/></g><g><path d="M263.5,242.2c0,0.1-0.1,0.2-0.2,0.3c-0.1,0.1-0.3,0.1-0.4,0.2c-0.2,0-0.3,0.1-0.5,0.1 c-0.2,0-0.3,0-0.4,0c-0.2,0-0.4,0-0.5-0.1c-0.1-0.1-0.3-0.2-0.4-0.3c-0.1-0.1-0.3-0.4-0.6-0.7c-0.3-0.3-0.5-0.7-0.8-1.1 c-0.3-0.4-0.6-0.8-0.9-1.3c-0.3-0.4-0.6-0.9-0.9-1.3c-0.3-0.4-0.5-0.8-0.6-1.1c-0.2-0.3-0.2-0.6-0.2-0.7 c0-0.3,0.1-0.5,0.2-0.8c0.2-0.3,0.3-0.5,0.4-0.7l2.4-4.4c0-0.1,0.1-0.2,0.2-0.4c0.1-0.1,0.1-0.3,0.2-0.4 c0.1-0.1,0.2-0.2,0.3-0.3c0.1-0.1,0.2-0.1,0.3-0.1c0.1,0,0.2,0,0.4,0.1c0.1,0.1,0.2,0.1,0.3,0.2c0.1,0.1,0.2,0.2,0.2,0.3 c0.1,0.1,0.1,0.2,0.1,0.3c0,0.2,0,0.3-0.1,0.5c-0.1,0.1-0.1,0.3-0.2,0.4c-0.4,0.9-0.9,1.7-1.3,2.6c-0.4,0.9-0.9,1.7-1.3,2.6 c0.2,0.4,0.4,0.7,0.7,1.2c0.3,0.4,0.6,0.8,0.9,1.2c0.3,0.4,0.6,0.8,1,1.2c0.3,0.4,0.6,0.7,0.9,1c0.1,0.1,0.2,0.2,0.3,0.3 c0.1,0.1,0.2,0.2,0.3,0.3c0.1,0.1,0.2,0.2,0.3,0.4C263.5,242,263.5,242.1,263.5,242.2z" class="st35"/><path d="M272,225.9c0,0.4,0,0.8-0.1,1.1c-0.1,0.4-0.2,0.7-0.3,1.1c-0.3,1.6-0.7,3.2-1,4.7 c-0.3,1.6-0.6,3.2-1,4.8c-0.3,1.6-0.7,3.2-1,4.8c-0.4,1.6-0.7,3.2-1,4.8c0,0.2,0,0.3-0.1,0.5c0,0.2-0.1,0.3-0.1,0.5 c-0.1,0.2-0.1,0.3-0.2,0.4c-0.1,0.1-0.3,0.2-0.5,0.2c-0.2,0-0.3,0-0.5-0.1c-0.2-0.1-0.4-0.1-0.6-0.2 c-0.2-0.1-0.3-0.2-0.5-0.4c-0.1-0.1-0.2-0.3-0.2-0.5c0-0.1,0-0.1,0-0.2c0-0.1,0-0.1,0-0.2c0.2-0.8,0.3-1.5,0.5-2.3 c0.2-0.8,0.4-1.5,0.5-2.3l3.2-14.3c0-0.2,0.1-0.4,0.2-0.8c0.1-0.3,0.1-0.7,0.2-1c0.1-0.3,0.1-0.7,0.2-1 c0.1-0.3,0.1-0.5,0.2-0.6c0.1-0.1,0.1-0.2,0.2-0.3c0.1,0,0.2-0.1,0.3-0.1c0.2,0,0.3,0,0.5,0.1c0.2,0.1,0.3,0.2,0.5,0.3 c0.1,0.1,0.3,0.3,0.3,0.4C272,225.5,272,225.7,272,225.9z" class="st35"/><path d="M280.2,235.7c0,0.1,0,0.3-0.1,0.4c0,0.1-0.1,0.3-0.2,0.4c-0.1,0.1-0.1,0.2-0.2,0.4 c-0.1,0.1-0.1,0.2-0.2,0.3l-2.4,4.4c-0.1,0.1-0.1,0.2-0.2,0.4c-0.1,0.1-0.1,0.3-0.2,0.4c-0.1,0.1-0.2,0.3-0.3,0.4 c-0.1,0.1-0.2,0.1-0.3,0.1c-0.1,0-0.2,0-0.4-0.1c-0.1-0.1-0.2-0.1-0.3-0.2c-0.1-0.1-0.2-0.2-0.2-0.3 c-0.1-0.1-0.1-0.2-0.1-0.4c0-0.2,0-0.3,0.1-0.5c0.1-0.2,0.1-0.3,0.2-0.4c0.4-0.9,0.9-1.8,1.3-2.6c0.4-0.9,0.9-1.7,1.3-2.6 c-0.2-0.4-0.4-0.7-0.7-1.2c-0.3-0.4-0.6-0.8-0.9-1.2c-0.3-0.4-0.6-0.8-1-1.2c-0.3-0.4-0.6-0.7-0.9-1 c-0.1-0.1-0.2-0.2-0.3-0.3c-0.1-0.1-0.2-0.2-0.3-0.3c-0.1-0.1-0.2-0.2-0.3-0.4c-0.1-0.1-0.1-0.2-0.1-0.4 c0-0.1,0.1-0.2,0.2-0.3c0.1-0.1,0.3-0.1,0.4-0.2c0.2,0,0.3-0.1,0.5-0.1c0.2,0,0.3,0,0.4,0c0.2,0,0.4,0,0.5,0.1 c0.1,0.1,0.3,0.2,0.4,0.3c0.1,0.2,0.3,0.4,0.6,0.7c0.3,0.3,0.5,0.7,0.8,1.1c0.3,0.4,0.6,0.8,0.9,1.3c0.3,0.4,0.6,0.9,0.9,1.3 c0.3,0.4,0.5,0.8,0.6,1.1C280.1,235.3,280.2,235.5,280.2,235.7z" class="st35"/></g><g><path d="M442.7,256.8c0.1-0.9,0.2-1.8,0.4-2.7c0-0.3,0.1-0.6,0.2-0.9c0.1-0.3,0.2-0.6,0.3-0.9 c0.1-0.3,0.2-0.6,0.4-0.9c0.1-0.3,0.3-0.5,0.5-0.7c0.2-0.2,0.4-0.4,0.7-0.5c0.3-0.1,0.6-0.2,0.9-0.2c0.4,0,0.7,0.1,1.1,0.3 c0.3,0.2,0.6,0.4,0.8,0.7c0.2,0.3,0.5,0.6,0.6,1c0.2,0.4,0.3,0.7,0.4,1c0,0,0,0.1,0,0.1c0,0,0,0.1,0,0.1c0,0.1,0,0.2-0.1,0.2 c0,0.1-0.1,0.1-0.1,0.2c0.2,0.7,0.3,1.5,0.4,2.3c0.1,0.8,0.1,1.6,0.1,2.4c0,0.8,0,1.6-0.1,2.3c-0.1,0.8-0.1,1.5-0.3,2.3 c0,0.3-0.1,0.6-0.2,1c-0.1,0.4-0.1,0.7-0.2,1.1c-0.1,0.4-0.2,0.7-0.4,1c-0.2,0.3-0.3,0.6-0.6,0.9c-0.2,0.3-0.5,0.5-0.8,0.6 c-0.3,0.2-0.6,0.2-1,0.2c-0.4,0-0.8-0.1-1.1-0.3c-0.3-0.2-0.6-0.4-0.8-0.7c-0.2-0.3-0.4-0.7-0.6-1.1 c-0.2-0.4-0.3-0.8-0.4-1.3c-0.1-0.5-0.2-0.9-0.2-1.4c-0.1-0.5-0.1-0.9-0.1-1.4c0-0.4,0-0.9-0.1-1.2c0-0.4,0-0.7,0-1 C442.6,258.6,442.6,257.7,442.7,256.8z M446.8,253c-0.1-0.2-0.2-0.4-0.3-0.6c-0.1-0.2-0.2-0.4-0.3-0.6 c-0.1-0.2-0.2-0.3-0.2-0.3c-0.1,0.1-0.3,0.3-0.3,0.5c-0.1,0.2-0.2,0.4-0.2,0.6c-0.2,0.6-0.4,1.2-0.5,1.8 c-0.1,0.6-0.2,1.3-0.3,2c-0.1,0.7-0.1,1.3-0.2,2c0,0.7,0,1.3,0,1.9c0,0.8,0,1.6,0.1,2.4c0.1,0.8,0.3,1.6,0.5,2.3 c0,0.1,0.1,0.2,0.1,0.3c0.1,0.1,0.1,0.3,0.2,0.4c0.1,0.1,0.2,0.3,0.3,0.4c0.1,0.1,0.2,0.2,0.3,0.2c0.2,0,0.3-0.1,0.4-0.3 c0.1-0.2,0.2-0.5,0.4-0.8c0.1-0.3,0.2-0.7,0.3-1.2c0.1-0.4,0.2-0.9,0.2-1.4c0.1-0.5,0.1-1,0.2-1.4c0-0.5,0.1-0.9,0.1-1.3 c0-0.4,0.1-0.8,0.1-1.1c0-0.3,0-0.5,0-0.7c0-0.4,0-0.8,0-1.2c0-0.4,0-0.8-0.1-1.3c0-0.4-0.1-0.8-0.2-1.2 c-0.1-0.4-0.2-0.8-0.4-1.1C446.9,253.3,446.9,253.1,446.8,253z" class="st35"/><path d="M437.6,266.1c0-0.3,0.1-0.6,0.1-0.8c0.2-2.1,0.4-4.2,0.4-6.3c0.1-2.1,0.2-4.2,0.2-6.3 c0-0.1,0-0.2,0-0.4c0-0.2,0-0.3,0-0.5c0-0.2,0-0.3,0-0.5c0-0.2,0-0.3,0.1-0.3c0.1-0.2,0.3-0.4,0.5-0.5 c0.2-0.1,0.5-0.2,0.7-0.2c0.2,0,0.3,0,0.4,0.1c0,0.1,0.1,0.2,0.1,0.4c0,2.5,0,5-0.1,7.5c-0.1,2.5-0.2,5-0.4,7.5 c0,0.1,0,0.3,0,0.4c0,0.1,0,0.3,0,0.4c0,0.1-0.1,0.2-0.2,0.3c-0.1,0.1-0.2,0.2-0.4,0.3c-0.1,0-0.3,0.1-0.4,0.1 c-0.2,0-0.3,0-0.4,0c-0.2,0-0.3,0-0.4-0.1c-0.1-0.1-0.2-0.2-0.2-0.4C437.5,266.6,437.5,266.3,437.6,266.1z" class="st35"/><path d="M428.5,256.8c0.1-0.9,0.2-1.8,0.4-2.7c0-0.3,0.1-0.6,0.2-0.9c0.1-0.3,0.2-0.6,0.3-0.9 c0.1-0.3,0.2-0.6,0.4-0.9c0.1-0.3,0.3-0.5,0.5-0.7c0.2-0.2,0.4-0.4,0.7-0.5c0.3-0.1,0.6-0.2,0.9-0.2c0.4,0,0.7,0.1,1.1,0.3 c0.3,0.2,0.6,0.4,0.8,0.7c0.2,0.3,0.5,0.6,0.6,1c0.2,0.4,0.3,0.7,0.4,1c0,0,0,0.1,0,0.1c0,0,0,0.1,0,0.1c0,0.1,0,0.2-0.1,0.2 c0,0.1-0.1,0.1-0.1,0.2c0.2,0.7,0.3,1.5,0.4,2.3c0.1,0.8,0.1,1.6,0.1,2.4c0,0.8,0,1.6-0.1,2.3c-0.1,0.8-0.1,1.5-0.3,2.3 c0,0.3-0.1,0.6-0.2,1c-0.1,0.4-0.1,0.7-0.3,1.1c-0.1,0.4-0.2,0.7-0.4,1c-0.2,0.3-0.3,0.6-0.6,0.9c-0.2,0.3-0.5,0.5-0.8,0.6 c-0.3,0.2-0.6,0.2-1,0.2c-0.4,0-0.8-0.1-1.1-0.3c-0.3-0.2-0.6-0.4-0.8-0.7c-0.2-0.3-0.4-0.7-0.6-1.1 c-0.2-0.4-0.3-0.8-0.4-1.3c-0.1-0.5-0.2-0.9-0.2-1.4c-0.1-0.5-0.1-0.9-0.1-1.4c0-0.4,0-0.9-0.1-1.2c0-0.4,0-0.7,0-1 C428.4,258.6,428.5,257.7,428.5,256.8z M432.6,253c-0.1-0.2-0.2-0.4-0.3-0.6c-0.1-0.2-0.2-0.4-0.3-0.6 c-0.1-0.2-0.2-0.3-0.2-0.3c-0.1,0.1-0.3,0.3-0.3,0.5c-0.1,0.2-0.2,0.4-0.2,0.6c-0.2,0.6-0.4,1.2-0.5,1.8 c-0.1,0.6-0.2,1.3-0.3,2c-0.1,0.7-0.1,1.3-0.2,2c0,0.7,0,1.3,0,1.9c0,0.8,0,1.6,0.1,2.4c0.1,0.8,0.3,1.6,0.5,2.3 c0,0.1,0.1,0.2,0.1,0.3c0.1,0.1,0.1,0.3,0.2,0.4c0.1,0.1,0.2,0.3,0.2,0.4c0.1,0.1,0.2,0.2,0.3,0.2c0.2,0,0.3-0.1,0.4-0.3 c0.1-0.2,0.2-0.5,0.4-0.8c0.1-0.3,0.2-0.7,0.3-1.2c0.1-0.4,0.2-0.9,0.2-1.4c0.1-0.5,0.1-1,0.2-1.4c0-0.5,0.1-0.9,0.1-1.3 c0-0.4,0.1-0.8,0.1-1.1c0-0.3,0-0.5,0-0.7c0-0.4,0-0.8,0-1.2c0-0.4,0-0.8-0.1-1.3c0-0.4-0.1-0.8-0.2-1.2 c-0.1-0.4-0.2-0.8-0.4-1.1C432.8,253.3,432.7,253.1,432.6,253z" class="st35"/><path d="M423.4,266.1c0-0.3,0.1-0.6,0.1-0.8c0.2-2.1,0.4-4.2,0.4-6.3c0.1-2.1,0.2-4.2,0.2-6.3 c0-0.1,0-0.2,0-0.4c0-0.2,0-0.3,0-0.5c0-0.2,0-0.3,0-0.5c0-0.2,0-0.3,0.1-0.3c0.1-0.2,0.3-0.4,0.5-0.5 c0.2-0.1,0.5-0.2,0.7-0.2c0.2,0,0.3,0,0.4,0.1c0,0.1,0.1,0.2,0.1,0.4c0,2.5,0,5-0.1,7.5c-0.1,2.5-0.2,5-0.4,7.5 c0,0.1,0,0.3,0,0.4c0,0.1,0,0.3,0,0.4c0,0.1-0.1,0.2-0.2,0.3c-0.1,0.1-0.2,0.2-0.4,0.3c-0.1,0-0.3,0.1-0.4,0.1 c-0.2,0-0.3,0-0.4,0c-0.2,0-0.3,0-0.4-0.1c-0.1-0.1-0.2-0.2-0.2-0.4C423.3,266.6,423.3,266.3,423.4,266.1z" class="st35"/><path d="M414.4,256.8c0.1-0.9,0.2-1.8,0.4-2.7c0-0.3,0.1-0.6,0.2-0.9c0.1-0.3,0.2-0.6,0.3-0.9 c0.1-0.3,0.2-0.6,0.4-0.9c0.1-0.3,0.3-0.5,0.5-0.7c0.2-0.2,0.4-0.4,0.7-0.5c0.3-0.1,0.6-0.2,0.9-0.2c0.4,0,0.7,0.1,1.1,0.3 c0.3,0.2,0.6,0.4,0.8,0.7c0.2,0.3,0.5,0.6,0.6,1c0.2,0.4,0.3,0.7,0.4,1c0,0,0,0.1,0,0.1c0,0,0,0.1,0,0.1c0,0.1,0,0.2-0.1,0.2 c0,0.1-0.1,0.1-0.1,0.2c0.2,0.7,0.3,1.5,0.4,2.3c0.1,0.8,0.1,1.6,0.1,2.4c0,0.8,0,1.6-0.1,2.3c-0.1,0.8-0.1,1.5-0.3,2.3 c0,0.3-0.1,0.6-0.2,1c-0.1,0.4-0.1,0.7-0.3,1.1c-0.1,0.4-0.2,0.7-0.4,1c-0.2,0.3-0.3,0.6-0.6,0.9c-0.2,0.3-0.5,0.5-0.8,0.6 c-0.3,0.2-0.6,0.2-1,0.2c-0.4,0-0.8-0.1-1.1-0.3c-0.3-0.2-0.6-0.4-0.8-0.7c-0.2-0.3-0.4-0.7-0.6-1.1 c-0.2-0.4-0.3-0.8-0.4-1.3c-0.1-0.5-0.2-0.9-0.2-1.4c-0.1-0.5-0.1-0.9-0.1-1.4c0-0.4,0-0.9-0.1-1.2c0-0.4,0-0.7,0-1 C414.2,258.6,414.3,257.7,414.4,256.8z M418.4,253c-0.1-0.2-0.2-0.4-0.3-0.6c-0.1-0.2-0.2-0.4-0.3-0.6 c-0.1-0.2-0.2-0.3-0.2-0.3c-0.1,0.1-0.3,0.3-0.3,0.5c-0.1,0.2-0.2,0.4-0.2,0.6c-0.2,0.6-0.4,1.2-0.5,1.8 c-0.1,0.6-0.2,1.3-0.3,2c-0.1,0.7-0.1,1.3-0.2,2c0,0.7,0,1.3,0,1.9c0,0.8,0,1.6,0.1,2.4c0.1,0.8,0.3,1.6,0.5,2.3 c0,0.1,0.1,0.2,0.1,0.3c0.1,0.1,0.1,0.3,0.2,0.4c0.1,0.1,0.2,0.3,0.2,0.4c0.1,0.1,0.2,0.2,0.3,0.2c0.2,0,0.3-0.1,0.4-0.3 c0.1-0.2,0.2-0.5,0.4-0.8c0.1-0.3,0.2-0.7,0.3-1.2c0.1-0.4,0.2-0.9,0.2-1.4c0.1-0.5,0.1-1,0.2-1.4c0-0.5,0.1-0.9,0.1-1.3 c0-0.4,0.1-0.8,0.1-1.1c0-0.3,0-0.5,0-0.7c0-0.4,0-0.8,0-1.2c0-0.4,0-0.8-0.1-1.3c0-0.4-0.1-0.8-0.2-1.2 c-0.1-0.4-0.2-0.8-0.4-1.1C418.6,253.3,418.5,253.1,418.4,253z" class="st35"/><path d="M409.2,266.1c0-0.3,0.1-0.6,0.1-0.8c0.2-2.1,0.4-4.2,0.4-6.3c0.1-2.1,0.2-4.2,0.2-6.3 c0-0.1,0-0.2,0-0.4c0-0.2,0-0.3,0-0.5c0-0.2,0-0.3,0-0.5c0-0.2,0-0.3,0.1-0.3c0.1-0.2,0.3-0.4,0.5-0.5 c0.2-0.1,0.5-0.2,0.7-0.2c0.2,0,0.3,0,0.4,0.1c0,0.1,0.1,0.2,0.1,0.4c0,2.5,0,5-0.1,7.5c-0.1,2.5-0.2,5-0.4,7.5 c0,0.1,0,0.3,0,0.4c0,0.1,0,0.3,0,0.4c0,0.1-0.1,0.2-0.2,0.3c-0.1,0.1-0.2,0.2-0.4,0.3c-0.1,0-0.3,0.1-0.4,0.1 c-0.2,0-0.3,0-0.4,0c-0.2,0-0.3,0-0.4-0.1c-0.1-0.1-0.2-0.2-0.2-0.4C409.1,266.6,409.2,266.3,409.2,266.1z" class="st35"/><path d="M404,266.1c0-0.3,0.1-0.6,0.1-0.8c0.2-2.1,0.4-4.2,0.4-6.3c0.1-2.1,0.2-4.2,0.2-6.3c0-0.1,0-0.2,0-0.4 c0-0.2,0-0.3,0-0.5c0-0.2,0-0.3,0-0.5c0-0.2,0-0.3,0.1-0.3c0.1-0.2,0.3-0.4,0.5-0.5c0.2-0.1,0.5-0.2,0.7-0.2 c0.2,0,0.3,0,0.4,0.1c0,0.1,0.1,0.2,0.1,0.4c0,2.5,0,5-0.1,7.5c-0.1,2.5-0.2,5-0.4,7.5c0,0.1,0,0.3,0,0.4c0,0.1,0,0.3,0,0.4 c0,0.1-0.1,0.2-0.2,0.3c-0.1,0.1-0.2,0.2-0.4,0.3c-0.1,0-0.3,0.1-0.4,0.1c-0.2,0-0.3,0-0.4,0c-0.2,0-0.3,0-0.4-0.1 c-0.1-0.1-0.2-0.2-0.2-0.4C403.9,266.6,403.9,266.3,404,266.1z" class="st35"/></g><g><path d="M137.2,90.3c0.1-0.9,0.2-1.8,0.4-2.7c0-0.3,0.1-0.6,0.2-0.9c0.1-0.3,0.2-0.6,0.3-0.9 c0.1-0.3,0.2-0.6,0.4-0.9c0.1-0.3,0.3-0.5,0.5-0.7c0.2-0.2,0.4-0.4,0.7-0.5c0.3-0.1,0.6-0.2,0.9-0.2c0.4,0,0.7,0.1,1.1,0.3 c0.3,0.2,0.6,0.4,0.8,0.7c0.2,0.3,0.5,0.6,0.6,1c0.2,0.4,0.3,0.7,0.4,1c0,0,0,0.1,0,0.1c0,0,0,0.1,0,0.1c0,0.1,0,0.2-0.1,0.2 c0,0.1-0.1,0.1-0.1,0.2c0.2,0.7,0.3,1.5,0.4,2.3c0.1,0.8,0.1,1.6,0.1,2.4c0,0.8,0,1.6-0.1,2.3c-0.1,0.8-0.1,1.5-0.3,2.3 c0,0.3-0.1,0.6-0.2,1c-0.1,0.4-0.1,0.7-0.2,1.1c-0.1,0.4-0.2,0.7-0.4,1c-0.2,0.3-0.3,0.6-0.6,0.9c-0.2,0.3-0.5,0.5-0.8,0.6 c-0.3,0.2-0.6,0.2-1,0.2c-0.4,0-0.8-0.1-1.1-0.3c-0.3-0.2-0.6-0.4-0.8-0.7c-0.2-0.3-0.4-0.7-0.6-1.1 c-0.2-0.4-0.3-0.8-0.4-1.3c-0.1-0.5-0.2-0.9-0.3-1.4c-0.1-0.5-0.1-0.9-0.1-1.4c0-0.4,0-0.9-0.1-1.2c0-0.4,0-0.7,0-1 C137.1,92.1,137.2,91.2,137.2,90.3z M141.3,86.5c-0.1-0.2-0.2-0.4-0.3-0.6c-0.1-0.2-0.2-0.4-0.3-0.6 c-0.1-0.2-0.2-0.3-0.2-0.3c-0.1,0.1-0.3,0.3-0.3,0.5c-0.1,0.2-0.2,0.4-0.2,0.6c-0.2,0.6-0.4,1.2-0.5,1.8 c-0.1,0.6-0.2,1.3-0.3,2c-0.1,0.7-0.1,1.3-0.2,2c0,0.7,0,1.3,0,1.9c0,0.8,0,1.6,0.1,2.4c0.1,0.8,0.3,1.6,0.5,2.3 c0,0.1,0.1,0.2,0.1,0.3c0.1,0.1,0.1,0.3,0.2,0.4c0.1,0.1,0.2,0.3,0.3,0.4c0.1,0.1,0.2,0.2,0.3,0.2c0.2,0,0.3-0.1,0.4-0.3 c0.1-0.2,0.2-0.5,0.4-0.8c0.1-0.3,0.2-0.7,0.3-1.2c0.1-0.4,0.2-0.9,0.2-1.4c0.1-0.5,0.1-1,0.2-1.4c0-0.5,0.1-0.9,0.1-1.3 c0-0.4,0.1-0.8,0.1-1.1c0-0.3,0-0.5,0-0.7c0-0.4,0-0.8,0-1.2c0-0.4,0-0.8-0.1-1.3c0-0.4-0.1-0.8-0.2-1.2 c-0.1-0.4-0.2-0.8-0.4-1.1C141.5,86.8,141.4,86.6,141.3,86.5z" class="st35"/><path d="M132.1,99.6c0-0.3,0.1-0.6,0.1-0.8c0.2-2.1,0.4-4.2,0.4-6.3c0.1-2.1,0.2-4.2,0.2-6.3c0-0.1,0-0.2,0-0.4 c0-0.2,0-0.3,0-0.5c0-0.2,0-0.3,0-0.5c0-0.2,0-0.3,0.1-0.3c0.1-0.2,0.3-0.4,0.5-0.5c0.2-0.1,0.5-0.2,0.7-0.2 c0.2,0,0.3,0,0.4,0.1c0,0.1,0.1,0.2,0.1,0.4c0,2.5,0,5-0.1,7.5c-0.1,2.5-0.2,5-0.4,7.5c0,0.1,0,0.3,0,0.4s0,0.3,0,0.4 c0,0.1-0.1,0.2-0.2,0.3c-0.1,0.1-0.2,0.2-0.4,0.3c-0.1,0-0.3,0.1-0.4,0.1c-0.2,0-0.3,0-0.4,0c-0.2,0-0.3,0-0.4-0.1 c-0.1-0.1-0.2-0.2-0.2-0.4C132,100.1,132,99.8,132.1,99.6z" class="st35"/><path d="M123.1,90.3c0.1-0.9,0.2-1.8,0.4-2.7c0-0.3,0.1-0.6,0.2-0.9c0.1-0.3,0.2-0.6,0.3-0.9 c0.1-0.3,0.2-0.6,0.4-0.9c0.1-0.3,0.3-0.5,0.5-0.7c0.2-0.2,0.4-0.4,0.7-0.5c0.3-0.1,0.6-0.2,0.9-0.2c0.4,0,0.7,0.1,1.1,0.3 c0.3,0.2,0.6,0.4,0.8,0.7c0.2,0.3,0.5,0.6,0.6,1c0.2,0.4,0.3,0.7,0.4,1c0,0,0,0.1,0,0.1c0,0,0,0.1,0,0.1c0,0.1,0,0.2-0.1,0.2 c0,0.1-0.1,0.1-0.1,0.2c0.2,0.7,0.3,1.5,0.4,2.3c0.1,0.8,0.1,1.6,0.1,2.4c0,0.8,0,1.6-0.1,2.3c-0.1,0.8-0.1,1.5-0.3,2.3 c0,0.3-0.1,0.6-0.2,1c-0.1,0.4-0.1,0.7-0.3,1.1c-0.1,0.4-0.2,0.7-0.4,1c-0.2,0.3-0.3,0.6-0.6,0.9c-0.2,0.3-0.5,0.5-0.8,0.6 c-0.3,0.2-0.6,0.2-1,0.2c-0.4,0-0.8-0.1-1.1-0.3c-0.3-0.2-0.6-0.4-0.8-0.7c-0.2-0.3-0.4-0.7-0.6-1.1 c-0.2-0.4-0.3-0.8-0.4-1.3c-0.1-0.5-0.2-0.9-0.3-1.4c-0.1-0.5-0.1-0.9-0.1-1.4c0-0.4,0-0.9-0.1-1.2c0-0.4,0-0.7,0-1 C122.9,92.1,123,91.2,123.1,90.3z M127.1,86.5c-0.1-0.2-0.2-0.4-0.3-0.6c-0.1-0.2-0.2-0.4-0.3-0.6c-0.1-0.2-0.2-0.3-0.2-0.3 c-0.1,0.1-0.3,0.3-0.3,0.5c-0.1,0.2-0.2,0.4-0.2,0.6c-0.2,0.6-0.4,1.2-0.5,1.8c-0.1,0.6-0.2,1.3-0.3,2 c-0.1,0.7-0.1,1.3-0.2,2c0,0.7,0,1.3,0,1.9c0,0.8,0,1.6,0.1,2.4c0.1,0.8,0.3,1.6,0.5,2.3c0,0.1,0.1,0.2,0.1,0.3 c0.1,0.1,0.1,0.3,0.2,0.4c0.1,0.1,0.2,0.3,0.2,0.4c0.1,0.1,0.2,0.2,0.3,0.2c0.2,0,0.3-0.1,0.4-0.3c0.1-0.2,0.2-0.5,0.4-0.8 c0.1-0.3,0.2-0.7,0.3-1.2c0.1-0.4,0.2-0.9,0.2-1.4c0.1-0.5,0.1-1,0.2-1.4c0-0.5,0.1-0.9,0.1-1.3c0-0.4,0.1-0.8,0.1-1.1 c0-0.3,0-0.5,0-0.7c0-0.4,0-0.8,0-1.2c0-0.4,0-0.8-0.1-1.3c0-0.4-0.1-0.8-0.2-1.2c-0.1-0.4-0.2-0.8-0.4-1.1 C127.3,86.8,127.2,86.6,127.1,86.5z" class="st35"/><path d="M117.9,99.6c0-0.3,0.1-0.6,0.1-0.8c0.2-2.1,0.4-4.2,0.4-6.3c0.1-2.1,0.2-4.2,0.2-6.3c0-0.1,0-0.2,0-0.4 c0-0.2,0-0.3,0-0.5c0-0.2,0-0.3,0-0.5c0-0.2,0-0.3,0.1-0.3c0.1-0.2,0.3-0.4,0.5-0.5c0.2-0.1,0.5-0.2,0.7-0.2 c0.2,0,0.3,0,0.4,0.1c0,0.1,0.1,0.2,0.1,0.4c0,2.5,0,5-0.1,7.5c-0.1,2.5-0.2,5-0.4,7.5c0,0.1,0,0.3,0,0.4s0,0.3,0,0.4 c0,0.1-0.1,0.2-0.2,0.3c-0.1,0.1-0.2,0.2-0.4,0.3c-0.1,0-0.3,0.1-0.4,0.1c-0.2,0-0.3,0-0.4,0c-0.2,0-0.3,0-0.4-0.1 c-0.1-0.1-0.2-0.2-0.2-0.4C117.9,100.1,117.9,99.8,117.9,99.6z" class="st35"/><path d="M108.9,90.3c0.1-0.9,0.2-1.8,0.4-2.7c0-0.3,0.1-0.6,0.2-0.9c0.1-0.3,0.2-0.6,0.3-0.9 c0.1-0.3,0.2-0.6,0.4-0.9c0.1-0.3,0.3-0.5,0.5-0.7c0.2-0.2,0.4-0.4,0.7-0.5c0.3-0.1,0.6-0.2,0.9-0.2c0.4,0,0.7,0.1,1.1,0.3 c0.3,0.2,0.6,0.4,0.8,0.7c0.2,0.3,0.5,0.6,0.6,1c0.2,0.4,0.3,0.7,0.4,1c0,0,0,0.1,0,0.1c0,0,0,0.1,0,0.1c0,0.1,0,0.2-0.1,0.2 c0,0.1-0.1,0.1-0.1,0.2c0.2,0.7,0.3,1.5,0.4,2.3c0.1,0.8,0.1,1.6,0.1,2.4c0,0.8,0,1.6-0.1,2.3c-0.1,0.8-0.1,1.5-0.3,2.3 c0,0.3-0.1,0.6-0.2,1c-0.1,0.4-0.1,0.7-0.3,1.1c-0.1,0.4-0.2,0.7-0.4,1c-0.2,0.3-0.3,0.6-0.6,0.9c-0.2,0.3-0.5,0.5-0.8,0.6 c-0.3,0.2-0.6,0.2-1,0.2c-0.4,0-0.8-0.1-1.1-0.3c-0.3-0.2-0.6-0.4-0.8-0.7c-0.2-0.3-0.4-0.7-0.6-1.1 c-0.2-0.4-0.3-0.8-0.4-1.3c-0.1-0.5-0.2-0.9-0.2-1.4c-0.1-0.5-0.1-0.9-0.1-1.4c0-0.4,0-0.9-0.1-1.2c0-0.4,0-0.7,0-1 C108.8,92.1,108.8,91.2,108.9,90.3z M113,86.5c-0.1-0.2-0.2-0.4-0.3-0.6c-0.1-0.2-0.2-0.4-0.3-0.6c-0.1-0.2-0.2-0.3-0.2-0.3 c-0.1,0.1-0.3,0.3-0.3,0.5c-0.1,0.2-0.2,0.4-0.2,0.6c-0.2,0.6-0.4,1.2-0.5,1.8c-0.1,0.6-0.2,1.3-0.3,2 c-0.1,0.7-0.1,1.3-0.2,2c0,0.7,0,1.3,0,1.9c0,0.8,0,1.6,0.1,2.4c0.1,0.8,0.3,1.6,0.5,2.3c0,0.1,0.1,0.2,0.1,0.3 c0.1,0.1,0.1,0.3,0.2,0.4c0.1,0.1,0.2,0.3,0.3,0.4c0.1,0.1,0.2,0.2,0.3,0.2c0.2,0,0.3-0.1,0.4-0.3c0.1-0.2,0.3-0.5,0.4-0.8 c0.1-0.3,0.2-0.7,0.3-1.2c0.1-0.4,0.2-0.9,0.2-1.4c0.1-0.5,0.1-1,0.2-1.4c0-0.5,0.1-0.9,0.1-1.3c0-0.4,0.1-0.8,0.1-1.1 c0-0.3,0-0.5,0-0.7c0-0.4,0-0.8,0-1.2c0-0.4,0-0.8-0.1-1.3c0-0.4-0.1-0.8-0.2-1.2c-0.1-0.4-0.2-0.8-0.4-1.1 C113.1,86.8,113.1,86.6,113,86.5z" class="st35"/><path d="M103.7,99.6c0-0.3,0.1-0.6,0.1-0.8c0.2-2.1,0.4-4.2,0.4-6.3c0.1-2.1,0.2-4.2,0.2-6.3c0-0.1,0-0.2,0-0.4 c0-0.2,0-0.3,0-0.5c0-0.2,0-0.3,0-0.5c0-0.2,0-0.3,0.1-0.3c0.1-0.2,0.3-0.4,0.5-0.5c0.2-0.1,0.5-0.2,0.7-0.2 c0.2,0,0.3,0,0.4,0.1c0,0.1,0.1,0.2,0.1,0.4c0,2.5,0,5-0.1,7.5c-0.1,2.5-0.2,5-0.4,7.5c0,0.1,0,0.3,0,0.4s0,0.3,0,0.4 c0,0.1-0.1,0.2-0.2,0.3c-0.1,0.1-0.2,0.2-0.4,0.3c-0.1,0-0.3,0.1-0.4,0.1c-0.2,0-0.3,0-0.4,0c-0.2,0-0.3,0-0.4-0.1 c-0.1-0.1-0.2-0.2-0.2-0.4C103.7,100.1,103.7,99.8,103.7,99.6z" class="st35"/><path d="M98.5,99.6c0-0.3,0.1-0.6,0.1-0.8c0.2-2.1,0.4-4.2,0.4-6.3c0.1-2.1,0.2-4.2,0.2-6.3c0-0.1,0-0.2,0-0.4 c0-0.2,0-0.3,0-0.5c0-0.2,0-0.3,0-0.5c0-0.2,0-0.3,0.1-0.3c0.1-0.2,0.3-0.4,0.5-0.5c0.2-0.1,0.5-0.2,0.7-0.2 c0.2,0,0.3,0,0.4,0.1c0,0.1,0.1,0.2,0.1,0.4c0,2.5,0,5-0.1,7.5c-0.1,2.5-0.2,5-0.4,7.5c0,0.1,0,0.3,0,0.4s0,0.3,0,0.4 c0,0.1-0.1,0.2-0.2,0.3c-0.1,0.1-0.2,0.2-0.4,0.3c-0.1,0-0.3,0.1-0.4,0.1c-0.2,0-0.3,0-0.4,0c-0.2,0-0.3,0-0.4-0.1 c-0.1-0.1-0.2-0.2-0.2-0.4C98.4,100.1,98.5,99.8,98.5,99.6z" class="st35"/></g><g><path d="M242.8,63.1c1,2.2,2.7,3.9,4.3,5.7c2.3,2.7,2.7,5.6,2.1,9c-0.2,1.3-0.4,2.7,0.3,3.9 c0,1.9,1.9,4,3.7,4.2c2.5,0.3,3.8-1.6,4-3.8c1-1.2,0.8-2.8,0.6-4.3c-0.6-3.4-0.2-6.3,2.1-9c1.5-1.8,3.3-3.5,4.3-5.7 c1.6-3.6,1.5-8.2-1.4-11.1c-2.5-2.5-5.9-4.5-9.5-4.3c-3.4,0.2-6.6,2-8.9,4.3C241.4,54.9,241.2,59.4,242.8,63.1z M251.2,82.9 c0.7,0.2,1.6,0.1,2.3-0.1c0.8,0.2,1.8,0.3,2.7,0c-0.5,1.3-1.5,2.5-3.1,1.9C252,84.3,251.5,83.7,251.2,82.9z M253.1,66.7 c-0.1-0.9,0.1-2.2,0.1-3.5c0.6,0,1.1,0,1.5-0.1c-0.2,1.1-0.4,2.3-0.5,3.5c-0.4,5-0.9,10.1-0.5,15.1c-0.1,0-0.2,0-0.3,0 c-0.2,0-0.4,0-0.6-0.1c-0.1,0-0.2,0-0.2,0c0,0,0,0-0.1,0c0,0,0,0,0.1,0c0.9-0.6,0.6-2.2,0.6-3.1 C253,74.6,253.3,70.7,253.1,66.7z M245.2,52.9c1.1-1.2,2.5-2,4-2.6c4.1-1.7,9.6-0.9,12.6,2.6c2.8,3.1,2.6,7.3,0.6,10.8 c-2,3.4-5.5,5.6-6.2,9.8c-0.3,2,0.2,3.8,0.4,5.8c0.1,0.9,0.1,2-1,2.3c-0.2,0.1-0.5,0.1-0.8,0.2c0.2-3.4,0.1-6.8,0.4-10.2 c0.3-2.8,0.3-5.7,1-8.5c1.8-0.3,3.9-1.1,4.4-2.9c0.6-2.3-2.1-3.7-3.6-2c-0.9,1.1-1.6,2.3-2,3.7c-0.6,0.1-1.3,0.1-1.9,0.1 c0-1.9-0.4-3.7-1.8-4.4c-1.8-1-4.8,0.3-4.5,2.6c0.3,2.3,2.7,3,4.9,3.1c-0.1,1.1-0.2,2.2-0.1,2.9c0.2,3.3-0.2,6.6,0,9.8 c0.1,0.9,0.2,1.7,0.3,2.6c0,0.3,0.2,2.1,0.1,2.1c-0.2,0.2-0.3,0.4-0.2,0.6c0,0.1-0.1,0.2-0.1,0.2c-0.2,0-0.3-0.1-0.5-0.1 c-1.1-0.3-1-1.5-1-2.3c0.1-1.9,0.7-3.8,0.4-5.8c-0.7-4.1-4.2-6.3-6.2-9.8C242.6,60.2,242.4,56,245.2,52.9z M248.5,60.5 c-0.9-1.1,0.8-2.3,1.8-1.9c1.2,0.4,1.5,1.8,1.5,3.3C250.6,61.8,249.3,61.5,248.5,60.5z M258,59.4c0.1-0.1,0.7-0.8,0.9-0.7 c0.5,0.4,0.6,1.1,0.1,1.6c-0.6,0.5-1.4,0.9-2.2,1.1C257.1,60.7,257.5,59.9,258,59.4z" class="st35"/><path d="M267.7,67.6c1.3,0.3,2.6,1.2,3.6,2.2c0.3,0.3-0.1,0.8-0.5,0.6c-1.2-0.7-2.8-1.1-3.5-2.3 C267.3,67.8,267.5,67.5,267.7,67.6z" class="st35"/><path d="M272.7,58.8c0.7-0.2,1.5,0.1,2.2,0.2c1,0.1,1.9,0.1,2.9,0.2c0.6,0,0.6,1,0,1c-1.3,0.1-4.6,0.9-5.3-0.7 C272.4,59.2,272.5,58.9,272.7,58.8z" class="st35"/><path d="M271.5,50.4c0.3-1,1.8-1.6,2.6-2.1c0.6-0.3,1.9-1,2.5-0.4c0.2,0.3,0,0.8-0.4,0.7c0.2,0.1,0.2,0-0.1,0.1 c-0.2,0.1-0.3,0.2-0.4,0.3c-0.4,0.3-0.9,0.6-1.3,0.9c-0.6,0.4-1.5,1.3-2.3,1.2C271.7,51.1,271.4,50.8,271.5,50.4z" class="st35"/><path d="M263.7,39.6c0.1-0.4,0.5-1.3,0.9-1.7c0.1-0.1,0.2-0.1,0.3-0.2c0,0,0.1,0,0.1,0v0c0-0.1,0.2-0.1,0.4,0 c0.2,0.1,0.2,0.3,0.2,0.4c0.1,0.8-0.5,1.8-0.7,2.5c-0.3,1.3-0.5,2.9-1.7,3.6c-0.3,0.1-0.6,0-0.6-0.3 C262.6,42.5,263.3,40.9,263.7,39.6z" class="st35"/><path d="M250.2,38.8c0-1,0.1-2,0.7-2.8c0.3-0.4,1,0,0.8,0.5c-0.3,0.9-0.1,2-0.1,2.9c0.1,0.8,0.3,1.8-0.4,2.3 c-0.1,0.1-0.3,0.1-0.5,0C250,41.3,250.2,39.7,250.2,38.8z" class="st35"/><path d="M235.7,41.5c0.8-0.7,1.9,0.3,2.5,0.8c0.9,0.7,1.7,1.6,2.4,2.5c0.4,0.5-0.5,1.2-0.9,0.7 c-0.8-0.9-1.7-1.6-2.6-2.2C236.7,43,235,42.1,235.7,41.5z" class="st35"/><path d="M230.2,55.3c1.2-1.9,4.3-0.5,6-0.7c0.5-0.1,0.6,0.8,0.1,0.9c-0.9,0.3-1.9,0.3-2.8,0.3 c-0.9,0-2,0.2-2.9,0.1C230.3,56,230,55.7,230.2,55.3z" class="st35"/><path d="M235.9,69.5c0.3-0.6,1.2-1,1.7-1.4c0.7-0.5,1.4-0.7,2.2-0.7c0.6,0,0.7,0.8,0.1,1 c-0.7,0.2-1.2,0.7-1.8,1.1c-0.5,0.4-1.1,1-1.8,0.9C236,70.3,235.7,69.9,235.9,69.5z" class="st35"/></g></g><g><g><path d="M220.2,101.1h50.6c3.3,0,6.2,3.1,6.2,6.4v39c0,3.3-2.9,5.6-6.2,5.6h-14.7l3.5,10.4l-12.9-10.4h-26.5 c-3.3,0-6.2-2.3-6.2-5.6v-39C214,104.1,216.9,101.1,220.2,101.1z" class="st36"/><path d="M231.3,129.1c0.3,1,0.7,2,1.2,2.9l-3.5,3.4l5.6,5.6l3.4-3.3c0.9,0.5,2,1,3,1.3v5.2h7v-5 c1-0.3,2.6-0.7,3.5-1.2l3.8,3.3l5.6-5.6l-3.2-3.3c0.6-1,1-2.2,1.4-3.2h4v-7h-3.9c-0.3-1-0.8-2.5-1.3-3.5l3.2-3.6l-5.7-5.6 l-3.6,3.3c-1-0.5-1.7-1-3.7-1.3v-4.3h-7v4.2c-1,0.3-1.9,0.7-2.8,1.2l-3.2-3.4l-5.6,5.6l3.4,3.4c-0.5,0.9-1,2-1.3,3H227v8 H231.3z M245.2,134.4c-5.1,0-9.3-4.2-9.3-9.3c0-5.1,4.2-9.3,9.3-9.3c5.1,0,9.3,4.2,9.3,9.3 C254.5,130.3,250.3,134.4,245.2,134.4z" class="st0"/></g><g><path d="M438.2,114.1h-50.6c-3.3,0-6.7,2.2-6.7,5.5v39c0,3.3,3.4,5.5,6.7,5.5h14.7l-3.5,10.4l12.9-10.4h26.5 c3.3,0,5.7-2.2,5.7-5.5v-39C444,116.2,441.5,114.1,438.2,114.1z" class="st37"/><g><g><path d="M393.4,145.1h-2.9v-12.6h2.9v5h4.1v-5h2.9v12.6h-2.9v-5h-4.1V145.1z" class="st0"/><path d="M401,132.6h8.8v2.5h-3v10.1H404v-10.1h-3V132.6z" class="st0"/><path d="M421.1,137.7L421.1,137.7l-2.7,7.4h-1.7l-2.6-7.4h-0.1l-0.6,7.4h-2.9l1.1-12.6h3l2.8,7.3l2.8-7.3h3 l1.1,12.6h-2.9L421.1,137.7z" class="st0"/><path d="M428.9,142.6h4.3v2.5h-7.2v-12.6h2.9V142.6z" class="st0"/></g></g></g><g><path d="M366,67.1h-50.6c-3.3,0-6.5,2.9-6.5,6.2v39c0,3.3,3.2,4.8,6.5,4.8h14.7l-3.5,10.4l12.9-10.4H366 c3.3,0,5.9-1.5,5.9-4.8v-39C372,70,369.3,67.1,366,67.1z" class="st38"/><g><g><path d="M333.1,96.7l1.6,3.2c0,0-1.9,1.5-5.5,1.5c-4.7,0-9.1-3.9-9.1-8.6c0-4.8,4.3-8.7,9.1-8.7 c3.6,0,5.5,1.5,5.5,1.5l-1.6,3.2c0,0-1.3-1-3.3-1c-3.8,0-5.5,2.7-5.5,4.9c0,2.3,1.7,4.9,5.5,4.9 C331.8,97.7,333.1,96.7,333.1,96.7z" class="st0"/><path d="M348.1,85.7l-1.5,3c0,0-1.7-1.2-3.4-1.2c-1.3,0-2,0.6-2,1.5c0,0.9,1.6,1.6,3.5,2.4 c1.9,0.8,3.9,2.4,3.9,4.6c0,4-3,5.4-6.3,5.4c-3.9,0-6.3-2.2-6.3-2.2l1.9-3.2c0,0,2.2,1.9,4.1,1.9c0.8,0,2.4-0.1,2.4-1.6 c0-1.2-1.8-1.8-3.8-2.8c-2-1-3.2-2.6-3.2-4.3c0-3.1,2.8-5.1,5.5-5.1C345.9,84.1,348.1,85.7,348.1,85.7z" class="st0"/><path d="M361.8,85.7l-1.5,3c0,0-1.7-1.2-3.4-1.2c-1.3,0-2,0.6-2,1.5c0,0.9,1.6,1.6,3.5,2.4 c1.9,0.8,3.9,2.4,3.9,4.6c0,4-3,5.4-6.3,5.4c-3.9,0-6.3-2.2-6.3-2.2l1.9-3.2c0,0,2.2,1.9,4.1,1.9c0.8,0,2.4-0.1,2.4-1.6 c0-1.2-1.8-1.8-3.8-2.8c-2-1-3.2-2.6-3.2-4.3c0-3.1,2.8-5.1,5.5-5.1C359.6,84.1,361.8,85.7,361.8,85.7z" class="st0"/></g></g></g><g><path d="M425.2,184.1h-50.6c-3.3,0-6.7,2.2-6.7,5.5v39c0,3.3,3.4,5.5,6.7,5.5h14.7l-3.5,10.4l12.9-10.4h26.5 c3.3,0,6.7-2.2,6.7-5.5v-39C432,186.2,428.5,184.1,425.2,184.1z" class="st39"/><g><g><path d="M392.5,213.1l1.6,3.2c0,0-1.9,1.5-5.5,1.5c-4.7,0-9.1-3.9-9.1-8.6c0-4.8,4.3-8.7,9.1-8.7 c3.6,0,5.5,1.5,5.5,1.5l-1.6,3.2c0,0-1.3-1-3.3-1c-3.8,0-5.5,2.7-5.5,4.9c0,2.3,1.7,4.9,5.5,4.9 C391.2,214.1,392.5,213.1,392.5,213.1z" class="st0"/><path d="M399.8,214.4v-3.7h-3.7v-3.1h3.7V204h3.1v3.7h3.7v3.1h-3.7v3.7H399.8z" class="st0"/><path d="M413.1,214.4v-3.7h-3.7v-3.1h3.7V204h3.1v3.7h3.7v3.1h-3.7v3.7H413.1z" class="st0"/></g></g></g><g><path d="M440.4,343.1h-50.6c-3.3,0-6.9-3.1-6.9-6.4v-39c0-3.3,3.6-6.5,6.9-6.5h14.7l-3.5-10.4l12.9,10.4h26.5 c3.3,0,5.6,3.2,5.6,6.5v39C446,339.9,443.7,343.1,440.4,343.1z" class="st40"/><g><g><path d="M412.3,321.8c0,4-2.3,6.1-6.3,6.1c-2.9,0-4.7-1.9-4.7-1.9l1.5-3.8c0,0,1.4,1.4,2.6,1.4 c1.3,0,2.3-0.8,2.3-2.8v-13.3h4.6V321.8z" class="st0"/><path d="M428.9,308.9l-1.9,3.7c0,0-2-1.4-4.1-1.4c-1.6,0-2.4,0.7-2.4,1.8c0,1.1,1.9,1.9,4.2,2.9 c2.3,1,4.7,2.9,4.7,5.5c0,4.8-3.7,6.5-7.6,6.5c-4.7,0-7.6-2.7-7.6-2.7l2.3-3.9c0,0,2.7,2.3,4.9,2.3c1,0,2.9-0.1,2.9-2 c0-1.5-2.2-2.1-4.6-3.3c-2.4-1.2-3.8-3.1-3.8-5.2c0-3.8,3.3-6.2,6.6-6.2C426.3,307,428.9,308.9,428.9,308.9z" class="st0"/></g></g></g></g></g></g></g></g></switch></svg>