<svg xmlns="http://www.w3.org/2000/svg" xmlns:xlink="http://www.w3.org/1999/xlink" id="OBJECTS" viewBox="0 0 415.41 424.15"><defs><style>.cls-1{fill:none}.cls-2{fill:#e1e1e1}.cls-3{fill:#5e5e5e}.cls-4{fill:#d0d7e9}.cls-5{fill:#1a2b36}.cls-6{fill:#b5cad9}.cls-7{fill:#4d6f80}.cls-8{fill:#64a1a3}.cls-9{fill:#7ac7c7}.cls-10{fill:#e6b48f}.cls-11{fill:#dfe3eb}.cls-12{fill:#394a5c}.cls-13{fill:#496076}.cls-14{fill:#f0f5ff}.cls-15{fill:#de9e85}.cls-16{fill:#fff}.cls-17{fill:#713e3d}.cls-18{clip-path:url(#clip-path)}.cls-19{fill:#745345}.cls-20{fill:#390a0a}.cls-21{clip-path:url(#clip-path-2)}.cls-22{fill:#c78e78}.cls-23{fill:#558570}.cls-24{fill:#76b375}.cls-25{fill:#98733f}.cls-26{fill:#cc9252}.cls-27{fill:#b4f7e0}.cls-28{fill:#444}.cls-29{fill:#c4a577}.cls-30{fill:#e4c188}.cls-31{fill:#a0d9d5}.cls-32{fill:#e6effd}.cls-33{fill:#c4d5dc}.cls-34{fill:#deebf0}.cls-35{fill:#b6d1dc}.cls-36{fill:#cfe7f0}.cls-37{fill:#b7d1e6}.cls-38{fill:#6daecd}.cls-39{fill:#f1cc4e}.cls-40{fill:#cdcc4a}.cls-41{fill:#aaf5da}.cls-42{fill:#d1d4fc}</style><clipPath id="clip-path" transform="translate(-33.95 -35.86)"><ellipse cx="322.36" cy="194.8" class="cls-1" rx="4.34" ry="6.77"/></clipPath><clipPath id="clip-path-2" transform="translate(-33.95 -35.86)"><ellipse cx="304.2" cy="194.8" class="cls-1" rx="4.34" ry="6.77"/></clipPath></defs><title>mwl</title><ellipse cx="187.32" cy="417.53" class="cls-2" rx="157.4" ry="6.62"/><path d="M195.9,433.15c-1.13-.16-30.26-20.27-23.46-19.62.74.08,1.55.17,2.4.29,6.91,1,16.54,3.45,16.54,3.45l6-4.28,5.49-3.91.93-.68,6.31,6.32s-2.48,3.5-5.32,7.38c-1,1.43-2.18,3-3.24,4.37s-2.22,2.91-3.13,4C197.16,432.12,196.17,433.19,195.9,433.15Z" class="cls-3" transform="translate(-33.95 -35.86)"/><path d="M201.56,426.51c-4.5-2.51-10.18-9.24-10.18-9.24l6-4.28,5.42-3.84c3,2.34,6.5,5.12,7.17,5.71,0,0-2.41,3.43-5.24,7.31C203.72,423.61,202.62,425.1,201.56,426.51Z" class="cls-4" transform="translate(-33.95 -35.86)"/><path d="M200.22,414.85c.95-1.33-.52-1.79-1.6-1.68a8.52,8.52,0,0,0-2.67.78,14.48,14.48,0,0,0-3.08,2.39,20,20,0,0,0,3-5.12c.5-1.45.21-2.66-1.54-2.16-2.77.8-5.18,5.61-3.59,8.25a10.39,10.39,0,0,0-2.64-1.94.44.44,0,0,0-.55.42,12,12,0,0,0,.24,2.29c-1.29-1.24-2-2.78-4.21-2.26a.41.41,0,0,0-.27.23c-.61-.23-1.16-.6-1.78-.82-.26-.09-.45.27-.26.46a5,5,0,0,0,2.86,1.42.4.4,0,0,0,.4-.5c1.58.13,2.25,2,3.53,2.85.29.2.64-.08.66-.39a15.2,15.2,0,0,0-.27-2.49c.93.74,2,2.17,3.05,1.64a.21.21,0,0,0,.1-.24,3.22,3.22,0,0,0,2.17.59A9.13,9.13,0,0,0,200.22,414.85Zm-6.78-4.54c.62-.58,2.27-1.39,2,.1a5.91,5.91,0,0,1-.77,1.82,43.73,43.73,0,0,1-3.3,5C189.9,415,191.7,411.91,193.44,410.31Zm3.11,6.75c-.28.15-3.77,1.37-4.36.53a18.23,18.23,0,0,0,2.88-2.25,6.72,6.72,0,0,1,4.09-1.54c1.33,0,.07,1.22-.3,1.62A8.88,8.88,0,0,1,196.55,417.06Z" class="cls-5" transform="translate(-33.95 -35.86)"/><rect width="7" height="14" x="269" y="346.2" class="cls-6"/><path d="M268,373c0,4.46,4.72,12,9.6,12h56.18c4.88,0,6.21-7.55,6.21-12v-.33c0-4.46-1.33-7.65-6.21-7.65H277.56c-4.89,0-9.6,3.19-9.6,7.65Z" class="cls-7" transform="translate(-33.95 -35.86)"/><path d="M307.14,419.76c-1.81-1.07-4.17-.67-6.17-.51-2.54.19-5.07.4-7.61.34-4.71-.1-9.64.08-14,2.06-3.57,1.63-8.4,4.86-9.75,8.76-1,3-1,7.82,1.36,10.27.41.43,1,0,.92-.54-.21-1.17.36-2.84.46-4.05.18-2.17-.31-3.85,1.18-5.75a19.47,19.47,0,0,1,10.54-6.63c3.77-.93,7.7-.67,11.54-.91a48.05,48.05,0,0,0,5.72-.84c1.91-.35,4.14-.44,5.8-1.48A.43.43,0,0,0,307.14,419.76Z" class="cls-6" transform="translate(-33.95 -35.86)"/><path d="M310.35,419.76c1.81-1.07,4.17-.67,6.17-.51,2.54.19,5.07.4,7.61.34,4.71-.1,9.63.08,14,2.06,3.57,1.63,8.4,4.86,9.75,8.76,1,3,1,7.82-1.36,10.27a.56.56,0,0,1-.92-.54c.22-1.17-.36-2.84-.46-4.05-.18-2.17.31-3.85-1.19-5.75a19.46,19.46,0,0,0-10.53-6.63c-3.77-.93-7.71-.67-11.55-.91a48.24,48.24,0,0,1-5.72-.84c-1.9-.35-4.14-.44-5.8-1.48A.43.43,0,0,1,310.35,419.76Z" class="cls-6" transform="translate(-33.95 -35.86)"/><path d="M328.57,432.47a10.13,10.13,0,0,0-3.88-6.74A15.89,15.89,0,0,0,317,422.9a36.08,36.08,0,0,1-4.07-.71,38.39,38.39,0,0,0-4-1.23.89.89,0,0,0-1,1.3c2.27,4.13,8.63,3.35,12.51,4.6a8.36,8.36,0,0,1,5.52,6,18,18,0,0,1,0,4.37c0,1.18-.34,2.27.2,3.34a.5.5,0,0,0,.86,0C328.58,438.4,328.82,435,328.57,432.47Z" class="cls-6" transform="translate(-33.95 -35.86)"/><path d="M291,432.47a10.13,10.13,0,0,1,3.88-6.74,15.9,15.9,0,0,1,7.74-2.83,36,36,0,0,0,4.07-.71,38.42,38.42,0,0,1,4-1.23.89.89,0,0,1,1,1.3c-2.27,4.13-8.63,3.35-12.51,4.6a8.36,8.36,0,0,0-5.52,6,18,18,0,0,0,0,4.37c0,1.18.35,2.27-.2,3.34a.5.5,0,0,1-.85,0C291,438.4,290.75,435,291,432.47Z" class="cls-6" transform="translate(-33.95 -35.86)"/><path d="M319.16,444a6,6,0,0,0,.06.84,7.44,7.44,0,0,0,14.54,0,6.71,6.71,0,0,0,.06-.84c0-3.7-3.28-6.7-7.33-6.7S319.16,440.27,319.16,444Z" class="cls-3" transform="translate(-33.95 -35.86)"/><path d="M339.75,444a6.28,6.28,0,0,0,.06.84,7.45,7.45,0,0,0,14.55,0,7.33,7.33,0,0,0,.05-.84c0-3.7-3.28-6.7-7.33-6.7S339.75,440.27,339.75,444Z" class="cls-3" transform="translate(-33.95 -35.86)"/><path d="M283.76,444a6.28,6.28,0,0,0,.06.84,7.44,7.44,0,0,0,14.54,0,6.2,6.2,0,0,0,.05-.84c0-3.7-3.28-6.7-7.32-6.7S283.76,440.27,283.76,444Z" class="cls-3" transform="translate(-33.95 -35.86)"/><path d="M279.43,444a5.89,5.89,0,0,1-.06.84,7.44,7.44,0,0,1-14.54,0,7,7,0,0,1-.05-.84c0-3.7,3.28-6.7,7.33-6.7S279.43,440.27,279.43,444Z" class="cls-3" transform="translate(-33.95 -35.86)"/><rect width="14" height="32" x="266" y="360.2" class="cls-7"/><path d="M244.23,364c.34,4.74,4.92,8.33,10.24,8,1.55-.09,59.44,1.13,61.83.93,10.39-.86-4.86-5.1,0-10.59,8.22,0,9.89-.07,11.73-.8,2.8-1.12,27-6.65,28.77-13S365.57,262,365.57,262c-2.9-4.85-33.79-1.77-48.27,0a14,14,0,0,0-12.15,13.24c0,1.85-.22,3.72-.33,5.57-.58,9.38-1.09,18.76-1.67,28.14-.32,5.12-.56,10.24-.81,15.36q-.21,4.18-.46,8.35c-.19,3.05.14,6.69-.66,9.65-2.38,8.89-20.08,9.78-27.63,9.87-12.11.14-9.36.57-15.24,1.27-5.18.62-8.9,1.5-11.49,4A8.3,8.3,0,0,0,244.23,364Z" class="cls-8" transform="translate(-33.95 -35.86)"/><path d="M336.7,372.45a151,151,0,0,1-24.37.55c-4,.21-6.6-2.15-7-7a9.79,9.79,0,0,1,1.81-6.62c1.89-2.49,4.67-3.31,8.55-3.83a153.82,153.82,0,0,1,20.39-.7,47,47,0,0,0,8.94-.76,19.5,19.5,0,0,0,8.88-4.33c3.41-2.71,3-8.5,2.89-13,0-2.77,0-5.52.05-8.29.32-13,.33-26,.48-39.06q.12-10.91.25-21.82c.06-4.85,3.36-8.52,7.38-8.2s7.23,4.51,7.16,9.37l-1,79c0,.3,0,.59,0,.88A25.26,25.26,0,0,1,365,362.08c-5.21,6-12.82,9.37-22.67,10.18C340.53,372.41,338.64,372.25,336.7,372.45Z" class="cls-9" transform="translate(-33.95 -35.86)"/><path d="M320.82,397.3a1.16,1.16,0,0,0,.73-.25,1,1,0,0,0,.13-1.45l-11.1-11.91a1.2,1.2,0,0,0-1.59-.11,1,1,0,0,0-.12,1.45L320,396.94A1.19,1.19,0,0,0,320.82,397.3Z" class="cls-7" transform="translate(-33.95 -35.86)"/><circle cx="288.75" cy="361.85" r="5.08" class="cls-7"/><path d="M221,307.47c3.85-10.07,19.65-9.57,25.51-2.27l7.25,4.83c-5.42,4.36-18,2-24.79,3C224.28,313.74,218.08,315.16,221,307.47Z" class="cls-10" transform="translate(-33.95 -35.86)"/><path d="M303.45,260.37s3.41,60.09-62.36,50.48l-2.7-12.38s30-8.19,35.64-17.94c0,0,4.43-16.24,9.33-26.67C290.13,239.47,298.49,232.38,303.45,260.37Z" class="cls-11" transform="translate(-33.95 -35.86)"/><path d="M337.19,327.14s5.18,28.17-11.47,29.49S265.19,366.4,261.36,372s-55.23,54.42-55.23,54.42l-12.67-14s42.09-54,58-65.62c21.75-15.84,54.27-21.63,54.27-21.63Z" class="cls-12" transform="translate(-33.95 -35.86)"/><path d="M222.24,446.18c-1.14,0-32.79-15.86-26-16.15.75,0,1.56,0,2.42,0,7,0,16.86,1.11,16.86,1.11l5.38-5.08,4.89-4.64.83-.81,7.13,5.38s-2,3.81-4.23,8.05c-.83,1.57-1.75,3.24-2.6,4.78s-1.79,3.19-2.54,4.43C223.35,445,222.52,446.18,222.24,446.18Z" class="cls-3" transform="translate(-33.95 -35.86)"/><path d="M226.92,438.82c-4.81-1.86-11.37-7.72-11.37-7.72l5.38-5.08,4.83-4.56c3.28,1.91,7.15,4.17,7.89,4.65,0,0-1.91,3.73-4.17,8C228.66,435.64,227.78,437.27,226.92,438.82Z" class="cls-4" transform="translate(-33.95 -35.86)"/><path d="M224,427.46c.75-1.45-.77-1.69-1.82-1.44a8.47,8.47,0,0,0-2.54,1.14A14.48,14.48,0,0,0,216.9,430a20.09,20.09,0,0,0,2.25-5.49c.29-1.51-.16-2.67-1.83-1.92-2.63,1.18-4.35,6.27-2.4,8.67a10.26,10.26,0,0,0-2.89-1.56.45.45,0,0,0-.49.5,12.14,12.14,0,0,0,.56,2.24c-1.45-1.05-2.34-2.48-4.49-1.65a.39.39,0,0,0-.24.26c-.63-.15-1.24-.44-1.88-.57-.27-.06-.41.33-.2.49a5,5,0,0,0,3,1,.4.4,0,0,0,.33-.55c1.59-.09,2.5,1.62,3.9,2.33.31.16.62-.17.6-.47a15.22,15.22,0,0,0-.62-2.43c1,.6,2.25,1.88,3.25,1.2a.2.2,0,0,0,.06-.25,3.23,3.23,0,0,0,2.23.28A9.14,9.14,0,0,0,224,427.46Zm-7.34-3.55c.54-.66,2.05-1.7,2-.18a5.93,5.93,0,0,1-.51,1.92,44,44,0,0,1-2.57,5.44C213.78,429.06,215.13,425.74,216.63,423.91Zm4,6.25c-.26.19-3.55,1.88-4.25,1.13a18.37,18.37,0,0,0,2.54-2.63,6.71,6.71,0,0,1,3.83-2.1c1.31-.23.24,1.2-.08,1.64A8.9,8.9,0,0,1,220.65,430.16Z" class="cls-5" transform="translate(-33.95 -35.86)"/><path d="M347.38,321.5s9.06,27.18-7.25,30.8-58.58,18.12-61.6,24.16-47.1,61.59-47.1,61.59L216.94,426s34.15-59.35,48.31-73.07c19.32-18.72,50.73-29,50.73-29Z" class="cls-13" transform="translate(-33.95 -35.86)"/><path d="M345.56,315.47s-32.61,4.83-41.67,3l.6,6.64s31.4,4.23,42.88-3.62Z" class="cls-3" transform="translate(-33.95 -35.86)"/><path d="M345.56,315.47c2.35-.56,14.75-71.82,7.85-77.9-10.27-9.06-62.2-9.66-65.22,12.07-3,21.53,15.7,68.85,15.7,68.85S320.2,321.51,345.56,315.47Z" class="cls-14" transform="translate(-33.95 -35.86)"/><path d="M239.13,311.09c3.85-10.07,19.66-9.57,25.51-2.27l7.25,4.83c-5.42,4.36-18,2-24.79,3C242.39,317.36,236.19,318.78,239.13,311.09Z" class="cls-10" transform="translate(-33.95 -35.86)"/><path d="M345.1,236.55c-13.28.36-14,17.92-23.69,30.61-18.08,23.73-29.92,29.58-38.65,32a157.39,157.39,0,0,1-22.34,4.23l1.81,16.3s42.88,1.21,63.41-16.3c9.5-8.1,17-18.88,22.67-29.92,4.53-8.82,9.62-21.08,6.44-31.19a6.91,6.91,0,0,0-4.54-5A15.3,15.3,0,0,0,345.1,236.55Z" class="cls-14" transform="translate(-33.95 -35.86)"/><path d="M328.6,214.62c.46,1.81,3.68,20.53,3.68,20.53s-17.46,13.89-22.51,9.66a60,60,0,0,1-.92-13.29c.46-6,.92-13.89.92-13.89Z" class="cls-15" transform="translate(-33.95 -35.86)"/><polygon points="281.48 282.79 279.68 292.37 271.53 291.69 271.3 282.18 281.48 282.79" class="cls-16"/><polygon points="278.55 284.67 278.35 290.47 273.34 289.88 273.11 284.44 278.55 284.67" class="cls-3"/><path d="M296.19,163.14c3.06-2.12-.19-7.31,2.37-11.42,6.62-10.63,16.8,4.31,23.9,1.36,5-2.06,6-4.84,12.13-3,4.66,1.44,8.9,5.27,9.63,10.33.57,3.94-2.82,7.91-2.31,11.31.58,3.92,5.46,3.9,7.17,7.7,3.85,8.57-3.6,24.92-13.94,24.46l-20.38-16.76c-8-4.56-14.22-2.48-22.19-4.52-5.16-1.32-7-6.39-6.79-11.36C286.14,162.31,291.31,166.52,296.19,163.14Z" class="cls-17" transform="translate(-33.95 -35.86)"/><path d="M300.67,171.58A13.56,13.56,0,0,1,304,172c5.72,1.38,11.34,3.31,17,4.84,3.35.9,11,2.69,11.42,7.22.29,2.92,0,5.83.23,8.74a33,33,0,0,0,5.1,14.75c-.9,2-1.87,4-3,5.86a34.74,34.74,0,0,1-3.93,5.87,29.94,29.94,0,0,1-11,7.9c-5,2.07-11.26,2.45-15.73-1-4.1-3.13-6.2-9.6-7.63-14.54-1.36-4.7-.29-10.29.1-15.19C297.25,188.79,295.93,178.37,300.67,171.58Z" class="cls-10" transform="translate(-33.95 -35.86)"/><ellipse cx="288.4" cy="158.95" class="cls-16" rx="4.34" ry="6.77"/><g class="cls-18"><ellipse cx="320.76" cy="196.32" class="cls-19" rx="3.3" ry="5.04" transform="translate(-61.15 17.79) rotate(-9.17)"/><ellipse cx="320.84" cy="196.37" class="cls-20" rx="2.51" ry="3.94" transform="translate(-61.14 17.77) rotate(-9.17)"/><ellipse cx="321.76" cy="192.51" class="cls-16" rx="1.71" ry=".84" transform="translate(-60.51 17.86) rotate(-9.17)"/></g><ellipse cx="270.25" cy="158.95" class="cls-16" rx="4.34" ry="6.77"/><g class="cls-21"><ellipse cx="302.61" cy="196.32" class="cls-19" rx="3.3" ry="5.04" transform="translate(-61.38 14.9) rotate(-9.17)"/><ellipse cx="302.69" cy="196.37" class="cls-20" rx="2.51" ry="3.94" transform="translate(-61.37 14.88) rotate(-9.17)"/><ellipse cx="303.61" cy="192.51" class="cls-16" rx="1.71" ry=".84" transform="translate(-60.75 14.98) rotate(-9.17)"/></g><path d="M336.1,197.08s9.8-9.28,9.77,1.08-7.93,13-12,10.88S336.1,197.08,336.1,197.08Z" class="cls-10" transform="translate(-33.95 -35.86)"/><path d="M336.37,199.13s6.58-5.76,7.34-2.45a12.58,12.58,0,0,1-.74,6.83s.24-4.25-3.37-2.82c0,0,1,7.21-4.27,3.71C335.34,204.4,333.52,201.77,336.37,199.13Z" class="cls-15" transform="translate(-33.95 -35.86)"/><path d="M309.11,201.12c.59-2.88,1.62-7.37,3.34-6.74,1.88.69.82,7.87.53,9.27-.37,1.75-3.08,7.57-5.74,6.4C304.93,209,307.64,203.92,309.11,201.12Z" class="cls-22" transform="translate(-33.95 -35.86)"/><path d="M327.08,183.57a6.48,6.48,0,0,1,1,5.49c-1.91-4.73-7.91-2.67-11.43-4.1C315.71,178,325.17,180.71,327.08,183.57Z" class="cls-17" transform="translate(-33.95 -35.86)"/><path d="M300.65,180.93a8.49,8.49,0,0,0-2.08,5.14c2.57-4.22,6.34-1.1,9.22-1.82C310.22,177.63,302.75,178.51,300.65,180.93Z" class="cls-17" transform="translate(-33.95 -35.86)"/><path d="M293.45,293.25A115.62,115.62,0,0,0,305,285a103.86,103.86,0,0,0,10.3-10,83.65,83.65,0,0,0,7.71-10.54,27.23,27.23,0,0,0,1-4.79,12.24,12.24,0,0,0-.06-3.37c-.14-.92-.62-1.72-.72-2.64a.33.33,0,0,1,.5-.29c1.82,1.24,1.6,4.39,1.41,6.3a15.38,15.38,0,0,1-.25,1.6c1.89-3.54,3.21-7.35,5.12-10.89.11-.21.41-.06.37.15-1.72,9.27-7.35,18-13.38,25.1-6.19,7.27-14.4,14.51-23.18,18.44A.44.44,0,0,1,293.45,293.25Z" class="cls-11" transform="translate(-33.95 -35.86)"/><path d="M315.92,309.67c6.83-4.85,13.29-9.59,18.74-16A96,96,0,0,0,342,284c2.24-3.42,3.71-7.31,5.94-10.7.13-.2.53-.15.5.14-.34,3.4-2.16,6.8-4,9.76,1.26-.8,2.7-1.39,4-2.12.41-.23,1,.25.68.67-1.49,2.28-4.75,2.17-6.38,4.3a.47.47,0,0,1-.21.15,92.42,92.42,0,0,1-6.22,8.06,59.57,59.57,0,0,1-9.06,8.8c-3.47,2.68-7.26,4.9-10.89,7.35C315.89,310.77,315.46,310,315.92,309.67Z" class="cls-11" transform="translate(-33.95 -35.86)"/><path d="M294.09,218.74c.33,3.26.51,5.63,1.89,8.63,4.48,9.75,16.63,6.37,24,3.63,4.9-1.82,9.48-5.29,11.78-10.24a30.8,30.8,0,0,0,2.56-12.6c.06-3.43-.45-7.15,0-10.63a18.61,18.61,0,0,0,2.47-8.75c0-.62-1-.78-1.07-.15a24.81,24.81,0,0,1-4.88,11.51c-2.65,3.21-5.78,4.82-9.28,6.81a29.8,29.8,0,0,1-6.4,3.16,14.59,14.59,0,0,1-4.24.26c-1.4,0-3,0-4,1-.87-1.24-2.17-1.32-4-1.4-1.39-.07-3.21-.18-4.16-1.39A49.43,49.43,0,0,1,296,203a34.52,34.52,0,0,0-1.83,7.68A36.85,36.85,0,0,0,294.09,218.74Z" class="cls-17" transform="translate(-33.95 -35.86)"/><path d="M317.27,212.07s-10.51,3.82-16.73.48C300.54,212.55,306.76,233.58,317.27,212.07Z" class="cls-16" transform="translate(-33.95 -35.86)"/><path d="M87,272c3.49-2.38,7.63-10.82,1.07-12.58-2.64-.71-5,0-7.4.81a19.75,19.75,0,0,1-2.38.64c-2.67.55-1.35-3.45-1.21-4a33.25,33.25,0,0,0,1.25-5.55c.42-4.86-2.81-9.29-9.77-8.54a11.58,11.58,0,0,0-7.71,4.3,6.64,6.64,0,0,0-1.26,3.9c-.13,2.14,2.31,5.77-1.18,6.86-5.92,1.86-6,6.23-1,9.1,2.11,1.2,4.41,2.19,5.94,3.87,2,2.21-1.18,4.78-2.28,6.7a4.76,4.76,0,0,0,.73,6c2.58,2.87,8,3.73,12.24,3.14a.64.64,0,0,0,.47-.25c3.8,2.36,10.43,0,10.87-4,.24-2.19-.53-3.72-3.29-4.6C77.44,276.28,85.38,273.09,87,272Z" class="cls-23" transform="translate(-33.95 -35.86)"/><path d="M80.12,280.52c-.85.92-3,.66-4.13,1.4a3.41,3.41,0,0,0-.28.23,11.62,11.62,0,0,0-.41-3.56.43.43,0,0,0,0-.19c-.74-2.16-1-4.3.21-6.4.81-1.38,3-2.34,4.48-3.32,2.13-1.46,2.93-3.2,2.24-5.31-.23-.71-1.66-.41-1.43.3,1.23,3.79-4.38,5.09-6.57,7.76a5.08,5.08,0,0,0-1.09,3.08c-2.11-2.72-4.8-4.72-5.26-8.34A28.13,28.13,0,0,1,69,254.44c.73-2.37,1.65-4.79-.21-7-.52-.61-1.8,0-1.28.57,2.25,2.66-.26,6.57-.75,9.46a32.49,32.49,0,0,0-.35,8.36,7.79,7.79,0,0,0-1.17-.94c-2.16-1.41-4.65-2-5.77-4.16-.34-.67-1.78-.38-1.43.3a8.07,8.07,0,0,0,3.77,3.48,20.69,20.69,0,0,1,3.28,1.82,6.31,6.31,0,0,1,1.86,3,.52.52,0,0,0,.26.28c.91,1.87,2.7,3.52,4.17,5.09A10,10,0,0,1,74.19,282a7,7,0,0,0-2.31-2c-1.87-1-5.08-.79-5.22-3,0-.72-1.53-.73-1.48,0,.1,1.51.94,2.37,2.78,2.91a12.18,12.18,0,0,1,3.45,1.2,5.66,5.66,0,0,1,2.45,3.55.48.48,0,0,0,.09.19c0,.26-.07.52-.12.79-.12.72,1.36.71,1.48,0,0-.14,0-.27.06-.41a.49.49,0,0,0,.41-.37A2.74,2.74,0,0,1,78,282.39c1.35-.37,2.46-.34,3.35-1.31C81.95,280.49,80.66,279.93,80.12,280.52Z" class="cls-24" transform="translate(-33.95 -35.86)"/><polygon points="27.92 276.5 24.93 248.71 54.89 248.71 53.58 276.5 27.92 276.5" class="cls-25"/><polygon points="62.55 254.86 59.55 245.78 21.2 244.41 17.61 255.31 62.55 254.86" class="cls-26"/><polygon points="164.01 200.94 185.04 267.71 86.18 267.71 65.14 200.94 164.01 200.94" class="cls-3"/><ellipse cx="152.46" cy="268.35" class="cls-27" rx="5.83" ry="8.43" transform="translate(-104.75 19.4) rotate(-16.73)"/><path d="M119.36,303.91c0,4.78,3.44,8.14,7.68,8.14H234.86c4.24,0,7.68-3.37,7.68-8.14,0-.12,0,.14,0,.14H119.38S119.36,303.79,119.36,303.91Z" class="cls-3" transform="translate(-33.95 -35.86)"/><rect width="68" height="4" x="101" y="268.2" class="cls-28"/><polygon points="253.1 418.1 228.29 283.92 247.75 283.92 260.41 418.1 253.1 418.1" class="cls-29"/><polygon points="67.06 418.1 91.87 283.92 72.41 283.92 59.75 418.1 67.06 418.1" class="cls-29"/><rect width="301" height="10" y="276.2" class="cls-30"/><path d="M85,209.75a5.36,5.36,0,0,0,5.34,5.3h140.2a5.47,5.47,0,0,0,5.46-5.3V182.09a5.24,5.24,0,0,0-5.46-5H90.29a5.13,5.13,0,0,0-5.34,5Z" class="cls-31" transform="translate(-33.95 -35.86)"/><path d="M85,182.35v27.93c0,2.91,2.65,4.77,5.56,4.77H195v-38H90.51A5.55,5.55,0,0,0,85,182.35Z" class="cls-32" transform="translate(-33.95 -35.86)"/><path d="M93,183.56a1.5,1.5,0,0,0,1.5,1.5h90a1.5,1.5,0,0,0,1.5-1.5h0a1.5,1.5,0,0,0-1.5-1.5h-90a1.5,1.5,0,0,0-1.5,1.5Z" class="cls-16" transform="translate(-33.95 -35.86)"/><path d="M93,191.56a1.5,1.5,0,0,0,1.5,1.5h90a1.5,1.5,0,0,0,1.5-1.5h0a1.5,1.5,0,0,0-1.5-1.5h-90a1.5,1.5,0,0,0-1.5,1.5Z" class="cls-16" transform="translate(-33.95 -35.86)"/><path d="M93,207.56a1.52,1.52,0,0,0,1.55,1.5h89.9a1.52,1.52,0,0,0,1.55-1.5h0a1.52,1.52,0,0,0-1.55-1.5H94.5a1.52,1.52,0,0,0-1.55,1.5Z" class="cls-16" transform="translate(-33.95 -35.86)"/><path d="M127,198.6c0,.86,1.37,2.46,2.22,2.46h55.7c.86,0,1.07-1.6,1.07-2.46v-.17c0-.86-.22-2.38-1.07-2.38h-55.7a3.14,3.14,0,0,0-2.22,2.38Z" class="cls-16" transform="translate(-33.95 -35.86)"/><path d="M94,197.56a1.5,1.5,0,0,0,1.5,1.5h26a1.5,1.5,0,0,0,1.5-1.5h0a1.5,1.5,0,0,0-1.5-1.5h-26a1.5,1.5,0,0,0-1.5,1.5Z" class="cls-16" transform="translate(-33.95 -35.86)"/><path d="M134,113.2v27.51c0,.45-.12,1.14.16,1.45s.53.89,1.08.89h37.09l.36-.26a2.48,2.48,0,0,0,1.32-2.09V113.2c0-1-1.13-1.14-2.13-1.14H135.19C134.19,112.06,134,112.2,134,113.2Z" class="cls-33" transform="translate(-33.95 -35.86)"/><path d="M134,113.2V116L153.9,128.7,174,115.92V113.2c0-1-1.13-1.14-2.13-1.14H135.18C134.19,112.06,134,112.2,134,113.2Z" class="cls-34" transform="translate(-33.95 -35.86)"/><path d="M107,131.35v27.51a2.38,2.38,0,0,0,.48,1.38,2.07,2.07,0,0,0,1.39.82h37.09l0-.18a2.08,2.08,0,0,0,1-2V131.35c0-1-.5-2.29-1.49-2.29H108.82C107.83,129.06,107,130.35,107,131.35Z" class="cls-35" transform="translate(-33.95 -35.86)"/><path d="M107,131.35v2.76l19.94,12.73L147,134.07v-2.73c0-1-.49-2.29-1.49-2.29H108.82C107.82,129.06,107,130.35,107,131.35Z" class="cls-36" transform="translate(-33.95 -35.86)"/><path d="M184.84,68.87a1,1,0,0,1-.22.72,1.2,1.2,0,0,1-.56.34,3.27,3.27,0,0,1-.74.12q-.4,0-.75.07l-.68.07a42,42,0,0,1,.36,4.3q.07,2.15.07,4.33,0,.68,0,1.44a11,11,0,0,1-.17,1.51,8,8,0,0,1-.4,1.43,4,4,0,0,1-.72,1.2,3.35,3.35,0,0,1-1.12.83,3.79,3.79,0,0,1-1.6.31,4,4,0,0,1-1.91-.44,4.52,4.52,0,0,1-1.42-1.16,5.13,5.13,0,0,1-.88-1.64,5.93,5.93,0,0,1-.3-1.87c0-.13,0-.34,0-.63a6.71,6.71,0,0,1,.1-.89,3,3,0,0,1,.25-.8.51.51,0,0,1,.46-.35,1.41,1.41,0,0,1,.41.08,2.21,2.21,0,0,1,.47.21,1.63,1.63,0,0,1,.38.31.55.55,0,0,1,.16.37,3.59,3.59,0,0,1-.11.9,3.58,3.58,0,0,0-.11.9,4.88,4.88,0,0,0,.6,2.25,3,3,0,0,0,.76.91,1.83,1.83,0,0,0,1.85.2,1.65,1.65,0,0,0,.54-.44,2.28,2.28,0,0,0,.35-.63,6.32,6.32,0,0,0,.22-.72,12.86,12.86,0,0,0,.33-2.48q0-1.26,0-2.55,0-1.66-.08-3.33t-.3-3.33l-1.69.21a13.07,13.07,0,0,1-1.69.11.57.57,0,0,1-.33-.09.35.35,0,0,1-.12-.3.81.81,0,0,1,.26-.65,1.59,1.59,0,0,1,.67-.32,9.12,9.12,0,0,1,1.37-.26l1.38-.18v-.19a.24.24,0,0,1,.15-.26.94.94,0,0,1,.33-.06,1.85,1.85,0,0,1,.51.07,1.33,1.33,0,0,1,.47.24c.47-.07.94-.16,1.41-.26a6.74,6.74,0,0,1,1.44-.15.59.59,0,0,1,.42.15A.54.54,0,0,1,184.84,68.87Z" class="cls-37" transform="translate(-33.95 -35.86)"/><path d="M194.73,78.76a1,1,0,0,1-.19.53,1.36,1.36,0,0,1-.42.41l-.21.07-.32.07-.33.06-.25,0,.3,1.8q.14.84.21,1.68a7.86,7.86,0,0,0,.32,1.67l0,.13a.4.4,0,0,1,0,.16.31.31,0,0,1-.09.24.61.61,0,0,1-.23.13,1.23,1.23,0,0,1-.28.05h-.46a2.26,2.26,0,0,1-.6-.06.61.61,0,0,1-.32-.21.8.8,0,0,1-.15-.37c0-.15-.06-.33-.09-.55q-.3-2.22-.68-4.45l-1.57.18-1.58.16-.4,2.38-.07.6c0,.25-.06.51-.1.77s-.08.51-.13.74a1.76,1.76,0,0,1-.16.5.75.75,0,0,1-.14.21.34.34,0,0,1-.24.06,1.32,1.32,0,0,1-.45-.08,1.29,1.29,0,0,1-.39-.22,1,1,0,0,1-.27-.34.93.93,0,0,1-.1-.44,2.07,2.07,0,0,1,.06-.49q.06-.24.09-.49c.09-.54.18-1.07.25-1.6s.16-1.06.25-1.59l-.2,0-.22-.08a.64.64,0,0,1-.18-.12.23.23,0,0,1-.08-.17.33.33,0,0,1,.1-.22,1.31,1.31,0,0,1,.23-.19l.27-.16.24-.1q.26-1.7.5-3.39t.43-3.42q0-.46.09-.94t.08-.95q0-.47.11-.94a7.6,7.6,0,0,1,.19-.92,1.52,1.52,0,0,1,.38-.71,1.05,1.05,0,0,1,.78-.27l.3,0a.68.68,0,0,1,.26.1,1.86,1.86,0,0,1,.68.86,15.11,15.11,0,0,1,.71,1.71c.23.67.46,1.39.67,2.17s.41,1.53.59,2.26.33,1.39.45,2l.28,1.31.53-.07a4.58,4.58,0,0,1,.53,0h.29a1.1,1.1,0,0,1,.31.07.61.61,0,0,1,.24.16A.39.39,0,0,1,194.73,78.76Zm-4-.1q-.33-1.73-.71-3.42t-.9-3.38q-.23,1.84-.49,3.65t-.57,3.62l1.34-.21Z" class="cls-37" transform="translate(-33.95 -35.86)"/><path d="M202.82,73.31a32.48,32.48,0,0,1-.5,5.68,24.09,24.09,0,0,1-1.67,5.47l.11.24.15.34c.05.12.09.23.13.33a.77.77,0,0,1,.06.23.32.32,0,0,1-.1.26.62.62,0,0,1-.25.12,1.32,1.32,0,0,1-.31,0h-.27a4,4,0,0,1-.58,0,1,1,0,0,1-.5-.25,2,2,0,0,1-.41-.74q-.23-.59-.51-1.47t-.57-2q-.3-1.11-.59-2.28t-.57-2.33c-.19-.77-.35-1.49-.51-2.16s-.29-1.25-.4-1.76-.2-.89-.26-1.13q-.14-.62-.31-1.23a4.66,4.66,0,0,1-.17-1.25.27.27,0,0,1,.16-.28,1,1,0,0,1,.34-.06,2,2,0,0,1,.69.12,1,1,0,0,1,.52.41,1.49,1.49,0,0,1,.16.46l.09.47q.41,1.77.83,3.53t.91,3.52l.6,2.19q.3,1.08.66,2.16a21.67,21.67,0,0,0,.89-3.93,30.65,30.65,0,0,0,.26-4q0-.32,0-.79t0-1c0-.36,0-.73,0-1.11s0-.75-.08-1.09-.08-.67-.13-1a3.55,3.55,0,0,0-.19-.71l-.08-.18a.38.38,0,0,1,0-.19.28.28,0,0,1,.11-.23.9.9,0,0,1,.27-.13,1.32,1.32,0,0,1,.31-.06h.26a2.37,2.37,0,0,1,.6.07,1.14,1.14,0,0,1,.51.32,1,1,0,0,1,.19.5c.05.26.09.57.13.92s.06.74.08,1.15,0,.8,0,1.18,0,.72,0,1Z" class="cls-37" transform="translate(-33.95 -35.86)"/><path d="M214.1,78.76a1,1,0,0,1-.19.53,1.34,1.34,0,0,1-.42.41l-.21.07-.32.07-.33.06-.25,0,.3,1.8q.14.84.21,1.68a8,8,0,0,0,.32,1.67l.05.13a.42.42,0,0,1,0,.16.31.31,0,0,1-.09.24.62.62,0,0,1-.23.13,1.28,1.28,0,0,1-.28.05h-.45a2.26,2.26,0,0,1-.6-.06.61.61,0,0,1-.32-.21.82.82,0,0,1-.15-.37c0-.15-.06-.33-.09-.55q-.3-2.22-.68-4.45l-1.57.18-1.58.16-.4,2.38-.07.6c0,.25-.06.51-.1.77s-.08.51-.13.74a1.87,1.87,0,0,1-.16.5.79.79,0,0,1-.14.21.35.35,0,0,1-.24.06,1.31,1.31,0,0,1-.45-.08,1.33,1.33,0,0,1-.39-.22,1.06,1.06,0,0,1-.27-.34.93.93,0,0,1-.1-.44,2.12,2.12,0,0,1,.06-.49q.06-.24.09-.49.14-.8.25-1.6c.08-.53.16-1.06.25-1.59l-.2,0-.22-.08a.61.61,0,0,1-.18-.12.22.22,0,0,1-.08-.17.33.33,0,0,1,.09-.22,1.4,1.4,0,0,1,.23-.19l.27-.16.24-.1q.27-1.7.5-3.39t.43-3.42q0-.46.09-.94t.08-.95c0-.32.07-.63.11-.94a8,8,0,0,1,.2-.92,1.52,1.52,0,0,1,.38-.71,1.05,1.05,0,0,1,.78-.27l.29,0a.7.7,0,0,1,.26.1,1.86,1.86,0,0,1,.68.86,14.77,14.77,0,0,1,.71,1.71q.35,1,.67,2.17t.59,2.26q.27,1.09.45,2t.28,1.31l.53-.07a4.57,4.57,0,0,1,.53,0h.29a1.1,1.1,0,0,1,.31.07.61.61,0,0,1,.24.16A.39.39,0,0,1,214.1,78.76Zm-4-.1q-.33-1.73-.71-3.42t-.9-3.38q-.23,1.84-.49,3.65t-.57,3.62l1.34-.21Z" class="cls-37" transform="translate(-33.95 -35.86)"/><path d="M364,161.16a1.93,1.93,0,0,1,.22-.47,1.44,1.44,0,0,1,.33-.37.65.65,0,0,1,.41-.15.79.79,0,0,1,.38.1l.39.22a3.92,3.92,0,0,0,.46.22,1.51,1.51,0,0,0,.57.1,1.7,1.7,0,0,0,.79-.18,1.75,1.75,0,0,0,.61-.52,2.43,2.43,0,0,0,.42-1.17,16.72,16.72,0,0,0,.14-1.75q0-1,0-2.07t.1-2.13a11.19,11.19,0,0,1,.35-1.94,3.8,3.8,0,0,1,.75-1.48,3.81,3.81,0,0,1-.9-1.34,4.29,4.29,0,0,1-.3-1.59,6.07,6.07,0,0,1,.27-1.81q.27-.88.6-1.75t.59-1.75a6.24,6.24,0,0,0,.27-1.81,2.08,2.08,0,0,0-.37-1.27,1.4,1.4,0,0,0-1.2-.49l-.3,0-.3,0a3.19,3.19,0,0,1-.47,0,4,4,0,0,1-.61-.15,2,2,0,0,1-.52-.26.45.45,0,0,1-.22-.37.56.56,0,0,1,.32-.47,3.34,3.34,0,0,1,.76-.33,6.12,6.12,0,0,1,.86-.2,4.46,4.46,0,0,1,.62-.07,4.24,4.24,0,0,1,1.59.28,3.58,3.58,0,0,1,1.21.79,3.42,3.42,0,0,1,.78,1.23,4.46,4.46,0,0,1,.27,1.59,6.31,6.31,0,0,1-.24,1.76q-.24.84-.54,1.65t-.54,1.61a5.56,5.56,0,0,0-.24,1.61,2.83,2.83,0,0,0,.15,1,1.71,1.71,0,0,0,.37.59,1.83,1.83,0,0,0,.48.35,3.11,3.11,0,0,1,.48.3,1.37,1.37,0,0,1,.37.44,1.58,1.58,0,0,1,.15.76,1.2,1.2,0,0,1-.14.65q-.14.22-.62.22a1.65,1.65,0,0,1-.37,0l-.37-.09a1.78,1.78,0,0,0-.25.5,4.48,4.48,0,0,0-.13.55,4.84,4.84,0,0,0-.07.57c0,.19,0,.37,0,.55q-.1,1.23-.12,2.46t0,2.46q0,.63,0,1.21A5.58,5.58,0,0,1,371,160a4.1,4.1,0,0,1-.44,1,3.59,3.59,0,0,1-.79.9,4.07,4.07,0,0,1-1.43.81,5.15,5.15,0,0,1-1.6.26,5.52,5.52,0,0,1-.75-.07,4.8,4.8,0,0,1-.92-.22,2.55,2.55,0,0,1-.77-.42.81.81,0,0,1-.32-.65A1.52,1.52,0,0,1,364,161.16Z" class="cls-37" transform="translate(-33.95 -35.86)"/><path d="M355.66,148.35a.64.64,0,0,1,.59-.23,1.72,1.72,0,0,1,.38,0l.38.09a1.51,1.51,0,0,0,.25-.49,4.81,4.81,0,0,0,.13-.56c0-.19.06-.38.07-.56s0-.37,0-.55q.1-1.23.1-2.45t0-2.47q0-.61.07-1.19a5.79,5.79,0,0,1,.2-1.1,4.26,4.26,0,0,1,.44-1,3.8,3.8,0,0,1,.79-.92,4.09,4.09,0,0,1,1.41-.81,5.13,5.13,0,0,1,1.61-.26,5.52,5.52,0,0,1,.75.07,4.77,4.77,0,0,1,.92.22,2.55,2.55,0,0,1,.77.42.81.81,0,0,1,.32.65,1.41,1.41,0,0,1-.08.43,2.21,2.21,0,0,1-.23.47,1.51,1.51,0,0,1-.32.37.62.62,0,0,1-.4.15.83.83,0,0,1-.39-.1l-.4-.22a3.88,3.88,0,0,0-.46-.22,1.56,1.56,0,0,0-.58-.1,1.69,1.69,0,0,0-.77.18,1.58,1.58,0,0,0-.6.52,2.42,2.42,0,0,0-.42,1.17,17.26,17.26,0,0,0-.14,1.75q0,1,0,2.08t-.11,2.14a12,12,0,0,1-.34,1.95,3.72,3.72,0,0,1-.74,1.49,3.84,3.84,0,0,1,.9,1.32,4.16,4.16,0,0,1,.3,1.57,6.25,6.25,0,0,1-.27,1.81q-.27.88-.59,1.75t-.6,1.75a6.08,6.08,0,0,0-.27,1.81,2.08,2.08,0,0,0,.37,1.27,1.36,1.36,0,0,0,1.16.49h.63a3.05,3.05,0,0,1,.47.05,4,4,0,0,1,.6.15,1.87,1.87,0,0,1,.52.26.46.46,0,0,1,.22.37.53.53,0,0,1-.32.44,3.38,3.38,0,0,1-.74.33,5.77,5.77,0,0,1-.85.2,4.47,4.47,0,0,1-.62.07,4.28,4.28,0,0,1-1.58-.28,3.55,3.55,0,0,1-1.22-.79,3.46,3.46,0,0,1-.78-1.22,4.41,4.41,0,0,1-.27-1.6,6.34,6.34,0,0,1,.24-1.76q.24-.84.52-1.65t.52-1.6a5.52,5.52,0,0,0,.24-1.62,3,3,0,0,0-.14-1,1.58,1.58,0,0,0-.37-.59,2.13,2.13,0,0,0-.47-.35,3.94,3.94,0,0,1-.47-.3,1.27,1.27,0,0,1-.37-.43,1.66,1.66,0,0,1-.14-.77A1.22,1.22,0,0,1,355.66,148.35Z" class="cls-37" transform="translate(-33.95 -35.86)"/><path d="M271.39,195.44a1,1,0,0,1-.1.45,4.36,4.36,0,0,1-.2.48.82.82,0,0,1-.23.29.86.86,0,0,1-.34.15,2.46,2.46,0,0,1-.51,0h-5a2,2,0,0,1-.36-.05.86.86,0,0,1-.31-.14.33.33,0,0,1-.13-.28,1,1,0,0,1,.29-.73,1.29,1.29,0,0,1,.7-.4,5.72,5.72,0,0,1,.69-.06l.69,0,2-.11q1-.06,2-.06h.27a1,1,0,0,1,.27.05.41.41,0,0,1,.21.15A.44.44,0,0,1,271.39,195.44Z" class="cls-37" transform="translate(-33.95 -35.86)"/><path d="M283.16,194.13a.46.46,0,0,1-.11.33.62.62,0,0,1-.27.17,1.46,1.46,0,0,1-.34.07l-.34,0h-.7a1.3,1.3,0,0,1-.51-.11,1.09,1.09,0,0,1-.39-.32,2.67,2.67,0,0,1-.34-.63,28.91,28.91,0,0,1-1.23-3.13q-.52-1.6-1.07-3.22-.45,1.17-.94,2.3t-1,2.26q-.24.51-.45,1a6.3,6.3,0,0,1-.51,1,2,2,0,0,1-.3.38.65.65,0,0,1-.45.14,1.37,1.37,0,0,1-.51-.12,2.57,2.57,0,0,1-.56-.32,2.28,2.28,0,0,1-.45-.45.81.81,0,0,1-.19-.49,2.22,2.22,0,0,1,.17-.53q.17-.43.45-1l.59-1.29.62-1.33.53-1.14q.23-.51.32-.73.41-1,.73-1.93t.61-1.95l-.33-1q-.22-.69-.53-1.59l-.67-1.95q-.36-1-.72-2.12l-.7-2.08q-.34-1-.6-1.81t-.41-1.34a3.63,3.63,0,0,1-.15-.65.31.31,0,0,1,.09-.24.69.69,0,0,1,.23-.14,1,1,0,0,1,.28-.06h.25a1.81,1.81,0,0,1,1.12.31,2.46,2.46,0,0,1,.7.93q.77,1.72,1.37,3.5l1.2,3.57.61-3q.3-1.51.56-3,.07-.33.14-.82l.15-1q.08-.53.17-1a3,3,0,0,1,.23-.75.74.74,0,0,1,.18-.27.54.54,0,0,1,.34-.08,1.7,1.7,0,0,1,.57.1,1.73,1.73,0,0,1,.52.29,1.58,1.58,0,0,1,.38.45,1.13,1.13,0,0,1,.15.57,11.29,11.29,0,0,1-.26,2.4q-.26,1.18-.46,2.4-.4,2.14-.76,4.28t-.93,4.23q.82,2.49,1.68,4.92t1.89,4.82l.27.58A1.41,1.41,0,0,1,283.16,194.13Z" class="cls-37" transform="translate(-33.95 -35.86)"/><path d="M263.51,242.21a.36.36,0,0,1-.18.3,1.53,1.53,0,0,1-.42.19,2.57,2.57,0,0,1-.49.1l-.39,0a1,1,0,0,1-.5-.11,1.45,1.45,0,0,1-.4-.34c-.13-.14-.32-.37-.57-.69l-.84-1.07q-.46-.6-.94-1.27t-.88-1.27q-.39-.6-.65-1.08a1.76,1.76,0,0,1-.25-.72,1.46,1.46,0,0,1,.24-.8c.16-.25.31-.49.44-.72l2.35-4.38.17-.36a4.41,4.41,0,0,1,.23-.41,1.76,1.76,0,0,1,.27-.34.47.47,0,0,1,.33-.15.74.74,0,0,1,.35.1,1.39,1.39,0,0,1,.32.24,1.24,1.24,0,0,1,.23.32.76.76,0,0,1,.09.34,1.19,1.19,0,0,1-.1.49l-.19.44-1.32,2.61-1.32,2.61a9.43,9.43,0,0,0,.69,1.15q.42.6.89,1.21t1,1.18q.48.57.9,1l.27.29.31.34a2.46,2.46,0,0,1,.27.37A.72.72,0,0,1,263.51,242.21Z" class="cls-37" transform="translate(-33.95 -35.86)"/><path d="M272,225.9a4.47,4.47,0,0,1-.14,1.14q-.15.56-.27,1.12-.52,2.39-1,4.75t-1,4.76q-.48,2.4-1,4.79t-1,4.79c0,.15,0,.31-.06.48a2.43,2.43,0,0,1-.11.49,1,1,0,0,1-.24.39.63.63,0,0,1-.45.15,2,2,0,0,1-.54-.09,2.87,2.87,0,0,1-.6-.24,1.73,1.73,0,0,1-.48-.37.72.72,0,0,1-.19-.49,1.09,1.09,0,0,1,0-.19,1.18,1.18,0,0,0,0-.19q.24-1.16.52-2.32l.55-2.32,3.19-14.28q.06-.26.15-.75t.19-1q.1-.51.22-1a3.49,3.49,0,0,1,.21-.64.79.79,0,0,1,.19-.25.48.48,0,0,1,.29-.07,1.41,1.41,0,0,1,.52.11,1.83,1.83,0,0,1,.48.28,1.38,1.38,0,0,1,.35.42A1.08,1.08,0,0,1,272,225.9Z" class="cls-37" transform="translate(-33.95 -35.86)"/><path d="M280.15,235.66a1.1,1.1,0,0,1-.07.39,2.73,2.73,0,0,1-.18.38l-.23.37a3.62,3.62,0,0,0-.2.35l-2.35,4.38c-.05.1-.11.22-.18.36a4.64,4.64,0,0,1-.22.43,1.52,1.52,0,0,1-.27.35.47.47,0,0,1-.33.14.73.73,0,0,1-.35-.1,1.42,1.42,0,0,1-.32-.24,1.21,1.21,0,0,1-.23-.33.84.84,0,0,1-.09-.36,1.24,1.24,0,0,1,.1-.48c.06-.16.13-.3.19-.43q.66-1.34,1.32-2.63t1.32-2.63a9.5,9.5,0,0,0-.69-1.15q-.42-.6-.89-1.21t-1-1.18l-.89-1-.27-.27-.31-.34a3,3,0,0,1-.27-.35.65.65,0,0,1-.11-.35.36.36,0,0,1,.18-.31,1.34,1.34,0,0,1,.42-.19,3,3,0,0,1,.49-.09l.4,0a1,1,0,0,1,.5.11,1.74,1.74,0,0,1,.4.31l.57.7.84,1.07q.46.6.94,1.27t.88,1.27q.4.6.65,1.09A1.82,1.82,0,0,1,280.15,235.66Z" class="cls-37" transform="translate(-33.95 -35.86)"/><path d="M442.71,256.78q.12-1.34.37-2.68.07-.4.18-.86c.07-.31.15-.62.25-.92a5.92,5.92,0,0,1,.37-.88,3.46,3.46,0,0,1,.52-.75,2.34,2.34,0,0,1,.71-.52A2.07,2.07,0,0,1,446,250a2,2,0,0,1,1.06.29,3.34,3.34,0,0,1,.85.73,5,5,0,0,1,.64,1,7.32,7.32,0,0,1,.43,1,.66.66,0,0,1,0,.12.59.59,0,0,1,0,.13.49.49,0,0,1-.06.24l-.13.22a12.11,12.11,0,0,1,.41,2.31q.1,1.19.1,2.37t-.08,2.34q-.09,1.16-.26,2.31c0,.29-.09.61-.16,1s-.15.71-.25,1.06a7,7,0,0,1-.38,1,4,4,0,0,1-.55.89,2.57,2.57,0,0,1-.76.63,2.25,2.25,0,0,1-2.07,0,2.76,2.76,0,0,1-.81-.72,4.56,4.56,0,0,1-.59-1.07,9,9,0,0,1-.4-1.29c-.1-.46-.19-.92-.25-1.39s-.11-.93-.13-1.38,0-.86-.05-1.25,0-.72,0-1Q442.59,258.12,442.71,256.78Zm4.07-3.82-.3-.58-.31-.56a2.89,2.89,0,0,0-.17-.28,1.47,1.47,0,0,0-.34.49q-.12.28-.22.56a13.16,13.16,0,0,0-.5,1.83q-.19,1-.3,2t-.15,2q0,1,0,1.91a19.41,19.41,0,0,0,.15,2.39,13,13,0,0,0,.51,2.33c0,.08.06.2.12.34a4.18,4.18,0,0,0,.19.44,1.79,1.79,0,0,0,.25.38.4.4,0,0,0,.3.16c.15,0,.3-.11.43-.31a3.66,3.66,0,0,0,.36-.82A10.09,10.09,0,0,0,447,264q.13-.66.23-1.39c.06-.48.12-1,.17-1.44s.09-.92.12-1.33.05-.77.07-1.08,0-.54,0-.67q0-.56,0-1.19t-.1-1.26a12.56,12.56,0,0,0-.21-1.24,6.67,6.67,0,0,0-.35-1.13Z" class="cls-37" transform="translate(-33.95 -35.86)"/><path d="M437.57,266.07c0-.28.08-.56.1-.84q.32-3.14.44-6.26t.22-6.26c0-.09,0-.22,0-.38s0-.34,0-.5,0-.33,0-.49a1,1,0,0,1,.07-.33,1,1,0,0,1,.49-.48,1.63,1.63,0,0,1,.68-.16c.19,0,.32,0,.36.15a.87.87,0,0,1,.07.39q0,3.75-.13,7.45t-.35,7.45c0,.14,0,.29,0,.42a1.67,1.67,0,0,1,0,.38.79.79,0,0,1-.51.58,2.29,2.29,0,0,1-.44.12,2.43,2.43,0,0,1-.44,0,1,1,0,0,1-.44-.09.37.37,0,0,1-.19-.37A5.15,5.15,0,0,1,437.57,266.07Z" class="cls-37" transform="translate(-33.95 -35.86)"/><path d="M428.54,256.78q.12-1.34.37-2.68c0-.27.11-.56.18-.86s.15-.62.26-.92a5.8,5.8,0,0,1,.37-.88,3.44,3.44,0,0,1,.52-.75,2.36,2.36,0,0,1,.71-.52,2.07,2.07,0,0,1,.91-.19,2,2,0,0,1,1.06.29,3.36,3.36,0,0,1,.85.73,5,5,0,0,1,.64,1,7.53,7.53,0,0,1,.43,1,.67.67,0,0,1,0,.12.59.59,0,0,1,0,.13.49.49,0,0,1-.06.24l-.13.22a12.07,12.07,0,0,1,.41,2.31q.1,1.19.1,2.37t-.08,2.34q-.09,1.16-.26,2.31c0,.29-.09.61-.16,1s-.15.71-.25,1.06a6.85,6.85,0,0,1-.38,1,4,4,0,0,1-.55.89,2.56,2.56,0,0,1-.76.63,2.25,2.25,0,0,1-2.07,0,2.75,2.75,0,0,1-.81-.72,4.57,4.57,0,0,1-.59-1.07,8.79,8.79,0,0,1-.4-1.29c-.11-.46-.19-.92-.25-1.39s-.11-.93-.13-1.38,0-.86-.06-1.25,0-.72,0-1Q428.41,258.12,428.54,256.78Zm4.07-3.82-.3-.58-.31-.56a2.73,2.73,0,0,0-.17-.28,1.48,1.48,0,0,0-.34.49c-.08.19-.15.37-.22.56a13.08,13.08,0,0,0-.5,1.83q-.19,1-.3,2t-.15,2q0,1,0,1.91a19.34,19.34,0,0,0,.15,2.39,13.08,13.08,0,0,0,.51,2.33c0,.08.06.2.12.34a4.08,4.08,0,0,0,.19.44,1.78,1.78,0,0,0,.25.38.4.4,0,0,0,.3.16c.15,0,.3-.11.43-.31a3.66,3.66,0,0,0,.36-.82,10.18,10.18,0,0,0,.29-1.17q.13-.66.23-1.39c.06-.48.12-1,.17-1.44s.09-.92.12-1.33.05-.77.07-1.08,0-.54,0-.67q0-.56,0-1.19t-.1-1.26a12.41,12.41,0,0,0-.21-1.24,6.67,6.67,0,0,0-.35-1.13Z" class="cls-37" transform="translate(-33.95 -35.86)"/><path d="M423.39,266.07c0-.28.08-.56.1-.84q.32-3.14.44-6.26t.22-6.26,0-.38c0-.17,0-.34,0-.5s0-.33,0-.49a.86.86,0,0,1,.56-.8,1.63,1.63,0,0,1,.68-.16q.29,0,.37.15a.88.88,0,0,1,.07.39q0,3.75-.13,7.45t-.35,7.45c0,.14,0,.29,0,.42a1.67,1.67,0,0,1,0,.38.78.78,0,0,1-.51.58,2.27,2.27,0,0,1-.44.12,2.43,2.43,0,0,1-.44,0,1,1,0,0,1-.44-.09.37.37,0,0,1-.19-.37A5.15,5.15,0,0,1,423.39,266.07Z" class="cls-37" transform="translate(-33.95 -35.86)"/><path d="M414.36,256.78q.12-1.34.37-2.68c0-.27.11-.56.18-.86s.15-.62.26-.92a5.81,5.81,0,0,1,.37-.88,3.44,3.44,0,0,1,.52-.75,2.36,2.36,0,0,1,.71-.52,2.08,2.08,0,0,1,.91-.19,2,2,0,0,1,1.06.29,3.36,3.36,0,0,1,.85.73,5.1,5.1,0,0,1,.64,1,7.5,7.5,0,0,1,.43,1l0,.12a.63.63,0,0,1,0,.13.49.49,0,0,1-.06.24l-.13.22a12.15,12.15,0,0,1,.41,2.31q.1,1.19.1,2.37t-.09,2.34q-.08,1.16-.26,2.31c0,.29-.09.61-.16,1s-.15.71-.25,1.06a7,7,0,0,1-.38,1,4,4,0,0,1-.56.89,2.56,2.56,0,0,1-.76.63,2.25,2.25,0,0,1-2.07,0,2.76,2.76,0,0,1-.81-.72,4.55,4.55,0,0,1-.59-1.07,8.9,8.9,0,0,1-.4-1.29c-.11-.46-.19-.92-.25-1.39s-.11-.93-.13-1.38,0-.86-.05-1.25,0-.72,0-1Q414.24,258.12,414.36,256.78Zm4.07-3.82-.3-.58-.31-.56a2.7,2.7,0,0,0-.17-.28,1.48,1.48,0,0,0-.34.49q-.12.28-.22.56a13,13,0,0,0-.5,1.83q-.19,1-.3,2t-.15,2q0,1,0,1.91a19.24,19.24,0,0,0,.15,2.39,13.07,13.07,0,0,0,.51,2.33c0,.08.06.2.12.34a4.06,4.06,0,0,0,.19.44,1.83,1.83,0,0,0,.25.38.4.4,0,0,0,.3.16c.15,0,.3-.11.43-.31a3.66,3.66,0,0,0,.36-.82,10.27,10.27,0,0,0,.29-1.17q.13-.66.22-1.39c.06-.48.12-1,.17-1.44s.09-.92.12-1.33.06-.77.07-1.08,0-.54,0-.67q0-.56,0-1.19t-.1-1.26a12.44,12.44,0,0,0-.21-1.24,6.59,6.59,0,0,0-.35-1.13Z" class="cls-37" transform="translate(-33.95 -35.86)"/><path d="M409.21,266.07c0-.28.08-.56.1-.84q.32-3.14.44-6.26t.22-6.26c0-.09,0-.22,0-.38s0-.34,0-.5,0-.33,0-.49a1,1,0,0,1,.07-.33,1,1,0,0,1,.49-.48,1.63,1.63,0,0,1,.68-.16c.19,0,.32,0,.36.15a.87.87,0,0,1,.07.39q0,3.75-.13,7.45t-.35,7.45c0,.14,0,.29,0,.42a1.64,1.64,0,0,1,0,.38.79.79,0,0,1-.51.58,2.29,2.29,0,0,1-.44.12,2.43,2.43,0,0,1-.44,0,1,1,0,0,1-.44-.09.37.37,0,0,1-.19-.37A5.26,5.26,0,0,1,409.21,266.07Z" class="cls-37" transform="translate(-33.95 -35.86)"/><path d="M404,266.07c0-.28.08-.56.1-.84q.32-3.14.44-6.26t.22-6.26c0-.09,0-.22,0-.38s0-.34,0-.5,0-.33,0-.49a.86.86,0,0,1,.56-.8,1.63,1.63,0,0,1,.68-.16q.29,0,.37.15a.87.87,0,0,1,.07.39q0,3.75-.13,7.45t-.35,7.45c0,.14,0,.29,0,.42a1.64,1.64,0,0,1,0,.38.78.78,0,0,1-.51.58,2.28,2.28,0,0,1-.44.12,2.42,2.42,0,0,1-.44,0,1,1,0,0,1-.44-.09.37.37,0,0,1-.2-.37A5.15,5.15,0,0,1,404,266.07Z" class="cls-37" transform="translate(-33.95 -35.86)"/><path d="M137.24,90.28q.12-1.34.37-2.68c0-.27.11-.56.18-.87a9.34,9.34,0,0,1,.25-.92,5.79,5.79,0,0,1,.37-.88,3.51,3.51,0,0,1,.52-.75,2.36,2.36,0,0,1,.71-.52,2.07,2.07,0,0,1,.91-.2,2,2,0,0,1,1.06.29,3.36,3.36,0,0,1,.85.73,5.05,5.05,0,0,1,.64,1,7.22,7.22,0,0,1,.42,1,.63.63,0,0,1,0,.12.55.55,0,0,1,0,.13.49.49,0,0,1-.06.24l-.13.22a12.08,12.08,0,0,1,.41,2.31q.1,1.19.1,2.37t-.09,2.34c-.06.77-.14,1.54-.25,2.31,0,.29-.09.61-.16,1s-.15.71-.25,1.07a7.12,7.12,0,0,1-.38,1,4.06,4.06,0,0,1-.56.89,2.57,2.57,0,0,1-.76.63,2.25,2.25,0,0,1-2.07,0,2.73,2.73,0,0,1-.81-.73,4.5,4.5,0,0,1-.59-1.06,8.9,8.9,0,0,1-.4-1.29,13.53,13.53,0,0,1-.25-1.39c-.06-.47-.11-.93-.13-1.38s0-.86-.05-1.25,0-.72,0-1Q137.12,91.62,137.24,90.28Zm4.07-3.82-.3-.58-.31-.56a2.47,2.47,0,0,0-.17-.28,1.47,1.47,0,0,0-.34.49c-.08.19-.15.37-.22.56a13.11,13.11,0,0,0-.5,1.83q-.19,1-.3,2t-.15,2q0,1,0,1.91a19.35,19.35,0,0,0,.15,2.39,13.08,13.08,0,0,0,.51,2.33c0,.08.06.19.12.34a4.18,4.18,0,0,0,.19.44,1.74,1.74,0,0,0,.25.38.4.4,0,0,0,.3.16c.16,0,.3-.1.43-.31a3.75,3.75,0,0,0,.36-.82,10.16,10.16,0,0,0,.29-1.18c.09-.44.16-.9.23-1.39s.12-1,.17-1.44.09-.92.12-1.33.06-.77.07-1.08,0-.54,0-.68c0-.37,0-.77,0-1.19s0-.84-.1-1.26-.12-.84-.21-1.24a6.55,6.55,0,0,0-.35-1.13Z" class="cls-37" transform="translate(-33.95 -35.86)"/><path d="M132.09,99.57q.07-.41.1-.84.32-3.14.44-6.26t.22-6.26c0-.09,0-.22,0-.38s0-.34,0-.5,0-.33,0-.49a1,1,0,0,1,.07-.33,1,1,0,0,1,.49-.48,1.62,1.62,0,0,1,.67-.16c.19,0,.32,0,.37.15a.88.88,0,0,1,.07.39q0,3.75-.14,7.45t-.35,7.45c0,.15,0,.29,0,.42a1.64,1.64,0,0,1,0,.38.87.87,0,0,1-.15.33.89.89,0,0,1-.35.26,2.48,2.48,0,0,1-.44.12,2.44,2.44,0,0,1-.44,0,1,1,0,0,1-.44-.09.37.37,0,0,1-.2-.37A5.12,5.12,0,0,1,132.09,99.57Z" class="cls-37" transform="translate(-33.95 -35.86)"/><path d="M123.06,90.28q.12-1.34.36-2.68c0-.27.11-.56.18-.87s.15-.62.26-.92a5.62,5.62,0,0,1,.37-.88,3.37,3.37,0,0,1,.52-.75,2.35,2.35,0,0,1,.71-.52,2.08,2.08,0,0,1,.91-.2,2,2,0,0,1,1.06.29,3.33,3.33,0,0,1,.84.73,5,5,0,0,1,.64,1,7.46,7.46,0,0,1,.43,1,.55.55,0,0,1,0,.12.54.54,0,0,1,0,.37l-.13.22a12,12,0,0,1,.41,2.31q.1,1.19.1,2.37t-.08,2.34q-.09,1.16-.26,2.31c0,.29-.09.61-.16,1s-.15.71-.25,1.07a6.91,6.91,0,0,1-.38,1,4,4,0,0,1-.55.89,2.56,2.56,0,0,1-.76.63,2.25,2.25,0,0,1-2.07,0,2.78,2.78,0,0,1-.81-.73,4.6,4.6,0,0,1-.59-1.07,8.9,8.9,0,0,1-.4-1.29q-.16-.68-.25-1.39T123,95.22c0-.45,0-.86-.05-1.25s0-.72,0-1Q122.94,91.62,123.06,90.28Zm4.07-3.82-.3-.58-.31-.56a2.74,2.74,0,0,0-.17-.28,1.46,1.46,0,0,0-.34.49c-.08.19-.15.37-.22.56a13.08,13.08,0,0,0-.5,1.83c-.13.65-.23,1.31-.3,2s-.12,1.34-.15,2,0,1.3,0,1.91a19.33,19.33,0,0,0,.15,2.39,13,13,0,0,0,.51,2.33c0,.08.06.19.12.34a3.62,3.62,0,0,0,.19.44,1.77,1.77,0,0,0,.25.38.4.4,0,0,0,.3.16.53.53,0,0,0,.43-.31,3.71,3.71,0,0,0,.36-.82,10.21,10.21,0,0,0,.29-1.18q.13-.66.23-1.39t.17-1.44c0-.48.09-.92.12-1.33s.05-.77.07-1.08,0-.54,0-.68c0-.37,0-.77,0-1.19s0-.84-.1-1.26a12,12,0,0,0-.21-1.24,6.73,6.73,0,0,0-.35-1.13Z" class="cls-37" transform="translate(-33.95 -35.86)"/><path d="M117.92,99.57c0-.27.08-.56.1-.84q.31-3.14.44-6.26t.22-6.26,0-.38c0-.17,0-.34,0-.5s0-.33,0-.49a.92.92,0,0,1,.07-.33,1,1,0,0,1,.49-.48,1.62,1.62,0,0,1,.68-.16c.2,0,.32,0,.37.15a.86.86,0,0,1,.07.39q0,3.75-.13,7.45t-.35,7.45c0,.15,0,.29,0,.42a1.7,1.7,0,0,1,0,.38.85.85,0,0,1-.15.33.88.88,0,0,1-.35.26,2.78,2.78,0,0,1-.88.17,1,1,0,0,1-.44-.09.37.37,0,0,1-.19-.37A5.23,5.23,0,0,1,117.92,99.57Z" class="cls-37" transform="translate(-33.95 -35.86)"/><path d="M108.89,90.28q.12-1.34.36-2.68.07-.4.18-.87t.26-.92a5.92,5.92,0,0,1,.37-.88,3.44,3.44,0,0,1,.52-.75,2.36,2.36,0,0,1,.71-.52,2.08,2.08,0,0,1,.91-.2,2,2,0,0,1,1.06.29,3.34,3.34,0,0,1,.85.73,5,5,0,0,1,.64,1,7.47,7.47,0,0,1,.43,1,.69.69,0,0,1,0,.12.62.62,0,0,1,0,.13.47.47,0,0,1-.06.24l-.13.22a12.09,12.09,0,0,1,.41,2.31q.1,1.19.1,2.37t-.08,2.34c-.06.77-.14,1.54-.26,2.31,0,.29-.09.61-.16,1a10.74,10.74,0,0,1-.25,1.07,7,7,0,0,1-.38,1,4.06,4.06,0,0,1-.55.89,2.58,2.58,0,0,1-.76.63,2.25,2.25,0,0,1-2.07,0,2.75,2.75,0,0,1-.81-.73,4.56,4.56,0,0,1-.59-1.07,9.28,9.28,0,0,1-.4-1.29q-.16-.68-.25-1.39t-.13-1.38q0-.67-.06-1.25c0-.39,0-.72,0-1Q108.77,91.62,108.89,90.28ZM113,86.46l-.3-.58-.31-.56a2.67,2.67,0,0,0-.17-.28,1.46,1.46,0,0,0-.34.49c-.08.19-.15.37-.22.56a13.39,13.39,0,0,0-.5,1.83q-.19,1-.3,2t-.15,2q0,1,0,1.91a19.33,19.33,0,0,0,.15,2.39,13.15,13.15,0,0,0,.51,2.33l.12.34a4.44,4.44,0,0,0,.19.44,1.81,1.81,0,0,0,.25.38.4.4,0,0,0,.3.16.53.53,0,0,0,.43-.31,3.62,3.62,0,0,0,.36-.82,10.38,10.38,0,0,0,.29-1.18c.08-.44.16-.9.22-1.39s.12-1,.17-1.44.09-.92.12-1.33.06-.77.07-1.08,0-.54,0-.68c0-.37,0-.77,0-1.19s0-.84-.1-1.26a12.57,12.57,0,0,0-.21-1.24,6.54,6.54,0,0,0-.35-1.13Z" class="cls-37" transform="translate(-33.95 -35.86)"/><path d="M103.74,99.57q.07-.41.1-.84.32-3.14.44-6.26t.22-6.26c0-.09,0-.22,0-.38s0-.34,0-.5,0-.33,0-.49a1,1,0,0,1,.07-.33,1,1,0,0,1,.49-.48,1.62,1.62,0,0,1,.68-.16q.29,0,.37.15a.88.88,0,0,1,.07.39q0,3.75-.13,7.45t-.35,7.45c0,.15,0,.29,0,.42a1.7,1.7,0,0,1,0,.38.79.79,0,0,1-.51.58,2.78,2.78,0,0,1-.88.17,1,1,0,0,1-.44-.09.37.37,0,0,1-.19-.37A5.34,5.34,0,0,1,103.74,99.57Z" class="cls-37" transform="translate(-33.95 -35.86)"/><path d="M98.5,99.57c0-.27.08-.56.1-.84q.32-3.14.44-6.26t.22-6.26c0-.09,0-.22,0-.38s0-.34,0-.5,0-.33,0-.49a.86.86,0,0,1,.56-.8,1.61,1.61,0,0,1,.67-.16c.2,0,.32,0,.37.15a.88.88,0,0,1,.07.39q0,3.75-.13,7.45t-.35,7.45c0,.15,0,.29,0,.42a1.64,1.64,0,0,1,0,.38.88.88,0,0,1-.15.33.9.9,0,0,1-.35.26,2.48,2.48,0,0,1-.44.12,2.45,2.45,0,0,1-.44,0,1,1,0,0,1-.44-.09.37.37,0,0,1-.19-.37A5.23,5.23,0,0,1,98.5,99.57Z" class="cls-37" transform="translate(-33.95 -35.86)"/><path d="M242.82,63.07c1,2.22,2.71,3.94,4.26,5.75,2.31,2.7,2.67,5.57,2.11,9-.22,1.35-.43,2.71.29,3.87a4.74,4.74,0,0,0,3.74,4.23c2.5.27,3.76-1.65,4-3.84,1-1.24.82-2.76.57-4.27-.56-3.41-.19-6.28,2.11-9,1.55-1.81,3.3-3.53,4.27-5.75,1.58-3.62,1.47-8.15-1.45-11.11-2.48-2.51-5.88-4.54-9.49-4.34A14.06,14.06,0,0,0,244.28,52C241.37,54.92,241.24,59.45,242.82,63.07Zm8.38,19.81a4.54,4.54,0,0,0,2.29-.07,4.46,4.46,0,0,0,2.66,0c-.54,1.32-1.47,2.49-3.12,1.89A3,3,0,0,1,251.2,82.89Zm1.9-16.15c-.05-.88.08-2.16.14-3.49.56,0,1.07,0,1.51-.08a24.85,24.85,0,0,0-.46,3.47c-.35,5-.88,10.09-.52,15.11l-.27,0a3.92,3.92,0,0,1-.58-.06.4.4,0,0,0-.25,0h-.06l.06,0c.88-.57.65-2.24.6-3.11C253,74.64,253.33,70.68,253.1,66.73Zm-7.92-13.88a10.3,10.3,0,0,1,4-2.56c4.14-1.66,9.58-.88,12.63,2.56,2.76,3.12,2.61,7.33.59,10.79s-5.5,5.62-6.16,9.76c-.32,2,.23,3.81.38,5.75.06.86.1,2-1,2.34-.24.07-.5.12-.77.17.23-3.4.09-6.82.43-10.22.28-2.82.27-5.73,1-8.48,1.84-.34,3.93-1.15,4.42-2.9a2.09,2.09,0,0,0-3.59-2,10.19,10.19,0,0,0-2,3.69,17.3,17.3,0,0,1-1.86.14c0-1.88-.4-3.65-1.82-4.39-1.84-1-4.81.25-4.52,2.61s2.65,3,4.92,3.1c-.06,1.15-.19,2.24-.15,2.91.19,3.28-.21,6.58,0,9.85.06.88.18,1.75.25,2.62a12.69,12.69,0,0,1,.14,2.14.58.58,0,0,0-.23.64.85.85,0,0,0-.07.24l-.46-.11c-1.06-.29-1-1.48-1-2.34.15-1.94.7-3.78.38-5.75-.67-4.14-4.17-6.35-6.16-9.76S242.42,56,245.18,52.86Zm3.37,7.61c-.85-1.1.76-2.28,1.82-1.93s1.47,1.79,1.5,3.34A4.37,4.37,0,0,1,248.55,60.47ZM258,59.36c.1-.11.66-.8.86-.65a1,1,0,0,1,.12,1.56,5.62,5.62,0,0,1-2.19,1.14A7,7,0,0,1,258,59.36Z" class="cls-37" transform="translate(-33.95 -35.86)"/><path d="M267.75,67.59a9.08,9.08,0,0,1,3.64,2.15.38.38,0,0,1-.46.59c-1.16-.75-2.79-1.07-3.5-2.34A.28.28,0,0,1,267.75,67.59Z" class="cls-37" transform="translate(-33.95 -35.86)"/><path d="M272.74,58.83A6,6,0,0,1,275,59c1,.08,1.9.13,2.86.17a.5.5,0,0,1,0,1c-1.3.08-4.6.87-5.31-.72A.42.42,0,0,1,272.74,58.83Z" class="cls-37" transform="translate(-33.95 -35.86)"/><path d="M271.52,50.42c.25-1,1.78-1.65,2.57-2.11.59-.35,1.9-1,2.49-.35.23.27,0,.81-.38.66.16.06.2,0-.06.1a3.1,3.1,0,0,0-.44.29c-.43.31-.89.6-1.34.9-.61.41-1.5,1.3-2.31,1.21A.56.56,0,0,1,271.52,50.42Z" class="cls-37" transform="translate(-33.95 -35.86)"/><path d="M263.68,39.56a5.33,5.33,0,0,1,.92-1.74,1,1,0,0,1,.26-.16H265c0-.07.21-.07.4,0s.2.27.21.44a10.82,10.82,0,0,1-.67,2.54c-.26,1.27-.49,2.95-1.75,3.6a.4.4,0,0,1-.6-.34A16.85,16.85,0,0,1,263.68,39.56Z" class="cls-37" transform="translate(-33.95 -35.86)"/><path d="M250.21,38.84a4.2,4.2,0,0,1,.73-2.82c.33-.41,1,0,.85.49a8.36,8.36,0,0,0-.05,2.91c.06.75.34,1.84-.41,2.32a.47.47,0,0,1-.48,0C250,41.26,250.23,39.67,250.21,38.84Z" class="cls-37" transform="translate(-33.95 -35.86)"/><path d="M235.68,41.46c.75-.66,1.91.29,2.51.75a13,13,0,0,1,2.41,2.5c.4.54-.49,1.21-.93.71a14.86,14.86,0,0,0-2.61-2.22C236.73,43,235,42.09,235.68,41.46Z" class="cls-37" transform="translate(-33.95 -35.86)"/><path d="M230.2,55.33c1.18-1.87,4.27-.45,6-.67.54-.07.62.78.12.92a10.8,10.8,0,0,1-2.83.33,27.63,27.63,0,0,1-2.9.11A.47.47,0,0,1,230.2,55.33Z" class="cls-37" transform="translate(-33.95 -35.86)"/><path d="M235.91,69.49a5,5,0,0,1,1.71-1.41,4.32,4.32,0,0,1,2.25-.72c.57,0,.65.81.13,1a5,5,0,0,0-1.77,1.14c-.48.41-1.14,1-1.81.92A.6.6,0,0,1,235.91,69.49Z" class="cls-37" transform="translate(-33.95 -35.86)"/><path d="M220.17,101.06h50.56a6.54,6.54,0,0,1,6.22,6.37v39c0,3.3-2.93,5.61-6.22,5.61H256.05l3.53,10.35-12.94-10.35H220.17c-3.3,0-6.21-2.32-6.21-5.61v-39A6.54,6.54,0,0,1,220.17,101.06Z" class="cls-38" transform="translate(-33.95 -35.86)"/><path d="M231.28,129.06a14.57,14.57,0,0,0,1.18,2.89L229,135.32l5.59,5.58,3.36-3.35a15.86,15.86,0,0,0,3,1.33v5.17h7v-5a20.33,20.33,0,0,0,3.53-1.22l3.78,3.34,5.58-5.62-3.23-3.3a17.82,17.82,0,0,0,1.36-3.23h4v-7H259.1a20,20,0,0,0-1.33-3.46L261,115l-5.75-5.58-3.59,3.26a9,9,0,0,0-3.72-1.31v-4.28h-7v4.21a14.24,14.24,0,0,0-2.83,1.23l-3.23-3.43-5.58,5.6,3.38,3.4a15.62,15.62,0,0,0-1.28,3H227v8Zm13.91,5.38a9.29,9.29,0,1,1,9.29-9.29A9.3,9.3,0,0,1,245.19,134.43Z" class="cls-16" transform="translate(-33.95 -35.86)"/><path d="M438.2,114.06H387.64c-3.3,0-6.69,2.17-6.69,5.47v39c0,3.3,3.39,5.51,6.69,5.51h14.68l-3.53,10.35,12.94-10.35H438.2a5.41,5.41,0,0,0,5.75-5.51v-39C444,116.23,441.5,114.06,438.2,114.06Z" class="cls-39" transform="translate(-33.95 -35.86)"/><path d="M393.42,145.14h-2.86V132.57h2.86v5h4.05v-5h2.86v12.57h-2.86v-5h-4.05Z" class="cls-16" transform="translate(-33.95 -35.86)"/><path d="M401,132.57h8.83v2.51h-3v10.05H404V135.09h-3Z" class="cls-16" transform="translate(-33.95 -35.86)"/><path d="M421.07,137.69H421l-2.57,7.37h-1.71l-2.57-7.37h-.08l-.59,7.45H410.6l1.13-12.57h3l2.79,7.25,2.79-7.25h3l1.13,12.57h-2.86Z" class="cls-16" transform="translate(-33.95 -35.86)"/><path d="M428.93,142.63h4.33v2.51h-7.19V132.57h2.86Z" class="cls-16" transform="translate(-33.95 -35.86)"/><path d="M366,67.06H315.47c-3.3,0-6.52,2.93-6.52,6.23v39c0,3.3,3.22,4.76,6.52,4.76h14.68l-3.53,10.35,12.94-10.35H366c3.3,0,5.92-1.46,5.92-4.76v-39A6.15,6.15,0,0,0,366,67.06Z" class="cls-40" transform="translate(-33.95 -35.86)"/><path d="M333.12,96.68l1.62,3.24a9,9,0,0,1-5.49,1.54c-4.72,0-9.06-3.85-9.06-8.63s4.32-8.69,9.06-8.69a9,9,0,0,1,5.49,1.54l-1.62,3.24a5.8,5.8,0,0,0-3.28-1c-3.83,0-5.51,2.68-5.51,4.9s1.68,4.92,5.51,4.92A5.8,5.8,0,0,0,333.12,96.68Z" class="cls-16" transform="translate(-33.95 -35.86)"/><path d="M348.05,85.72l-1.54,3a6.9,6.9,0,0,0-3.38-1.16c-1.3,0-2,.59-2,1.5s1.58,1.6,3.49,2.41,3.91,2.37,3.91,4.56c0,4-3,5.39-6.3,5.39A9.77,9.77,0,0,1,336,99.26l1.91-3.2s2.23,1.89,4.09,1.89c.83,0,2.41-.08,2.41-1.64,0-1.22-1.78-1.76-3.77-2.76s-3.18-2.55-3.18-4.3a5.29,5.29,0,0,1,5.45-5.11A9.5,9.5,0,0,1,348.05,85.72Z" class="cls-16" transform="translate(-33.95 -35.86)"/><path d="M361.77,85.72l-1.54,3a6.9,6.9,0,0,0-3.38-1.16c-1.3,0-2,.59-2,1.5s1.58,1.6,3.49,2.41,3.91,2.37,3.91,4.56c0,4-3,5.39-6.3,5.39a9.77,9.77,0,0,1-6.28-2.21l1.91-3.2s2.23,1.89,4.09,1.89c.83,0,2.41-.08,2.41-1.64,0-1.22-1.78-1.76-3.77-2.76s-3.18-2.55-3.18-4.3a5.29,5.29,0,0,1,5.45-5.11A9.51,9.51,0,0,1,361.77,85.72Z" class="cls-16" transform="translate(-33.95 -35.86)"/><path d="M425.24,184.06H374.68c-3.3,0-6.73,2.19-6.73,5.49v39c0,3.3,3.43,5.5,6.73,5.5h14.68l-3.53,10.35,12.94-10.35h26.47c3.3,0,6.71-2.2,6.71-5.5v-39C432,186.24,428.54,184.06,425.24,184.06Z" class="cls-41" transform="translate(-33.95 -35.86)"/><path d="M392.53,213.11l1.62,3.25a9,9,0,0,1-5.5,1.54c-4.73,0-9.07-3.85-9.07-8.64s4.32-8.71,9.07-8.71a9,9,0,0,1,5.5,1.54l-1.62,3.25a5.81,5.81,0,0,0-3.29-1c-3.83,0-5.52,2.68-5.52,4.91s1.68,4.93,5.52,4.93A5.81,5.81,0,0,0,392.53,213.11Z" class="cls-16" transform="translate(-33.95 -35.86)"/><path d="M399.77,214.39v-3.65h-3.65v-3.1h3.65V204h3.1v3.65h3.65v3.1h-3.65v3.65Z" class="cls-16" transform="translate(-33.95 -35.86)"/><path d="M413.12,214.39v-3.65h-3.65v-3.1h3.65V204h3.1v3.65h3.65v3.1h-3.65v3.65Z" class="cls-16" transform="translate(-33.95 -35.86)"/><path d="M440.37,343.06H389.8c-3.3,0-6.85-3.14-6.85-6.44v-39c0-3.3,3.55-6.55,6.85-6.55h14.68L401,280.7l12.94,10.35h26.48c3.3,0,5.59,3.25,5.59,6.55v39C446,339.92,443.66,343.06,440.37,343.06Z" class="cls-42" transform="translate(-33.95 -35.86)"/><path d="M412.33,321.84c0,4-2.25,6.08-6.29,6.08a7,7,0,0,1-4.73-1.94l1.47-3.85a5.09,5.09,0,0,0,2.62,1.37c1.32,0,2.33-.81,2.33-2.84V307.34h4.6Z" class="cls-16" transform="translate(-33.95 -35.86)"/><path d="M428.86,308.89,427,312.56a8.34,8.34,0,0,0-4.09-1.4c-1.57,0-2.4.71-2.4,1.81s1.91,1.93,4.21,2.91,4.73,2.87,4.73,5.51c0,4.83-3.67,6.52-7.62,6.52a11.81,11.81,0,0,1-7.59-2.67l2.3-3.87s2.69,2.28,4.95,2.28c1,0,2.92-.1,2.92-2,0-1.47-2.16-2.13-4.56-3.33s-3.85-3.09-3.85-5.19a6.39,6.39,0,0,1,6.59-6.17A11.49,11.49,0,0,1,428.86,308.89Z" class="cls-16" transform="translate(-33.95 -35.86)"/></svg>